<svg xmlns:xlink="http://www.w3.org/1999/xlink" xmlns="http://www.w3.org/2000/svg" xml:space="preserve" xmlns:vectornator="http://vectornator.io" viewBox="0 0 144 56" clip-rule="evenodd" stroke-linecap="round" stroke-linejoin="round">
  <defs>
    <linearGradient y1="37.4219" id="a" x1="5.47361" y2="7.45023" x2="32.4603" gradientUnits="userSpaceOnUse" gradientTransform="translate(1.877 7.096) scale(1.3527)">
      <stop stop-color="#ff5416" offset="0"/>
      <stop stop-color="#ff5115" offset="0.2535"/>
      <stop stop-color="#ff4712" offset="0.461"/>
      <stop stop-color="#ff350e" offset="0.6523"/>
      <stop stop-color="#ff1e08" offset="0.8327"/>
      <stop stop-color="#ff0000" offset="1"/>
    </linearGradient>
    <linearGradient y1="39.3593" id="b" x1="10.7084" y2="21.6452" x2="26.6583" gradientUnits="userSpaceOnUse" gradientTransform="translate(1.877 7.096) scale(1.3527)">
      <stop stop-color="#ff5416" offset="0"/>
      <stop stop-color="#ff5115" offset="0.2535"/>
      <stop stop-color="#ff4712" offset="0.461"/>
      <stop stop-color="#ff350e" offset="0.6523"/>
      <stop stop-color="#ff1e08" offset="0.8327"/>
      <stop stop-color="#ff0000" offset="1"/>
    </linearGradient>
  </defs>
  <g vectornator:layerName="Untitled" fill-rule="evenodd">
    <path d="M86.991 40.884V12.626h5.102v10.23c1.728-1.645 3.954-2.558 6.304-2.558 5.516 0 10.41 4.203 10.41 10.535s-4.894 10.549-10.41 10.549a9.107 9.107 0 0 1-6.553-2.765v2.267H86.99Zm16.715-10.05c0-3.54-2.516-6.015-5.807-6.015-3.207 0-5.682 2.35-5.806 5.765v.25c0 3.539 2.516 6.013 5.806 6.013 3.291 0 5.807-2.474 5.807-6.014Zm7.465 10.05V12.626h5.102v28.258h-5.102Zm12.236 7.327 2.972-7.092-8.074-20.323h5.516l5.143 14.199 5.226-14.199h5.6l-10.95 27.43h-5.433v-.015ZM78.89 20.796v2.558c-1.77-1.936-4.245-3.042-6.788-3.042-5.517 0-10.41 4.203-10.41 10.535 0 6.346 4.893 10.535 10.41 10.535 2.64 0 5.142-1.148 6.954-3.208v2.724h4.451V20.796H78.89Zm-.498 10.037c0 3.498-2.516 6.014-5.806 6.014s-5.807-2.516-5.807-6.014c0-3.497 2.516-6.014 5.807-6.014 3.207 0 5.682 2.392 5.806 5.765v.25Z" fill="#ffffff"/>
    <path d="M27.965 7.096 6.135 47.05l-4.258-2.986L22.075 7.096h5.89Zm.304 0 21.83 39.954 4.258-2.986L34.158 7.096h-5.89Z" fill="url(#a)"/>
    <path d="M49.794 47.285 28.117 30.308 6.439 47.285l4.424 3.097 17.254-13.507L45.37 50.382l4.425-3.097Z" fill="url(#b)"/>
  </g>
</svg>
