<?xml version="1.0" encoding="UTF-8" standalone="no"?> <!-- Created with Vectornator for iOS (http://vectornator.io/) --><!DOCTYPE svg PUBLIC "-//W3C//DTD SVG 1.1//EN" "http://www.w3.org/Graphics/SVG/1.1/DTD/svg11.dtd">
<svg height="100%" style="fill-rule:nonzero;clip-rule:evenodd;stroke-linecap:round;stroke-linejoin:round;" xmlns:xlink="http://www.w3.org/1999/xlink" xmlns="http://www.w3.org/2000/svg" xml:space="preserve" width="100%" xmlns:vectornator="http://vectornator.io" version="1.1" viewBox="0 0 144 56">
<metadata>
<vectornator:setting key="DimensionsVisible" value="1"/>
<vectornator:setting key="PencilOnly" value="0"/>
<vectornator:setting key="SnapToPoints" value="0"/>
<vectornator:setting key="OutlineMode" value="0"/>
<vectornator:setting key="CMYKEnabledKey" value="0"/>
<vectornator:setting key="RulersVisible" value="1"/>
<vectornator:setting key="SnapToEdges" value="0"/>
<vectornator:setting key="GuidesVisible" value="1"/>
<vectornator:setting key="DisplayWhiteBackground" value="0"/>
<vectornator:setting key="doHistoryDisabled" value="0"/>
<vectornator:setting key="SnapToGuides" value="1"/>
<vectornator:setting key="TimeLapseWatermarkDisabled" value="0"/>
<vectornator:setting key="Units" value="Points"/>
<vectornator:setting key="DynamicGuides" value="1"/>
<vectornator:setting key="IsolateActiveLayer" value="0"/>
<vectornator:setting key="SnapToGrid" value="0"/>
</metadata>
<defs/>
<g id="g16" vectornator:layerName="g16">
<g opacity="1">
<path d="M66.544+23.9036C66.544+19.1843+63.4479+15.5974+57.0673+15.5974L44.2304+15.5974L44.2304+40.4026L50.2715+40.4026L50.2715+20.9583L57.1051+20.9583C59.6348+20.9583+60.5404+22.3935+60.5404+24.0545C60.5404+25.7536+59.5967+27.1506+57.0669+27.1506L51.2149+27.1506L59.5211+40.4026L66.3928+40.4026C66.3928+40.4026+60.7291+31.4922+60.7672+31.4922C64.2789+30.6619+66.544+28.2078+66.544+23.9036" fill-rule="evenodd" fill="#00205b" opacity="1"/>
<path d="M34.112+15.5974L40.1531+15.5974L40.1531+15.5974L40.1531+40.403L40.1531+40.403L34.112+40.403L34.112+40.403L34.112+15.5974L34.112+15.5974Z" fill-rule="evenodd" fill="#00205b" opacity="1"/>
<path d="M18.6702+31.0393L13.5865+31.0393L17.3484+23.4128L17.4244+23.4128L25.8814+40.4026L32.8284+40.4026L20.1803+15.5974L14.8193+15.5974L2.17116+40.4026L8.96693+40.4026L11.0157+36.2497L21.1996+36.2497L18.6702+31.0393Z" fill-rule="evenodd" fill="#00205b" opacity="1"/>
<path d="M88.5944+27.5283C90.5203+26.4708+91.5397+24.7721+91.5397+22.2801C91.5397+18.278+88.5569+15.5974+83.5355+15.5974L69.414+15.5974L69.414+40.4026L84.1019+40.4026C89.2364+40.4026+92.5968+37.6463+92.5968+33.4556C92.5965+30.5488+90.9733+28.359+88.5944+27.5283M75.4558+20.8453L83.5355+20.8453C84.7439+20.8453+85.6876+21.789+85.6876+23.0351C85.6876+24.2813+84.7439+25.225+83.4974+25.225L75.4555+25.225L75.4555+20.8453L75.4558+20.8453ZM83.6861+35.1922L75.4555+35.1922L75.4555+30.133L83.6861+30.133C85.1587+30.133+86.2915+31.1905+86.2915+32.625C86.2918+34.0972+85.1587+35.1922+83.6861+35.1922" fill-rule="evenodd" fill="#00205b" opacity="1"/>
<path d="M111.663+29.4536C111.663+33.2186+109.926+35.3056+106.491+35.3056C103.093+35.3056+101.356+33.2186+101.356+29.4536L101.356+15.5974L95.1644+15.5974L95.1644+29.0006C95.1644+36.6652+99.2042+40.9315+106.491+40.9315C113.777+40.9315+117.855+36.6652+117.855+29.0006L117.855+15.5974L111.663+15.5974L111.663+29.4536Z" fill-rule="evenodd" fill="#00205b" opacity="1"/>
<path d="M133.976+25.4515C128.242+24.0552+126.992+23.9218+126.992+22.2797C126.992+21.0094+128.426+20.392+130.843+20.392C134.052+20.392+137.469+21.1971+139.413+22.3932L141.339+17.334C138.847+16.0125+135.185+15.0685+130.918+15.0685C124.537+15.0685+120.95+18.2402+120.95+22.5062C120.95+27.0967+123.63+28.9617+129.785+30.2839C134.577+31.3403+135.599+31.9994+135.599+33.3419C135.599+34.8001+134.278+35.4565+131.673+35.4565C127.897+35.4565+124.48+34.5394+121.743+33.0401L119.893+38.3258C122.876+39.9115+127.331+40.9312+131.824+40.9312C138.091+40.9312+141.829+38.0237+141.829+33.1532C141.83+29.2456+139.302+26.7355+133.976+25.4515" fill-rule="evenodd" fill="#00205b" opacity="1"/>
</g>
</g>
</svg>
