<svg xmlns="http://www.w3.org/2000/svg" xmlns:xlink="http://www.w3.org/1999/xlink" viewBox="0 0 400 141.00185528756955">
  <g fill-rule="evenodd">
    <path d="M32.958 41.429c-.252.136-.458.321-.458.41 0 .088-.157.161-.349.161a.442.442 0 0 0-.432.319c-.046.176-.264.365-.485.42-.254.064-.401.221-.401.431 0 .219-.112.33-.333.33-.218 0-.333.111-.333.322 0 .207-.134.341-.375.375a.472.472 0 0 0-.426.411c-.028.197-.197.396-.375.443-.179.046-.324.204-.324.35 0 .154-.14.266-.33.266-.214 0-.368.147-.435.416-.066.261-.223.417-.42.417-.204 0-.315.117-.315.333 0 .228-.111.334-.349.334a.443.443 0 0 0-.432.318.626.626 0 0 1-.401.401.443.443 0 0 0-.318.432c0 .243-.106.349-.349.349a.443.443 0 0 0-.432.318.626.626 0 0 1-.401.401.443.443 0 0 0-.318.412c0 .19-.142.367-.334.417-.183.048-.333.201-.333.341s-.169.278-.375.307a.474.474 0 0 0-.426.412c-.028.197-.197.396-.375.442-.178.047-.324.199-.324.339s-.169.278-.375.307a.474.474 0 0 0-.426.412c-.028.197-.197.396-.375.442-.178.047-.324.199-.324.339s-.169.278-.375.307a.474.474 0 0 0-.428.429c-.034.241-.168.375-.375.375-.211 0-.322.115-.322.333 0 .227-.111.333-.349.333a.443.443 0 0 0-.434.327c-.048.182-.328.406-.637.508-.616.203-.747.427-.747 1.278 0 .445.08.606.334.672.183.048.333.225.333.394 0 .224.167.334.625.41.915.152 1.049.212 1.002.448-.029.14.196.231.654.264.573.042.708.117.75.417.043.299.178.375.744.416.519.038.712.131.776.375.066.255.231.325.767.325.558 0 .682.057.682.315 0 .359.31.518 1.014.518.304 0 .486.087.486.232 0 .271.356.435.946.435.272 0 .448.111.502.318.084.321.507.509 1.158.513.214.001.39.135.442.335.066.25.228.334.646.334.374 0 .626.107.762.325.112.179.469.375.795.436.327.061.668.253.762.43.094.176.261.308.371.294.576-.072.919.046.996.343.061.234.285.361.77.438.382.061.683.202.683.32 0 .259.374.414.995.414.326 0 .493.1.554.333.077.297.227.333 1.368.333s1.291-.036 1.368-.333c.061-.233.228-.333.554-.333.636 0 .995-.157.995-.435 0-.137.172-.232.424-.232.233 0 .612-.187.841-.417.253-.252.607-.416.899-.416.287 0 .574-.13.707-.319.123-.176.499-.371.837-.435.39-.073.65-.23.714-.43.072-.228.257-.316.663-.316.357 0 .642-.113.78-.308.12-.17.491-.359.825-.421.406-.076.635-.222.692-.442.068-.258.229-.329.749-.329.523 0 .682-.071.75-.334.067-.256.228-.333.691-.333.489 0 .632-.078.761-.417.133-.349.267-.416.829-.416.553 0 .671-.057.671-.324 0-.262.136-.334.708-.375.589-.043.718-.115.762-.426.045-.318.155-.375.724-.375.53 0 .689-.07.758-.334.068-.263.227-.333.75-.333.519 0 .681-.071.748-.328a.68.68 0 0 1 .401-.428c.685-.217.434-1.718-.342-2.048-.362-.154-.692-.411-.734-.571-.043-.16-.234-.292-.426-.292-.238 0-.349-.106-.349-.333 0-.222-.111-.333-.333-.333-.245 0-.334-.111-.334-.417 0-.333-.083-.417-.416-.417-.306 0-.417-.089-.417-.333 0-.222-.111-.333-.333-.333-.245 0-.334-.111-.334-.417 0-.333-.083-.417-.416-.417-.306 0-.417-.089-.417-.333 0-.222-.111-.333-.333-.333-.228 0-.334-.111-.334-.349a.443.443 0 0 0-.318-.432.626.626 0 0 1-.401-.401.443.443 0 0 0-.432-.318c-.243 0-.349-.106-.349-.349a.443.443 0 0 0-.318-.432.626.626 0 0 1-.401-.401.443.443 0 0 0-.432-.318c-.243 0-.349-.106-.349-.349a.443.443 0 0 0-.318-.432.626.626 0 0 1-.401-.401.443.443 0 0 0-.432-.318c-.238 0-.349-.106-.349-.334 0-.222-.111-.333-.333-.333-.244 0-.333-.111-.333-.417 0-.333-.084-.416-.417-.416-.306 0-.417-.089-.417-.334 0-.222-.111-.333-.333-.333-.244 0-.333-.111-.333-.417 0-.333-.084-.416-.417-.416-.306 0-.417-.089-.417-.334 0-.216-.111-.333-.315-.333-.197 0-.354-.156-.42-.416-.057-.228-.159-.407-.226-.397-.28.043-.537-.029-.519-.145.057-.364-.052-.542-.334-.542a.433.433 0 0 1-.394-.308c-.154-.588-7.152-.814-8.167-.263M12.167 62.171c0 .089.093.165.208.167.115.003.077.082-.085.176-.161.094-.367.125-.458.069-.091-.057-.165-.023-.165.074s-.112.176-.249.176-.342.15-.457.334c-.114.183-.34.333-.501.333-.182 0-.293.126-.293.332 0 .182-.15.426-.334.54-.183.115-.333.298-.333.407 0 .109-.146.245-.325.302a.74.74 0 0 0-.428.43c-.058.18-.174.284-.259.232-.085-.053-.155-.012-.155.09 0 .103-.086.133-.192.068-.106-.066-.148-.047-.093.042.125.202-.622 1.094-.782.934-.064-.064-.067.012-.007.17.066.171.031.286-.086.286-.255 0-.605.353-.664.669-.152.809-.136 6.331.018 6.331.097 0 .132.113.079.25-.052.138-.018.25.076.25s.117.087.052.193c-.077.125-.045.147.092.062.123-.076.27-.035.353.099.078.126.232.23.341.23.109 0 .219.14.244.312.025.171.228.509.45.75s.45.57.507.731c.057.161.193.274.302.25.11-.024.298.144.419.373.127.243.334.394.494.363.174-.034.244.028.191.167-.047.122.018.318.144.436s.229.165.229.104c0-.061.114-.016.254.1s.215.25.168.297c-.17.17.275.511.536.411.195-.075.239-.031.164.165-.056.146.006.356.138.466.132.109.24.143.24.075 0-.069.114-.03.254.086.14.116.219.246.177.289-.145.145.316.5.539.414.125-.048.208.016.189.146-.067.48.017.627.325.568.208-.04.347.053.404.272a.665.665 0 0 0 .433.423c.19.05.346.196.346.325s.188.306.418.394c.229.087.398.248.375.357-.024.109.114.281.306.381.191.101.329.313.306.472-.031.209.074.289.377.289.269 0 .391.076.34.21-.082.213.279.667.419.526.043-.042.173.037.289.177.116.14.155.254.086.254-.068 0-.034.108.075.24.11.132.32.194.466.138.186-.071.239-.03.176.136-.09.234.257.706.408.555.043-.042.173.037.289.177.116.14.161.254.1.254s-.014.103.104.229.321.188.452.138c.166-.064.207-.01.136.175-.102.265.242.705.416.531.05-.05.239.098.421.329.181.231.377.373.435.315.058-.058.106-.018.106.09s.223.43.496.716c.274.286.449.597.391.691-.058.094-.026.121.072.061.246-.152 1.609 1.146 1.459 1.388-.069.112-.024.18.107.162.436-.06.66.01.558.175-.057.092-.024.167.073.167.098 0 .177.112.177.25 0 .137.115.25.255.25.141 0 .299.112.351.25.053.137.201.25.328.25.208 0 .303.198.256.531-.009.063.132.162.314.22.182.058.424.268.538.468.115.2.321.364.458.364s.24.131.227.292c-.013.16.049.291.138.291.263 0 1.468 1.299 1.468 1.582 0 .144.113.305.25.358.138.053.25.204.25.335 0 .132.094.228.209.213.464-.06.625.028.625.346 0 .222.111.333.333.333.183 0 .339.094.346.208.042.681.321 1.304.321.716 0-.246.043-.262.25-.091.137.114.25.311.25.437 0 .312 1.554.316 1.812.005.15-.18.314-25.99.172-27.025a2.622 2.622 0 0 1 .011-.482c.026-.242-.046-.294-.314-.224-.191.05-.388.027-.437-.052-.048-.079-.187-.106-.308-.06-.121.047-.346-.107-.499-.34-.17-.26-.434-.425-.678-.425-.569 0-.917-.163-.831-.389.046-.123-.146-.206-.52-.225-.419-.022-.694-.159-.937-.469-.201-.255-.446-.399-.587-.345-.28.108-.907-.185-1.101-.513-.073-.124-.355-.226-.625-.226-.326 0-.492-.084-.492-.25a.25.25 0 0 0-.25-.25c-.137 0-.25-.075-.25-.167 0-.091-.267-.166-.593-.166-.326 0-.553-.064-.505-.143.106-.171-.62-.524-1.08-.524-.186 0-.408-.175-.512-.402-.15-.329-.286-.393-.747-.35-.401.037-.563-.016-.563-.186 0-.132-.131-.287-.291-.346-.161-.058-.505-.281-.764-.495-.26-.215-.542-.347-.625-.296-.084.052-.153.028-.153-.054s-.169-.134-.375-.116c-.393.035-1.292-.4-1.292-.624 0-.072-.225-.131-.5-.131-.389 0-.5-.074-.5-.333 0-.201-.115-.339-.291-.348-.825-.039-1.078-.13-1.318-.472-.19-.272-.367-.347-.647-.277-.287.072-.473-.014-.725-.334-.186-.237-.417-.382-.512-.323-.095.058-.173.023-.173-.08 0-.102-.077-.139-.171-.08-.094.058-.16.043-.147-.032.062-.356-.035-.575-.224-.509-.115.04-.377.011-.583-.065-.228-.084-.375-.075-.375.024" fill="#5d9ef7"/>
    <path d="M11.818 62.176c-.33.204.059.577.399.383.198-.113.206-.182.041-.334a.361.361 0 0 0-.44-.049m.845.01c.337.134.367.193.166.32-.135.086-.164.157-.065.158.307.004.409-.206.214-.44a.645.645 0 0 0-.457-.213c-.167.006-.112.073.142.175m47.339.045a.634.634 0 0 0-.169.386c0 .177-.399.266-.929.205-.053-.006-.23.144-.395.334-.164.189-.424.344-.577.344-.153 0-.483.151-.732.335-.25.185-.629.369-.844.411-.485.093-.882.41-.761.606.05.081-.138.148-.418.148-.281 0-.51.079-.51.177 0 .097-.087.123-.192.057-.106-.065-.282.004-.392.154-.19.261-.632.406-1.319.433-.176.007-.273.059-.216.116.189.189-.343.555-.866.595-.325.024-.55.149-.61.337-.052.164-.202.307-.333.319a3.13 3.13 0 0 0-.406.062 3.278 3.278 0 0 1-.405.063c-.131.011-.286.17-.345.354-.074.233-.252.333-.594.333-.269 0-.634.145-.81.321-.177.177-.548.357-.824.401-.638.101-.855.237-.855.538 0 .203-.367.293-.929.229-.053-.006-.222.132-.375.307-.274.311-1.117.632-1.446.551-.092-.023-.114.011-.05.076.206.205-.298.55-.884.606-.311.03-.541.121-.51.202.078.207-.317.43-.764.433-.207.002-.518.145-.692.32-.174.174-.474.366-.666.427-.535.17-.529-.026-.48 14.422l.046 13.584 1.028.049c.904.043 1.041.009 1.134-.283a.749.749 0 0 1 .43-.436.483.483 0 0 0 .325-.425c0-.211.115-.322.333-.322.222 0 .333-.111.333-.333 0-.224.111-.334.338-.334.207 0 .399-.161.496-.418.088-.229.253-.398.367-.375.114.024.233-.118.263-.316.034-.217.217-.4.463-.462.223-.056.407-.195.407-.308 0-.114.15-.301.333-.415.183-.115.333-.32.333-.457s.086-.249.191-.249c.26 0 1.305-1.033 1.308-1.291.001-.115.151-.209.335-.209.194 0 .333-.111.333-.265 0-.146.151-.305.335-.354.184-.048.38-.266.435-.484.055-.218.2-.397.322-.397s.32-.136.44-.302c.12-.167.35-.352.511-.412.161-.061.284-.168.272-.239-.058-.352.044-.547.284-.547.146 0 .305-.15.353-.333.048-.183.153-.343.234-.354a10.7 10.7 0 0 1 .356-.042c.114-.011.208-.133.208-.271 0-.137.169-.324.375-.414.206-.091.375-.297.375-.459 0-.176.125-.293.314-.293.177 0 .353-.151.404-.346a.676.676 0 0 1 .434-.436c.19-.049.307-.15.261-.224-.108-.175.406-.689.581-.581.074.046.175-.072.225-.261a.673.673 0 0 1 .435-.434c.196-.051.346-.227.346-.404 0-.286.158-.383.439-.273.058.023.171-.134.251-.349.079-.215.294-.43.477-.477.184-.049.333-.228.333-.401 0-.189.117-.314.294-.314.161 0 .368-.169.458-.375.091-.207.277-.375.415-.375.137 0 .259-.094.271-.209.011-.114.03-.283.041-.375.012-.091.171-.166.354-.166.223 0 .334-.111.334-.334 0-.183.104-.333.23-.333.127 0 .354-.187.504-.417.15-.229.384-.416.52-.416.135 0 .246-.15.246-.334 0-.215.111-.333.314-.333.177 0 .353-.15.404-.346a.673.673 0 0 1 .434-.435c.189-.05.307-.151.261-.225-.108-.175.406-.689.581-.581.074.046.175-.071.224-.261a.676.676 0 0 1 .436-.434c.19-.05.346-.226.346-.393 0-.166.138-.346.306-.4.169-.053.405-.28.524-.503.12-.223.3-.391.402-.372.18.032.209-.066.248-.842.014-.257.124-.375.353-.375.183 0 .336-.018.34-.041l.1-.709c.052-.366.233-.797.403-.957.525-.496.425-4.959-.111-4.959-.184 0-.333-.518-.204-.709.086-.126-.402-.786-.525-.71-.193.119-.329-.117-.373-.65-.02-.237-.099-.431-.176-.431-.077 0-.087-.087-.021-.193.074-.12.045-.147-.078-.071-.126.078-.262-.063-.376-.39-.115-.33-.291-.513-.495-.513-.206 0-.317-.117-.317-.333 0-.294-.165-.406-.525-.359-.06.008-.155-.17-.212-.396-.056-.225-.157-.402-.225-.391-.366.056-.538-.057-.538-.354 0-.247-.111-.334-.427-.334-.234 0-.385-.066-.335-.147.263-.426-1.508-.85-1.903-.455m-44.301 1.595c.23.368.391.322.241-.069-.054-.141-.176-.257-.272-.257-.109 0-.098.12.031.326m-5.688.03c-.007.149-.163.311-.346.359-.22.057-.329.221-.321.478.009.248.049.301.11.146.052-.134.245-.365.427-.512.182-.148.289-.375.237-.506-.073-.186-.097-.179-.107.035m-1.402 1.255c-.061.061-.109.267-.106.458.005.344.007.344.194.014.104-.183.271-.388.37-.455.114-.077.083-.124-.083-.125-.145-.002-.314.047-.375.108m9.722.016c0 .069.161.227.358.349.316.198.345.192.25-.056a1.906 1.906 0 0 1-.108-.35c0-.039-.112-.07-.25-.07-.137 0-.25.057-.25.127m-10.166.688c0 .113-.075.158-.167.102-.092-.057-.167.03-.167.192 0 .278.018.279.282.014.155-.155.23-.334.167-.397-.064-.063-.115-.023-.115.089m-.834.852c-.137.089-.184.162-.104.164.08.001.052.115-.062.252-.144.173-.15.25-.021.25.103 0 .187-.069.187-.154 0-.086.118-.273.262-.417.29-.29.129-.348-.262-.095m-.889.777c-.061.062-.11.343-.108.625.002.367.045.447.151.279.082-.129.11-.335.063-.458s-.003-.223.099-.223c.101 0 .184-.075.184-.167 0-.19-.223-.221-.389-.056m17.889.723c.323.208.5.208.5 0 0-.092-.168-.166-.375-.164-.303.002-.327.033-.125.164m1.5.666c0 .092.113.167.25.167.138 0 .25-.075.25-.167 0-.091-.112-.166-.25-.166-.137 0-.25.075-.25.166m1.607.917c.052.137.163.25.244.25.082 0 .149-.113.149-.25 0-.138-.11-.25-.244-.25-.15 0-.208.098-.149.25m4.659 2.333c.15.23.358.416.462.414.132-.001.135-.039.01-.125-.098-.067-.227-.253-.286-.414-.059-.16-.187-.291-.284-.291-.097 0-.053.186.098.416m1.647 15c0 6.875.02 9.712.046 6.304.025-3.407.025-9.032 0-12.5-.026-3.467-.046-.679-.046 6.196M7.833 76.403c0 .162.15.334.334.382.183.048.333.187.333.308s.068.263.151.314c.309.191-.03-.559-.417-.922-.352-.331-.401-.341-.401-.082m6.71 6.586c.029.285.176.441.5.527.268.072.42.059.365-.03-.052-.084-.205-.153-.34-.153-.135 0-.317-.168-.405-.375-.159-.374-.16-.374-.12.031m5.962 6.068c-.003.169.138.345.313.391a.62.62 0 0 1 .401.401c.046.175.162.318.258.318.097 0 .05-.216-.107-.49-.154-.269-.312-.457-.35-.419-.039.039-.169-.06-.29-.219-.207-.272-.22-.271-.225.018m2.162 2.198c0 .141.115.3.257.354.377.145.396.015.048-.317-.258-.247-.305-.253-.305-.037m2.203 2.162c.033.217.194.346.465.37.242.022.311-.006.165-.068a1.488 1.488 0 0 1-.465-.371c-.191-.235-.209-.228-.165.069m.88 1.083c.057.092.211.167.343.167a.24.24 0 0 1 .24.24c0 .132.075.286.167.343.297.184.176-.241-.167-.583-.342-.343-.767-.464-.583-.167m1.5 1.5a.418.418 0 0 0 .324.167c.121 0 .26.15.308.333.048.183.217.333.377.333.224 0 .171-.113-.233-.5-.497-.475-.996-.689-.776-.333m3.917 3.962c0 .185.112.379.25.432.146.056.25.002.25-.129 0-.123-.113-.318-.25-.432-.208-.172-.25-.151-.25.129m2.39.127c-.107.23-.123.411-.036.411.185 0 .368-.419.286-.656-.031-.091-.144.019-.25.245" fill="#0c54bc"/>
    <path d="M353 45.324c0 .261-.136.333-.708.375-.589.042-.718.114-.762.426-.035.248-.168.375-.391.375a.443.443 0 0 0-.42.318.622.622 0 0 1-.401.401.438.438 0 0 0-.318.395c0 .172-.145.436-.321.587-.691.591-.728 4.976-.047 5.429.202.134.368.385.368.557 0 .198.118.313.322.313.207 0 .341.134.375.375a.472.472 0 0 0 .428.428c.241.034.375.168.375.375 0 .216.115.322.349.322.202 0 .384.133.431.315.199.76 5.053.758 5.053-.001 0-.256.126-.314.683-.314.531 0 .7-.07.765-.318a.622.622 0 0 1 .401-.401.443.443 0 0 0 .318-.42c0-.223.127-.356.375-.391.312-.044.384-.173.426-.762.042-.572.114-.708.375-.708.501 0 .5-4.152 0-4.283-.233-.061-.339-.256-.375-.692-.037-.442-.153-.653-.426-.773-.206-.09-.375-.297-.375-.458a.285.285 0 0 0-.294-.294c-.161 0-.368-.169-.458-.375-.12-.273-.331-.389-.773-.426-.436-.036-.631-.142-.692-.375-.131-.5-4.283-.501-4.283 0M88.135 48.049c-1.022.243-.973-.994-.927 23.379l.042 22.322 12.53.043c12.416.042 12.531.039 12.636-.292.092-.287.252-.334 1.139-.334.907 0 1.071-.051 1.345-.417.252-.335.458-.417 1.056-.417.602 0 .758-.063.829-.333a.446.446 0 0 1 .412-.333c.468 0 .97-.305.97-.59 0-.149.162-.244.416-.244.263 0 .417-.094.417-.254 0-.14.177-.321.394-.404.217-.082.434-.305.484-.496.05-.19.21-.346.356-.346s.266-.11.266-.244.149-.324.332-.422c.209-.111.372-.424.438-.839.08-.498.183-.661.418-.661.258 0 .312-.128.312-.739 0-.639.051-.745.375-.791.345-.049.379-.153.424-1.277.038-.937.126-1.306.375-1.573.495-.532.489-3.849-.007-4.159-.264-.165-.334-.389-.334-1.071 0-1.078-.116-1.39-.517-1.39-.259 0-.316-.124-.316-.683 0-.542-.068-.7-.333-.769-.184-.048-.334-.21-.334-.359 0-.416-.744-1.189-1.144-1.189-.268 0-.356-.103-.356-.417 0-.297-.09-.417-.314-.417-.173 0-.352-.149-.401-.333a.443.443 0 0 0-.436-.333c-.238 0-.349-.106-.349-.334 0-.242-.111-.333-.405-.333-.251 0-.444-.12-.506-.315-.106-.335-.52-.5-1.339-.535-.283-.013-.373-.055-.208-.098.16-.042.292-.221.292-.398 0-.185.114-.321.272-.321.149 0 .396-.142.547-.317.151-.174.46-.343.686-.375a.81.81 0 0 0 .576-.433c.09-.206.291-.375.445-.375.172 0 .32-.181.383-.467.057-.257.25-.574.43-.704.18-.129.327-.407.327-.615 0-.23.101-.38.254-.38.273 0 .58-.636.58-1.201 0-.19.131-.442.291-.559.559-.408.517-7.074-.045-7.074-.176 0-.246-.187-.246-.655 0-.844-.256-1.511-.58-1.511-.159 0-.254-.155-.254-.417 0-.306-.089-.417-.333-.417-.225 0-.333-.111-.333-.343 0-.491-1.401-1.823-1.918-1.823-.311 0-.416-.088-.416-.349a.443.443 0 0 0-.318-.432.626.626 0 0 1-.401-.401c-.064-.248-.234-.318-.765-.318-.558 0-.682-.058-.682-.316 0-.361-.311-.518-1.029-.518-.276 0-.693-.15-.926-.333-.323-.255-.676-.333-1.491-.333-.8 0-1.181-.083-1.519-.329-.483-.352-20.188-.615-21.567-.289m38.706-.052c-1.082.266-1.013-1.39-.967 23.244l.043 22.509 5.405.044c4.214.034 5.435-.002 5.539-.167.074-.116.135-10.231.136-22.478L137 48.882l-.409-.441-.408-.441h-3.904c-2.147 0-4.12-.032-4.383-.072-.264-.04-.738-.009-1.055.069M212.75 48l-.667.083-.042 22.875-.042 22.875h5.399c4.77 0 5.411-.03 5.501-.263.055-.145.101-2.658.101-5.584 0-5.208.007-5.319.333-5.319.245 0 .334-.111.334-.417 0-.263.094-.417.255-.417.14 0 .309-.131.374-.291.086-.209.143-.102.203.375.068.533.159.677.459.72.272.038.375.165.375.458 0 .29.092.405.324.405.253 0 .334.135.375.625.038.459.151.669.426.79.207.09.375.262.375.381 0 .12.142.37.315.556.173.186.359.558.413.826.056.284.204.489.351.489.143 0 .255.145.255.33 0 .213.147.367.416.435.322.08.417.212.417.577 0 .271.132.565.309.69.171.12.363.386.428.593.069.218.253.375.441.375.229 0 .322.115.322.403 0 .567.165.93.423.93.121 0 .244.169.274.375a.472.472 0 0 0 .428.428c.303.043.375.16.375.605 0 .907-.034.902 6.464.957l6.036.052v-1.049c0-.825-.073-1.126-.34-1.413-.187-.201-.381-.528-.431-.728-.05-.199-.234-.4-.41-.446a.442.442 0 0 1-.319-.432c0-.23-.106-.349-.312-.349-.234 0-.338-.163-.417-.655-.072-.453-.208-.689-.438-.762a.489.489 0 0 1-.333-.443.444.444 0 0 0-.318-.421c-.205-.054-.356-.291-.427-.669-.072-.383-.223-.616-.433-.671-.205-.054-.322-.229-.322-.482 0-.286-.093-.397-.333-.397-.207 0-.334-.111-.334-.293 0-.162-.15-.387-.333-.502-.183-.114-.333-.351-.333-.526 0-.539-.188-.846-.518-.846-.22 0-.316-.118-.316-.391 0-.214-.143-.52-.318-.678a1.627 1.627 0 0 1-.417-.682c-.054-.216-.249-.441-.432-.499-.183-.058-.333-.25-.333-.428 0-.203-.114-.322-.312-.322-.234 0-.338-.163-.417-.655-.072-.453-.207-.688-.438-.761-.183-.059-.333-.251-.333-.428 0-.211-.115-.322-.333-.322-.247 0-.333-.111-.333-.428 0-.559-.282-1.072-.59-1.072-.149 0-.244-.162-.244-.417 0-.306-.089-.417-.333-.417-.218 0-.333-.111-.333-.321 0-.202-.141-.349-.375-.394l-.375-.073.375-.022c.256-.016.375-.128.375-.356 0-.223.111-.334.333-.334.215 0 .333-.111.333-.314 0-.177.151-.353.346-.404a.677.677 0 0 0 .436-.436c.05-.19.193-.346.318-.346s.274-.187.332-.416c.057-.229.197-.417.31-.417.218 0 .592-.688.592-1.091 0-.133.15-.242.333-.242.244 0 .333-.111.333-.417 0-.312.088-.417.349-.417a.443.443 0 0 0 .436-.333c.049-.184.228-.333.401-.333.224 0 .314-.12.314-.417 0-.306.089-.417.334-.417.183 0 .333-.075.333-.167 0-.093.188-.331.417-.53.229-.2.416-.462.416-.583 0-.121.15-.37.334-.553.183-.183.333-.478.333-.655 0-.207.134-.341.375-.375a.472.472 0 0 0 .428-.428c.034-.241.168-.375.375-.375.205 0 .322-.115.322-.316 0-.197.156-.354.417-.419.269-.068.416-.222.416-.435 0-.219.113-.33.334-.33.222 0 .333-.111.333-.334 0-.183.11-.333.244-.333.546 0 .869-2.32.389-2.8-.55-.551-11.633-.208-11.633.36 0 .129-.148.273-.329.32-.233.061-.36.285-.438.77-.082.518-.185.683-.421.683-.197 0-.312.119-.312.322 0 .207-.134.341-.375.375a.472.472 0 0 0-.428.428c-.034.241-.168.375-.375.375-.211 0-.322.115-.322.334 0 .183-.086.333-.191.333-.237 0-1.309 1.085-1.309 1.325 0 .171-.102.301-1.042 1.322-.252.274-.458.607-.458.74 0 .132-.15.28-.333.328a.443.443 0 0 0-.334.436c0 .243-.106.349-.349.349a.444.444 0 0 0-.432.318.62.62 0 0 1-.401.401.443.443 0 0 0-.318.432c0 .234-.106.349-.321.349-.202 0-.349.141-.394.375-.04.206-.083-4.363-.095-10.153-.022-10.273-.05-11.055-.389-11.055-.09 0-.288-.147-.441-.325-.279-.328-7.47-.589-9.443-.342m67.479-.033c-.476.035-.809.18-1.083.472l-.396.421-.043 22.054c-.029 14.28.014 22.208.121 22.489l.166.435 5.378-.044 5.378-.044.043-10.655c.042-10.399.051-10.663.375-10.965.185-.173.332-.525.332-.796 0-.296.163-.648.417-.902.229-.229.416-.57.416-.758 0-.28.107-.341.599-.341.444 0 .62-.08.68-.31.145-.552 5.388-.629 5.388-.08 0 .127.188.303.417.39.229.087.416.273.416.413 0 .143.146.254.334.254.244 0 .333.111.333.417 0 .305.089.416.333.416.33 0 .334.112.336 11.125.001 6.119.047 11.294.103 11.5l.1.375H311.335l-.042-12.875-.043-12.875-.375-.053c-.344-.049-.375-.141-.375-1.114 0-.914-.046-1.075-.333-1.166-.258-.082-.334-.252-.334-.75 0-.486-.077-.669-.316-.744-.198-.063-.357-.322-.427-.697-.074-.391-.223-.625-.434-.68a.445.445 0 0 1-.323-.414.444.444 0 0 0-.327-.415.677.677 0 0 1-.428-.401c-.076-.238-.259-.316-.744-.316-.541 0-.653-.06-.697-.375a.474.474 0 0 0-.429-.428c-.241-.034-.375-.168-.375-.375 0-.27-.12-.322-.75-.322-.623 0-.75-.053-.75-.314 0-.396-.432-.514-1.898-.517-.886-.001-1.196-.067-1.355-.285-.353-.482-3.261-.536-3.728-.069-.268.268-.561.353-1.227.355-.951.002-1.176.093-1.34.539-.078.211-.292.291-.78.291-.561 0-.672.055-.672.334 0 .257-.111.333-.488.333-.472 0-1.012.362-1.012.679 0 .085-.15.154-.333.154-.206 0-.334.112-.335.292 0 .16-.188.378-.416.484l-.416.193V48.974l-.487-.487c-.34-.34-.654-.488-1.042-.49-.304-.002-2.092-.021-3.971-.042s-3.726-.016-4.104.012m-172.896 9.849c0 .359.311.517 1.014.517.375 0 .486.076.486.334 0 .219.111.333.324.333.262 0 .334.136.375.708.043.589.115.718.426.762.599.085.566 2.356-.041 2.834-.229.18-.417.477-.417.659a.447.447 0 0 1-.333.419c-.184.048-.334.206-.334.352 0 .152-.138.266-.322.266a.474.474 0 0 0-.421.313c-.066.206-.318.348-.742.415-.451.073-.668.202-.729.437-.085.324-.223.335-4.187.335h-4.099v-9h4.5c4.304 0 4.5.014 4.5.316m48.334.624c-.229.046-.493.181-.586.3-.111.142-.739.242-1.819.289-1.471.064-1.676.112-1.893.438-.19.286-.406.366-.988.366-.605 0-.762.063-.833.334-.068.261-.227.333-.734.333-.579 0-.647.044-.647.417 0 .376-.066.416-.683.416-.542 0-.7.069-.769.334-.048.183-.227.333-.398.333-.192 0-.35.159-.415.417-.066.26-.223.416-.42.416-.204 0-.315.118-.315.334 0 .227-.111.333-.349.333a.444.444 0 0 0-.435.328.68.68 0 0 1-.401.428.476.476 0 0 0-.315.422c0 .205-.115.322-.316.322-.33 0-.518.307-.518.846 0 .175-.15.412-.333.526-.249.155-.333.389-.333.918 0 .599-.053.71-.334.71-.283 0-.333.111-.333.738 0 .639-.051.746-.375.792-.338.048-.38.158-.425 1.127-.04.838-.122 1.124-.375 1.301-.504.353-.504 9.231 0 9.584.259.182.335.462.375 1.385.046 1.054.083 1.161.425 1.21.324.046.375.152.375.791 0 .628.05.739.333.739.279 0 .334.111.334.682 0 .528.071.701.314.764.216.057.348.292.421.752.076.472.204.694.436.755.181.047.329.222.329.388 0 .167.146.349.324.406a.737.737 0 0 1 .428.428.484.484 0 0 0 .426.325c.211 0 .322.115.322.333 0 .224.111.333.337.333.207 0 .399.162.496.417.128.336.273.417.746.417.476 0 .587.063.587.333 0 .267.111.333.556.333.421 0 .608.101.778.417.185.346.345.417.944.417.611 0 .722.051.722.333 0 .293.111.333.908.333.752 0 .952.065 1.169.375.49.7 9.453.654 9.676-.05.087-.274.259-.325 1.108-.325.855 0 1.016-.048 1.089-.324.064-.244.256-.337.776-.375.571-.042.7-.116.744-.426.045-.318.156-.375.724-.375.524 0 .689-.07.756-.324.046-.178.245-.347.442-.375a.474.474 0 0 0 .412-.426c.034-.241.168-.375.375-.375.21 0 .321-.115.321-.333 0-.222.111-.333.334-.333.218 0 .333-.111.333-.322 0-.207.134-.341.375-.375a.472.472 0 0 0 .428-.428c.034-.241.168-.375.375-.375.212 0 .322-.115.322-.338 0-.206.162-.399.417-.496.282-.107.416-.285.416-.553 0-.217.15-.531.334-.697.223-.202.333-.513.333-.942 0-.517.061-.641.314-.641.368 0 .514-.43.517-1.522.002-.631.063-.788.336-.86.312-.081.333-.227.333-2.284 0-1.946.038-2.247.333-2.622.184-.233.334-.628.334-.879 0-.25-.15-.645-.334-.878-.295-.376-.333-.677-.333-2.622 0-2.057-.021-2.203-.333-2.285-.281-.073-.334-.227-.334-.97 0-1.099-.114-1.411-.517-1.411-.263 0-.316-.126-.316-.75 0-.528-.099-.849-.333-1.084-.184-.183-.334-.482-.334-.663 0-.213-.147-.367-.416-.435-.261-.065-.417-.222-.417-.42 0-.204-.117-.315-.333-.315-.259 0-.334-.111-.334-.493 0-.272-.117-.591-.261-.709a8.13 8.13 0 0 1-.614-.59c-.193-.206-.45-.375-.571-.375-.121 0-.22-.11-.22-.244 0-.289-.505-.589-.989-.589-.234 0-.345-.108-.345-.333 0-.24-.111-.334-.397-.334-.255 0-.428-.117-.483-.328-.061-.234-.284-.361-.77-.438-.382-.061-.683-.202-.683-.32 0-.294-.39-.414-1.347-.414-.692 0-.82-.049-.82-.314 0-.401-.432-.514-1.987-.517-.883-.001-1.318-.076-1.523-.262-.297-.268-2.793-.473-3.656-.3m35.688.205c-.304.304-.552.355-1.73.357-1.693.003-2.125.108-2.125.517 0 .274-.132.314-1.016.314-.875 0-1.027.046-1.102.334-.057.218-.228.333-.492.333-.223 0-.593.188-.822.417-.229.229-.563.416-.742.416-.215 0-.326.114-.326.334 0 .225-.111.333-.344.333-.485 0-.989.3-.989.589 0 .137-.154.244-.349.244a.443.443 0 0 0-.436.334c-.048.183-.148.333-.223.333-.299 0-.659.552-.659 1.012 0 .377-.076.488-.333.488-.216 0-.334.111-.334.315 0 .198-.156.355-.416.42-.245.062-.417.224-.417.395 0 .159-.15.383-.333.498-.244.152-.334.389-.334.881 0 .495-.11.783-.416 1.089-.35.35-.417.575-.417 1.39 0 .833-.048.986-.333 1.06-.325.085-.334.228-.334 5.785 0 5.558.009 5.7.334 5.785.268.071.333.228.333.807 0 .902.248 1.575.579 1.575.184 0 .254.178.254.641 0 .429.11.74.334.942.183.166.333.507.333.758 0 .348.099.481.417.561.269.067.416.221.416.435 0 .215.112.33.322.33.207 0 .341.134.375.375a.472.472 0 0 0 .428.428c.241.034.375.168.375.375 0 .211.115.322.334.322.222 0 .333.111.333.333 0 .218.111.333.322.333.207 0 .341.134.375.375a.472.472 0 0 0 .411.426c.197.028.396.197.443.375.066.255.231.324.767.324.616 0 .682.04.682.417 0 .381.062.417.731.417.59 0 .747.064.817.333.075.287.228.333 1.092.333.849 0 1.02.051 1.107.325.224.704 9.186.75 9.676.05.213-.304.42-.375 1.102-.375.692 0 .854-.057.924-.324.064-.244.257-.337.776-.375.572-.042.701-.116.745-.426.046-.324.153-.375.792-.375.627 0 .738-.05.738-.333 0-.225.111-.333.341-.333.187 0 .528-.188.757-.417.23-.229.486-.417.57-.417.208 0 .499-.569.499-.977 0-.218.129-.351.375-.386a.472.472 0 0 0 .428-.428c.034-.241.168-.375.375-.375.223 0 .322-.116.322-.377 0-.207.143-.466.318-.575.175-.11.372-.445.439-.746.066-.301.239-.635.385-.742.191-.14.284-.549.33-1.455.053-1.058.114-1.277.379-1.361.482-.153.476-3.147-.007-3.405-.2-.107-2.096-.173-5.004-.173h-4.682l-.166.437c-.091.24-.314.625-.496.855-.188.24-.331.678-.333 1.022-.002.423-.126.72-.416.995-.228.216-.414.573-.414.792 0 .288-.093.399-.333.399-.219 0-.334.111-.334.324 0 .262-.135.334-.708.375-.589.043-.717.115-.762.426-.086.611-2.885.575-3.166-.041-.148-.326-.314-.417-.757-.417-.428 0-.589-.082-.655-.333-.048-.184-.195-.334-.326-.334s-.324-.187-.429-.416c-.104-.229-.304-.417-.443-.417-.143 0-.254-.146-.254-.333 0-.223-.111-.334-.333-.334-.257 0-.333-.111-.333-.486 0-.703-.159-1.014-.518-1.014-.503 0-.49-8.915.013-9.047.232-.06.36-.283.436-.755.073-.459.205-.694.421-.751.243-.064.314-.236.314-.764 0-.582.052-.683.349-.683a.443.443 0 0 0 .436-.333c.066-.251.228-.333.655-.333.444 0 .609-.091.757-.417.263-.577 3.867-.662 4.015-.094.056.212.291.361.687.435.369.069.601.208.601.36 0 .136.143.284.318.33a.637.637 0 0 1 .405.413.658.658 0 0 0 .432.421c.295.077.345.22.345.978 0 .68.074.939.314 1.108.172.12.342.368.377.551.064.33 8.752.622 9.934.333.54-.131.573-2.687.042-3.168-.267-.242-.333-.514-.333-1.358 0-.876-.057-1.092-.334-1.264-.199-.125-.333-.389-.333-.657 0-.438-.372-.971-.679-.971-.085 0-.154-.221-.154-.491 0-.286-.128-.581-.307-.708a2.014 2.014 0 0 1-.506-.593c-.11-.206-.309-.375-.443-.375s-.244-.15-.244-.333c0-.221-.111-.334-.33-.334-.214 0-.368-.147-.435-.416-.059-.234-.225-.417-.38-.417-.151 0-.369-.15-.483-.333-.143-.228-.389-.334-.779-.334-.464 0-.58-.069-.623-.375-.045-.311-.173-.383-.762-.426-.573-.041-.708-.113-.708-.375 0-.271-.119-.324-.731-.324-.57 0-.748-.067-.811-.308-.1-.382-.761-.525-2.419-.525-.97 0-1.298-.062-1.453-.274-.35-.479-3.436-.543-3.898-.081m67.532-.205c-.199.044-.452.188-.562.32-.141.17-.569.241-1.47.242-1.85.003-2.522.141-2.522.52 0 .257-.128.311-.738.311-.593 0-.76.066-.845.334-.082.259-.252.333-.761.333-.588 0-.656.043-.656.417 0 .376-.065.416-.682.416-.535 0-.7.07-.767.324-.047.178-.246.347-.443.375a.473.473 0 0 0-.411.426c-.034.241-.168.375-.375.375-.211 0-.322.115-.322.334 0 .227-.111.333-.349.333a.444.444 0 0 0-.432.318.62.62 0 0 1-.401.401.443.443 0 0 0-.318.432c0 .231-.106.349-.314.349-.229 0-.346.162-.425.587-.061.323-.257.679-.436.79-.238.149-.325.39-.325.901 0 .597-.054.707-.373.752-.218.031-.397.192-.431.387-.031.183-.18.428-.329.545-.193.15-.292.557-.34 1.395-.049.872-.149 1.265-.38 1.496-.498.499-.481 9.313.02 9.814.257.257.333.555.333 1.307 0 .763.073 1.04.334 1.276.183.166.333.482.333.703 0 .474.289 1.076.608 1.264.124.073.225.317.225.541 0 .29.092.409.315.409.228 0 .345.161.425.587.061.323.256.678.435.79.179.111.325.295.325.407 0 .112.145.281.322.376.178.095.37.323.428.506.058.184.251.334.428.334.211 0 .322.115.322.333 0 .222.111.333.334.333.183 0 .333.07.333.155 0 .317.54.679 1.012.679.377 0 .488.076.488.333 0 .284.111.333.75.333.689 0 .75.034.75.417s.061.417.75.417c.639 0 .75.049.75.333 0 .299.111.333 1.083.333.841 0 1.084.055 1.084.244 0 .506.648.59 4.551.59 4.322 0 4.892-.059 5.038-.52.083-.261.267-.314 1.104-.314.855 0 1.017-.048 1.089-.324.064-.244.257-.337.776-.375.572-.042.701-.116.745-.426.045-.315.156-.375.697-.375.497 0 .668-.075.75-.333.058-.183.25-.333.428-.333.232 0 .322-.116.322-.417 0-.333.083-.417.416-.417.306 0 .417-.089.417-.333 0-.222.111-.333.333-.333.216 0 .334-.111.334-.316 0-.197.156-.354.416-.419.247-.062.417-.224.417-.398 0-.161.15-.422.333-.579.195-.166.334-.491.334-.779 0-.305.159-.654.416-.911.303-.303.417-.595.417-1.071 0-.518.071-.674.338-.743.323-.085.336-.198.292-2.562l-.047-2.472-4.623-.045-4.624-.044-.501.479c-.451.431-.502.582-.502 1.503 0 .912-.036 1.023-.333 1.023-.215 0-.333.111-.333.314 0 .178-.151.353-.346.405a.673.673 0 0 0-.436.436c-.051.195-.227.345-.404.345-.2 0-.314.118-.314.324 0 .253-.136.334-.625.375-.46.038-.669.151-.79.426-.261.595-2.531.564-2.986-.041-.239-.319-.464-.417-.956-.417-.532 0-.643-.058-.643-.333 0-.245-.111-.334-.417-.334-.35 0-.417-.078-.417-.49 0-.293-.127-.58-.316-.713-.175-.122-.343-.407-.375-.634-.04-.278-.181-.43-.434-.466-.344-.049-.375-.14-.375-1.125 0-.961-.034-1.072-.333-1.072-.321 0-.333-.111-.333-2.988 0-2.843.016-2.994.333-3.095.284-.09.333-.252.333-1.099 0-.905.037-1.006.417-1.151.332-.126.417-.274.417-.726 0-.428.082-.59.333-.656a.443.443 0 0 0 .333-.436c0-.243.106-.349.349-.349a.443.443 0 0 0 .436-.333.447.447 0 0 1 .412-.333c.468 0 .97-.305.97-.59 0-.501 3.736-.339 3.97.173.15.33.312.417.776.417.476 0 .587.063.587.333 0 .244.111.333.417.333.383 0 .417.061.417.75 0 .639.049.75.333.75.296 0 .333.111.333 1.004 0 1.367-.1 1.344 5.56 1.291l4.69-.045.047-2.147c.044-1.998.023-2.164-.292-2.384-.218-.154-.339-.426-.34-.77-.004-.857-.175-1.282-.517-1.282-.257 0-.314-.125-.314-.682 0-.542-.069-.7-.334-.77-.183-.048-.333-.198-.333-.334 0-.305-.95-1.214-1.268-1.214-.127 0-.232-.15-.232-.333 0-.245-.111-.334-.417-.334-.333 0-.416-.083-.416-.416 0-.297-.091-.417-.314-.417-.174 0-.353-.149-.401-.333-.07-.265-.228-.334-.77-.334-.616 0-.682-.04-.682-.416 0-.315-.087-.417-.357-.417a.775.775 0 0 1-.558-.276c-.131-.18-.53-.303-1.143-.354-.757-.063-.942-.135-.942-.37 0-.373-.617-.5-2.429-.5-1.119 0-1.418-.053-1.542-.276-.158-.282-2.284-.474-3.142-.284m69.696.005a1.763 1.763 0 0 0-.583.304c-.153.132-.889.241-1.902.283-1.476.062-1.678.108-1.896.435-.182.275-.408.366-.905.366-.515 0-.68.072-.746.325-.064.244-.257.337-.776.375-.572.042-.701.115-.745.425-.038.272-.165.375-.458.375-.223 0-.549.144-.724.319-.175.175-.456.344-.625.376-.168.032-.33.227-.36.432-.034.239-.168.373-.375.373-.177 0-.321.111-.321.246 0 .136-.188.37-.417.52-.306.2-.417.42-.417.825 0 .446-.072.563-.375.606-.264.038-.39.184-.426.494a1.364 1.364 0 0 1-.375.735c-.226.204-.324.511-.324 1.017 0 .599-.054.724-.315.724-.174 0-.361.119-.417.264-.263.684.011 1.903.428 1.903.101 0 .28.131.397.291.369.505 9.469.441 9.542-.066.028-.197.197-.396.375-.443.245-.064.324-.23.324-.683 0-.493.06-.599.341-.599.187 0 .52-.18.739-.399.436-.436 1.086-.507 4.211-.459 1.263.02 1.542.07 1.542.28 0 .14.118.3.263.356.144.055.33.278.412.494.083.217.264.394.404.394.204 0 .254.233.254 1.167v1.167h-.599c-.442 0-.62.08-.679.308-.074.282-.352.316-3.26.404-2.869.087-3.225.13-3.647.442-.392.289-.711.346-1.963.346-1.349 0-1.506.032-1.602.333-.077.245-.252.333-.657.333-1.024 0-1.593.186-1.593.521 0 .255-.126.313-.682.313-.542 0-.7.068-.769.333-.048.183-.22.333-.382.333s-.418.188-.568.417c-.174.266-.428.417-.701.417-.285 0-.457.109-.514.325-.047.179-.265.444-.484.587-.22.144-.4.409-.4.588s-.187.448-.416.598c-.229.15-.417.388-.417.527 0 .14-.124.345-.276.456-.183.134-.302.531-.353 1.185-.045.575-.19 1.112-.349 1.292-.465.528-.494 3.519-.037 3.804.301.188.348.381.348 1.414 0 1.321.097 1.724.414 1.724.116 0 .257.293.315.655.073.453.208.688.438.761.183.059.333.251.333.428 0 .207.115.322.322.322.207 0 .341.134.375.375a.474.474 0 0 0 .428.429c.241.034.375.168.375.375 0 .212.115.321.338.321.206 0 .399.162.496.417.126.332.274.417.726.417.428 0 .59.082.655.333.076.291.228.333 1.186.333.968 0 1.099.038 1.099.316 0 .483.27.518 3.993.518 3.87 0 4.514-.073 4.632-.526.062-.234.239-.308.744-.308.522 0 .681-.07.75-.333.056-.216.227-.333.484-.333.313 0 .397-.089.397-.417 0-.377.066-.417.683-.417.531 0 .7-.07.765-.318a.61.61 0 0 1 .387-.397c.167-.044.337-.257.379-.474.041-.217.084.301.097 1.15l.023 1.544 5.125-.044 5.125-.044V67.637l-.375-.303c-.3-.243-.375-.474-.375-1.151 0-.666-.071-.891-.334-1.055-.183-.115-.333-.31-.333-.435 0-.274-.954-1.193-1.238-1.193-.112 0-.273-.281-.358-.625-.133-.538-.241-.646-.779-.779-.437-.108-.625-.246-.625-.459 0-.213-.125-.304-.417-.304-.254 0-.416-.095-.416-.244 0-.292-.506-.589-1.005-.589a.444.444 0 0 1-.447-.333c-.076-.29-.227-.334-1.151-.334-.933 0-1.064-.039-1.064-.315 0-.433-.31-.518-1.876-.518-1.049 0-1.419-.065-1.669-.291-.326-.294-3.538-.489-4.372-.264m54.25.222c-.242.242-.555.333-1.145.333-1.228 0-1.888.175-1.98.525-.058.223-.236.308-.643.308-.382 0-.629.107-.77.334-.115.183-.339.333-.499.333-.17 0-.333.172-.394.417-.066.26-.223.416-.42.416-.204 0-.315.118-.315.334 0 .222-.111.333-.334.333-.244 0-.333.111-.333.417 0 .333-.083.416-.417.416h-.416v-1.754c0-2.218.345-2.079-5.167-2.079-2.398 0-4.501.072-4.739.163l-.428.162v34.508h11V71.682l.417-.417c.229-.229.417-.561.417-.738 0-.181.145-.359.333-.409a.443.443 0 0 0 .333-.436c0-.243.106-.349.349-.349a.443.443 0 0 0 .436-.333c.083-.318.228-.333 3.068-.333 2.87 0 2.981.012 2.981.333 0 .222.111.333.333.333.227 0 .333.111.333.349 0 .209.134.384.334.436.26.068.333.228.333.724 0 .826.258 1.491.579 1.491.354 0 .329.808-.037 1.213-.491.542-.534 18.658-.046 19.317.185.251.337.572.337.714 0 .392 10.346.387 10.738-.006.453-.452.385-23.655-.071-24.238-.25-.319-.327-.682-.33-1.557-.003-.999-.045-1.151-.337-1.228-.233-.061-.333-.227-.333-.554 0-.684-.162-.994-.518-.994-.258 0-.315-.124-.315-.682 0-.542-.069-.7-.334-.77-.184-.048-.333-.227-.333-.401 0-.223-.12-.314-.417-.314-.333 0-.416-.083-.416-.416 0-.306-.089-.417-.334-.417-.222 0-.333-.111-.333-.333 0-.242-.111-.334-.405-.334-.293 0-.42-.103-.458-.375-.04-.276-.184-.389-.547-.431-.271-.031-.617-.199-.769-.375-.152-.175-.406-.319-.564-.319-.158 0-.424-.168-.591-.375-.265-.327-.489-.382-1.776-.433-1.181-.047-1.533-.122-1.771-.375-.447-.474-2.807-.462-3.286.017m-32.869.592c-.811.44-.811.453-.761 17.91.041 14.311.078 16.363.297 16.501.35.222 10.596.213 11.011-.009.443-.237.514-32.627.072-32.994-.137-.114-.25-.458-.25-.765 0-.38-.102-.612-.322-.729-.546-.293-9.491-.216-10.047.086m-190.631 8.89c0 .342.309.518.911.518.244 0 .416.121.471.333a.443.443 0 0 0 .436.333c.297 0 .349.101.349.683 0 .536.07.7.325.767.244.064.337.256.375.776.041.571.115.7.425.744l.375.054v8.326l-.417.386c-.315.292-.416.554-.416 1.075 0 .578-.054.689-.334.689-.284 0-.333.111-.333.75 0 .689-.034.75-.417.75-.229 0-.566.15-.75.334-.183.183-.482.333-.663.333-.213 0-.367.148-.435.417-.147.586-3.634.662-3.818.083-.073-.23-.309-.365-.762-.438-.492-.078-.655-.182-.655-.417 0-.221-.121-.312-.417-.312-.333 0-.416-.083-.416-.416 0-.306-.089-.417-.334-.417-.271 0-.333-.111-.333-.599 0-.444-.08-.62-.31-.68-.26-.068-.327-.311-.419-1.526-.079-1.052-.199-1.568-.44-1.897-.482-.658-.502-4.215-.024-4.34.31-.08.521-1.056.525-2.416.001-.352.083-.542.234-.542.266 0 .434-.354.434-.919 0-.245.125-.431.333-.498.184-.058.334-.25.334-.428 0-.215.115-.322.349-.322a.444.444 0 0 0 .436-.333c.048-.183.199-.333.335-.333.137 0 .396-.188.576-.417.45-.572 4.47-.663 4.47-.101m-52.526 6.689c.184.225.562.371 1.138.438.65.076.881.177.942.412.045.172.198.312.34.312.334 0 1.106.772 1.106 1.107 0 .141.142.295.315.34.713.186.709 5.386-.004 5.386-.196 0-.311.119-.311.324 0 .262-.135.334-.708.375-.589.043-.717.115-.762.426l-.053.375H98.333V74.5h4.099c3.914 0 4.11.015 4.375.338m227.526 6.059c0 1.757-.024 1.904-.333 1.985-.265.069-.333.227-.333.769 0 .581-.052.682-.349.682a.443.443 0 0 0-.436.334c-.049.184-.228.333-.401.333-.224 0-.314.12-.314.417 0 .376-.066.416-.683.416-.542 0-.7.069-.769.334-.081.308-.227.333-1.984.333-1.787 0-1.898-.02-1.898-.333 0-.277-.111-.334-.655-.334-.552 0-.663-.058-.708-.375a.472.472 0 0 0-.428-.428c-.563-.08-.588-3.03-.026-3.03a.444.444 0 0 0 .432-.318c.053-.205.291-.356.669-.427.382-.072.616-.223.671-.433.071-.273.236-.322 1.08-.322.842 0 1.009-.05 1.08-.32.076-.289.278-.325 2.088-.375 1.841-.051 2.025-.085 2.275-.424.724-.981 1.022-.538 1.022 1.516" fill="#040404"/>
  </g>
</svg>
