<svg xmlns:xlink="http://www.w3.org/1999/xlink" xmlns="http://www.w3.org/2000/svg" xml:space="preserve" xmlns:vectornator="http://vectornator.io" viewBox="0 0 144 56" clip-rule="evenodd" stroke-linecap="round" stroke-linejoin="round">
  <g vectornator:layerName="Layer 1" fill-rule="evenodd" fill="#ffffff">
    <path d="M2.098 14.752v2.859h139.804v-2.86H2.098ZM105.127 19.623c-3.332-.01-6.191-.002-6.359.018-2.258.306-3.806 1.173-4.477 2.524-.591 1.173-.65 1.706-.65 5.749 0 3.214.02 3.736.188 4.436.365 1.578 1.004 2.436 2.336 3.097 1.488.75 1.489.748 8.716.748 6.32 0 6.416-.008 7.175-.215 2.169-.621 3.166-1.56 3.689-3.482.157-.562.178-1.114.178-4.584 0-4.319-.022-4.534-.613-5.737-.552-1.114-1.636-1.873-3.312-2.317-.779-.207-.995-.218-6.871-.237Zm0 4.14c3.451.02 3.618.03 4.15.238.651.256.986.58 1.292 1.25.197.444.225.69.255 2.278.049 1.981-.058 2.93-.403 3.53-.562.996-.967 1.063-5.916 1.014-4.358-.04-4.487-.047-5.069-.628-.542-.553-.668-1.165-.668-3.383 0-2.15.087-2.72.56-3.362.326-.453.859-.73 1.667-.869.296-.049 2.151-.087 4.132-.067ZM2.098 19.77v16.278h7.964c4.723 0 8.323-.04 8.846-.099 2.415-.276 3.786-1.036 4.476-2.496.513-1.094.552-1.458.552-5.589 0-3.332-.021-3.874-.179-4.436-.522-1.913-1.606-2.9-3.756-3.383-.857-.188-1.263-.205-9.397-.234l-8.506-.04Zm5.028 4.142 5.105.027 5.109.031.483.247c.414.207.543.345.789.838l.296.591v2.218c0 2.051-.02 2.248-.207 2.672-.118.246-.335.573-.493.72-.571.533-.82.552-6.174.552H7.126v-7.896ZM69.93 19.77v16.278h5.028v-4.249l4.366.028c4.17.03 4.379.04 4.704.228.602.355.738.767.767 2.483l.04 1.51h5.029l-.04-2.052c-.05-2.19-.126-2.581-.629-3.242-.296-.394-.968-.8-1.599-.967l-.462-.117.394-.111c.217-.06.641-.254.937-.431.65-.395 1.095-1.076 1.272-1.914.129-.68.147-3.371.019-4.042-.335-1.745-1.165-2.671-2.84-3.164-.513-.148-1.43-.17-8.775-.21l-8.211-.027Zm9 4.132c4.308-.03 4.978 0 5.471.256.493.256.631.689.592 1.842-.03.907-.049.988-.305 1.254a1.751 1.751 0 0 1-.709.404c-.286.07-1.943.108-4.723.108h-4.298V23.92l3.971-.019ZM34.365 19.78l-4.375 8.044c-2.405 4.427-4.39 8.085-4.409 8.134-.02.05 1.183.09 2.76.09h2.792l.718-1.43.712-1.43 5.087.019 5.096.03.751 1.4.75 1.41h5.579l-.305-.572-4.468-8.104-4.168-7.542-3.254-.03-3.266-.02Zm3.226 3.845c.03 0 .748 1.322 1.605 2.948.848 1.617 1.55 2.968 1.55 3.008 0 .03-1.4.058-3.115.058-2.011 0-3.098-.04-3.078-.098.079-.247 2.999-5.916 3.038-5.916ZM47.549 19.78v3.944h7v12.324h5.127l.018-6.144.031-6.131 3.479-.031 3.472-.018V19.78H47.549ZM119.818 19.854l.018 8.103.031 8.115 2.492.031 2.487.019v-5.885c0-5.511.009-5.879.166-5.73.089.098 2.19 2.73 4.665 5.865l4.495 5.7 3.864.031 3.866.019V19.854h-4.929v5.875c0 3.372-.041 5.859-.09 5.839-.049-.02-2.158-2.665-4.692-5.879l-4.615-5.835h-7.758ZM2.098 38.39v2.859h139.804v-2.86H2.098Z"/>
  </g>
</svg>
