<svg xmlns:xlink="http://www.w3.org/1999/xlink" xmlns="http://www.w3.org/2000/svg" xml:space="preserve" xmlns:vectornator="http://vectornator.io" viewBox="0 0 144 56" clip-rule="evenodd" stroke-linecap="round" stroke-linejoin="round">
  <g vectornator:layerName="Layer 1" fill-rule="evenodd">
    <path d="M2.92 15.28c-1.715.931-1.483 4.965.33 5.723.88.368 4.637.376 5.51.011 1.896-.792 2.12-4.812.317-5.743-.785-.406-5.404-.4-6.156.009m13.687-.045c-1.619.635-2.698 1.606-3.324 2.99-.376.831-.389 1.209-.393 11.877l-.004 11.018h8.586v-9.358c0-12.074-.354-11.248 4.818-11.248h3.24l.741.741.74.74V41.12H39.6v-10.9c0-12.453.056-11.95-1.52-13.536-1.732-1.743-1.465-1.705-11.918-1.688-6.401.01-9.146.079-9.553.239m28.968.146c-1.207.464-2.442 1.626-2.991 2.814-.403.872-.412 1.091-.467 11.907l-.056 11.018h8.793l.007-9.492c.009-11.989-.36-11.11 4.668-11.112 5.184 0 4.865-.744 4.865 11.345v9.26H68.992l-.053-11.21-.053-11.21-.521-.885c-.63-1.073-1.451-1.791-2.723-2.385l-.954-.446-9.063.008c-8.576.008-9.115.028-10.049.388m29.022.144c-3.006 1.432-3.137 1.954-3.137 12.526 0 10.599.152 11.19 3.224 12.568l1.148.515 9.31-.055c8.7-.05 9.353-.078 9.977-.414 1.281-.69 2.08-1.474 2.613-2.558l.535-1.089V19.083l-.535-1.088c-.532-1.085-1.332-1.867-2.613-2.558-.624-.337-1.274-.364-10.017-.411l-9.349-.052-1.156.55M100.846 26l.002 11.018.447.961c1.092 2.345 2.795 3.143 6.69 3.137 4.692-.007 4.152.521 10.605-10.394.806-1.364 2.295-3.876 3.308-5.58l3.665-6.178c1.003-1.692 1.957-3.28 2.121-3.53l.297-.453h-7.008l-1.044 1.765c-.574.97-2.423 4.083-4.108 6.917a6381.822 6381.822 0 0 0-4.68 7.876l-1.616 2.725-.05-9.641-.049-9.642h-8.582L100.846 26m31.026-10.739c-1.73.617-1.534.333-9.372 13.553a5754.44 5754.44 0 0 1-5.189 8.738c-.987 1.658-1.843 3.139-1.901 3.292-.091.235.405.276 3.325.276h3.431l1.045-1.765c1.327-2.24 7.425-12.516 9.144-15.406l1.304-2.194.001 3.386.001 3.387h.674c1.392 0 3.106 1.18 3.74 2.574 1.255 2.763-.914 6.202-3.912 6.202h-.502v3.816h8.585l-.004-11.113c-.005-12.55.064-11.938-1.52-13.475-1.511-1.466-6.352-2.161-8.85-1.27m-43.347 5.624c1.035.682 1.047.771 1.055 7.127.01 7.909.217 7.575-4.706 7.574-4.918-.002-4.827.141-4.827-7.536 0-7.687-.098-7.536 4.865-7.535 2.697 0 3.118.044 3.613.37M1.82 32.057v9.063h8.586V22.995H1.82v9.062" fill="#0c5c9c"/>
    <path d="M275.993 32.842c-6.963 3.676-4.933 14.131 2.901 14.94 5.142.531 9.118-2.902 9.118-7.871 0-6.094-6.559-9.952-12.019-7.069" fill="#ec1c2c"/>
  </g>
</svg>
