<svg xmlns="http://www.w3.org/2000/svg" xmlns:xlink="http://www.w3.org/1999/xlink" viewBox="0 0 400 82.14285714285714">
  <g fill-rule="evenodd">
    <path d="M4 3.667C4 3.889 3.889 4 3.667 4c-.333 0-.334.111-.334 36s.001 36 .334 36c.277 0 .333.111.333.667 0 .555.056.666.333.666.223 0 .334.111.334.334 0 .331.111.333 19.25.333s19.25-.002 19.25-.333c0-.245.111-.334.419-.334h.42l-.045-4.208-.044-4.208-14.958-.043-14.958-.042-.042-32.041-.042-32.041-.375-.053c-.241-.034-.375-.168-.375-.375 0-.211-.115-.322-.334-.322-.222 0-.333-.111-.333-.333 0-.325-.111-.334-4.25-.334S4 3.342 4 3.667m45.698 4.25c-.199.229-.439.416-.532.416-.113 0-.155 2.103-.126 6.292l.043 6.292.625.051c.49.041.625.122.625.375 0 .505 7.651.505 7.783 0 .047-.178.246-.347.443-.375l.358-.051V9.083l-.365-.052a.472.472 0 0 1-.417-.416c-.05-.357-.115-.366-2.825-.411-2.602-.042-2.779-.066-2.859-.375-.144-.549-2.258-.482-2.753.088m236.469 1.412c0 .313-.138.332-2.792.375l-2.792.046-.157.708c-.114.515-.239.709-.458.709-.495 0-.463 8.989.032 9.118.184.048.333.227.333.401 0 .224.12.314.417.314.306 0 .417.089.417.333 0 .324.111.334 3.849.334 3.708 0 3.852-.012 3.936-.334.048-.184.227-.333.401-.333.301 0 .314-.228.314-5.667 0-5.438-.013-5.666-.314-5.666-.174 0-.353-.149-.401-.334-.133-.507-2.785-.51-2.785-.004m-114.334 1.088c0 .639-.049.75-.333.75-.277 0-.333.111-.333.655 0 .552-.059.663-.375.708-.312.044-.384.173-.427.762-.041.572-.113.708-.375.708-.265 0-.323.117-.323.647 0 .507-.073.666-.334.735-.265.069-.333.227-.333.769 0 .571-.054.682-.333.682s-.334.111-.334.683c0 .531-.07.7-.318.765-.359.094-.509.514-.513 1.427-.002.513-.062.625-.335.625-.284 0-.334.111-.334.75s-.049.75-.333.75c-.274 0-.333.111-.333.627 0 .491-.082.663-.375.792-.276.121-.389.33-.427.79-.032.383-.138.625-.274.625-.305 0-.424.38-.424 1.347 0 .708-.046.819-.334.819-.276 0-.333.111-.333.648 0 .507-.072.666-.333.734-.265.069-.334.227-.334.769 0 .501-.067.683-.254.683-.323 0-.579.667-.579 1.511 0 .544-.056.655-.333.655s-.334.111-.334.656c0 .509-.074.679-.333.761-.283.09-.333.252-.333 1.083 0 .886-.035.982-.375 1.03-.312.045-.384.173-.427.762-.041.573-.113.708-.375.708-.284 0-.323.121-.323 1 0 .889-.037 1-.334 1-.284 0-.333.111-.333.75s-.049.75-.333.75c-.299 0-.334.111-.334 1.084 0 1.044-.015 1.083-.416 1.083-.374 0-.417.067-.417.655 0 .509-.074.679-.333.762-.284.09-.334.252-.334 1.094 0 .878-.037.989-.333.989-.284 0-.333.111-.333.75 0 .625-.053.75-.316.75-.397 0-.518.313-.518 1.347 0 .709-.045.82-.333.82-.277 0-.333.111-.333.655 0 .509-.075.679-.334.761-.284.09-.333.253-.333 1.095 0 .878-.037.989-.333.989-.299 0-.334.111-.334 1.083 0 1.044-.015 1.083-.416 1.083-.374 0-.417.068-.417.656 0 .509-.074.679-.333.761-.284.09-.334.252-.334 1.095 0 .877-.037.988-.333.988-.299 0-.333.111-.333 1.072 0 .985-.031 1.076-.375 1.125-.31.044-.384.173-.426.745-.038.519-.131.712-.375.776-.272.071-.324.233-.324.997 0 .773-.052.927-.334 1-.287.075-.333.228-.333 1.103 0 .905-.036 1.016-.333 1.016-.284 0-.334.111-.334.75 0 .561-.064.75-.254.75-.323 0-.579.667-.579 1.511 0 .544-.056.655-.333.655-.299 0-.334.111-.334 1.084 0 .972-.034 1.083-.333 1.083-.296 0-.333.111-.333.988 0 .899-.035.994-.375 1.042-.312.044-.384.173-.427.762-.034.477-.128.708-.288.708-.288 0-.454.588-.381 1.352.068.712 1.971 1.024 1.971.323 0-.309.102-.342 1.072-.342.925 0 1.086-.045 1.178-.333.09-.284.252-.333 1.094-.333.87 0 .989-.04.989-.326 0-.282.137-.332 1.042-.375.935-.044 1.047-.088 1.095-.424.05-.355.128-.375 1.458-.375 1.294 0 1.405-.027 1.405-.334 0-.244.111-.333.417-.333.373 0 .416-.068.416-.647 0-.507.073-.666.334-.735.287-.075.333-.227.333-1.102 0-.905.036-1.016.333-1.016.284 0 .334-.111.334-.75 0-.561.064-.75.254-.75.321 0 .579-.666.579-1.491 0-.497.073-.656.333-.724.288-.075.334-.227.334-1.103 0-.904.036-1.015.333-1.015.296 0 .333-.111.333-1s.037-1 .334-1c.284 0 .333-.111.333-.75 0-.561.064-.75.254-.75.323 0 .579-.668.579-1.511 0-.545.057-.656.334-.656.299 0 .333-.111.333-1.083 0-.973.034-1.084.333-1.084.278 0 .334-.111.334-.666 0-.487.068-.667.254-.667.321 0 .579-.666.579-1.491 0-.497.073-.656.333-.724.288-.075.334-.227.334-1.103 0-.904.036-1.015.333-1.015.284 0 .333-.111.333-.75s.05-.75.334-.75c.296 0 .333-.111.333-1 0-.87.041-1 .316-1 .397 0 .517-.313.517-1.347 0-.709.046-.82.334-.82.282 0 .333-.111.333-.731 0-.59.064-.747.333-.817.281-.074.334-.228.334-.98 0-.766.053-.916.375-1.057.315-.139.383-.315.424-1.106.041-.77.109-.956.375-1.026.256-.067.326-.231.326-.767 0-.572.054-.683.333-.683.299 0 .333-.111.333-1.083s.035-1.083.334-1.083c.277 0 .333-.111.333-.667 0-.543.059-.667.316-.667.397 0 .517-.312.517-1.347 0-.708.046-.819.334-.819.284 0 .333-.111.333-.75s.049-.75.333-.75c.278 0 .334-.111.334-.667 0-.486.068-.667.254-.667.323 0 .579-.667.579-1.511 0-.544.056-.655.333-.655.284 0 .334-.111.334-.75s.049-.75.333-.75c.296 0 .333-.111.333-1s.037-1 .334-1c.282 0 .337-.121.362-.792l.029-.792.064.709c.051.568.128.708.388.708.267 0 .323.118.323.682 0 .536.07.701.325.767.244.064.337.257.375.776.042.572.115.701.425.745.341.048.375.143.375 1.042 0 .877.038.988.334.988.284 0 .333.111.333.75s.049.75.333.75c.293 0 .334.111.334.907 0 .706.071.957.32 1.132.184.129.343.469.375.801.043.451.137.588.43.63.324.046.375.153.375.792 0 .627.05.738.333.738.297 0 .333.111.333 1.016 0 .875.046 1.027.334 1.102.261.069.333.228.333.735 0 .579.044.647.417.647.401 0 .416.039.416 1.083 0 .973.035 1.084.334 1.084.284 0 .333.111.333.75s.049.75.333.75c.296 0 .334.111.334.988 0 .843.049 1.005.333 1.095.229.073.333.252.333.574 0 .886.197 1.478.518 1.562.245.064.316.236.316.765 0 .571.054.682.333.682.297 0 .333.111.333 1.016 0 .875.046 1.028.334 1.103.261.068.333.227.333.734 0 .579.044.647.417.647.401 0 .416.039.416 1.084 0 .972.035 1.083.334 1.083.299 0 .333.111.333 1.083 0 .973.034 1.084.333 1.084.293 0 .334.111.334.907 0 .707.071.957.321 1.132.203.142.341.467.375.885.044.537.123.669.429.712.34.049.375.144.375 1.042 0 .877.037.988.333.988.299 0 .333.111.333 1.084 0 .963.036 1.083.326 1.083.282 0 .332.137.375 1.042.044.935.088 1.047.424 1.095.345.049.375.14.375 1.125 0 .96.035 1.071.334 1.071.293 0 .333.111.333.933 0 .792.05.945.333 1.019.27.07.334.227.334.818 0 .619.05.73.333.73.288 0 .333.111.333.82 0 1.192.098 1.347.851 1.347.538 0 .649.057.649.333 0 .299.111.334 1.084.334.859 0 1.083.052 1.083.254 0 .361.695.579 1.844.579.878 0 .989.037.989.333 0 .299.111.334 1.084.334.972 0 1.083.034 1.083.333 0 .299.111.333 1.083.333.981 0 1.084.033 1.084.342 0 .311.087.337.958.292l.958-.05.051-.889c.045-.778.009-.899-.291-.977-.274-.072-.343-.224-.343-.753 0-.517-.071-.681-.326-.748-.266-.069-.334-.256-.375-1.026-.043-.831-.093-.947-.424-.994-.324-.046-.375-.153-.375-.792 0-.627-.05-.738-.333-.738-.299 0-.334-.111-.334-1.083 0-.973-.034-1.084-.333-1.084-.294 0-.333-.111-.333-.932 0-.784-.052-.946-.325-1.017-.244-.064-.337-.256-.375-.776-.042-.571-.115-.701-.425-.745-.345-.049-.375-.14-.375-1.125 0-.96-.035-1.071-.334-1.071-.293 0-.333-.111-.333-.916 0-.734-.066-.956-.333-1.123-.238-.148-.334-.389-.334-.835 0-.557-.046-.626-.416-.626-.402 0-.417-.039-.417-1.084 0-.972-.034-1.083-.333-1.083-.297 0-.334-.111-.334-1.016 0-.875-.046-1.027-.333-1.102-.263-.069-.333-.228-.333-.75 0-.518-.072-.682-.326-.748-.266-.07-.334-.257-.375-1.026-.041-.791-.109-.968-.424-1.106-.322-.141-.375-.291-.375-1.057 0-.753-.053-.907-.334-.98-.269-.07-.333-.227-.333-.818 0-.619-.051-.73-.333-.73-.288 0-.334-.111-.334-.82 0-1.034-.12-1.347-.517-1.347-.257 0-.316-.124-.316-.667 0-.555-.056-.666-.333-.666-.299 0-.334-.111-.334-1.084 0-.972-.034-1.083-.333-1.083-.279 0-.333-.111-.333-.682 0-.537-.07-.701-.326-.768-.266-.069-.334-.256-.375-1.026-.041-.79-.109-.967-.424-1.105-.294-.129-.375-.301-.375-.792 0-.516-.059-.627-.334-.627-.292 0-.333-.111-.333-.907 0-.707-.071-.957-.321-1.132-.203-.143-.341-.468-.375-.885-.044-.537-.124-.669-.429-.713-.341-.048-.375-.143-.375-1.041 0-.878-.037-.989-.333-.989-.279 0-.334-.111-.334-.682 0-.542-.068-.7-.333-.769-.261-.069-.333-.228-.333-.735 0-.536-.058-.647-.334-.647-.277 0-.333-.111-.333-.656 0-.843-.256-1.511-.579-1.511-.19 0-.254-.189-.254-.75 0-.639-.05-.75-.334-.75-.277 0-.333-.111-.333-.666 0-.556-.056-.667-.333-.667s-.334-.111-.334-.656c0-.843-.256-1.511-.579-1.511-.19 0-.254-.189-.254-.75 0-.639-.049-.75-.333-.75-.278 0-.334-.111-.334-.666 0-.556-.055-.667-.333-.667-.284 0-.333-.111-.333-.75s-.05-.75-.334-.75c-.273 0-.333-.112-.335-.625-.004-.914-.154-1.333-.513-1.427-.248-.065-.318-.235-.318-.766 0-.571-.055-.682-.334-.682s-.333-.111-.333-.682c0-.542-.068-.7-.333-.77-.261-.068-.334-.227-.334-.734 0-.579-.043-.647-.416-.647-.383 0-.417-.061-.417-.75v-.75h-9.167v.75m80 2.412c0 .31-.137.331-2.458.375-2.407.045-2.459.054-2.512.421-.034.241-.168.375-.375.375-.516 0-.505 50.317.012 50.452.31.081.333.227.333 2.066 0 1.799.031 1.998.334 2.187.237.149.333.389.333.835 0 .557.046.627.417.627.399 0 .416.043.416 1.015 0 .876.046 1.028.334 1.103.191.05.333.227.333.417 0 .189.142.366.333.416.185.049.334.228.334.401 0 .198.117.314.318.314.242 0 .346.161.432.667.109.645.134.667.764.667.585 0 .652.043.652.416 0 .297.091.417.314.417.174 0 .353.149.401.333.07.265.228.334.77.334.571 0 .682.054.682.333 0 .276.111.333.647.333.507 0 .666.073.735.334.075.288.227.333 1.118.333.887 0 1.043.046 1.117.329.128.487.599.522 6.216.469l5.084-.048.053-.375c.05-.353.131-.375 1.391-.375 1.197 0 1.346-.035 1.424-.333.075-.287.227-.334 1.083-.334s1.009-.047 1.084-.333c.073-.282.227-.333 1-.333.764 0 .926-.053.997-.324.047-.178.246-.347.443-.375a.473.473 0 0 0 .411-.426c.03-.207.153-.375.274-.375.546 0 .638-2.475.097-2.617-.271-.071-.334-.256-.375-1.109-.044-.918-.088-1.03-.424-1.078-.344-.049-.375-.14-.375-1.125 0-.96-.035-1.071-.333-1.071-.223 0-.334-.111-.334-.334 0-.312-.111-.333-1.75-.333s-1.75.021-1.75.333c0 .284-.111.334-.75.334s-.75.049-.75.333c0 .296-.111.333-1 .333s-1 .037-1 .334c0 .323-.111.333-3.647.333-3.507 0-3.65-.013-3.734-.333-.074-.284-.228-.334-1.02-.334-.821 0-.932-.039-.932-.333 0-.244-.111-.333-.417-.333-.305 0-.416-.089-.416-.334 0-.222-.111-.333-.334-.333-.284 0-.333-.111-.333-.75s-.049-.75-.333-.75c-.296 0-.334-.111-.334-.989 0-1.149-.218-1.844-.579-1.844-.226 0-.254-1.601-.254-14.334V34.5h18.667v-2.417c0-2.289-.018-2.416-.327-2.416-.294 0-.331-.137-.375-1.375-.045-1.282-.074-1.379-.423-1.429-.272-.038-.375-.165-.375-.458V26h-8.148c-8.007 0-8.148-.006-8.234-.333a.443.443 0 0 0-.436-.334c-.348 0-.349-.02-.349-6.083 0-5.972-.006-6.083-.333-6.083-.223 0-.334-.111-.334-.334 0-.312-.111-.333-1.75-.333-1.631 0-1.75.022-1.75.329m135 6.504c0 .284-.111.334-.75.334s-.75.049-.75.333c0 .254-.111.333-.466.333-.614 0-.867.278-.867.95 0 .439-.067.55-.333.55-.223 0-.334.111-.334.334 0 .187-.111.333-.254.333-.45 0-.579.797-.577 3.553.003 3.011.057 3.38.513 3.499a.444.444 0 0 1 .318.432c0 .235.107.349.324.349.253 0 .334.136.375.625.048.589.087.628.666.676.486.041.625.128.667.417a.472.472 0 0 0 .427.419c.206.029.375.152.375.274 0 .581 6.8.669 6.951.089.061-.233.228-.333.554-.333.685 0 .995-.162.995-.518 0-.204.117-.315.333-.315.222 0 .333-.111.333-.334 0-.222.111-.333.334-.333.276 0 .333-.111.333-.655 0-.553.059-.663.375-.708.336-.048.38-.16.424-1.078.041-.853.104-1.038.375-1.109.497-.13.498-2.783.001-2.783-.283 0-.332-.137-.375-1.042-.045-.936-.088-1.047-.425-1.095-.318-.045-.375-.155-.375-.724 0-.53-.07-.689-.333-.758-.185-.048-.334-.227-.334-.401 0-.199-.117-.314-.322-.314-.177 0-.369-.15-.428-.333-.082-.259-.252-.333-.761-.333-.544 0-.655-.057-.655-.334 0-.321-.111-.333-3.167-.333-3.056 0-3.167.012-3.167.333m5.001 2.459c0 .068-.581.104-1.292.079-2.283-.079-2.508-.148-.584-.176 1.032-.016 1.876.028 1.876.097m-5.02 4.25c-.011 1.581-.052 2.751-.092 2.6-.04-.151-.219-.313-.398-.359-.247-.065-.324-.231-.324-.7 0-.474-.076-.634-.333-.701-.268-.07-.334-.228-.334-.799 0-.571.066-.728.334-.798.265-.069.333-.227.333-.769 0-.572.054-.683.333-.683.223 0 .334-.111.334-.333 0-.183.037-.333.083-.333.046 0 .075 1.293.064 2.875m6.862-1.542c.297 0 .324.126.324 1.5 0 1.236-.045 1.5-.255 1.5-.141 0-.324.169-.406.375-.099.245-.145-.521-.133-2.208.011-1.421.048-2.265.083-1.875.051.568.127.708.387.708m-270.343.5c0 .307-.111.333-1.432.333-1.281 0-1.441.035-1.517.326-.07.266-.257.334-1.026.375-.831.044-.948.093-.995.424-.046.325-.152.375-.791.375-.628 0-.739.05-.739.334 0 .276-.111.333-.655.333-.509 0-.679.074-.761.333-.059.184-.251.334-.428.334-.233 0-.322.116-.322.416 0 .375-.067.417-.667.417-.556 0-.667.056-.667.333 0 .228-.111.334-.349.334a.444.444 0 0 0-.432.318.622.622 0 0 1-.401.401c-.175.045-.318.194-.318.329s-.15.285-.333.333a.444.444 0 0 0-.333.436c0 .233-.107.349-.319.349-.242 0-.346.161-.431.667-.086.506-.19.667-.432.667-.201 0-.318.116-.318.314 0 .173-.149.352-.334.401a.445.445 0 0 0-.333.416c0 .19-.142.367-.333.417-.25.065-.334.227-.334.647 0 .42-.093.6-.375.723-.272.12-.389.331-.425.773-.037.437-.142.632-.375.693-.255.066-.325.231-.325.767 0 .571-.054.682-.333.682-.297 0-.333.111-.333 1.016 0 .859-.049 1.028-.318 1.098-.395.103-.51.515-.513 1.825-.002.881-.049 1.034-.336 1.109-.327.086-.333.228-.333 7.77 0 7.571.004 7.682.333 7.682.306 0 .334.112.336 1.375.002 1.665.098 2.069.513 2.177.269.071.318.24.318 1.099 0 .905.036 1.016.333 1.016.279 0 .333.111.333.682 0 .536.07.7.325.767.233.061.338.256.375.693.036.442.153.653.425.772.282.124.375.304.375.724 0 .419.084.581.334.647.184.048.333.227.333.401 0 .203.118.314.333.314.228 0 .334.111.334.349 0 .208.134.384.333.436.184.048.333.227.333.401 0 .223.12.314.417.314.306 0 .417.089.417.333 0 .222.111.333.333.333.244 0 .333.111.333.417s.089.417.334.417c.222 0 .333.111.333.333 0 .244.111.333.417.333.305 0 .416.089.416.334 0 .215.111.333.314.333.174 0 .353.149.401.333.067.254.228.334.675.334.482 0 .597.067.64.375.045.311.173.383.762.426.573.041.708.113.708.375 0 .273.119.324.75.324.639 0 .75.049.75.333 0 .296.111.333.981.333.84 0 .993.048 1.068.334.078.3.227.333 1.519.333 1.306 0 1.432.028 1.432.323 0 .48.721.532 6.667.476l5.25-.049.053-.375c.052-.366.103-.375 2.141-.375 1.947 0 2.093-.022 2.174-.333.049-.185.228-.334.401-.334.197 0 .314-.117.314-.314 0-.173.149-.352.334-.401.287-.075.333-.227.333-1.102 0-.886.04-1.016.316-1.016.397 0 .517-.313.517-1.347 0-.709.046-.82.334-.82.282 0 .333-.111.333-.73 0-.591.064-.748.333-.818.446-.116.521-3.89.082-4.059-.535-.205-1.748.108-1.748.451 0 .272-.119.323-.75.323-.639 0-.75.049-.75.333 0 .294-.111.334-.933.334-.792 0-.945.05-1.019.333-.076.29-.227.333-1.167.333-.939 0-1.091.044-1.166.334-.085.323-.228.333-4.735.333-4.536 0-4.647-.008-4.647-.333 0-.308-.111-.334-1.417-.334-1.305 0-1.416-.026-1.416-.333 0-.278-.111-.333-.667-.333s-.667-.056-.667-.334c0-.284-.111-.333-.75-.333-.689 0-.75-.034-.75-.417 0-.305-.089-.416-.333-.416-.222 0-.333-.111-.333-.334 0-.222-.111-.333-.334-.333-.222 0-.333-.111-.333-.333 0-.245-.111-.334-.417-.334-.365 0-.416-.072-.416-.582 0-.401-.104-.646-.334-.79-.183-.114-.333-.34-.333-.501 0-.179-.126-.293-.324-.293-.261 0-.333-.136-.375-.709-.042-.589-.114-.717-.426-.761-.341-.049-.375-.144-.375-1.042 0-.877-.037-.988-.333-.988-.308 0-.334-.111-.334-1.433 0-1.292-.032-1.44-.333-1.519-.261-.068-.333-.227-.333-.734v-.646l16.375-.043 16.375-.042.053-.375c.034-.241.168-.375.375-.375s.322-.115.322-.322c0-.207.134-.341.375-.375.701-.099.65-9.136-.052-9.136-.303 0-.323-.134-.323-2.099 0-1.959-.023-2.105-.334-2.186-.292-.077-.333-.228-.333-1.221 0-1.272-.1-1.661-.425-1.661-.143 0-.241-.254-.274-.708-.042-.589-.114-.718-.426-.762-.316-.045-.375-.156-.375-.708 0-.544-.057-.655-.333-.655-.284 0-.334-.111-.334-.75s-.049-.75-.333-.75c-.222 0-.333-.111-.333-.334 0-.214-.111-.333-.312-.333-.234 0-.338-.163-.416-.647-.073-.456-.202-.673-.438-.734a.445.445 0 0 1-.334-.437c0-.238-.106-.349-.334-.349-.222 0-.333-.111-.333-.333 0-.244-.111-.333-.417-.333-.305 0-.416-.089-.416-.334 0-.277-.111-.333-.667-.333-.6 0-.667-.042-.667-.417 0-.305-.089-.416-.333-.416-.222 0-.333-.111-.333-.334 0-.284-.111-.333-.75-.333s-.75-.049-.75-.333c0-.277-.111-.334-.655-.334-.553 0-.664-.058-.709-.375-.044-.31-.173-.383-.744-.425-.52-.038-.712-.131-.776-.375-.075-.288-.237-.325-1.423-.325-1.191 0-1.349-.036-1.443-.333-.103-.322-.253-.333-4.595-.333-4.378 0-4.489.008-4.489.333m100 0c0 .311-.111.333-1.665.333-1.485 0-1.688.036-1.873.334-.149.237-.389.333-.835.333-.557 0-.627.046-.627.417 0 .399-.043.416-1.015.416-.876 0-1.028.046-1.103.334a.445.445 0 0 1-.417.333.445.445 0 0 0-.416.333c-.056.212-.228.334-.471.334-.603 0-.911.175-.911.517 0 .205-.117.316-.333.316-.223 0-.334.111-.334.333 0 .245-.111.334-.416.334-.306 0-.417.089-.417.333 0 .241-.111.333-.403.333-.75 0-.93.165-.93.851 0 .581-.044.649-.417.649-.306 0-.417.089-.417.334 0 .222-.111.333-.333.333-.222 0-.333.111-.333.333 0 .223-.111.334-.334.334-.244 0-.333.111-.333.416 0 .306-.089.417-.333.417-.277 0-.334.111-.334.655 0 .553-.058.663-.375.708-.311.045-.383.173-.426.762-.041.573-.113.708-.375.708-.267 0-.324.118-.324.667 0 .556-.055.667-.333.667-.284 0-.333.111-.333.75 0 .624-.053.75-.316.75-.396 0-.518.312-.518 1.327 0 .66-.058.816-.333.888-.306.08-.333.227-.333 1.769 0 1.571-.022 1.682-.334 1.682-.327 0-.333.111-.333 6.656 0 6.509.007 6.658.333 6.761.299.095.334.252.334 1.511 0 1.295.026 1.406.333 1.406.296 0 .333.111.333.989 0 1.149.219 1.844.58 1.844.186 0 .254.182.254.682 0 .542.068.7.333.77.261.068.333.227.333.734 0 .536.058.647.334.647.257 0 .333.111.333.487 0 .703.159 1.013.518 1.013.204 0 .315.118.315.334 0 .222.111.333.334.333.271 0 .333.111.333.599 0 .459.078.619.333.686.192.05.334.227.334.417 0 .189.141.366.333.416.184.049.333.228.333.401 0 .224.12.314.417.314.333 0 .417.084.417.417 0 .297.09.417.314.417.173 0 .352.149.401.333.048.183.201.333.341.333s.302.15.36.334c.083.259.253.333.762.333.544 0 .655.057.655.333 0 .223.111.334.333.334.216 0 .334.111.334.315 0 .359.31.518 1.013.518.376 0 .487.076.487.333 0 .277.111.334.655.334.509 0 .679.074.761.333.09.283.253.333 1.075.333.83 0 .982.049 1.057.334.081.311.227.333 2.174.333 2.038 0 2.089.009 2.141.375l.053.375 4.858.044c4.887.045 5.726-.035 5.726-.54 0-.211.293-.254 1.75-.254 1.639 0 1.75-.021 1.75-.333 0-.299.111-.334 1.083-.334s1.083-.034 1.083-.333c0-.293.111-.333.908-.333.685 0 .96-.074 1.125-.303.119-.166.349-.352.509-.411.479-.179.439-4.286-.042-4.286-.307 0-.333-.111-.333-1.417s-.026-1.417-.333-1.417c-.278 0-.334-.111-.334-.666V67.5h-1.75c-1.639 0-1.75.021-1.75.333 0 .299-.111.334-1.083.334s-1.083.034-1.083.333c0 .299-.111.333-1.084.333-.972 0-1.083.035-1.083.334 0 .522-7.912.522-8.048 0-.078-.299-.228-.334-1.436-.334-1.238 0-1.349-.027-1.349-.333 0-.276-.111-.333-.648-.333-.507 0-.666-.073-.734-.334-.069-.265-.227-.333-.769-.333-.617 0-.683-.04-.683-.417 0-.297-.09-.416-.314-.416-.173 0-.352-.149-.401-.334a.443.443 0 0 0-.436-.333c-.208 0-.349-.107-.349-.266 0-.146-.15-.304-.333-.352a.445.445 0 0 1-.333-.417.446.446 0 0 0-.334-.417c-.184-.048-.333-.227-.333-.401 0-.199-.118-.314-.323-.314-.254 0-.335-.135-.375-.625-.042-.502-.126-.635-.427-.678-.324-.046-.375-.153-.375-.792 0-.627-.05-.738-.333-.738-.297 0-.334-.111-.334-1.016 0-.875-.046-1.027-.333-1.102-.306-.08-.333-.228-.333-1.818 0-1.62-.022-1.731-.334-1.731-.322 0-.333-.111-.333-3.25 0-2.667.042-3.25.232-3.25.365 0 .435-.391.435-2.43 0-1.792.019-1.903.333-1.903.296 0 .333-.111.333-1s.037-1 .334-1c.283 0 .333-.111.333-.738 0-.639.051-.746.375-.792.312-.044.384-.173.426-.762.042-.572.114-.708.375-.708.213 0 .324-.114.324-.333 0-.223.111-.334.333-.334.223 0 .334-.111.334-.333 0-.218.111-.333.322-.333a.476.476 0 0 0 .422-.316.68.68 0 0 1 .428-.401.444.444 0 0 0 .328-.434c0-.238.106-.349.333-.349.222 0 .333-.111.333-.334 0-.271.111-.333.599-.333.454 0 .62-.079.684-.325.064-.244.256-.337.776-.375.571-.041.701-.115.745-.425.049-.344.14-.375 1.125-.375.96 0 1.071-.035 1.071-.333 0-.323.111-.334 3.564-.334 3.424 0 3.568.013 3.651.334.078.298.228.333 1.441.333 1.289 0 1.36.019 1.511.417.142.373.252.416 1.06.416.761 0 .915.052.988.334.078.298.228.333 1.436.333 1.238 0 1.349-.027 1.349-.333 0-.223.111-.334.334-.334.298 0 .333-.111.333-1.071 0-.985.031-1.076.375-1.125.337-.048.38-.16.425-1.095.043-.905.092-1.042.375-1.042.302 0 .325-.125.325-1.75 0-1.603-.026-1.75-.314-1.75-.174 0-.353-.149-.401-.333-.069-.265-.227-.334-.769-.334-.559 0-.683-.057-.683-.315 0-.398-.312-.518-1.347-.518-.589 0-.819-.065-.819-.232 0-.362-.391-.435-2.336-.435-1.662 0-1.817-.027-1.914-.333-.103-.324-.253-.333-5.345-.333-5.128 0-5.239.007-5.239.333m88.549 0c-.079.3-.228.333-1.485.333-1.286 0-1.397.027-1.397.334 0 .288-.111.333-.82.333-1.034 0-1.347.12-1.347.518 0 .256-.123.315-.655.315-.509 0-.679.075-.761.334-.067.208-.253.333-.498.333-.565 0-.919.168-.919.434 0 .128-.15.233-.333.233-.245 0-.334.111-.334.416 0 .377-.065.417-.682.417-.542 0-.7.068-.769.333-.049.185-.228.334-.401.334-.203 0-.314.118-.314.333 0 .227-.111.333-.349.333a.443.443 0 0 0-.432.318.622.622 0 0 1-.401.401.444.444 0 0 0-.318.432c0 .238-.106.349-.334.349-.215 0-.333.111-.333.314 0 .174-.149.353-.333.401-.254.067-.334.228-.334.675 0 .482-.067.597-.375.64a.474.474 0 0 0-.428.429c-.034.241-.168.375-.375.375-.264 0-.322.119-.322.666 0 .556-.055.667-.333.667-.284 0-.333.111-.333.75 0 .689-.034.75-.417.75-.373 0-.417.068-.417.647 0 .507-.072.666-.333.735-.264.069-.333.227-.333.758 0 .524-.073.694-.334.777-.296.094-.333.252-.333 1.428 0 1.211-.028 1.322-.333 1.322-.316 0-.334.111-.334 2.155 0 2.108-.008 2.156-.375 2.208l-.375.053-.047 4.167c-.051 4.59-.02 4.917.467 4.917.312 0 .33.118.33 2.099 0 1.958.023 2.104.334 2.186.286.075.333.227.333 1.083s.047 1.008.333 1.083c.282.074.334.228.334 1 0 .773.051.927.333 1 .233.061.333.228.333.554 0 .685.162.995.518.995.257 0 .316.123.316.666 0 .556.055.667.333.667.244 0 .333.111.333.417 0 .301.09.416.324.416.253 0 .334.136.375.625.041.502.125.636.426.679.272.038.375.165.375.458 0 .294.092.405.334.405.222 0 .333.111.333.333 0 .223.111.334.333.334.223 0 .334.111.334.333 0 .218.111.333.321.333.207 0 .341.134.375.375a.476.476 0 0 0 .429.429c.241.034.375.168.375.375 0 .21.115.321.333.321.222 0 .333.111.333.334 0 .244.111.333.417.333s.417.089.417.333c0 .277.111.334.655.334.552 0 .663.058.708.375.043.299.177.385.661.425.437.037.632.142.693.375.067.255.231.325.767.325.571 0 .682.054.682.333 0 .284.111.333.75.333s.75.05.75.334c0 .307.111.333 1.417.333 1.4 0 1.417.005 1.417.417v.416h5.403c5.706 0 5.93-.019 5.93-.517 0-.284.137-.316 1.349-.316 1.209 0 1.358-.035 1.436-.333.069-.263.227-.334.75-.334s.681-.07.75-.333c.068-.261.227-.333.734-.333.522 0 .648-.061.648-.312 0-.237.165-.339.683-.422.485-.077.709-.204.77-.438.047-.18.227-.328.399-.328.203 0 .314-.118.314-.334 0-.271.111-.333.599-.333.459 0 .62-.078.686-.333.048-.184.187-.334.309-.334.121 0 .319-.136.439-.302a1.33 1.33 0 0 1 .509-.412c.16-.06.292-.261.292-.447 0-.229.109-.339.338-.339.186 0 .388-.131.448-.291.059-.161.245-.39.411-.51.192-.138.303-.428.303-.791 0-.463.064-.574.333-.574.222 0 .333-.111.333-.334 0-.222.111-.333.334-.333.215 0 .333-.111.333-.314 0-.173.148-.352.329-.4.232-.06.36-.283.435-.755.074-.459.206-.694.422-.751.233-.061.314-.234.314-.67 0-.441.083-.614.333-.693.259-.083.334-.253.334-.762 0-.476.069-.655.254-.655.323 0 .579-.667.579-1.511 0-.449.073-.656.232-.656.335 0 .435-.379.435-1.661 0-.993.041-1.144.333-1.22.327-.086.333-.228.333-7.436 0-7.238-.005-7.349-.333-7.349-.307 0-.333-.111-.333-1.417 0-1.294-.029-1.417-.326-1.417-.282 0-.332-.136-.375-1.041-.044-.936-.088-1.047-.424-1.095-.342-.049-.375-.143-.375-1.058 0-.863-.047-1.016-.334-1.091-.184-.048-.333-.227-.333-.401 0-.199-.118-.314-.324-.314-.261 0-.333-.135-.375-.708-.042-.589-.114-.717-.426-.762-.316-.045-.375-.155-.375-.708 0-.544-.057-.655-.333-.655-.245 0-.334-.111-.334-.417 0-.305-.089-.416-.333-.416-.222 0-.333-.111-.333-.334 0-.222-.111-.333-.334-.333-.222 0-.333-.111-.333-.333 0-.245-.111-.334-.417-.334-.333 0-.416-.083-.416-.416 0-.306-.089-.417-.334-.417-.222 0-.333-.111-.333-.333 0-.223-.111-.334-.333-.334-.223 0-.334-.111-.334-.333 0-.244-.111-.333-.416-.333-.306 0-.417-.089-.417-.334 0-.222-.111-.333-.333-.333-.216 0-.334-.111-.334-.316 0-.342-.308-.517-.911-.517-.243 0-.415-.122-.47-.334-.07-.265-.228-.333-.77-.333-.571 0-.682-.054-.682-.333 0-.284-.111-.334-.75-.334-.689 0-.75-.034-.75-.416 0-.371-.069-.417-.627-.417-.446 0-.686-.096-.834-.333-.186-.298-.389-.334-1.874-.334-1.554 0-1.665-.022-1.665-.333 0-.325-.111-.333-4.516-.333-4.375 0-4.518.01-4.602.333m46.451 0c0 .32-.111.333-2.849.333-2.692 0-2.853.018-2.934.328-.077.295-.257.333-1.776.375-1.61.045-1.693.065-1.744.422-.05.355-.128.375-1.458.375-1.294 0-1.405.027-1.405.334 0 .299-.111.333-1.084.333-.95 0-1.083.039-1.083.314 0 .174-.149.353-.333.401-.51.133-.53 49.118-.02 49.118.174 0 .353.149.401.334.137.522 8.452.522 8.452 0 0-.223.111-.334.333-.334.332 0 .334-.111.334-21v-21h.416c.334 0 .417-.083.417-.416V34.5h2.833c2.723 0 2.834-.013 2.834-.333 0-.319.111-.334 2.5-.334s2.5.015 2.5.334c0 .313.111.333 1.833.333h1.833v.417c0 .373.068.416.656.416.509 0 .679.075.761.334.082.259.252.333.761.333.545 0 .656.057.656.333 0 .223.111.334.333.334.244 0 .333.111.333.416 0 .306.089.417.334.417.241 0 .333.111.333.403 0 .621.172.93.518.93.258 0 .315.124.315.683 0 .542.069.7.334.769.286.075.333.227.333 1.083s.047 1.009.333 1.084c.321.084.334.227.334 3.89 0 3.656.012 3.806.333 3.908.33.105.333.252.333 13.595v13.488h.417c.306 0 .417.089.417.334 0 .324.111.333 3.916.333 3.806 0 3.917-.009 3.917-.333 0-.223.111-.334.333-.334.332 0 .334-.111.334-18.099 0-17.958-.003-18.099-.334-18.186-.301-.079-.333-.227-.333-1.554 0-1.686-.08-1.994-.518-1.994-.275 0-.315-.13-.315-1.016 0-.875-.046-1.027-.334-1.102-.26-.068-.333-.228-.333-.724 0-.489-.077-.66-.333-.741-.209-.067-.334-.253-.334-.498 0-.61-.174-.919-.517-.919-.205 0-.316-.117-.316-.333 0-.223-.111-.334-.333-.334-.277 0-.334-.111-.334-.655 0-.503-.075-.679-.324-.759a.735.735 0 0 1-.428-.428.484.484 0 0 0-.426-.324c-.211 0-.322-.115-.322-.334 0-.277-.111-.333-.666-.333-.566 0-.667-.053-.667-.349a.444.444 0 0 0-.328-.435.677.677 0 0 1-.428-.401c-.076-.239-.259-.315-.755-.315-.545 0-.656-.057-.656-.333 0-.275-.111-.334-.627-.334-.49 0-.663-.081-.791-.375-.139-.315-.315-.383-1.106-.424-.77-.041-.956-.109-1.026-.375-.079-.301-.242-.326-2.184-.326-1.988 0-2.099-.017-2.099-.333 0-.325-.111-.333-4.583-.333-4.473 0-4.584.008-4.584.333M49.667 26.417c0 .305-.089.416-.334.416-.513 0-.528 50.314-.015 50.448a.622.622 0 0 1 .401.401c.13.499 8.448.495 8.448-.004 0-.207.134-.341.375-.375l.375-.053.042-25.399c.031-18.633-.008-25.459-.146-25.625-.149-.18-1.099-.226-4.667-.226h-4.479v.417m12.28-.308c-.308.308-.119 3.421.213 3.508.283.074.333.256.375 1.359.043 1.138.088 1.292.423 1.439.327.143.375.288.375 1.125 0 .849.039.96.334.96.307 0 .333.111.333 1.405 0 1.259.035 1.417.333 1.512.284.09.334.252.334 1.094 0 .87.039.989.325.989.283 0 .332.137.375 1.042.045.935.088 1.047.425 1.095.344.049.375.14.375 1.125 0 .96.034 1.071.333 1.071.299 0 .333.111.333 1.084 0 .963.036 1.083.326 1.083.282 0 .332.137.375 1.042.044.935.088 1.047.424 1.095.342.048.375.143.375 1.057 0 .864.047 1.016.334 1.091.285.075.333.227.333 1.068 0 .869.038.98.333.98.288 0 .334.111.334.82 0 .967.119 1.347.425 1.347.142 0 .241.254.273.708.043.589.115.718.427.762.34.048.375.144.375 1.03 0 .831.05.993.333 1.083.259.083.333.253.333.762 0 .544.057.655.334.655.288 0 .333.111.333.82 0 1.034.12 1.347.518 1.347.263 0 .315.125.315.75 0 .639.05.75.334.75.296 0 .333.111.333 1s.037 1 .333 1c.284 0 .334.111.334.75 0 .631.051.75.323.75.262 0 .334.135.375.708.043.589.115.717.427.762.34.048.375.143.375 1.041 0 .878.037.989.333.989.279 0 .333.111.333.682 0 .536.07.7.325.767.233.061.338.256.375.693.036.442.153.653.425.772.294.129.375.301.375.792 0 .516.059.627.334.627.284 0 .333.111.333.75s.049.75.333.75c.278 0 .334.111.334.667v.666h.75c.639 0 .75.05.75.334 0 .322.111.333 3.432.333 3.292 0 3.436-.014 3.519-.333.057-.216.228-.334.485-.334.278 0 .397-.094.397-.314 0-.173.149-.352.333-.401.263-.068.334-.227.334-.75 0-.522.07-.681.333-.75.283-.074.333-.227.333-1.019 0-.821.04-.932.334-.932.283 0 .333-.111.333-.739 0-.639.051-.745.375-.791.312-.045.384-.173.426-.762.042-.573.114-.708.375-.708.266 0 .324-.118.324-.656 0-.509.074-.679.333-.761.284-.09.334-.252.334-1.083 0-.886.034-.982.375-1.03.311-.045.383-.173.426-.762.041-.573.113-.708.375-.708.265 0 .324-.118.324-.648 0-.507.072-.666.333-.734.287-.075.333-.227.333-1.103 0-.904.037-1.015.334-1.015.274 0 .333-.111.333-.627 0-.491.082-.663.375-.792.315-.138.383-.315.424-1.106.041-.769.109-.956.375-1.026.257-.067.326-.23.326-.767 0-.571.054-.682.333-.682.299 0 .334-.111.334-1.072 0-.985.03-1.076.375-1.125.31-.044.383-.173.425-.745.038-.519.131-.712.375-.776.272-.071.325-.233.325-.997 0-.773.051-.927.333-1 .287-.075.333-.228.333-1.103 0-.905.037-1.016.334-1.016.299 0 .333-.111.333-1.083 0-.952.038-1.083.316-1.083.397 0 .517-.313.517-1.347 0-.709.046-.82.334-.82.295 0 .333-.111.333-.981 0-.84.048-.993.333-1.067.286-.075.334-.228.334-1.064 0-.852.047-.996.375-1.14.312-.137.383-.318.426-1.073.038-.67.136-.967.375-1.134.271-.19.324-.428.324-1.467 0-1.13.03-1.241.333-1.241.299 0 .333-.111.333-1.064 0-.923.044-1.075.334-1.151.298-.078.333-.227.333-1.436 0-1.233.028-1.349.33-1.349.448 0 .526-.417.469-2.5l-.049-1.75h-9.167l-.053.375c-.034.241-.168.375-.375.375-.285 0-.322.124-.322 1.084 0 .972-.034 1.083-.333 1.083-.307 0-.333.111-.333 1.417 0 1.274-.032 1.416-.313 1.416-.364 0-.521.577-.521 1.918 0 .737-.053.891-.333.964-.299.078-.333.227-.333 1.436 0 1.238-.028 1.349-.334 1.349-.299 0-.333.111-.333 1.083 0 .973-.034 1.084-.333 1.084-.299 0-.334.111-.334 1.083 0 .948-.039 1.083-.312 1.083-.366 0-.521.577-.521 1.938 0 .785-.041.896-.333.896-.297 0-.334.111-.334 1s-.037 1-.333 1c-.299 0-.333.111-.333 1.071 0 .985-.031 1.076-.375 1.125-.312.045-.384.173-.427.762-.032.454-.131.708-.273.708-.306 0-.425.38-.425 1.347 0 .709-.046.82-.334.82-.299 0-.333.111-.333 1.083 0 .973-.034 1.084-.333 1.084-.278 0-.334.111-.334.666 0 .487-.068.667-.254.667-.321 0-.579.666-.579 1.491 0 .497-.073.656-.333.724-.288.075-.334.227-.334 1.103 0 .904-.036 1.015-.333 1.015-.274 0-.333.111-.333.627 0 .491-.082.663-.375.792-.276.121-.389.33-.427.79-.034.404-.135.625-.289.625-.13 0-.281.179-.336.397-.174.691-.74.372-.74-.417 0-.579-.044-.647-.417-.647-.401 0-.416-.039-.416-1.083 0-.973-.035-1.084-.334-1.084-.284 0-.333-.111-.333-.75 0-.632-.051-.75-.325-.75-.279 0-.332-.136-.375-.958-.042-.808-.109-.984-.425-1.123-.293-.129-.375-.301-.375-.792 0-.516-.059-.627-.333-.627-.299 0-.334-.111-.334-1.083s-.034-1.083-.333-1.083c-.297 0-.333-.111-.333-1.016 0-.875-.046-1.028-.334-1.103-.255-.067-.334-.228-.335-.692-.004-.895-.157-1.315-.513-1.408-.266-.07-.318-.239-.318-1.031 0-.808-.05-.961-.334-1.035-.275-.072-.333-.228-.333-.888 0-.956-.121-1.327-.434-1.327-.16 0-.233-.207-.233-.656 0-.844-.256-1.511-.579-1.511-.202 0-.254-.224-.254-1.083 0-.973-.034-1.084-.333-1.084-.299 0-.334-.111-.334-1.083s-.034-1.083-.333-1.083c-.306 0-.333-.111-.333-1.349 0-1.209-.035-1.358-.334-1.436-.285-.075-.333-.228-.333-1.057 0-1.131-.22-1.825-.579-1.825-.207 0-.254-.251-.254-1.349 0-1.209-.035-1.358-.334-1.436-.292-.076-.333-.227-.333-1.221 0-1.27-.1-1.661-.423-1.661-.121 0-.244-.168-.274-.375l-.053-.375-4.845-.044c-2.664-.024-4.896.007-4.958.07m218.5-.001c-.062.063-.114.252-.114.42 0 .168-.104.305-.232.305-.427 0-.434.431-.434 25.113 0 24.445.002 24.586.333 24.672.184.049.333.228.333.401 0 .224.12.314.417.314.306 0 .417.089.417.334 0 .324.111.333 3.916.333 3.806 0 3.917-.009 3.917-.333 0-.223.111-.334.334-.334.333 0 .334-.083.292-25.625l-.043-25.625-4.511-.044c-2.481-.024-4.562.007-4.625.069m109.886 2.878c0 .451.046.939.101 1.084.078.202-.009.263-.375.264h-.476l.056-1.084c.074-1.44.694-1.675.694-.264m-259.951 5.181c.068.26.227.333.73.333.506 0 .677.079.807.375.121.276.33.389.789.427.49.04.625.121.625.375 0 .205.115.323.314.323.174 0 .353.149.401.333.048.184.207.334.353.334s.266.114.266.254.187.325.416.412c.23.087.417.28.417.428 0 .149.15.309.333.357.185.049.334.228.334.401 0 .203.118.314.333.314.279 0 .333.111.333.683 0 .536.07.7.326.767.266.07.334.256.375 1.026.041.791.109.967.424 1.106.354.155.375.261.375 1.875V46h-23v-1.083c0-.973.035-1.084.334-1.084.298 0 .333-.111.333-1.071 0-.985.031-1.076.375-1.125.299-.043.385-.177.426-.662.036-.436.142-.631.375-.692a.444.444 0 0 0 .324-.434c0-.238.106-.349.333-.349.278 0 .334-.111.334-.667 0-.6.041-.666.416-.666.306 0 .417-.089.417-.334 0-.222.111-.333.333-.333.245 0 .334-.111.334-.417 0-.375.066-.416.666-.416.556 0 .667-.056.667-.334 0-.227.111-.333.349-.333a.444.444 0 0 0 .434-.324c.061-.233.256-.339.692-.375.485-.041.619-.127.662-.426.046-.324.152-.375.791-.375.628 0 .739-.05.739-.333 0-.321.111-.334 2.814-.334 2.673 0 2.818.017 2.901.334m188.666 0c.075.287.228.333 1.103.333.885 0 1.016.04 1.016.316 0 .356.31.517.994.517.327 0 .493.1.554.334.067.255.227.333.686.333.488 0 .599.062.599.333 0 .223.111.334.333.334.228 0 .334.111.334.349 0 .203.133.383.318.432a.622.622 0 0 1 .401.401.443.443 0 0 0 .432.318c.238 0 .349.106.349.333 0 .222.111.333.333.333.222 0 .333.111.333.334 0 .219.111.333.324.333.262 0 .334.136.375.708.043.589.115.718.426.762.325.046.375.153.375.792 0 .627.05.738.334.738.296 0 .333.111.333 1s.037 1 .333 1c.308 0 .334.111.334 1.432 0 1.292.032 1.441.333 1.52.322.084.333.227.333 4.298s-.011 4.214-.333 4.298c-.307.081-.333.228-.333 1.853 0 1.655-.021 1.766-.334 1.766-.276 0-.333.111-.333.647 0 .507-.072.666-.333.734-.265.07-.334.228-.334.77 0 .56-.056.682-.318.682-.242 0-.346.161-.432.667-.085.506-.189.666-.431.666-.229 0-.319.118-.319.417 0 .306-.089.417-.333.417-.278 0-.333.111-.333.666 0 .6-.042.667-.417.667-.297 0-.417.09-.417.315 0 .229-.162.345-.601.427-.396.075-.631.224-.687.436a.442.442 0 0 1-.398.322c-.203 0-.314.118-.314.333 0 .279-.111.334-.682.334-.542 0-.7.068-.769.333-.069.263-.228.333-.75.333-.523 0-.682.071-.75.334-.084.32-.228.333-3.651.333-3.453 0-3.564-.01-3.564-.333 0-.299-.111-.334-1.084-.334-.972 0-1.083-.034-1.083-.333 0-.215-.111-.333-.314-.333-.174 0-.353-.149-.401-.334-.066-.253-.227-.333-.674-.333-.483 0-.597-.067-.641-.375a.472.472 0 0 0-.428-.428c-.241-.034-.375-.168-.375-.375 0-.211-.115-.322-.334-.322-.222 0-.333-.111-.333-.333 0-.219-.111-.334-.322-.334-.207 0-.341-.134-.375-.375a.472.472 0 0 0-.428-.428c-.316-.045-.375-.156-.375-.708 0-.544-.057-.655-.333-.655-.277 0-.334-.111-.334-.656 0-.509-.074-.679-.333-.761-.259-.082-.333-.252-.333-.761 0-.545-.057-.656-.334-.656-.292 0-.333-.111-.333-.895 0-1.361-.155-1.938-.521-1.938-.299 0-.312-.239-.312-5.75 0-5.531.012-5.75.315-5.75.398 0 .518-.313.518-1.347 0-.589.065-.82.232-.82.315 0 .435-.371.435-1.347 0-.708.045-.819.333-.819.278 0 .333-.111.333-.667s.056-.667.334-.667c.244 0 .333-.111.333-.416 0-.3.09-.417.319-.417.242 0 .346-.161.431-.667.085-.506.189-.666.431-.666.208 0 .319-.117.319-.334 0-.222.111-.333.333-.333.245 0 .334-.111.334-.417 0-.373.067-.416.655-.416.509 0 .679-.075.761-.334.059-.183.251-.333.428-.333.208 0 .322-.115.322-.324 0-.261.136-.333.709-.375.589-.042.717-.114.761-.426.049-.344.141-.375 1.125-.375.961 0 1.072-.035 1.072-.333 0-.319.111-.334 2.481-.334 2.34 0 2.485.019 2.567.334" fill="#fcfcfc"/>
    <path d="M175.444 45.444c-.061.062-.111.353-.111.648 0 .396-.087.559-.333.623-.263.069-.333.227-.333.75s-.071.681-.334.75c-.287.075-.333.227-.333 1.103 0 .904-.036 1.015-.333 1.015-.275 0-.334.111-.334.627 0 .491-.081.663-.375.792-.264.116-.391.335-.43.742-.031.331-.19.672-.375.801-.249.174-.32.425-.32 1.131 0 .796-.04.907-.333.907-.299 0-.333.111-.333 1.084 0 1.044-.015 1.083-.417 1.083-.373 0-.417.068-.417.647 0 .507-.072.666-.333.735-.287.075-.333.227-.333 1.102 0 .905-.037 1.016-.334 1.016-.284 0-.333.111-.333.75s-.049.75-.333.75c-.295 0-.334.111-.334.96 0 .837-.048.982-.375 1.125-.315.139-.383.315-.424 1.106-.041.77-.109.956-.375 1.026-.278.073-.326.233-.326 1.101 0 .904-.036 1.015-.333 1.015-.299 0-.333.111-.333 1.084V71h1.486c1.706 0 2.014-.079 2.014-.518 0-.275.13-.315 1.015-.315.876 0 1.028-.046 1.103-.334.075-.286.227-.333 1.083-.333s1.009-.047 1.084-.333c.074-.285.227-.334 1.056-.334.872 0 .976-.037 1.041-.375l.072-.375.023.375c.021.348.1.375 1.106.375.972 0 1.083.035 1.083.334 0 .299.111.333 1.084.333.972 0 1.083.034 1.083.333 0 .307.111.334 1.405.334 1.33 0 1.408.02 1.458.375.05.347.15.378 1.345.423l1.292.049V69.59c0-1.312-.026-1.423-.333-1.423-.299 0-.334-.111-.334-1.084 0-.972-.034-1.083-.333-1.083-.297 0-.333-.111-.333-1.016 0-.867-.048-1.028-.326-1.1-.266-.07-.334-.257-.375-1.026-.041-.791-.109-.968-.424-1.106-.294-.129-.375-.301-.375-.792 0-.516-.059-.627-.334-.627-.299 0-.333-.111-.333-1.083s-.034-1.083-.333-1.083c-.277 0-.334-.111-.334-.656 0-.844-.256-1.511-.579-1.511-.185 0-.254-.18-.254-.667 0-.555-.056-.666-.333-.666-.297 0-.334-.111-.334-1.016 0-.875-.046-1.028-.333-1.103-.263-.068-.333-.227-.333-.75 0-.522-.071-.681-.334-.75-.261-.068-.333-.227-.333-.734 0-.579-.044-.647-.417-.647-.401 0-.416-.039-.416-1.084 0-.972-.035-1.083-.334-1.083-.284 0-.333-.111-.333-.75 0-.623-.053-.75-.314-.75-.174 0-.353-.149-.401-.333-.087-.332-1.068-.495-1.341-.223" fill="#fccc2c"/>
  </g>
</svg>
