<svg xmlns:xlink="http://www.w3.org/1999/xlink" xmlns="http://www.w3.org/2000/svg" xml:space="preserve" xmlns:vectornator="http://vectornator.io" viewBox="0 0 144 56" clip-rule="evenodd" stroke-linecap="round" stroke-linejoin="round">
  <g fill-rule="evenodd" vectornator:layerName="Untitled">
    <path d="M2.47 14.756c0 .079-.04.118-.119.118-.118 0-.118.04-.118 12.743 0 12.703 0 12.742.118 12.742.098 0 .118.04.118.236 0 .197.02.236.118.236.079 0 .118.04.118.118 0 .117.04.118 6.814.118s6.813 0 6.813-.118c0-.087.04-.118.149-.118h.148l-.016-1.49-.015-1.489-5.294-.015-5.295-.015-.015-11.341L5.98 15.14l-.132-.019c-.086-.012-.133-.06-.133-.133 0-.074-.04-.114-.118-.114-.079 0-.118-.039-.118-.118 0-.115-.04-.118-1.505-.118-1.465 0-1.504.003-1.504.118m16.175 1.505c-.07.08-.155.147-.188.147-.04 0-.055.744-.045 2.227l.015 2.227.222.018c.173.015.22.043.22.133 0 .179 2.709.179 2.756 0a.202.202 0 0 1 .157-.133l.126-.018v-4.188l-.129-.019a.167.167 0 0 1-.147-.147c-.018-.127-.041-.13-1-.146-.921-.014-.984-.023-1.012-.132-.051-.195-.8-.171-.975.03m83.699.5c0 .111-.048.118-.988.133l-.988.017-.056.25c-.04.182-.084.251-.162.251-.175 0-.164 3.182.012 3.227.065.017.117.08.117.142 0 .08.043.111.148.111.108 0 .148.032.148.118 0 .115.039.119 1.362.119 1.312 0 1.363-.005 1.393-.119.017-.065.081-.117.142-.117.107 0 .111-.081.111-2.006 0-1.925-.004-2.006-.111-2.006-.061 0-.125-.053-.142-.118-.047-.18-.986-.18-.986-.002m-40.469.386c0 .226-.017.265-.117.265-.099 0-.118.04-.118.232 0 .195-.021.235-.133.25-.11.016-.136.062-.151.27-.015.203-.04.25-.133.25-.094 0-.114.042-.114.23 0 .18-.026.236-.118.26-.094.024-.118.08-.118.272 0 .202-.02.242-.118.242-.099 0-.118.039-.118.241 0 .188-.025.248-.113.271-.127.033-.18.182-.182.505 0 .182-.022.221-.118.221-.1 0-.118.04-.118.266s-.018.265-.118.265c-.097 0-.118.04-.118.222 0 .174-.03.235-.133.28-.097.044-.137.117-.151.28-.011.136-.049.221-.097.221-.108 0-.15.135-.15.477 0 .25-.016.29-.118.29-.098 0-.118.04-.118.23 0 .179-.026.235-.118.26-.094.024-.118.08-.118.271 0 .178-.024.242-.09.242-.115 0-.205.236-.205.535 0 .193-.02.232-.118.232-.098 0-.118.04-.118.232 0 .18-.026.24-.118.27-.1.031-.118.089-.118.383 0 .313-.012.347-.133.364-.11.016-.136.062-.15.27-.015.203-.04.25-.134.25-.1 0-.114.043-.114.355 0 .314-.013.354-.118.354-.1 0-.118.039-.118.265s-.017.265-.118.265c-.106 0-.118.04-.118.384 0 .37-.005.384-.147.384-.133 0-.148.023-.148.231 0 .18-.026.24-.118.27-.1.032-.118.09-.118.387 0 .311-.013.35-.118.35-.1 0-.118.04-.118.266 0 .221-.018.265-.111.265-.141 0-.184.111-.184.477 0 .251-.016.29-.118.29-.098 0-.118.04-.118.232 0 .18-.026.24-.118.27-.1.031-.118.09-.118.387 0 .31-.013.35-.118.35s-.118.04-.118.383c0 .37-.005.384-.147.384-.132 0-.148.024-.148.232 0 .18-.026.24-.117.27-.101.031-.119.089-.119.387 0 .31-.013.35-.118.35s-.117.039-.117.38c0 .348-.011.38-.133.397-.11.016-.136.062-.151.264-.013.184-.046.252-.133.275-.096.025-.114.082-.114.353 0 .273-.019.328-.119.354-.101.026-.117.08-.117.39 0 .32-.013.36-.118.36-.1 0-.118.039-.118.265 0 .199-.023.266-.09.266-.115 0-.205.236-.205.534 0 .193-.02.232-.118.232-.106 0-.118.04-.118.384 0 .344-.013.383-.118.383s-.118.04-.118.35c0 .318-.013.352-.133.369-.11.015-.136.06-.151.27-.012.168-.045.25-.102.25-.102 0-.16.208-.135.479.024.252.698.362.698.114 0-.11.036-.121.38-.121.327 0 .384-.016.416-.118.032-.1.09-.118.387-.118.308 0 .35-.014.35-.115 0-.1.049-.118.37-.133.33-.016.37-.031.387-.15.018-.126.045-.133.516-.133.458 0 .497-.01.497-.118 0-.086.04-.118.148-.118.132 0 .147-.024.147-.229 0-.18.026-.236.118-.26.102-.027.118-.08.118-.39 0-.32.013-.36.118-.36.1 0 .118-.039.118-.265 0-.199.023-.266.09-.266.114 0 .205-.235.205-.527 0-.176.026-.233.118-.257.102-.026.118-.08.118-.39 0-.32.013-.36.118-.36s.118-.039.118-.353c0-.315.013-.354.118-.354.1 0 .118-.04.118-.266 0-.198.023-.265.09-.265.114 0 .205-.237.205-.535 0-.193.02-.232.118-.232.106 0 .118-.04.118-.384 0-.344.012-.383.118-.383.098 0 .118-.04.118-.236 0-.172.024-.236.09-.236.114 0 .205-.236.205-.528 0-.176.026-.232.118-.256.102-.027.118-.08.118-.39 0-.32.013-.36.118-.36.1 0 .118-.039.118-.265s.017-.266.118-.266c.105 0 .118-.039.118-.354 0-.308.014-.354.112-.354.14 0 .183-.11.183-.476 0-.251.016-.29.118-.29.1 0 .118-.04.118-.26 0-.208.022-.264.118-.289.099-.026.118-.08.118-.346 0-.271.019-.325.133-.375.111-.049.135-.111.15-.391.014-.273.038-.338.132-.363.09-.024.116-.082.116-.272 0-.202.019-.241.118-.241.105 0 .117-.04.117-.384 0-.344.013-.383.119-.383.098 0 .117-.04.117-.236 0-.192.021-.236.112-.236.14 0 .183-.11.183-.477 0-.25.017-.29.119-.29.1 0 .117-.04.117-.265 0-.227.018-.266.118-.266.099 0 .119-.04.119-.236 0-.172.024-.236.09-.236.114 0 .204-.236.204-.535 0-.192.02-.232.118-.232.1 0 .118-.039.118-.265s.018-.266.118-.266c.105 0 .118-.039.118-.354 0-.314.013-.354.118-.354.1 0 .12-.042.129-.28l.01-.28.023.25c.017.202.045.251.137.251.094 0 .114.042.114.242 0 .19.025.248.115.271.087.023.12.091.133.275.015.202.04.248.15.264.121.017.133.05.133.368 0 .31.014.35.118.35.1 0 .118.04.118.266s.017.265.118.265c.104 0 .118.04.118.321 0 .25.025.339.113.4.066.046.122.167.133.284.016.16.049.208.153.223.114.017.132.055.132.28 0 .223.018.262.118.262.105 0 .118.04.118.36 0 .31.016.363.118.39.093.024.118.08.118.26 0 .205.016.229.148.229.141 0 .147.013.147.383 0 .344.012.384.118.384.1 0 .118.039.118.265s.017.266.118.266c.105 0 .118.039.118.35 0 .298.017.355.118.387.081.026.118.09.118.203 0 .314.07.523.183.553.087.023.112.083.112.27 0 .203.02.242.118.242.105 0 .118.04.118.36 0 .31.016.364.118.39.092.024.118.08.118.26 0 .205.015.229.147.229.142 0 .148.014.148.384 0 .344.012.383.118.383s.118.04.118.383c0 .345.012.384.118.384.103 0 .118.04.118.321 0 .25.025.339.113.4.072.051.121.166.133.314.016.19.044.237.152.252.12.017.133.051.133.369 0 .31.013.35.118.35s.118.039.118.383c0 .341.012.383.115.383.1 0 .117.049.133.37.015.33.03.37.15.387.122.017.132.05.132.398 0 .34.013.38.119.38.103 0 .118.038.118.33 0 .28.017.334.117.36.096.025.119.08.119.29 0 .219.017.258.117.258.102 0 .118.04.118.29 0 .422.035.477.302.477.19 0 .23.02.23.118 0 .106.038.118.383.118.304 0 .383.019.383.09 0 .128.246.205.653.205.31 0 .35.013.35.118 0 .106.04.118.384.118.344 0 .383.012.383.118s.04.118.383.118c.348 0 .384.011.384.12 0 .111.03.12.34.104l.338-.017.018-.315c.016-.276.004-.318-.103-.346-.097-.025-.121-.08-.121-.267 0-.182-.025-.24-.115-.264-.095-.025-.119-.09-.133-.363-.016-.294-.033-.336-.15-.352-.115-.017-.133-.054-.133-.28 0-.222-.018-.262-.118-.262-.106 0-.118-.039-.118-.383 0-.345-.012-.384-.118-.384-.104 0-.118-.04-.118-.33 0-.277-.018-.334-.115-.36-.086-.022-.12-.09-.133-.274-.014-.202-.04-.248-.15-.264-.122-.017-.133-.05-.133-.398 0-.34-.012-.38-.118-.38-.104 0-.118-.039-.118-.324 0-.26-.023-.338-.118-.397-.084-.052-.118-.138-.118-.295 0-.198-.016-.222-.147-.222-.142 0-.148-.014-.148-.384 0-.344-.012-.383-.118-.383-.105 0-.118-.04-.118-.36 0-.31-.016-.363-.118-.39-.093-.024-.118-.08-.118-.265 0-.184-.025-.242-.115-.265-.094-.025-.118-.091-.133-.363-.014-.28-.038-.343-.15-.392-.114-.05-.133-.103-.133-.374 0-.266-.018-.32-.118-.347-.095-.024-.118-.08-.118-.29 0-.218-.018-.258-.118-.258-.101 0-.118-.039-.118-.29 0-.366-.042-.477-.183-.477-.09 0-.112-.043-.112-.236 0-.196-.02-.235-.117-.235-.106 0-.119-.04-.119-.384 0-.344-.012-.383-.118-.383-.098 0-.117-.04-.117-.242 0-.19-.025-.248-.116-.272-.094-.024-.118-.09-.132-.363-.015-.28-.04-.342-.15-.391-.105-.046-.133-.107-.133-.28 0-.183-.021-.222-.119-.222-.103 0-.117-.04-.117-.321 0-.25-.026-.339-.114-.4-.072-.052-.12-.167-.133-.314-.015-.19-.044-.237-.152-.252-.12-.018-.132-.051-.132-.369 0-.31-.014-.35-.118-.35-.099 0-.118-.04-.118-.241 0-.192-.025-.248-.118-.273-.093-.024-.118-.08-.118-.26 0-.19-.02-.229-.118-.229-.099 0-.118-.04-.118-.232 0-.298-.09-.535-.205-.535-.067 0-.09-.067-.09-.265 0-.226-.018-.266-.118-.266-.098 0-.118-.04-.118-.236 0-.196-.02-.236-.118-.236-.098 0-.118-.039-.118-.232 0-.298-.09-.535-.205-.535-.067 0-.09-.067-.09-.265 0-.226-.017-.266-.118-.266-.098 0-.118-.039-.118-.235 0-.197-.02-.236-.118-.236-.1 0-.118-.04-.118-.266s-.018-.265-.118-.265c-.097 0-.118-.04-.119-.221-.001-.324-.054-.472-.181-.506-.088-.023-.113-.083-.113-.27 0-.203-.02-.242-.118-.242-.099 0-.118-.04-.118-.242 0-.191-.024-.247-.118-.272-.092-.024-.118-.08-.118-.26 0-.205-.015-.229-.147-.229-.136 0-.148-.021-.148-.265v-.266h-3.245v.266m28.317.853c0 .11-.049.117-.87.133-.852.016-.87.02-.89.15-.011.084-.059.132-.132.132-.183 0-.179 17.81.004 17.858.11.028.118.08.118.73 0 .638.01.708.118.775.084.053.118.138.118.295 0 .198.016.222.148.222.14 0 .147.016.147.36 0 .31.016.363.118.39.068.018.118.08.118.148 0 .067.05.13.118.147.065.017.118.08.118.142 0 .07.041.111.113.111.085 0 .122.057.152.236.04.228.048.236.271.236.207 0 .23.015.23.147 0 .105.033.148.112.148.061 0 .125.053.142.118.025.094.08.118.272.118.203 0 .242.02.242.118 0 .098.039.118.229.118.18 0 .236.026.26.118.026.102.08.118.396.118.314 0 .369.016.395.116.045.173.212.185 2.2.166l1.8-.017.018-.132c.018-.125.047-.133.493-.133.424 0 .476-.013.504-.118.026-.102.08-.118.383-.118s.357-.017.384-.118c.026-.1.08-.118.354-.118.27 0 .328-.019.353-.115a.202.202 0 0 1 .156-.132.168.168 0 0 0 .146-.151c.01-.073.054-.133.097-.133.193 0 .226-.876.034-.926-.096-.025-.118-.09-.132-.393-.016-.325-.032-.364-.15-.381-.122-.018-.133-.05-.133-.398 0-.34-.013-.38-.118-.38-.08 0-.118-.039-.118-.118 0-.11-.04-.118-.62-.118s-.62.008-.62.118c0 .1-.038.118-.265.118-.226 0-.265.018-.265.118 0 .105-.04.118-.354.118-.315 0-.354.013-.354.118 0 .115-.04.118-1.29.118-1.242 0-1.293-.004-1.323-.117-.026-.101-.08-.119-.36-.119-.291 0-.33-.014-.33-.118 0-.086-.04-.117-.148-.117-.108 0-.147-.032-.147-.119 0-.078-.04-.118-.119-.118-.1 0-.117-.039-.117-.265s-.018-.266-.118-.266c-.105 0-.118-.039-.118-.35 0-.406-.078-.652-.205-.652-.08 0-.09-.567-.09-5.074V25.67h6.607v-.856c0-.81-.006-.855-.116-.855-.104 0-.117-.048-.133-.486-.016-.454-.026-.488-.15-.506-.096-.014-.132-.059-.132-.162v-.144h-2.884c-2.834 0-2.884-.002-2.915-.118a.157.157 0 0 0-.154-.118c-.123 0-.123-.007-.123-2.153 0-2.114-.002-2.153-.118-2.153-.08 0-.118-.04-.118-.118 0-.11-.04-.118-.62-.118-.577 0-.62.008-.62.116m47.785 2.303c0 .1-.04.118-.266.118s-.265.017-.265.118c0 .09-.04.117-.165.117-.218 0-.307.099-.307.337 0 .155-.024.194-.118.194-.079 0-.118.04-.118.119 0 .066-.04.117-.09.117-.159 0-.205.283-.204 1.258.001 1.066.02 1.196.181 1.239.068.02.114.082.113.152 0 .084.038.124.114.124.09 0 .119.048.133.221.017.209.031.223.236.24.172.014.221.045.236.147.009.08.072.141.151.148.073.01.133.054.133.097 0 .206 2.407.237 2.46.032.022-.083.081-.118.196-.118.243 0 .352-.057.352-.183 0-.073.042-.112.118-.112.079 0 .118-.04.118-.118 0-.079.039-.118.118-.118.098 0 .118-.04.118-.232 0-.196.021-.234.133-.25.119-.017.135-.057.15-.382.015-.302.037-.367.133-.393.176-.046.176-.985 0-.985-.1 0-.117-.048-.133-.368-.015-.332-.031-.37-.15-.388-.113-.016-.133-.055-.133-.256 0-.188-.025-.244-.118-.268-.065-.017-.118-.08-.118-.142 0-.07-.041-.112-.114-.112-.062 0-.13-.053-.151-.117-.029-.092-.089-.118-.27-.118-.192 0-.231-.02-.231-.119 0-.113-.04-.117-1.121-.117-1.082 0-1.121.004-1.121.117m1.77.87c0 .025-.206.038-.458.029-.808-.028-.887-.053-.206-.063.365-.005.664.01.664.035m-1.777 1.504c-.004.56-.019.974-.033.92-.014-.053-.077-.11-.141-.127-.087-.023-.114-.081-.114-.247 0-.168-.027-.225-.118-.248-.095-.025-.118-.081-.118-.283 0-.202.023-.258.118-.283.094-.024.118-.08.118-.272 0-.202.019-.242.118-.242.079 0 .118-.039.118-.118 0-.064.013-.117.029-.117s.027.457.023 1.017m2.429-.546c.105 0 .114.045.114.531 0 .438-.016.531-.09.531-.05 0-.115.06-.144.133-.035.087-.051-.184-.047-.782.004-.502.017-.801.03-.663.018.2.045.25.137.25m-95.69.177c0 .109-.039.118-.506.118-.454 0-.51.013-.537.116-.025.094-.091.118-.363.132-.294.016-.336.033-.353.15-.016.116-.053.133-.28.133-.222 0-.261.018-.261.118 0 .098-.04.118-.232.118-.18 0-.24.026-.27.118-.02.065-.088.118-.15.118-.083 0-.115.041-.115.148 0 .132-.023.147-.236.147-.197 0-.236.02-.236.118 0 .08-.04.118-.123.118a.157.157 0 0 0-.153.113.22.22 0 0 1-.142.142c-.062.016-.113.068-.113.116s-.053.101-.118.118a.157.157 0 0 0-.118.154c0 .083-.038.124-.113.124-.085 0-.122.057-.152.236-.03.18-.067.236-.153.236-.071 0-.112.041-.112.111 0 .061-.053.125-.119.142a.157.157 0 0 0-.118.147c0 .068-.05.13-.117.148-.089.023-.119.08-.119.229 0 .149-.033.212-.132.256-.097.042-.138.117-.15.273-.014.155-.051.224-.134.246-.09.023-.115.082-.115.271 0 .202-.019.242-.117.242-.106 0-.118.039-.118.36 0 .303-.018.363-.113.388-.14.036-.18.182-.181.646-.001.312-.018.366-.12.392-.115.03-.117.081-.117 2.75 0 2.68.001 2.72.118 2.72.108 0 .118.04.118.486.001.59.035.733.182.771.095.025.113.085.113.389 0 .32.012.36.117.36.1 0 .118.039.118.241 0 .19.025.248.115.272.083.021.12.09.133.245.013.156.054.23.15.273.1.044.133.108.133.256 0 .149.03.206.118.23.066.016.118.08.118.141 0 .072.042.111.118.111.08 0 .118.04.118.124 0 .074.048.136.118.154.066.017.118.08.118.142 0 .08.043.111.148.111.108 0 .147.032.147.118 0 .079.04.118.118.118.087 0 .118.04.118.148 0 .108.032.147.118.147.079 0 .118.04.118.118 0 .087.04.118.148.118.108 0 .147.032.147.118 0 .076.04.118.111.118.062 0 .125.053.142.118.024.09.08.118.24.118.17 0 .21.024.226.133.016.11.06.136.27.15.202.015.25.04.25.133 0 .097.042.115.265.115.227 0 .266.017.266.118 0 .105.04.118.347.118.297 0 .352.017.378.118.028.106.08.118.538.118.462 0 .507.01.507.114 0 .17.255.189 2.36.169l1.858-.018.018-.132c.019-.13.037-.133.758-.133.69 0 .741-.008.77-.118.017-.065.08-.118.142-.118.07 0 .11-.042.11-.111 0-.062.054-.125.119-.142.102-.027.118-.08.118-.39 0-.314.014-.36.112-.36.14 0 .183-.11.183-.477 0-.25.016-.29.118-.29.1 0 .118-.04.118-.258 0-.21.023-.265.118-.29.158-.04.184-1.377.029-1.436-.19-.073-.619.038-.619.16 0 .095-.042.113-.265.113-.227 0-.266.018-.266.118 0 .104-.04.118-.33.118-.28 0-.335.018-.36.118-.028.103-.081.118-.414.118-.332 0-.386.016-.413.118-.03.115-.08.118-1.676.118-1.605 0-1.644-.002-1.644-.117 0-.11-.04-.119-.502-.119s-.501-.009-.501-.118c0-.098-.04-.117-.236-.117-.197 0-.236-.02-.236-.119 0-.1-.04-.118-.266-.118-.244 0-.265-.012-.265-.147 0-.108-.032-.147-.118-.147-.079 0-.118-.04-.118-.119 0-.078-.04-.117-.118-.117-.079 0-.118-.04-.118-.118 0-.087-.04-.119-.148-.119-.129 0-.147-.025-.147-.206 0-.142-.037-.228-.118-.28-.065-.04-.118-.12-.118-.177 0-.063-.045-.103-.115-.103-.092 0-.118-.048-.132-.251-.015-.209-.04-.254-.151-.27-.12-.017-.133-.05-.133-.368 0-.31-.013-.35-.118-.35-.109 0-.118-.04-.118-.507 0-.458-.011-.51-.118-.538-.092-.024-.118-.08-.118-.26v-.228l5.796-.016 5.796-.015.019-.132c.012-.086.06-.133.133-.133.073 0 .114-.04.114-.114 0-.073.047-.12.132-.133.249-.035.23-3.233-.018-3.233-.107 0-.114-.048-.114-.743 0-.694-.008-.745-.118-.774-.104-.027-.118-.08-.118-.432 0-.45-.036-.588-.15-.588-.051 0-.086-.09-.098-.25-.015-.21-.04-.255-.15-.27-.112-.017-.133-.056-.133-.251 0-.193-.02-.232-.118-.232-.1 0-.118-.04-.118-.265 0-.227-.018-.266-.118-.266-.079 0-.118-.04-.118-.118 0-.076-.04-.118-.11-.118-.083 0-.12-.058-.148-.229-.026-.161-.071-.238-.155-.26a.158.158 0 0 1-.118-.154c0-.085-.038-.124-.118-.124-.079 0-.118-.04-.118-.118 0-.086-.04-.118-.148-.118-.108 0-.147-.031-.147-.118 0-.098-.04-.118-.236-.118-.212 0-.236-.015-.236-.147 0-.108-.032-.148-.118-.148-.079 0-.118-.039-.118-.118 0-.1-.04-.118-.265-.118-.227 0-.266-.017-.266-.118 0-.098-.04-.118-.232-.118-.195 0-.235-.02-.25-.133-.016-.11-.062-.135-.264-.15-.184-.013-.252-.046-.275-.133-.026-.102-.084-.115-.503-.115-.422 0-.478-.012-.511-.118-.037-.114-.09-.117-1.627-.117-1.55 0-1.588.002-1.588.117m35.395 0c0 .11-.04.118-.59.118-.525 0-.597.013-.662.118-.053.084-.138.118-.296.118-.197 0-.222.017-.222.148 0 .141-.015.147-.359.147-.31 0-.364.016-.39.118a.157.157 0 0 1-.148.118.158.158 0 0 0-.147.118c-.02.075-.081.118-.167.118-.213 0-.322.062-.322.183 0 .073-.042.112-.118.112-.08 0-.118.04-.118.118 0 .087-.04.118-.148.118-.108 0-.147.032-.147.118 0 .085-.04.118-.143.118-.266 0-.33.058-.33.301 0 .206-.015.23-.147.23-.108 0-.147.031-.147.118 0 .079-.04.118-.118.118-.079 0-.118.04-.118.118 0 .079-.04.118-.118.118-.087 0-.118.04-.118.147 0 .109-.032.148-.118.148-.098 0-.118.04-.118.232 0 .195-.02.234-.133.25-.11.016-.136.062-.15.27-.015.203-.04.25-.133.25-.095 0-.115.043-.115.237 0 .197-.02.236-.118.236-.1 0-.118.04-.118.265 0 .221-.019.266-.112.266-.14 0-.183.11-.183.47 0 .233-.02.288-.118.314-.108.028-.118.08-.118.626 0 .556-.008.595-.118.595-.116 0-.118.04-.118 2.356 0 2.304.002 2.357.118 2.393.106.034.118.09.118.535 0 .459.01.498.118.498.105 0 .118.04.118.35 0 .407.077.652.205.652.066 0 .09.065.09.242 0 .192.024.248.118.273.092.024.118.08.118.26 0 .189.02.228.118.228.091 0 .118.04.118.173 0 .248.056.358.183.358.072 0 .112.042.112.118 0 .079.039.118.118.118.096 0 .118.04.118.212 0 .163.027.22.118.243.068.018.118.08.118.148 0 .067.05.13.118.147.065.017.118.08.118.142 0 .08.042.111.147.111.118 0 .148.03.148.148 0 .105.032.147.111.147.061 0 .125.053.142.118.017.065.071.118.12.118.05 0 .108.053.128.118.03.092.09.118.27.118.192 0 .232.02.232.118 0 .079.039.118.117.118.077 0 .119.04.119.112 0 .127.11.183.358.183.133 0 .173.027.173.118 0 .098.039.118.231.118.18 0 .24.026.27.118.032.1.09.118.38.118.294 0 .348.017.374.118.03.11.08.118.77.118.721 0 .74.003.758.133l.019.132 1.719.016c1.73.016 2.027-.012 2.027-.191 0-.075.104-.09.62-.09.58 0 .619-.008.619-.118 0-.106.039-.118.383-.118.344 0 .383-.012.383-.118 0-.104.04-.118.322-.118.242 0 .34-.026.398-.107a.47.47 0 0 1 .18-.146c.17-.063.155-1.517-.015-1.517-.108 0-.118-.039-.118-.501s-.009-.502-.118-.502c-.098 0-.118-.04-.118-.236v-.236h-.62c-.58 0-.619.008-.619.118 0 .106-.039.118-.383.118-.344 0-.383.013-.383.118 0 .106-.04.118-.384.118-.344 0-.383.013-.383.118 0 .185-2.8.185-2.849 0-.028-.105-.08-.118-.508-.118-.438 0-.478-.01-.478-.118 0-.097-.039-.117-.23-.117-.178 0-.235-.026-.259-.119-.024-.094-.08-.118-.272-.118-.219 0-.242-.014-.242-.147 0-.105-.032-.147-.111-.147-.061 0-.125-.053-.142-.119a.157.157 0 0 0-.154-.117c-.074 0-.124-.038-.124-.095 0-.051-.053-.107-.118-.124a.157.157 0 0 1-.117-.148.158.158 0 0 0-.119-.148c-.065-.017-.118-.08-.118-.141 0-.07-.041-.111-.114-.111-.09 0-.119-.048-.133-.222-.014-.177-.044-.225-.15-.24-.116-.016-.134-.054-.134-.28 0-.222-.017-.261-.117-.261-.106 0-.119-.04-.119-.36 0-.31-.016-.363-.118-.39-.108-.028-.117-.08-.117-.643 0-.574-.008-.613-.119-.613-.114 0-.117-.04-.117-1.15 0-.944.014-1.15.082-1.15.129 0 .154-.14.154-.861 0-.634.006-.674.117-.674.105 0 .118-.039.118-.354 0-.314.013-.353.119-.353.1 0 .117-.04.117-.262 0-.226.018-.264.133-.28.11-.016.136-.061.151-.27.015-.202.04-.25.133-.25.075 0 .114-.04.114-.118 0-.08.04-.118.118-.118.08 0 .118-.04.118-.118 0-.077.04-.118.114-.118a.169.169 0 0 0 .15-.112.24.24 0 0 1 .151-.142.157.157 0 0 0 .116-.153c0-.085.038-.124.118-.124.079 0 .118-.04.118-.118 0-.096.04-.118.212-.118.16 0 .22-.028.242-.115.023-.086.09-.12.275-.133.202-.014.248-.04.264-.15.017-.122.05-.133.398-.133.34 0 .379-.013.379-.118 0-.114.04-.118 1.261-.118 1.212 0 1.263.004 1.293.118.027.105.08.118.51.118.456 0 .481.007.535.147.05.133.089.148.375.148.27 0 .324.018.35.118.027.106.08.118.508.118.438 0 .477-.01.477-.118 0-.079.04-.118.118-.118.106 0 .118-.04.118-.38 0-.348.011-.38.133-.398.12-.017.135-.056.15-.387.016-.32.033-.369.133-.369.107 0 .115-.044.115-.62 0-.567-.009-.619-.11-.619-.063 0-.126-.052-.143-.118-.024-.093-.08-.118-.272-.118-.198 0-.242-.02-.242-.111 0-.141-.11-.184-.477-.184-.208 0-.29-.023-.29-.082 0-.128-.138-.154-.826-.154-.588 0-.643-.01-.678-.118-.036-.114-.09-.117-1.892-.117-1.815 0-1.854.002-1.854.117m31.342 0c-.028.107-.08.118-.525.118-.455 0-.495.01-.495.118 0 .102-.039.118-.29.118-.366 0-.477.043-.477.184 0 .09-.043.111-.232.111-.18 0-.24.027-.269.118-.024.074-.09.118-.176.118-.2 0-.326.06-.326.154 0 .045-.053.082-.117.082-.087 0-.119.04-.119.148 0 .133-.023.147-.241.147-.192 0-.248.024-.272.118-.018.066-.081.118-.142.118-.072 0-.111.042-.111.118 0 .08-.04.118-.124.118a.157.157 0 0 0-.153.113.218.218 0 0 1-.142.142.157.157 0 0 0-.112.152c0 .085-.038.124-.118.124-.077 0-.118.04-.118.111 0 .062-.053.125-.118.142-.09.024-.118.08-.118.239 0 .17-.024.211-.133.226a.169.169 0 0 0-.152.152c-.012.086-.059.133-.132.133-.094 0-.114.042-.114.236 0 .197-.02.236-.118.236-.101 0-.118.04-.118.265 0 .244-.012.266-.148.266-.132 0-.147.024-.147.229 0 .18-.026.236-.118.26-.094.024-.118.08-.118.268 0 .186-.026.246-.118.275-.105.034-.118.09-.118.506 0 .428-.01.468-.118.468-.112 0-.118.039-.118.762 0 .747-.003.764-.133.782l-.133.019-.016 1.475c-.018 1.624-.007 1.74.165 1.74.11 0 .117.042.117.743 0 .693.008.745.118.774.101.026.118.08.118.383s.017.357.118.383c.1.027.118.081.118.354 0 .274.018.328.118.354.082.022.118.081.118.196 0 .243.057.353.183.353.091 0 .112.043.112.235 0 .197.019.236.118.236.086 0 .118.04.118.148 0 .107.032.147.114.147.09 0 .119.048.133.221.015.178.044.226.151.24.096.014.133.06.133.163 0 .104.032.143.118.143.078 0 .118.04.118.118 0 .08.039.118.118.118.078 0 .118.04.118.118 0 .077.039.118.113.118.074 0 .121.047.133.133.008.08.071.144.152.152.085.012.133.06.133.132 0 .075.04.114.118.114.078 0 .117.04.117.118 0 .087.04.118.148.118.108 0 .148.032.148.118 0 .098.039.118.231.118.196 0 .235.02.251.133.015.106.063.136.234.15.155.013.224.05.245.133.024.09.082.115.272.115.202 0 .241.02.241.118 0 .1.04.118.266.118s.265.017.265.118c0 .109.039.118.502.118.495 0 .501.002.501.148v.147h1.913c2.019 0 2.099-.007 2.099-.183 0-.1.048-.112.477-.112.428 0 .481-.013.508-.118.025-.093.081-.118.266-.118s.241-.025.265-.118c.024-.092.081-.118.26-.118.185 0 .229-.021.229-.11 0-.084.059-.12.242-.15.172-.027.251-.072.273-.155.016-.063.08-.116.141-.116.072 0 .111-.042.111-.118 0-.096.039-.118.212-.118.163 0 .22-.028.243-.118.017-.065.066-.118.109-.118s.113-.048.156-.107a.472.472 0 0 1 .18-.146c.057-.021.103-.092.103-.158 0-.081.039-.12.12-.12.066 0 .137-.046.158-.103a.47.47 0 0 1 .146-.18c.068-.05.107-.152.107-.28 0-.164.023-.204.118-.204.079 0 .118-.039.118-.118 0-.078.039-.118.118-.118.076 0 .118-.039.118-.11 0-.062.052-.125.116-.142.083-.022.128-.1.154-.268.027-.162.073-.245.15-.265.082-.022.111-.083.111-.238 0-.156.029-.217.118-.245.091-.03.118-.09.118-.27 0-.168.024-.232.09-.232.114 0 .205-.235.205-.534 0-.16.026-.232.082-.232.119 0 .154-.135.154-.588 0-.352.014-.405.118-.432.116-.03.118-.08.118-2.632 0-2.562-.002-2.601-.118-2.601-.109 0-.118-.04-.118-.502 0-.458-.01-.502-.115-.502-.1 0-.118-.048-.133-.368-.016-.331-.031-.37-.15-.388-.121-.017-.133-.05-.133-.374 0-.306-.017-.36-.118-.386-.065-.017-.118-.08-.118-.142 0-.07-.042-.111-.115-.111-.092 0-.118-.048-.132-.25-.015-.21-.041-.255-.151-.27-.112-.017-.133-.055-.133-.251 0-.193-.02-.232-.118-.232-.087 0-.118-.04-.118-.148 0-.108-.032-.147-.118-.147-.079 0-.118-.04-.118-.118 0-.079-.039-.118-.118-.118-.079 0-.118-.04-.118-.118 0-.087-.039-.118-.147-.118-.118 0-.148-.03-.148-.147 0-.109-.031-.148-.118-.148-.079 0-.118-.04-.118-.118 0-.079-.039-.118-.118-.118-.079 0-.118-.04-.118-.118 0-.086-.039-.118-.147-.118-.108 0-.148-.031-.148-.118 0-.079-.039-.118-.118-.118-.076 0-.118-.04-.118-.112 0-.12-.109-.183-.322-.183-.086 0-.147-.043-.167-.118-.024-.094-.08-.118-.272-.118-.202 0-.242-.019-.242-.118 0-.1-.039-.118-.265-.118-.244 0-.266-.012-.266-.147 0-.131-.024-.148-.221-.148-.158 0-.243-.034-.296-.118-.065-.105-.137-.118-.663-.118-.55 0-.589-.008-.589-.118 0-.115-.04-.117-1.599-.117-1.548 0-1.599.003-1.629.117m16.442 0c0 .114-.039.118-1.009.118-.952 0-1.009.007-1.038.116-.027.105-.091.118-.629.133-.57.016-.599.023-.617.15-.018.125-.045.132-.516.132-.458 0-.497.01-.497.118 0 .106-.04.118-.384.118-.336 0-.383.014-.383.111 0 .062-.053.125-.118.142-.181.047-.188 17.386-.007 17.386.061 0 .125.053.142.118.048.185 2.991.185 2.991 0 0-.079.04-.118.118-.118.118 0 .118-.04.118-7.433v-7.433h.148c.118 0 .147-.03.147-.148v-.147h1.003c.964 0 1.003-.005 1.003-.118 0-.113.039-.118.885-.118s.885.005.885.118c0 .11.039.118.649.118h.648v.147c0 .133.024.148.233.148.18 0 .24.026.269.118.029.092.089.118.269.118.193 0 .233.02.233.118 0 .079.039.118.117.118.087 0 .118.04.118.147 0 .108.032.148.118.148s.118.04.118.142c0 .22.061.33.184.33.091 0 .111.043.111.241 0 .192.025.248.118.273.102.026.118.08.118.383s.017.357.118.384c.114.03.118.08.118 1.376 0 1.294.005 1.348.118 1.384.117.037.118.089.118 4.812v4.774h.148c.108 0 .147.031.147.118 0 .115.04.118 1.386.118 1.348 0 1.387-.003 1.387-.118 0-.079.039-.118.118-.118.117 0 .118-.04.118-6.406 0-6.357-.001-6.407-.118-6.437-.107-.028-.118-.08-.118-.55 0-.597-.028-.706-.184-.706-.097 0-.111-.046-.111-.36 0-.31-.016-.363-.118-.39-.092-.024-.118-.08-.118-.256 0-.173-.027-.234-.118-.262-.074-.024-.118-.09-.118-.177 0-.216-.062-.325-.183-.325-.073 0-.112-.041-.112-.118 0-.079-.039-.118-.118-.118-.098 0-.118-.04-.118-.232 0-.178-.027-.24-.115-.269a.258.258 0 0 1-.151-.151.172.172 0 0 0-.151-.115c-.075 0-.114-.04-.114-.118 0-.098-.039-.118-.236-.118-.2 0-.236-.019-.236-.123a.157.157 0 0 0-.116-.154.24.24 0 0 1-.151-.142c-.027-.085-.092-.112-.268-.112-.193 0-.232-.02-.232-.118 0-.097-.039-.118-.222-.118-.173 0-.235-.029-.28-.133-.049-.111-.111-.135-.391-.15-.273-.014-.339-.038-.363-.132-.028-.107-.086-.116-.773-.116-.704 0-.743-.006-.743-.118 0-.115-.04-.117-1.623-.117s-1.622.002-1.622.117m-109.254.502c0 .108-.031.147-.118.147-.182 0-.187 17.809-.005 17.856a.22.22 0 0 1 .142.142c.046.177 2.99.176 2.99-.001 0-.073.047-.12.133-.133l.132-.019.015-8.99c.011-6.595-.003-9.01-.052-9.07-.052-.063-.389-.08-1.651-.08h-1.586v.148m4.347-.11c-.11.11-.042 1.212.075 1.243.1.026.118.09.133.48.015.403.031.458.15.51.115.05.132.102.132.398 0 .3.014.34.119.34.108 0 .117.04.117.497 0 .446.013.502.118.535.1.032.118.09.118.388 0 .308.014.35.116.35.1 0 .117.048.132.368.016.332.031.371.15.388.122.017.133.05.133.398 0 .34.012.38.118.38s.118.039.118.383c0 .34.013.383.116.383.1 0 .117.049.132.37.016.33.031.37.15.387.121.017.133.05.133.374 0 .306.017.36.118.386.101.027.118.08.118.378 0 .308.014.347.118.347.102 0 .118.04.118.29 0 .343.042.477.15.477.051 0 .086.09.097.25.016.21.041.255.151.27.12.017.133.051.133.365 0 .294.018.351.118.383.092.03.118.09.118.27 0 .193.02.232.118.232.102 0 .118.04.118.29 0 .366.043.477.183.477.093 0 .112.044.112.265 0 .226.018.266.118.266.105 0 .118.039.118.354 0 .314.013.354.118.354.1 0 .118.039.118.265 0 .223.018.266.114.266.093 0 .119.047.133.25.015.209.04.254.151.27.12.017.133.05.133.368 0 .311.013.35.118.35.099 0 .118.04.118.242 0 .19.024.248.115.271.082.022.12.09.133.246.012.156.054.23.15.273.104.045.133.106.133.28 0 .183.02.222.118.222.1 0 .118.04.118.266s.017.265.118.265c.098 0 .118.04.118.236v.236h.265c.227 0 .266.017.266.118 0 .114.039.118 1.214.118 1.166 0 1.217-.005 1.246-.118.02-.076.08-.118.172-.118.098 0 .14-.033.14-.111 0-.062.053-.125.118-.142.093-.024.118-.08.118-.266 0-.184.025-.24.118-.265.1-.026.118-.08.118-.36 0-.291.014-.33.118-.33.1 0 .118-.04.118-.262 0-.227.018-.264.133-.28.11-.016.136-.061.15-.27.016-.203.041-.25.133-.25.095 0 .115-.042.115-.233 0-.18.026-.24.118-.27.1-.031.118-.088.118-.383 0-.313.012-.347.133-.364.11-.016.136-.061.15-.27.015-.203.04-.25.133-.25.094 0 .115-.042.115-.23 0-.18.026-.236.118-.26.102-.026.118-.08.118-.39 0-.32.013-.36.118-.36.097 0 .118-.038.118-.221 0-.174.029-.235.133-.28.111-.05.135-.112.15-.392.014-.272.038-.338.133-.363.09-.024.115-.082.115-.272 0-.202.019-.241.118-.241.106 0 .118-.04.118-.38 0-.348.01-.38.133-.398.11-.015.135-.06.15-.263.014-.184.047-.252.133-.275.096-.025.115-.082.115-.353 0-.274.018-.328.118-.354.101-.026.118-.08.118-.39 0-.32.013-.36.118-.36.106 0 .118-.04.118-.383 0-.337.013-.383.112-.383.14 0 .183-.111.183-.477 0-.251.016-.29.118-.29.104 0 .118-.04.118-.348 0-.297.017-.351.117-.377.102-.027.119-.081.119-.377 0-.302.016-.353.133-.404.11-.048.135-.112.15-.38.014-.237.048-.342.133-.4.096-.068.115-.152.115-.52 0-.4.01-.44.118-.44.105 0 .117-.038.117-.376 0-.326.016-.38.119-.407.105-.028.117-.08.117-.509 0-.436.01-.477.117-.477.159 0 .187-.148.166-.885l-.017-.62h-3.245l-.019.133c-.011.086-.059.133-.132.133-.101 0-.114.044-.114.384 0 .344-.012.383-.118.383-.109 0-.118.04-.118.502 0 .45-.011.5-.11.5-.13 0-.185.205-.185.68 0 .26-.019.315-.118.341-.106.028-.118.08-.118.508 0 .438-.01.478-.118.478-.106 0-.118.04-.118.383 0 .345-.012.384-.118.384s-.118.04-.118.383c0 .336-.014.383-.11.383-.13 0-.185.205-.185.686 0 .278-.014.318-.118.318-.105 0-.118.039-.118.354 0 .314-.013.354-.118.354-.106 0-.118.039-.118.379 0 .348-.01.38-.132.398-.11.016-.136.061-.152.27-.01.16-.046.25-.096.25-.108 0-.15.135-.15.477 0 .25-.017.29-.119.29-.106 0-.118.04-.118.383 0 .345-.012.384-.118.384-.098 0-.118.04-.118.236 0 .172-.024.236-.09.236-.113 0-.205.236-.205.528 0 .176-.026.232-.117.256-.102.026-.119.08-.119.39 0 .32-.012.36-.118.36-.097 0-.118.039-.118.222 0 .173-.029.234-.132.28-.098.043-.138.117-.151.28-.012.143-.048.22-.103.22-.046 0-.1.064-.119.141-.061.245-.262.132-.262-.147 0-.205-.015-.23-.147-.23-.142 0-.147-.013-.147-.383 0-.344-.013-.383-.119-.383-.1 0-.117-.04-.117-.266 0-.224-.018-.265-.115-.265-.1 0-.118-.048-.133-.34-.015-.285-.039-.348-.15-.397-.104-.045-.133-.106-.133-.28 0-.183-.021-.222-.118-.222-.106 0-.118-.04-.118-.383 0-.345-.012-.384-.118-.384-.105 0-.118-.04-.118-.36 0-.31-.017-.363-.118-.39-.09-.024-.119-.08-.119-.245-.001-.317-.056-.465-.181-.498-.095-.025-.113-.085-.113-.365 0-.286-.018-.34-.118-.366-.098-.026-.118-.081-.118-.315 0-.338-.043-.47-.154-.47-.056 0-.082-.073-.082-.232 0-.298-.09-.534-.205-.534-.072 0-.09-.08-.09-.384 0-.344-.012-.383-.118-.383s-.118-.04-.118-.384c0-.344-.012-.383-.118-.383-.108 0-.118-.04-.118-.478 0-.427-.012-.48-.118-.508-.101-.026-.118-.08-.118-.374 0-.4-.078-.646-.205-.646-.073 0-.09-.089-.09-.477 0-.428-.012-.481-.118-.509-.103-.027-.118-.08-.118-.432 0-.45-.035-.588-.15-.588-.043 0-.086-.06-.097-.133l-.018-.132-1.715-.016c-.943-.008-1.733.003-1.755.025m77.339 0c-.022.022-.041.089-.041.148 0 .06-.036.108-.082.108-.151 0-.153.153-.153 8.889 0 8.652 0 8.702.118 8.733.065.017.117.08.117.142 0 .079.043.11.148.11.108 0 .148.032.148.12 0 .114.039.117 1.386.117s1.386-.003 1.386-.118c0-.079.039-.118.118-.118.118 0 .119-.03.104-9.07l-.015-9.07-1.597-.016c-.878-.008-1.615.003-1.637.024m38.894 1.02c0 .159.017.332.036.383.028.071-.003.093-.133.093h-.168l.02-.383c.026-.51.245-.593.245-.094m-92.01 1.834c.024.092.08.118.258.118.18 0 .24.028.286.133.042.097.117.137.279.15.173.015.221.044.221.134 0 .072.04.114.111.114.062 0 .125.053.142.118.017.065.074.118.125.118.052 0 .094.04.094.09 0 .05.066.115.148.146.081.03.147.099.147.151 0 .053.053.11.118.127.066.017.118.08.118.142 0 .071.042.11.118.11.099 0 .118.04.118.242 0 .19.025.248.115.272.095.025.119.09.133.363.015.28.039.342.15.392.126.054.133.092.133.663v.605h-8.141v-.383c0-.344.012-.384.118-.384s.118-.039.118-.379c0-.348.011-.38.133-.398.106-.015.136-.063.15-.234.013-.155.05-.224.133-.245a.157.157 0 0 0 .115-.154c0-.084.038-.123.118-.123.098 0 .118-.04.118-.236 0-.213.015-.236.147-.236.109 0 .148-.032.148-.118 0-.079.04-.118.118-.118.087 0 .118-.04.118-.148 0-.133.023-.147.236-.147.197 0 .236-.02.236-.118 0-.08.04-.118.123-.118a.157.157 0 0 0 .154-.115c.022-.082.09-.12.245-.133.172-.014.219-.044.234-.15.017-.115.054-.133.28-.133.223 0 .262-.018.262-.118 0-.114.04-.118.996-.118.946 0 .997.006 1.027.118m66.779 0c.026.102.08.118.39.118.313 0 .36.014.36.112 0 .126.11.183.352.183.115 0 .174.035.196.118.023.09.08.118.243.118.172 0 .212.022.212.118 0 .079.039.118.117.118.081 0 .119.04.119.123 0 .072.047.136.112.153a.22.22 0 0 1 .142.142c.02.068.083.114.153.113.084 0 .124.037.124.118 0 .078.039.118.117.118.079 0 .118.039.118.118 0 .077.04.118.115.118.093 0 .118.048.133.25.015.209.04.254.151.27.115.016.132.054.132.28 0 .222.018.262.118.262.105 0 .118.039.118.354 0 .314.013.353.118.353.109 0 .118.04.118.507 0 .458.012.51.118.538.114.03.118.08.118 1.522 0 1.44-.004 1.491-.118 1.52-.108.03-.118.082-.118.657 0 .586-.007.625-.118.625-.097 0-.118.04-.118.229 0 .18-.025.236-.118.26-.093.025-.118.08-.118.272 0 .199-.02.242-.112.242-.086 0-.123.057-.153.236s-.067.236-.153.236c-.081 0-.113.041-.113.147 0 .108-.031.148-.118.148-.098 0-.117.039-.117.235 0 .213-.015.236-.148.236-.105 0-.148.032-.148.112 0 .081-.057.122-.212.151-.141.027-.224.08-.244.154a.155.155 0 0 1-.14.114c-.072 0-.112.042-.112.118 0 .099-.039.118-.241.118-.192 0-.248.025-.272.118-.025.093-.081.118-.266.118s-.241.025-.265.118c-.03.114-.081.118-1.292.118-1.223 0-1.262-.003-1.262-.117 0-.106-.039-.119-.384-.119-.344 0-.383-.012-.383-.118 0-.076-.039-.117-.111-.117-.062 0-.125-.053-.142-.119-.023-.09-.08-.118-.238-.118-.171 0-.212-.023-.227-.132a.168.168 0 0 0-.152-.152c-.085-.012-.133-.06-.133-.133 0-.074-.04-.114-.118-.114-.078 0-.118-.039-.118-.117 0-.078-.039-.119-.114-.119-.073 0-.12-.047-.132-.132a.168.168 0 0 0-.152-.152c-.112-.016-.133-.055-.133-.25 0-.193-.02-.232-.117-.232-.099 0-.119-.04-.119-.233 0-.18-.026-.24-.118-.269-.091-.029-.117-.089-.117-.27 0-.192-.021-.231-.119-.231-.103 0-.118-.04-.118-.317 0-.482-.054-.686-.184-.686-.106 0-.11-.085-.11-2.035 0-1.958.004-2.036.111-2.036.141 0 .183-.11.183-.476 0-.209.023-.29.083-.29.111 0 .154-.132.154-.477 0-.251.015-.29.117-.29.099 0 .118-.04.118-.236 0-.197.02-.236.119-.236.086 0 .117-.04.117-.148 0-.106.032-.147.113-.147.086 0 .123-.057.153-.236.03-.18.067-.236.152-.236.074 0 .113-.041.113-.118 0-.079.04-.118.118-.118.087 0 .118-.04.118-.148 0-.132.024-.147.232-.147.18 0 .241-.027.27-.118.02-.065.088-.118.151-.118.074 0 .114-.04.114-.115 0-.092.048-.118.251-.133.208-.014.254-.04.269-.15.018-.122.05-.133.399-.133.34 0 .379-.013.379-.118 0-.113.039-.118.878-.118.828 0 .88.007.909.118" fill="#fcfcfc"/>
    <path d="M63.153 29.544c-.022.021-.04.125-.04.229 0 .14-.03.198-.118.22-.093.025-.117.08-.117.266 0 .185-.026.241-.119.265-.101.027-.118.08-.118.39 0 .32-.012.36-.117.36-.098 0-.119.04-.119.222 0 .174-.028.235-.132.28-.094.041-.139.119-.153.263-.01.117-.067.238-.132.283-.088.062-.114.15-.114.4 0 .283-.014.322-.117.322-.106 0-.118.04-.118.384 0 .37-.006.383-.148.383-.132 0-.148.024-.148.229 0 .18-.025.236-.117.26-.102.027-.118.08-.118.39 0 .32-.013.36-.118.36-.101 0-.118.039-.118.265s-.018.266-.118.266c-.105 0-.118.039-.118.34 0 .296-.017.347-.133.398-.112.049-.136.111-.15.391-.015.273-.039.338-.133.363-.098.026-.115.083-.115.39 0 .32-.013.36-.118.36-.106 0-.118.038-.118.383v.383h.526c.604 0 .713-.028.713-.183 0-.097.046-.112.359-.112.31 0 .364-.016.39-.118.027-.101.08-.118.384-.118.303 0 .357-.016.383-.117.027-.101.08-.119.374-.119.309 0 .346-.013.369-.133l.025-.132.008.133c.008.123.036.132.392.132.344 0 .383.013.383.118 0 .106.04.118.384.118.344 0 .383.012.383.118 0 .109.04.118.497.118.471 0 .499.008.517.133.017.123.053.134.475.15l.458.017v-.504c0-.464-.01-.504-.118-.504-.106 0-.118-.039-.118-.383 0-.344-.012-.384-.118-.384-.105 0-.118-.039-.118-.36 0-.306-.017-.363-.115-.389-.095-.024-.119-.09-.133-.363-.015-.28-.039-.342-.15-.391-.104-.046-.133-.107-.133-.28 0-.183-.02-.222-.118-.222-.106 0-.118-.04-.118-.384 0-.344-.012-.383-.118-.383-.098 0-.118-.04-.118-.232 0-.299-.09-.535-.205-.535-.066 0-.09-.064-.09-.236 0-.197-.02-.236-.118-.236-.105 0-.118-.04-.118-.36 0-.31-.016-.363-.118-.39-.093-.024-.118-.08-.118-.265s-.025-.241-.118-.266c-.092-.024-.118-.08-.118-.26 0-.205-.015-.229-.147-.229-.142 0-.148-.014-.148-.383 0-.344-.012-.384-.118-.384-.1 0-.118-.039-.118-.265 0-.22-.019-.266-.11-.266-.063 0-.126-.052-.143-.117-.03-.118-.378-.176-.474-.08" fill="#fccc2c"/>
  </g>
</svg>
