<svg width="181" height="32" viewBox="0 0 181 32" fill="none" xmlns="http://www.w3.org/2000/svg">
<path fill-rule="evenodd" clip-rule="evenodd" d="M153.35 22.4733C149.564 22.4733 147.437 20.3644 147.437 15.7097C147.437 11.0553 149.564 8.94634 153.35 8.94634C157.352 8.94634 158.866 11.2007 158.866 15.7097C158.866 20.219 157.352 22.4733 153.35 22.4733ZM154.107 6.03711C150.862 6.03711 148.663 7.38257 147.437 9.74605V6.61912H143.832V30.9501H147.437V21.673C148.663 24.0371 150.862 25.3825 154.107 25.3825C159.911 25.3825 162.507 21.0549 162.507 15.7097C162.507 10.3643 159.911 6.03711 154.107 6.03711Z" fill="white"/>
<path fill-rule="evenodd" clip-rule="evenodd" d="M131.5 22.4733C127.606 22.4733 125.84 20.5458 125.84 15.7097C125.84 10.8732 127.606 8.94634 131.5 8.94634C135.394 8.94634 137.16 10.8732 137.16 15.7097C137.16 20.5458 135.394 22.4733 131.5 22.4733ZM131.5 6.03711C125.227 6.03711 122.199 10.3643 122.199 15.673C122.199 21.0549 125.227 25.3825 131.5 25.3825C137.773 25.3825 140.802 21.0184 140.802 15.673C140.802 10.4003 137.773 6.03711 131.5 6.03711Z" fill="white"/>
<path fill-rule="evenodd" clip-rule="evenodd" d="M177.502 6.61816L172.453 19.9412L167.511 6.61816H163.798L170.612 24.7995L170.006 26.3977C169.631 27.387 168.69 28.0405 167.64 28.0405H164.048V30.9491H167.148C171.51 30.9491 171.986 30.2542 173.465 26.3993L181 6.61816H177.502Z" fill="white"/>
<path fill-rule="evenodd" clip-rule="evenodd" d="M114.237 11.0188V6.61934H110.668V24.8007H114.273V17.8553C114.273 12.91 115.427 9.85541 120.258 9.85541H121.159V6.32812H120.619C117.266 6.32812 115.319 8.3285 114.237 11.0188Z" fill="white"/>
<path fill-rule="evenodd" clip-rule="evenodd" d="M102.09 2.50977H98.4845V6.61906H95.0596V9.41853H98.4845V19.4548C98.4845 23.0915 99.5661 24.8004 103.928 24.8004H107.497V21.8914H103.356C102.657 21.8914 102.09 21.3193 102.09 20.6137V9.41853H107.858V6.61906H102.09V2.50977Z" fill="white"/>
<path fill-rule="evenodd" clip-rule="evenodd" d="M86.6261 6.03711C83.1655 6.03711 81.182 8.00083 80.1004 10.6917V6.61912H76.4956V24.8004H80.1004V17.1276C80.1004 11.346 82.0474 9.05487 85.5811 9.05487C87.8519 9.05487 89.5828 9.96434 89.5828 13.7824V24.8004H93.1878V13.455C93.1878 8.69116 91.4216 6.03711 86.6261 6.03711Z" fill="white"/>
<path fill-rule="evenodd" clip-rule="evenodd" d="M65.6743 19.9412L60.732 6.61816H57.019L63.8329 24.7995L63.2272 26.3977C62.8523 27.3871 61.9112 28.0405 60.8611 28.0405H57.269V30.9491H60.3692C64.7315 30.9491 65.2071 30.2543 66.6858 26.3993L74.2206 6.61816H70.7235L65.6743 19.9412Z" fill="white"/>
<path fill-rule="evenodd" clip-rule="evenodd" d="M50.4961 14.147L46.6026 13.565C44.6556 13.2742 44.1145 12.3647 44.1145 11.2744C44.1145 9.82004 45.2326 8.69206 48.0088 8.69206C50.7842 8.69206 52.1182 10.1106 52.2989 11.7836H55.9042C55.6513 8.36522 52.7677 6.00195 48.1162 6.00195C43.3941 6.00195 40.6179 8.11087 40.6179 11.6013C40.6179 14.3653 42.3123 16.1105 45.4483 16.5834L49.919 17.2746C51.83 17.5652 52.6593 18.4015 52.6593 19.8924C52.6593 21.5653 51.866 22.6925 48.6575 22.6925C45.1602 22.6925 43.6822 20.9472 43.5381 18.7284H40.1851C40.1851 22.4379 42.6006 25.3834 48.5491 25.3834C53.777 25.3834 56.1926 23.4559 56.1926 19.7103C56.1926 16.9109 54.9668 14.8382 50.4961 14.147Z" fill="white"/>
<path fill-rule="evenodd" clip-rule="evenodd" d="M28.0398 11.2582C26.4622 10.3397 24.5188 10.3397 22.9412 11.2582L15.2935 15.7117L22.9412 20.1653C24.5188 21.084 26.4622 21.084 28.0398 20.1653C29.6174 19.2468 30.5889 17.5491 30.5889 15.7117C30.5889 13.8746 29.6174 12.1768 28.0398 11.2582Z" fill="white"/>
<path fill-rule="evenodd" clip-rule="evenodd" d="M2.54932 11.2582C0.971742 12.1768 0 13.8746 0 15.7117C0 17.5491 0.971742 19.2468 2.54932 20.1653C4.12669 21.084 6.07038 21.084 7.64775 20.1653L15.2957 15.7117L7.64775 11.2582C6.07038 10.3397 4.12669 10.3397 2.54932 11.2582Z" fill="white"/>
<path fill-rule="evenodd" clip-rule="evenodd" d="M10.8813 28.5673C11.7922 30.1582 13.4753 31.1383 15.2969 31.1383C17.1185 31.1383 18.8016 30.1582 19.7123 28.5673C20.6232 26.9761 20.6232 25.0159 19.7123 23.4247L15.2969 15.7109L10.8813 23.4247C9.97057 25.0159 9.97057 26.9761 10.8813 28.5673Z" fill="white"/>
<path fill-rule="evenodd" clip-rule="evenodd" d="M19.7123 2.85349C18.8016 1.26233 17.1184 0.282227 15.2969 0.282227C13.4753 0.282227 11.7922 1.26233 10.8813 2.85349C9.97057 4.44444 9.97057 6.40486 10.8813 7.99582L15.2969 15.7094L19.7123 7.99582C20.6232 6.40486 20.6232 4.44444 19.7123 2.85349Z" fill="white"/>
</svg>
