<svg xmlns:xlink="http://www.w3.org/1999/xlink" xmlns="http://www.w3.org/2000/svg" xml:space="preserve" xmlns:vectornator="http://vectornator.io" viewBox="0 0 144 56" clip-rule="evenodd" stroke-linecap="round" stroke-linejoin="round">
  <g fill-rule="evenodd" vectornator:layerName="Untitled">
    <path d="M11.927 21.402h6.34V18.22H2.048v3.18h6.34v16.356h3.54V21.402m129.887-3.181h-14.459v19.536h14.599v-3.099H130.76V29.44h9.799v-3.097h-9.799v-5.024h11.054v-3.098m-31.896 19.536h13.787v-3.099h-10.356V18.221h-3.431v19.536m-4.867-2.657v-8.264h-3.391v6.708a7.565 7.565 0 0 1-2.15 1.093 8.465 8.465 0 0 1-2.662.407c-1.027 0-1.951-.178-2.778-.534a6.441 6.441 0 0 1-2.136-1.48 6.48 6.48 0 0 1-1.381-2.24 7.985 7.985 0 0 1-.483-2.815 7.321 7.321 0 0 1 1.864-4.929 6.397 6.397 0 0 1 2.05-1.508 5.97 5.97 0 0 1 2.55-.547c.626 0 1.201.05 1.723.152.96.177 1.876.545 2.691 1.083.4.263.789.553 1.168.872l2.222-2.615c-.497-.42-1.026-.8-1.581-1.138a10.066 10.066 0 0 0-1.724-.83 11.04 11.04 0 0 0-1.979-.518 14.155 14.155 0 0 0-2.377-.183c-1.5 0-2.88.272-4.144.814a10.129 10.129 0 0 0-3.26 2.208 9.909 9.909 0 0 0-2.121 3.245 10.344 10.344 0 0 0-.755 3.936c0 1.443.246 2.783.74 4.019a9.52 9.52 0 0 0 2.093 3.22 9.617 9.617 0 0 0 3.261 2.136c1.272.515 2.687.772 4.243.772.874 0 1.709-.079 2.506-.24a12.325 12.325 0 0 0 4.173-1.642 14.737 14.737 0 0 0 1.638-1.182m-22.71 0v-8.264h-3.389v6.708a7.56 7.56 0 0 1-2.15 1.093 8.466 8.466 0 0 1-2.663.407c-1.026 0-1.95-.178-2.777-.534a6.441 6.441 0 0 1-2.136-1.48 6.48 6.48 0 0 1-1.381-2.24 7.985 7.985 0 0 1-.484-2.815 7.321 7.321 0 0 1 1.865-4.929 6.382 6.382 0 0 1 2.05-1.508 5.97 5.97 0 0 1 2.55-.547c.626 0 1.2.05 1.723.152.521.104 1 .245 1.437.423a7.19 7.19 0 0 1 1.254.661c.398.262.788.552 1.168.871l2.221-2.615c-.497-.42-1.025-.8-1.58-1.138a10.064 10.064 0 0 0-1.724-.83 11.04 11.04 0 0 0-1.979-.518 14.159 14.159 0 0 0-2.378-.183c-1.5 0-2.881.272-4.144.814a10.12 10.12 0 0 0-3.26 2.208 9.898 9.898 0 0 0-2.123 3.245 10.343 10.343 0 0 0-.754 3.936c0 1.443.247 2.783.74 4.019a9.53 9.53 0 0 0 2.094 3.219 9.61 9.61 0 0 0 3.26 2.137c1.273.515 2.687.772 4.244.772.874 0 1.708-.079 2.505-.24a12.333 12.333 0 0 0 4.172-1.642 14.693 14.693 0 0 0 1.639-1.182M32.93 21.093c3.79 0 6.893 3.113 6.893 6.919 0 3.805-3.102 6.919-6.894 6.919-3.791 0-6.893-3.114-6.893-6.92 0-3.805 3.102-6.918 6.893-6.918Zm0-3.256c-5.577 0-10.138 4.578-10.138 10.175 0 5.596 4.561 10.175 10.137 10.175 5.576 0 10.138-4.579 10.138-10.175 0-5.597-4.562-10.175-10.138-10.175Z" fill="#ffffff"/>
    <path d="M50.422 17.814H42.6a14.154 14.154 0 0 1 4.297 10.175 14.16 14.16 0 0 1-4.298 10.175h7.822c5.513 0 10.021-4.579 10.021-10.175 0-5.597-4.508-10.175-10.02-10.175" fill="#ffa852"/>
  </g>
</svg>
