<svg viewBox="0 0 110 16" preserveAspectRatio="xMinYMax" xmlns="http://www.w3.org/2000/svg" xmlns:xlink="http://www.w3.org/1999/xlink">
  <g fill="none" fill-rule="evenodd">
    <path fill="#FFFFFF" d="M7.769 2.821h4.985V.32H0v2.501h4.985V15.68h2.784V2.821M109.89.32H98.522v15.36H110v-2.436h-8.801V9.141h7.704V6.706h-7.704v-3.95h8.691V.32M84.812 15.68h10.84v-2.436H87.51V.32h-2.698v15.36M80.986 13.591V7.094H78.32v5.274a5.953 5.953 0 0 1-1.69.859c-.65.214-1.348.32-2.094.32-.807 0-1.534-.14-2.184-.42a5.064 5.064 0 0 1-1.679-1.164 5.095 5.095 0 0 1-1.086-1.76 6.276 6.276 0 0 1-.38-2.214 5.756 5.756 0 0 1 1.466-3.875c.456-.5.993-.899 1.612-1.186a4.704 4.704 0 0 1 2.005-.43c.492 0 .944.04 1.354.12a5.715 5.715 0 0 1 2.116.851c.314.207.62.435.918.686l1.747-2.056a9.96 9.96 0 0 0-1.243-.895 7.92 7.92 0 0 0-1.355-.652 8.686 8.686 0 0 0-1.556-.408A11.123 11.123 0 0 0 74.402 0c-1.179 0-2.265.214-3.258.64a7.964 7.964 0 0 0-2.563 1.736 7.79 7.79 0 0 0-1.668 2.552 8.132 8.132 0 0 0-.594 3.094c0 1.135.194 2.188.582 3.16a7.484 7.484 0 0 0 1.646 2.531 7.561 7.561 0 0 0 2.564 1.68c1 .405 2.112.607 3.336.607.687 0 1.343-.062 1.97-.188a9.69 9.69 0 0 0 3.281-1.292c.47-.295.9-.604 1.288-.929M63.13 13.591V7.094h-2.664v5.274a5.944 5.944 0 0 1-1.69.859c-.65.214-1.348.32-2.094.32-.807 0-1.534-.14-2.184-.42a5.064 5.064 0 0 1-1.679-1.164 5.095 5.095 0 0 1-1.086-1.76 6.276 6.276 0 0 1-.38-2.214 5.756 5.756 0 0 1 1.466-3.875c.455-.5.993-.899 1.612-1.186a4.703 4.703 0 0 1 2.004-.43c.493 0 .944.04 1.355.12.41.081.787.192 1.13.332.344.14.673.313.986.52.313.206.62.434.918.685l1.747-2.056a9.96 9.96 0 0 0-1.243-.895 7.907 7.907 0 0 0-1.355-.652 8.68 8.68 0 0 0-1.556-.408A11.13 11.13 0 0 0 56.547 0c-1.179 0-2.265.214-3.258.64a7.959 7.959 0 0 0-2.563 1.736 7.784 7.784 0 0 0-1.669 2.552 8.132 8.132 0 0 0-.593 3.094c0 1.135.194 2.188.582 3.16a7.493 7.493 0 0 0 1.646 2.531 7.556 7.556 0 0 0 2.564 1.68c1 .405 2.112.607 3.336.607.687 0 1.343-.062 1.97-.188a9.696 9.696 0 0 0 3.28-1.292c.471-.295.9-.604 1.288-.929M24.282 2.578c2.981 0 5.42 2.448 5.42 5.44 0 2.992-2.439 5.44-5.42 5.44s-5.42-2.448-5.42-5.44c0-2.992 2.439-5.44 5.42-5.44Zm0-2.56c-4.384 0-7.97 3.6-7.97 8s3.586 8 7.97 8 7.971-3.6 7.971-8-3.587-8-7.971-8Z"/>
    <path class="logoColor" d="M38.035 0h-6.15a11.128 11.128 0 0 1 3.378 8c0 3.139-1.3 5.98-3.379 8h6.15c4.334 0 7.879-3.6 7.879-8s-3.545-8-7.878-8" fill="#FFA852"/>
  </g>
</svg>
