<svg xmlns="http://www.w3.org/2000/svg" xmlns:xlink="http://www.w3.org/1999/xlink" viewBox="0 0 400 136.04166666666666">
  <g fill-rule="evenodd">
    <path d="M307.667 30.083c0 15.728.023 17.25.267 17.25.263 0 1.315-.568 4.316-2.331 2.6-1.527 2.821-1.652 3.358-1.909.289-.137.627-.346.75-.463.124-.117.488-.346.809-.507.32-.162.958-.519 1.416-.793.459-.274 1.471-.85 2.25-1.279.779-.43 1.442-.842 1.473-.916.03-.074.161-.135.291-.135.579 0 .013-.483-1.764-1.505a1430.75 1430.75 0 0 1-4.166-2.408c-1.238-.719-2.925-1.695-3.75-2.171-3.231-1.861-4.506-2.614-4.638-2.742-.111-.106 2.796-1.871 7.221-4.382 6.766-3.84 7.542-4.384 6.792-4.76-.207-.103-.75-.414-1.209-.691a27.624 27.624 0 0 0-1.416-.797c-.321-.162-.729-.425-.907-.586-.177-.16-.416-.291-.53-.291-.113 0-.305-.097-.426-.215-.122-.118-.483-.347-.804-.509a58.744 58.744 0 0 1-2.083-1.174c-3.527-2.067-5.653-3.269-5.78-3.269a.14.14 0 0 1-.137-.14c0-.166-.747-.527-1.091-.527-.21 0-.242 2.276-.242 17.25m30.099-17.127c-.282.282-.101 25.58.182 25.472.155-.06.961-.508 1.792-.996a635.638 635.638 0 0 1 6.677-3.886c.641-.364 2.273-1.307 3.625-2.096l2.458-1.433v17.176c0 16.289-.015 17.17-.292 17.066-.281-.106-2.413-1.328-9.458-5.425-4.927-2.865-4.872-2.834-5.155-2.834-.31 0-.41 25.555-.1 25.747.088.054.445-.043.791-.217 1.001-.501 2.28-1.249 2.491-1.455.107-.104.445-.291.75-.414.306-.124.594-.272.64-.328.082-.102 2.778-1.636 3.75-2.134.275-.141.54-.315.589-.388.049-.072.363-.246.697-.385.334-.14.653-.328.709-.419.056-.09.417-.315.803-.5a16.317 16.317 0 0 0 1.368-.756c.367-.231.967-.579 1.334-.774.366-.195.704-.403.75-.462.045-.059.402-.248.791-.42.39-.172.709-.365.709-.429 0-.063.337-.255.75-.425.412-.17.75-.358.75-.417 0-.058.3-.242.666-.407.367-.166.667-.349.667-.408s.337-.247.75-.417c.412-.17.75-.361.75-.425s.337-.256.75-.426c.412-.17.75-.36.75-.422 0-.061.231-.208.514-.325.283-.117.602-.298.709-.402.106-.104.531-.355.944-.559.412-.203 1.425-.778 2.25-1.277.825-.499 1.835-1.064 2.244-1.255.409-.191.784-.406.833-.478.049-.072.689-.457 1.423-.856.733-.4 1.37-.774 1.416-.831.046-.058.334-.206.64-.33.305-.124.645-.307.755-.407.221-.201.764-.523 2.022-1.196.458-.246.871-.493.917-.55.087-.108 1.016-.631 2-1.126.321-.161.62-.343.666-.405.046-.061.459-.314.917-.561.458-.247 1.133-.63 1.5-.852.367-.221.929-.535 1.25-.697.321-.163.621-.336.667-.387.092-.1 1.459-.896 3.666-2.135.413-.231.788-.462.834-.513.045-.052.345-.225.666-.386a28.62 28.62 0 0 0 1.417-.788 47.282 47.282 0 0 1 1.5-.855c.367-.198.704-.41.75-.472.046-.061.333-.213.639-.337.306-.123.651-.319.767-.435.116-.116.477-.348.802-.516.326-.168 1.243-.68 2.039-1.138.796-.458 1.797-1.024 2.225-1.257 1.076-.587 1.03-.918-.222-1.597-2.055-1.116-2.335-1.277-2.417-1.386-.046-.062-.333-.213-.639-.337-.306-.124-.643-.311-.75-.416-.107-.106-.794-.52-1.527-.921-.734-.401-1.371-.772-1.417-.826-.046-.053-.383-.246-.75-.428-.367-.183-.704-.37-.75-.417-.046-.047-.383-.234-.75-.417-.367-.182-.704-.373-.75-.425-.092-.102-1.093-.671-2.999-1.704-.687-.372-1.337-.765-1.444-.872-.108-.107-.445-.298-.751-.423-.306-.126-.701-.362-.879-.526-.178-.164-.416-.298-.53-.298-.114 0-.313-.107-.444-.238-.131-.13-.492-.344-.804-.474-.311-.131-1.016-.529-1.566-.885a23.692 23.692 0 0 0-1.583-.947 30.503 30.503 0 0 1-1.25-.693 233.76 233.76 0 0 0-2.917-1.681 95.683 95.683 0 0 1-1.416-.826c-.367-.22-.929-.54-1.25-.711-1.03-.55-2.248-1.276-2.334-1.391-.046-.061-.421-.274-.833-.473a20.997 20.997 0 0 1-1.365-.73c-.937-.56-3.748-2.165-4.35-2.484-.294-.155-.625-.361-.735-.457-.11-.096-.485-.306-.833-.467-.349-.161-.671-.341-.717-.399-.046-.058-.496-.329-1-.602a45.4 45.4 0 0 1-1.5-.852 20.568 20.568 0 0 0-1.167-.647c-.321-.161-.621-.339-.666-.396-.046-.056-.384-.264-.75-.461a76.01 76.01 0 0 1-1.667-.936c-.55-.317-1.187-.67-1.417-.785-.229-.114-.454-.254-.5-.309-.046-.056-.72-.453-1.5-.882a109.253 109.253 0 0 1-2.25-1.274c-.458-.272-1.733-.997-2.833-1.611s-2.038-1.168-2.083-1.231c-.046-.062-.421-.283-.834-.491-.412-.208-.787-.43-.833-.493-.132-.182-.624-.328-.734-.218m-67.599 102.711c0 15.889.029 18 .25 18 .137 0 .25-.067.25-.149 0-.082.281-.274.625-.427.343-.153 1.375-.719 2.291-1.258 1.98-1.164 3.808-2.218 8.091-4.666a224.533 224.533 0 0 0 2.798-1.62c.336-.204.911-.53 1.278-.726.367-.195 1.01-.554 1.431-.796.42-.243 1.095-.62 1.5-.839.404-.219.773-.456.819-.527.047-.071.403-.256.792-.412.389-.156.708-.344.708-.419 0-.074.262-.222.582-.328.32-.105.639-.284.708-.397.07-.113.377-.307.683-.431.305-.123.645-.306.755-.406.24-.22 1.247-.789 2.272-1.284.412-.2.787-.417.833-.482.046-.066.346-.254.667-.417.321-.163.621-.344.667-.403.045-.058.402-.246.791-.418.39-.172.709-.37.709-.441 0-.071.253-.212.563-.314 1.401-.463 1.36-.934-.147-1.709-.366-.189-.704-.398-.75-.465-.046-.067-.421-.292-.833-.5-.413-.208-.788-.428-.833-.489-.046-.061-.346-.243-.667-.405-.984-.494-1.912-1.017-2-1.125-.046-.057-.485-.32-.976-.584-.49-.264-1.24-.683-1.666-.931-.426-.248-1-.571-1.275-.717a34.838 34.838 0 0 1-1.416-.832 18.245 18.245 0 0 0-1.494-.831c-.318-.146-.618-.324-.667-.396-.049-.072-.689-.457-1.423-.856-.733-.4-1.371-.769-1.416-.822-.046-.052-.384-.244-.75-.427-.367-.182-.705-.376-.75-.429-.046-.054-.309-.214-.584-.355-1.177-.603-3.683-2.053-3.876-2.241-.116-.114-.472-.301-.792-.416-.32-.116-.582-.259-.582-.319 0-.059-.3-.243-.666-.408-.367-.165-.667-.358-.667-.428s-.338-.257-.75-.414c-.413-.158-.75-.351-.75-.431 0-.079-.076-.144-.17-.144-.093 0-.487-.204-.875-.454s-.968-.59-1.288-.756a73.318 73.318 0 0 1-1.167-.621c-.321-.176-.64-.323-.708-.327-.069-.005-.125 8.092-.125 17.992" fill="#04bbcb"/>
    <path d="M336.75 13.175c-.275.187-.725.453-1 .591-.275.139-.875.47-1.333.737-.459.267-1.171.678-1.584.914-.412.236-1.125.644-1.583.908-.458.264-1.093.601-1.411.75-.317.149-.617.335-.666.412-.05.077-.367.28-.706.452-1.083.546-5.047 2.781-5.134 2.894-.046.059-.225.161-.399.225-.173.064-.286.142-.25.174.182.16 3.227 1.945 7.983 4.679 2.293 1.319 6.511 3.75 6.708 3.868.069.041.125-3.755.125-8.436 0-4.68-.056-8.509-.125-8.509-.069.001-.35.154-.625.341m-1.044 18.069a184.52 184.52 0 0 1-2.745 1.597c-.666.377-2.224 1.274-3.461 1.993-1.238.719-2.85 1.651-3.583 2.071-2.614 1.497-2.836 1.629-2.991 1.777-.178.169.209.528.991.919.275.138.912.503 1.416.813.504.31 1.217.72 1.584.912.366.191 1.041.572 1.5.846 1.542.919 1.445.903 2.433.404.495-.25 1.275-.693 1.733-.983.459-.291 1.752-1.039 2.875-1.663l2.042-1.135v-4.231c0-2.327-.058-4.231-.13-4.231-.071 0-.82.41-1.664.911" fill="#d5990d"/>
    <path d="M319.25 23.602c-1.925 1.138-3.687 2.169-3.917 2.291-2.273 1.211-7.161 4.178-7.054 4.281.132.128 1.407.881 4.638 2.742.825.476 2.512 1.452 3.75 2.169 6.553 3.8 6.146 3.61 6.781 3.166.195-.137 1.018-.634 1.829-1.105a526.205 526.205 0 0 1 4.64-2.685c3.545-2.034 6.463-3.723 7.05-4.082l.55-.336-.633-.381c-.837-.503-4.12-2.411-6.717-3.906-4.84-2.783-6.603-3.81-6.912-4.027-.425-.296-.009-.49-4.005 1.873M350 31.455a623.652 623.652 0 0 1-4.583 2.676c-1.192.687-2.88 1.663-3.75 2.168-.871.506-2.125 1.227-2.787 1.602l-1.204.682-.046 8.66-.047 8.66.917.488c.504.269 2.417 1.365 4.25 2.435 6.144 3.588 9.164 5.322 9.458 5.433.277.104.292-.778.292-17.075 0-9.451-.019-17.178-.042-17.17-.023.008-1.129.657-2.458 1.441" fill="#0484cb"/>
    <path d="M337.5 21.349v8.516l-.75-.44c-.413-.241-.75-.402-.75-.356 0 .046.346.286.769.534l.769.451-.436.228c-.239.126-.435.266-.435.313 0 .046.145.006.322-.089.177-.095.364-.173.414-.173.05 0 .112 1.894.138 4.209.025 2.314.083-1.623.128-8.75.044-7.127.025-12.959-.044-12.959s-.125 3.832-.125 8.516m-14.083.439c.091.087.466.327.833.533.367.206.517.25.333.097-.372-.309-1.428-.88-1.166-.63m1.583.953c0 .046.225.2.5.342.275.143.5.221.5.176 0-.046-.225-.2-.5-.342-.275-.143-.5-.221-.5-.176m1.167.667c0 .046.225.2.5.342.275.142.5.221.5.175 0-.046-.225-.199-.5-.342-.275-.142-.5-.221-.5-.175m1.75 1.012c.183.149.483.345.666.435l.334.163-.334-.271a4.275 4.275 0 0 0-.666-.435l-.334-.164.334.272m1.416.821c0 .046.225.2.5.342.275.143.5.221.5.176 0-.046-.225-.2-.5-.342-.275-.143-.5-.221-.5-.176m1.167.667c0 .046.225.2.5.342.275.142.5.221.5.175 0-.046-.225-.199-.5-.342-.275-.142-.5-.221-.5-.175m1.75 1.012c.183.149.483.345.667.435l.333.163-.333-.271a4.33 4.33 0 0 0-.667-.435l-.333-.164.333.272m1.417.821c0 .046.225.2.5.342.275.143.5.221.5.176 0-.046-.225-.2-.5-.342-.275-.143-.5-.221-.5-.176m1.166.667c0 .046.225.2.5.342.275.142.5.221.5.175 0-.046-.225-.199-.5-.342-.275-.142-.5-.221-.5-.175m-.875 3.687c-.623.338-.585.479.042.155.275-.142.5-.294.5-.338 0-.107-.018-.101-.542.183m-1.166.667c-.623.338-.585.479.041.155.275-.143.5-.294.5-.338 0-.107-.018-.101-.541.183m-1.667 1c-.623.338-.585.479.042.155.275-.143.5-.294.5-.338 0-.107-.018-.101-.542.183m-1.5.833c-.623.338-.585.479.042.155.275-.142.5-.294.5-.338 0-.107-.018-.101-.542.183m-1.167.667c-.623.338-.585.479.042.155.275-.143.5-.294.5-.338 0-.107-.018-.101-.542.183m-1.791 1.085-.417.34.542-.265c.298-.145.541-.299.541-.343 0-.166-.265-.059-.666.268m-2.584 1.486c-.275.182-.425.33-.333.329.167-.003 1.073-.652.917-.657-.046-.002-.309.146-.584.328" fill="#63ca69"/>
    <path d="M285.5 38.583c0 9.871-.112 9.166 1.319 8.274.42-.263 1.477-.881 2.348-1.375.87-.494 1.704-.974 1.852-1.065.147-.092.635-.374 1.083-.627a51.72 51.72 0 0 0 1.065-.614c.137-.085.737-.44 1.333-.789.596-.349 1.121-.674 1.167-.723.045-.05.402-.23.791-.402.39-.172.709-.36.709-.417 0-.058.206-.195.458-.304.506-.22 2.116-1.14 2.728-1.56.472-.323.33-.562-.632-1.063-.351-.182-.675-.376-.721-.429-.046-.054-.308-.213-.583-.353-.275-.14-.95-.517-1.5-.837a89.517 89.517 0 0 0-1.576-.9c-.317-.173-.667-.398-.778-.498-.11-.1-.451-.285-.757-.41-.306-.126-.631-.293-.723-.372-.267-.231-1.45-.922-2.083-1.218-.321-.149-.621-.328-.667-.397-.046-.069-.414-.305-.819-.523a87.443 87.443 0 0 1-2.949-1.689c-.425-.252-.839-.459-.919-.459-.082 0-.146 3.869-.146 8.75m50.75 1.026c-.733.421-1.558.902-1.833 1.07-.275.168-1.192.688-2.038 1.155-.845.468-1.581.922-1.635 1.008-.053.087-.319.158-.59.158-.464 0-2.339.916-2.46 1.201-.03.073-.109.132-.176.132-.103 0-2.585 1.396-4.312 2.426-.804.48-.428.958 1.461 1.855.254.121 3.378 1.925 3.833 2.214.458.291 3.243 1.879 3.75 2.14.275.141.537.306.583.367.046.06.744.479 1.55.929.807.451 1.744.982 2.083 1.181 1.298.76 1.201 1.416 1.201-8.112 0-4.675-.019-8.497-.042-8.495-.023.003-.642.35-1.375.771M84.917 46.337c-.275.172-1.175.693-2 1.157-.825.465-1.8 1.03-2.167 1.257-.367.227-.91.54-1.208.695l-.542.282v15.873c0 8.729.046 15.99.101 16.135.131.342 6.528.402 6.866.064.14-.141.2-1.092.2-3.208l.001-3.009.765-.833c.421-.458.879-1.002 1.019-1.208.299-.444.519-.478.663-.103.058.15.397.694.755 1.209.358.514.803 1.179.99 1.477.187.298.407.542.49.542.082 0 .15.076.15.17 0 .094.301.601.669 1.125.368.525 1.018 1.48 1.444 2.121C94.51 82.186 94.016 82 98.201 82c4.341 0 4.218.085 2.768-1.908-.579-.795-1.152-1.633-1.275-1.862-.122-.23-.329-.459-.458-.509-.13-.049-.236-.169-.236-.265s-.206-.443-.458-.771a12.526 12.526 0 0 1-.625-.876c-.092-.154-.617-.892-1.167-1.641a48.316 48.316 0 0 1-1.307-1.848c-.169-.268-.375-.487-.458-.487-.084 0-.152-.086-.152-.192 0-.105-.229-.499-.509-.875-1.774-2.381-1.935-2.669-1.665-2.964.142-.155.456-.53.698-.833.469-.588 2.225-2.691 2.643-3.165.138-.156.456-.532.708-.836.252-.303.616-.739.81-.968.194-.229.625-.751.959-1.16.333-.409.719-.864.856-1.012.138-.148.475-.552.75-.898.275-.347.613-.749.75-.893.59-.62 1.331-1.636 1.332-1.829.001-.161-.922-.208-4.068-.208h-4.069l-.48.625c-.263.344-.588.786-.722.982-.133.196-.693.937-1.243 1.645A116.97 116.97 0 0 0 90 61.34c-.515.704-2.091 2.791-2.451 3.243-.073.092-.432.565-.799 1.052l-.667.885-.043-10.26c-.047-11.404.038-10.649-1.123-9.923m90.422-.073c-.318.138-.618.314-.667.391-.049.078-.351.266-.672.419a23.11 23.11 0 0 0-1.417.767c-.458.269-1.096.624-1.416.787-.321.163-.908.506-1.304.761l-.72.464.064 13.782c.069 14.736.074 14.825.907 16.161.404.648 1.493 1.663 1.931 1.799.204.064.412.18.462.257.32.494 6.4.47 6.901-.028.087-.087.294-.157.459-.157.276 0 .3-.211.3-2.69v-2.69l-1.042.106c-1.307.132-2.205-.106-2.585-.686-.269-.41-.293-1.496-.336-15.075-.025-8.047-.1-14.629-.167-14.625-.066.003-.38.119-.698.257m43.411.067c-.367.178-.967.512-1.333.741-.367.23-1.005.58-1.417.778-.412.197-.787.407-.833.465-.046.057-.383.254-.748.437-.365.182-.759.42-.876.529a1.711 1.711 0 0 1-.545.303c-.33.105-.333.236-.29 16.219l.042 16.114h6.833l.046-3.109.045-3.108 1.147-1.222 1.146-1.222.353.414c.195.227.466.62.604.872.138.252.324.458.414.458.089 0 .162.077.162.171 0 .094.301.6.669 1.125.368.525 1.02 1.479 1.449 2.121.429.641 1.179 1.71 1.666 2.375l.885 1.208h3.671c4.424 0 4.488-.063 2.421-2.375-.144-.16-.262-.348-.263-.417-.001-.068-.244-.44-.541-.826a36.162 36.162 0 0 1-.957-1.309 12.982 12.982 0 0 0-.667-.896 5.857 5.857 0 0 1-.416-.55c-.779-1.213-1.329-1.96-1.445-1.96-.076 0-.139-.08-.139-.177 0-.097-.243-.507-.541-.91a59.668 59.668 0 0 1-.959-1.34 13.366 13.366 0 0 0-.666-.896 5.561 5.561 0 0 1-.417-.558 25.502 25.502 0 0 0-.638-.93c-.533-.748-.51-.851.44-1.939.319-.367 1.47-1.716 2.556-2.998a548.138 548.138 0 0 1 2.225-2.614c.688-.777 3.679-4.347 4.048-4.831l.299-.391-4.045-.044c-4.75-.053-4.222-.177-5.28 1.24-.467.626-.967 1.288-1.112 1.471-.144.183-.707.933-1.251 1.667-.544.733-1.105 1.483-1.246 1.666l-1.252 1.621c-.547.708-.994 1.327-.994 1.375 0 .048-.115.219-.254.379-.14.161-.438.517-.662.792l-.407.5-.005-10.375c-.003-5.706-.062-10.373-.13-10.371-.069.002-.425.149-.792.327m-215.472.78c-.061.061-.111 1.449-.111 3.083v2.973h8.666v28.5H19v-28.5h4.316c3.781 0 4.328-.033 4.416-.264.132-.343.132-5.296 0-5.639-.105-.275-24.181-.426-24.454-.153m114.555 2.972v3.084h8.5v28.5h7.334v-28.5h8.666V47h-24.5v3.083m-86 2.834v2.75h7v-5.5h-7v2.75m10.834 0v2.75h7v-5.5h-7v2.75m207.666 1.25c-.137.089-.564.162-.947.164-.804.003-3.025.442-3.29.651-.099.078-.479.235-.846.351-.367.115-.779.3-.917.41-.137.111-.531.33-.875.487-.343.157-.625.352-.625.433 0 .081-.144.194-.321.25-1.663.528-4.983 5.267-5.516 7.872-.108.531-.281 1.142-.384 1.358-.252.527-.255 4.682-.004 5.207.105.22.28.836.389 1.369.25 1.219 1.419 3.745 2.171 4.687.673.844 3.172 3.24 3.481 3.338.193.062.351.174.351.251 0 .076.337.277.749.447.413.169.75.358.75.42.001.061.395.24.876.397.481.157.95.342 1.042.412.976.741 9.25.739 9.25-.002 0-.07.232-.174.515-.23 3.02-.604 7.829-5.382 8.578-8.522.066-.275.182-.58.258-.678.758-.971.738-8.906-.022-8.906-.069 0-.178-.277-.241-.615-.472-2.515-3.72-6.241-6.838-7.843-1.917-.985-2.51-1.189-4-1.379-.825-.104-1.772-.259-2.103-.343-.764-.194-1.165-.19-1.481.014m-99.892 1.338c-.721.068-1.471.199-1.667.291-.197.092-.826.3-1.399.462-.573.162-1.042.35-1.042.417s-.168.165-.375.218c-3.506.895-7.105 7.027-7.105 12.107 0 5.918 3.977 11.298 9.24 12.501.453.103.951.256 1.107.339.92.494 8.048.507 8.707.017.097-.072.701-.227 1.343-.344.642-.117 1.429-.341 1.75-.497.321-.156.901-.385 1.289-.509.413-.132.746-.356.805-.541.099-.311-.4-1.966-.592-1.966-.055 0-.24-.413-.411-.917-.172-.504-.363-.916-.425-.916s-.212-.3-.333-.667c-.212-.643-.669-.9-.91-.511-.053.086-.526.276-1.051.423-.525.147-1.105.337-1.289.422-.985.457-4.393.741-6.019.502-2.811-.414-5.008-2.263-5.629-4.74l-.108-.429h18l.108-.429c.172-.687-.016-6.082-.217-6.209-.098-.062-.231-.45-.296-.862-.065-.413-.375-1.298-.688-1.966-.583-1.248-.656-1.361-1.442-2.239-.252-.281-.459-.557-.459-.612-.003-.451-3.032-2.363-4.25-2.683-.458-.12-.917-.283-1.019-.362-.189-.144-3.127-.479-3.897-.444a53.09 53.09 0 0 0-1.726.144m43.5.004c-.719.08-1.394.212-1.5.294-.105.082-.536.233-.958.336-.733.178-2.808 1.119-2.983 1.351-.046.061-.358.278-.693.481-1.429.868-3.762 3.95-4.17 5.507-.087.333-.259.83-.383 1.105-.808 1.801-.691 7.39.191 9.079.121.232.22.525.221.651.001.333.955 1.981 1.652 2.854.918 1.15 2.263 2.392 2.91 2.687.241.11.439.246.439.303 0 .057.375.248.833.426.458.178.833.376.833.439 0 .064.582.251 1.292.415.71.165 1.33.353 1.377.419.352.492 8.071.471 8.565-.023.092-.092.342-.166.557-.166.517 0 2.603-.521 2.709-.677.046-.067.384-.203.75-.302 1.401-.378 1.642-.781 1.09-1.822a30.074 30.074 0 0 1-.765-1.616c-1.055-2.408-1.328-2.784-1.646-2.269-.05.081-.599.283-1.218.448-.62.165-1.165.352-1.211.415-.095.13-1.892.429-3.5.583-4.141.394-8.01-2.078-8.164-5.217-.001-.022 4.029-.06 8.956-.084l8.958-.043.048-2.666c.045-2.56-.231-5.001-.623-5.499-.072-.093-.224-.456-.338-.808-.494-1.533-2.845-4.302-4.269-5.028-.358-.183-.688-.376-.734-.43-.128-.151-1.687-.652-2.03-.652-.167 0-.304-.068-.304-.151 0-.323-3.979-.553-5.892-.34m87.906.013c-.496.082-.984.216-1.083.298-.099.081-.488.229-.863.33-.375.1-.855.332-1.067.516-.212.184-.458.334-.548.334-.089 0-.561.415-1.049.923l-.887.923-.191-.715c-.106-.393-.251-.789-.323-.881-.072-.092-.183-.41-.247-.708l-.115-.542h-5.307v25.5h6.988l.048-8.542.047-8.541.442-.842c1.475-2.804 5.619-3.373 6.925-.95.161.298.341.542.401.542.296 0 .372 1.598.465 9.833l.1 8.917 3.312.045c2.302.031 3.382-.013 3.542-.145.189-.158.23-1.627.23-8.39 0-8.752.061-9.502.849-10.354.174-.19.32-.415.323-.5.012-.288 1.523-1.121 2.304-1.271 1.899-.364 3.781.452 4.304 1.865.152.412.338.832.414.932.075.1.155 4.15.179 9l.043 8.818h6.834l.045-8.834c.043-8.309-.052-10.787-.434-11.324-.068-.097-.265-.607-.437-1.134-.171-.527-.37-.958-.44-.958-.071 0-.177-.153-.236-.339-.177-.556-1.787-2.261-2.29-2.423-.16-.052-.292-.154-.292-.227 0-.073-.356-.26-.791-.415-.436-.156-.929-.358-1.097-.45-.923-.503-5.678-.502-6.358.002-.094.07-.49.218-.881.33-1.182.338-2.632 1.435-3.608 2.73-.528.701-.698.765-.84.318-.223-.705-2.771-3.01-3.341-3.024-.092-.003-.381-.116-.643-.253-.969-.505-2.784-.667-4.427-.394m-210.68.3c-.138.078-.738.231-1.334.34-1.55.282-2.966 1.222-3.799 2.522l-.362.566-.003-1.625L65.667 56H59v12.736c0 7.005.046 12.855.101 13 .131.342 6.528.402 6.866.064.148-.149.201-1.91.204-6.875.004-7.024.057-7.641.773-9.008 1.1-2.1 2.753-3.036 5.703-3.229l1.603-.105V55.75l-1.417-.035c-.779-.02-1.529.029-1.666.107M29.5 66.803c0 6.978.107 9.098.487 9.614.067.091.254.523.415.958.161.435.361.792.445.792.084 0 .153.104.153.232 0 .312 1.864 2.202 2.311 2.344.196.062.356.172.356.245 0 .073.431.266.958.429.527.162 1.037.357 1.133.432.627.489 5.493.501 6.139.015.103-.077.545-.272.983-.434.479-.177 1.19-.67 1.786-1.237 1.117-1.064 1.099-1.07 1.517.557.329 1.277.296 1.265 3.184 1.213l2.55-.046.042-11.292.043-11.292h-6.835v6.576c0 3.853-.067 6.734-.161 6.958a9.65 9.65 0 0 0-.337 1.079c-.887 3.519-6.018 4.187-7.666.998l-.503-.973V59.333h-7v7.47m224.167-5.459c4.453 1.544 6.599 6.89 4.458 11.104-.476.939-2.056 2.885-2.341 2.885-.058 0-.461.225-.894.5-.434.275-.905.501-1.048.501-.142.001-.484.124-.759.274-.566.308-3.688.412-3.886.128-.063-.089-.545-.295-1.072-.457-.527-.163-.958-.362-.958-.443 0-.081-.161-.198-.358-.26-.934-.297-2.72-2.471-3.144-3.826-.115-.367-.289-.768-.387-.891-.239-.3-.249-3.572-.012-3.875.101-.129.309-.63.464-1.114.304-.955.399-1.09 1.778-2.529 1.967-2.053 5.501-2.918 8.159-1.997m-99.709-.019c1.893.359 3.463 2.122 3.782 4.247l.114.761h-5.76c-6.56 0-6.069.145-5.273-1.558 1.237-2.644 4.097-4.026 7.137-3.45m43.837.014c1.666.384 3.087 1.81 3.484 3.494.391 1.662.982 1.5-5.466 1.5h-5.688l.108-.537c.616-3.082 4.247-5.222 7.562-4.457M228 97.667c0 6.118.038 7.333.23 7.333.319 0 1.188-.415 2.27-1.085.504-.312 1.198-.691 1.542-.843.343-.151.625-.33.625-.398s.281-.25.625-.405c.343-.155 1-.502 1.458-.769.458-.268 1.171-.681 1.583-.917.413-.236 1.125-.646 1.584-.911a24.03 24.03 0 0 1 1.177-.645c.19-.089.623-.351.964-.582.341-.232.71-.451.821-.488.381-.127-.177-.535-2.268-1.656-.29-.156-.611-.355-.713-.443-.101-.089-.507-.336-.902-.551a71.183 71.183 0 0 1-1.435-.807c-.395-.229-1.301-.749-2.014-1.155-.713-.406-1.334-.788-1.38-.85-.046-.062-.384-.252-.75-.423-.367-.171-.742-.372-.834-.447-.422-.344-2.148-1.292-2.353-1.292-.192 0-.23 1.213-.23 7.334" fill="#042454"/>
    <path d="M382 12.989c0 9.485-.029 9.186.833 8.511.23-.179.505-.328.613-.33.108-.002.296-.1.417-.218s.52-.354.887-.525c.367-.17.704-.359.75-.42.08-.106 2.715-1.611 3.75-2.141.275-.141.537-.31.583-.375.046-.065.355-.258.686-.43.612-.316 1.556-.847 3.064-1.725a58.656 58.656 0 0 1 1.334-.753c3.081-1.65 3.09-1.514-.226-3.333-.334-.183-.645-.377-.691-.43-.046-.053-.308-.209-.583-.348a59.72 59.72 0 0 1-1.983-1.112c-.815-.473-1.546-.86-1.625-.86a.142.142 0 0 1-.142-.141c0-.078-.319-.282-.709-.454-.389-.172-.746-.356-.791-.41-.046-.054-.459-.309-.917-.566a264.046 264.046 0 0 0-2.75-1.528c-.321-.175-.621-.363-.667-.419-.116-.142-1.007-.583-1.458-.722L382 4.144v8.845m-45.708 26.44c-.623.338-.585.478.041.154.275-.142.5-.294.5-.337 0-.108-.018-.101-.541.183m-1.542.904c-.275.182-.425.33-.333.329.167-.003 1.073-.652.916-.657-.046-.002-.308.146-.583.328m-1.375.761c-.39.234-.708.46-.708.502 0 .124 1.3-.574 1.415-.76.148-.24.087-.218-.707.258M330.5 42.75c-.287.164-.332.24-.145.244.149.003.364-.107.478-.244.254-.306.202-.306-.333 0" fill="#0c344c"/>
  </g>
</svg>
