<?xml version="1.0" encoding="UTF-8" standalone="no"?> <!-- Created with Vectornator for iOS (http://vectornator.io/) --><!DOCTYPE svg PUBLIC "-//W3C//DTD SVG 1.1//EN" "http://www.w3.org/Graphics/SVG/1.1/DTD/svg11.dtd">
<svg height="100%" style="fill-rule:nonzero;clip-rule:evenodd;stroke-linecap:round;stroke-linejoin:round;" xmlns:xlink="http://www.w3.org/1999/xlink" xmlns="http://www.w3.org/2000/svg" xml:space="preserve" width="100%" xmlns:vectornator="http://vectornator.io" version="1.1" viewBox="0 0 400 222.222">
<metadata>
<vectornator:setting key="DimensionsVisible" value="1"/>
<vectornator:setting key="PencilOnly" value="0"/>
<vectornator:setting key="SnapToPoints" value="0"/>
<vectornator:setting key="OutlineMode" value="0"/>
<vectornator:setting key="CMYKEnabledKey" value="0"/>
<vectornator:setting key="RulersVisible" value="1"/>
<vectornator:setting key="SnapToEdges" value="0"/>
<vectornator:setting key="GuidesVisible" value="1"/>
<vectornator:setting key="DisplayWhiteBackground" value="0"/>
<vectornator:setting key="doHistoryDisabled" value="0"/>
<vectornator:setting key="SnapToGuides" value="1"/>
<vectornator:setting key="TimeLapseWatermarkDisabled" value="0"/>
<vectornator:setting key="Units" value="Points"/>
<vectornator:setting key="DynamicGuides" value="0"/>
<vectornator:setting key="IsolateActiveLayer" value="0"/>
<vectornator:setting key="SnapToGrid" value="1"/>
</metadata>
<defs/>
<g id="svgg" vectornator:layerName="svgg">
<path d="M30.444+70.667L30.444+78.672L38.5+78.614L46.556+78.556L46.556+70.667L46.556+62.778L38.5+62.719L30.444+62.661L30.444+70.667M126.806+70.167C128.306+73.11+128.348+76.9+126.93+81.444C126.02+84.363+121.504+91.994+120.126+92.941C119.996+93.031+114.265+93.106+107.391+93.108L94.893+93.111L94.835+103.827L94.778+114.543L93.452+115.42C89.228+118.216+80.509+122.552+75.504+124.347C73.912+124.917+74+125.837+74+108.54L74+93.111L60.24+93.111C52.673+93.111+46.323+93.05+46.129+92.976C45.833+92.863+45.778+92.374+45.778+89.865L45.778+86.889L42.111+86.889L38.444+86.889L38.444+93.297L38.444+99.706L46.892+99.845C51.537+99.922+57.619+99.923+60.407+99.847C63.194+99.771+65.743+99.777+66.071+99.859L66.667+100.008L66.667+113.524L66.667+127.04L66.138+127.28C65.279+127.672+61.501+128.509+59+128.862C53.939+129.577+50.281+129.685+46.778+129.224L45.889+129.107L46.667+129.473C47.094+129.673+47.744+129.916+48.111+130.012C48.478+130.108+49.328+130.335+50+130.517C52.323+131.145+53.457+131.324+56.667+131.569C61.542+131.941+65.731+131.597+73.333+130.201C88.363+127.44+105.006+118.82+115.969+108.12C118.971+105.189+122.128+101.691+123.469+99.807C126.93+94.949+128.401+92.459+129.936+88.865C131.385+85.473+131.681+84.504+132.433+80.705C133.406+75.783+131.344+71.015+127.477+69.246C126.779+68.928+126.171+68.667+126.125+68.667C126.079+68.667+126.385+69.342+126.806+70.167M56.667+74.198C56.667+77.011+56.719+77.528+57.018+77.643C57.212+77.717+71.143+77.778+87.977+77.778L118.584+77.778L119.149+77.167C120.227+76.001+121.556+72.885+121.556+71.521L121.556+70.889L89.111+70.889L56.667+70.889L56.667+74.198M201.67+92.884C201.596+93.004+201.656+93.329+201.805+93.607C202.193+94.331+210.002+107.938+213.189+113.441L215.889+118.104L216+125.885L216.111+133.667L219.056+133.729L222+133.791L222+125.862L222+117.933L226.866+109.578C234.261+96.88+236.444+93.069+236.444+92.858C236.444+92.753+234.869+92.668+232.944+92.669L229.444+92.671L224.476+102.55C219.334+112.776+219.032+113.289+218.59+112.553C217.735+111.13+216.741+109.223+212.774+101.389L208.358+92.667L205.081+92.667C203.182+92.667+201.747+92.758+201.67+92.884M164.985+93.182C164.922+93.345+164.9+94.42+164.936+95.572L165+97.667L171.444+97.778L177.889+97.889L177.946+115.833L178.003+133.778L181.111+133.778L184.22+133.778L184.276+115.833L184.333+97.889L190.778+97.778L197.222+97.667L197.222+95.333L197.222+93L181.16+92.943C167.951+92.896+165.078+92.939+164.985+93.182M242.769+93.167C242.711+93.319+242.689+102.494+242.72+113.556L242.778+133.667L245.722+133.729L248.667+133.791L248.67+120.284C248.673+108.296+248.765+105.738+249.174+106.229C249.517+106.639+251.711+109.697+253+111.56C253.856+112.796+254.906+114.294+255.333+114.889C255.761+115.483+256.811+116.98+257.667+118.214C261.185+123.29+261.019+123.111+262.232+123.111L263.309+123.111L265.043+120.661C265.997+119.313+267.646+116.988+268.707+115.494C269.768+114+270.951+112.328+271.335+111.778C271.72+111.228+272.637+109.928+273.374+108.889C274.111+107.85+274.849+106.809+275.014+106.576C275.943+105.26+275.993+105.914+276.054+120.192L276.111+133.667L279.056+133.729L282+133.791L282+113.34L282+92.889L280.148+92.889L278.297+92.889L277.19+94.5C276.582+95.386+275.615+96.786+275.042+97.611C274.469+98.436+273.55+99.761+273+100.556C272.45+101.35+271.567+102.625+271.038+103.389C270.51+104.153+269.527+105.578+268.855+106.556C261.718+116.94+262.367+116.333+260.832+114.056C260.276+113.231+259.198+111.656+258.436+110.556C257.072+108.585+255.66+106.537+252.733+102.278C251.914+101.086+250.859+99.561+250.39+98.889C249.92+98.217+248.815+96.594+247.935+95.282L246.333+92.897L244.604+92.893C243.422+92.89+242.841+92.977+242.769+93.167M292.222+113.329L292.222+133.781L305.167+133.724L318.111+133.667L318.111+131.333L318.111+129L308.168+128.942L298.225+128.884L298.168+110.942L298.111+93L295.167+92.938L292.222+92.876L292.222+113.329M325.111+113.333L325.111+133.778L339.111+133.778L353.111+133.778L353.111+131.333L353.111+128.889L342.137+128.889L331.163+128.889L331.029+128.389C330.759+127.381+330.873+115.438+331.156+115.156C331.355+114.956+333.859+114.889+341.052+114.889L350.682+114.889L350.619+112.611L350.556+110.333L340.936+110.222C332.71+110.127+331.286+110.063+331.106+109.778C330.878+109.416+330.808+99.101+331.029+98.278L331.163+97.778L342.137+97.778L353.111+97.778L353.111+95.333L353.111+92.889L339.111+92.889L325.111+92.889L325.111+113.333M360.984+93.183C360.922+93.345+360.9+94.42+360.936+95.572L361+97.667L371.278+97.724C383.137+97.791+382.213+97.54+380.471+100.222C378.696+102.957+376.697+106.071+373.653+110.84C361.94+129.197+362.243+128.724+360.959+130.692C360.273+131.743+360+132.392+360+132.971L360+133.781L375.5+133.724L391+133.667L391+131.333L391+129L380.152+128.942L369.305+128.885L369.459+128.387C369.545+128.113+369.935+127.389+370.327+126.778C370.718+126.167+371.487+124.967+372.034+124.111C372.581+123.256+373.445+121.906+373.954+121.111C378.496+114.016+382.137+108.31+382.889+107.111C383.387+106.317+385.391+103.171+387.342+100.12C390.324+95.457+390.889+94.439+390.889+93.731L390.889+92.889L375.993+92.889C363.832+92.889+361.076+92.943+360.984+93.183M113.236+100.022C113.525+100.489+110.496+103.252+104.917+107.608C102.77+109.285+102.526+109.371+102.37+108.5C102.198+107.544+102.324+100.366+102.519+100.056C102.751+99.684+113.007+99.652+113.236+100.022M98.5+127.572L94.889+129.329L94.889+140.535C94.889+146.699+94.828+151.9+94.754+152.093C94.59+152.521+75.219+152.637+74.43+152.214C74.017+151.993+74+151.662+74+143.635L74+135.285L73.435+135.427C73.125+135.505+71.8+135.668+70.491+135.789C69.182+135.911+67.786+136.069+67.389+136.141L66.667+136.272L66.667+147.803L66.667+159.333L84.556+159.333L102.444+159.333L102.444+142.556C102.444+133.328+102.369+125.786+102.278+125.797C102.186+125.808+100.486+126.606+98.5+127.572" opacity="1" fill="#2565ac"/>
<path d="M30.323+62.723C30.265+62.877+30.243+66.552+30.275+70.89L30.333+78.778L38.43+78.836C44.759+78.882+46.565+78.833+46.704+78.614C46.91+78.29+46.957+63.325+46.754+62.796C46.573+62.324+30.504+62.253+30.323+62.723M46.556+70.667L46.556+78.556L38.5+78.614L30.444+78.672L30.444+70.667L30.444+62.661L38.5+62.719L46.556+62.778L46.556+70.667M125.556+68.639C125.556+68.747+125.689+68.945+125.852+69.081C126.162+69.337+126.85+70.665+127.366+72C127.974+73.574+127.603+79.917+126.853+80.767C126.751+80.883+126.667+81.148+126.667+81.357C126.667+81.565+126.478+82.12+126.248+82.59C126.017+83.06+125.496+84.144+125.091+85C124.685+85.856+124.073+86.974+123.732+87.484C123.39+87.995+123.111+88.477+123.111+88.556C123.111+88.775+121.801+90.657+120.83+91.833L119.959+92.889L107.313+92.889L94.667+92.889L94.72+103.722L94.773+114.556L94.833+103.833L94.893+93.111L107.391+93.108C114.265+93.106+119.996+93.031+120.126+92.941C121.504+91.994+126.02+84.363+126.93+81.444C128.348+76.9+128.306+73.11+126.806+70.167C126.385+69.342+126.079+68.667+126.125+68.667C126.171+68.667+126.779+68.928+127.477+69.246C130.64+70.693+132.636+74.122+132.659+78.15C132.669+79.932+132.059+83.168+131.282+85.444C129.687+90.122+127.148+94.854+123.959+99.089C123.371+99.871+122.889+100.619+122.889+100.751C122.889+100.994+123.349+100.372+125.77+96.855C127.551+94.268+129.51+90.69+130.468+88.278C130.577+88.003+130.76+87.553+130.874+87.278C131.917+84.766+132.889+80.399+132.889+78.222C132.889+75.206+132.116+73.087+130.298+71.116C128.796+69.487+125.556+67.796+125.556+68.639M56.593+70.815C56.241+71.166+56.43+77.725+56.796+77.865C56.989+77.939+70.984+78+87.896+78L118.644+78L119.322+77.278C120.494+76.027+121.77+72.966+121.775+71.389L121.778+70.667L89.259+70.667C71.374+70.667+56.674+70.733+56.593+70.815M121.556+71.521C121.556+72.885+120.227+76.001+119.149+77.167L118.584+77.778L87.977+77.778C71.143+77.778+57.212+77.717+57.018+77.643C56.719+77.528+56.667+77.011+56.667+74.198L56.667+70.889L89.111+70.889L121.556+70.889L121.556+71.521M19.111+81.733C19.111+83.304+19.203+84.226+19.378+84.4C19.585+84.607+19.585+84.726+19.378+84.933C19.038+85.273+19.007+89.909+19.343+90.117C19.471+90.196+19.721+90.14+19.899+89.992C20.152+89.782+20.295+89.783+20.556+90C20.812+90.213+20.961+90.217+21.205+90.014C21.449+89.812+21.626+89.818+21.983+90.041C22.354+90.272+22.532+90.275+22.889+90.052C23.244+89.83+23.422+89.83+23.778+90.052C24.133+90.274+24.311+90.274+24.667+90.052C25.022+89.83+25.2+89.83+25.556+90.052C25.913+90.275+26.091+90.272+26.462+90.041C26.818+89.818+26.996+89.812+27.24+90.014C27.484+90.217+27.634+90.212+27.898+89.992C28.158+89.777+28.303+89.77+28.498+89.965C28.64+90.106+29.022+90.222+29.347+90.222L29.938+90.222L29.954+84.778L29.971+79.333L24.541+79.333L19.111+79.333L19.111+81.733M38.222+93.333L38.222+100L44.278+100.056C47.608+100.086+53.933+100.111+58.333+100.111L66.333+100.111L66.391+113.505L66.448+126.899L65.835+127.144C64.171+127.812+59.274+128.684+54.742+129.12C52.02+129.382+49.846+129.343+46.611+128.973C45.8+128.88+45.333+128.909+45.333+129.052C45.333+129.176+45.758+129.272+46.278+129.266C46.797+129.259+48.296+129.337+49.608+129.438C51.916+129.617+54.995+129.428+59+128.862C61.501+128.509+65.279+127.672+66.138+127.28L66.667+127.04L66.667+113.524L66.667+100.008L66.071+99.859C65.743+99.777+63.194+99.771+60.407+99.847C57.619+99.923+51.537+99.922+46.892+99.845L38.444+99.706L38.444+93.297L38.444+86.889L42.111+86.889L45.778+86.889L45.778+89.865C45.778+92.374+45.833+92.863+46.129+92.976C46.323+93.05+52.673+93.111+60.24+93.111L74+93.111L74+108.54C74+125.837+73.912+124.917+75.504+124.347C79.045+123.077+86.646+119.487+90.222+117.395C93.071+115.729+94.46+114.83+94.353+114.723C94.3+114.67+93.674+115.019+92.962+115.497C92.249+115.976+91.517+116.433+91.333+116.512C91.15+116.592+90.5+116.956+89.889+117.321C89.278+117.687+87.178+118.778+85.222+119.746C81.062+121.804+79.179+122.674+77.389+123.363C76.56+123.682+75.92+123.932+75.305+124.177C74.199+124.618+74.222+124.951+74.222+108.402L74.222+92.892L60.167+92.835L46.111+92.778L46.049+89.722L45.987+86.667L42.105+86.667L38.222+86.667L38.222+93.333M201.5+92.595C201.286+92.652+201.111+92.748+201.111+92.807C201.111+92.939+202.201+94.915+202.444+95.222C202.54+95.344+202.83+95.819+203.087+96.278C203.345+96.736+203.756+97.461+204+97.889C204.244+98.317+204.644+99.017+204.889+99.444C205.133+99.872+205.533+100.572+205.778+101C206.022+101.428+206.422+102.128+206.667+102.556C206.911+102.983+207.311+103.683+207.556+104.111C207.8+104.539+208.2+105.239+208.444+105.667C208.689+106.094+209.089+106.794+209.333+107.222C209.578+107.65+209.978+108.35+210.222+108.778C210.467+109.206+210.867+109.906+211.111+110.333C211.356+110.761+211.766+111.486+212.024+111.944C212.281+112.403+212.57+112.878+212.667+113C212.763+113.122+213.052+113.597+213.31+114.056C213.567+114.514+213.995+115.264+214.26+115.722C215.894+118.547+215.776+117.727+215.777+126.278L215.778+134L219+134L222.222+134L222.222+126.007C222.222+117.507+222.22+117.526+223.333+116.111C223.43+115.989+223.719+115.514+223.976+115.056C224.234+114.597+224.644+113.872+224.889+113.444C225.133+113.017+225.544+112.292+225.801+111.833C226.059+111.375+226.348+110.9+226.444+110.778C226.541+110.656+226.83+110.181+227.087+109.722C227.345+109.264+227.756+108.539+228+108.111C228.244+107.683+228.655+106.958+228.913+106.5C229.17+106.042+229.459+105.567+229.556+105.444C229.652+105.322+229.941+104.847+230.199+104.389C230.456+103.931+230.867+103.206+231.111+102.778C231.356+102.35+231.756+101.65+232+101.222C232.244+100.794+232.644+100.094+232.889+99.667C233.133+99.239+233.533+98.539+233.778+98.111C234.022+97.683+234.422+96.983+234.667+96.556C234.911+96.128+235.313+95.421+235.56+94.986C235.806+94.55+236.167+93.951+236.362+93.654C237.1+92.528+236.794+92.428+232.838+92.494L229.222+92.556L224.28+102.444C221.562+107.883+219.212+112.361+219.058+112.394C218.672+112.478+218.531+112.231+215.095+105.444C213.424+102.144+211.268+97.894+210.303+96L208.548+92.556L205.218+92.523C203.387+92.505+201.714+92.537+201.5+92.595M164.667+95.198C164.667+98.306+163.913+98+171.572+98L177.775+98L177.832+115.944L177.889+133.889L181.111+133.889L184.333+133.889L184.39+115.944L184.447+98L190.65+98C198.309+98+197.556+98.306+197.556+95.198L197.556+92.667L181.111+92.667L164.667+92.667L164.667+95.198M212.774+101.389C216.741+109.223+217.735+111.13+218.59+112.553C219.032+113.289+219.334+112.776+224.476+102.55L229.444+92.671L232.944+92.669C234.869+92.668+236.444+92.753+236.444+92.858C236.444+93.069+234.261+96.88+226.866+109.578L222+117.933L222+125.862L222+133.791L219.056+133.729L216.111+133.667L216+125.885L215.889+118.104L213.189+113.441C210.002+107.938+202.193+94.331+201.805+93.607C201.349+92.754+201.653+92.667+205.081+92.667L208.358+92.667L212.774+101.389M242.444+113.333L242.444+134L245.667+134L248.889+134L248.889+120.333C248.889+112.314+248.972+106.667+249.09+106.667C249.265+106.667+250.559+108.304+251.219+109.361C251.343+109.56+251.994+110.499+252.667+111.448C253.339+112.397+254.039+113.396+254.222+113.667C254.406+113.938+255.106+114.935+255.778+115.883C256.45+116.83+257.6+118.47+258.333+119.525C261.221+123.682+260.846+123.316+262.222+123.322C263.32+123.327+263.49+123.262+263.889+122.69C264.133+122.339+264.883+121.276+265.556+120.328C266.228+119.38+266.928+118.382+267.111+118.111C267.425+117.647+268.184+116.574+270.944+112.691C271.586+111.788+272.261+110.827+272.444+110.556C274.375+107.7+275.184+106.654+275.405+106.727C275.601+106.793+275.681+110.211+275.724+120.413L275.781+134.012L278.946+133.951L282.111+133.889L282.111+113.333L282.111+92.778L280.193+92.714L278.276+92.65L277.419+93.825C276.948+94.471+276.461+95.162+276.337+95.36C276.213+95.557+275.361+96.797+274.444+98.115C273.528+99.432+272.628+100.731+272.444+101C272.261+101.269+271.361+102.569+270.444+103.889C269.528+105.209+268.628+106.508+268.444+106.777C268.261+107.046+267.161+108.643+266+110.326C264.839+112.01+263.589+113.823+263.222+114.356C262.283+115.721+262.092+115.625+260.222+112.847C259.306+111.485+258.406+110.153+258.222+109.886C258.039+109.619+256.939+108.021+255.778+106.333C254.617+104.646+253.517+103.046+253.333+102.777C253.15+102.508+252.25+101.21+251.333+99.893C250.417+98.575+249.563+97.321+249.436+97.105C249.309+96.89+249.063+96.543+248.889+96.333C248.715+96.124+248.469+95.778+248.342+95.564C248.215+95.35+247.722+94.611+247.246+93.921L246.382+92.667L244.413+92.667L242.444+92.667L242.444+113.333M292+113.333L292+134L305.087+134C316.816+134+318.189+133.964+318.31+133.648C318.562+132.989+318.457+129.212+318.178+128.933C317.978+128.734+315.452+128.667+308.178+128.667L298.444+128.667L298.444+111.018C298.444+101.312+298.384+93.212+298.31+93.018C298.196+92.721+297.698+92.667+295.087+92.667L292+92.667L292+113.333M324.889+113.333L324.889+134L339.118+134L353.347+134L353.285+131.389L353.222+128.778L342.281+128.72L331.341+128.662L331.219+128.165C331.152+127.891+331.126+124.867+331.16+121.444L331.222+115.222L341.056+115.164L350.889+115.106L350.889+112.553L350.889+110L341.43+110C335.334+110+331.818+109.918+331.541+109.77C331.086+109.526+330.858+98.965+331.293+98.28C331.428+98.068+333.982+97.991+342.345+97.947L353.222+97.889L353.285+95.278L353.347+92.667L339.118+92.667L324.889+92.667L324.889+113.333M360.802+93.018C360.549+93.677+360.654+97.454+360.933+97.733C361.133+97.933+363.733+98+371.267+98C378.268+98+381.333+98.072+381.333+98.238C381.333+98.368+381.033+98.912+380.667+99.444C380.3+99.977+380+100.505+380+100.617C380+100.729+379.8+101.001+379.556+101.222C379.311+101.443+379.111+101.712+379.111+101.82C379.111+101.927+378.411+103.058+377.556+104.333C376.7+105.609+376+106.709+376+106.778C376+106.847+375.3+107.947+374.444+109.222C373.589+110.497+372.889+111.597+372.889+111.665C372.889+111.734+371.989+113.134+370.889+114.778C369.789+116.421+368.889+117.822+368.889+117.89C368.889+117.959+368.189+119.058+367.333+120.333C366.478+121.609+365.778+122.709+365.778+122.778C365.778+122.847+365.078+123.947+364.222+125.222C363.367+126.497+362.667+127.629+362.667+127.736C362.667+127.843+362.467+128.112+362.222+128.333C361.978+128.555+361.778+128.823+361.778+128.93C361.778+129.037+361.328+129.796+360.778+130.616C359.982+131.801+359.778+132.3+359.778+133.053L359.778+134L375.421+134C389.48+134+391.077+133.964+391.198+133.648C391.451+132.989+391.346+129.212+391.067+128.933C390.867+128.733+388.168+128.667+380.289+128.667C368.328+128.667+369.187+128.845+370.667+126.667C371.156+125.947+371.556+125.268+371.556+125.158C371.556+125.048+371.756+124.777+372+124.556C372.244+124.334+372.444+124.066+372.444+123.958C372.444+123.851+373.144+122.72+374+121.444C374.856+120.169+375.556+119.069+375.556+119C375.556+118.931+376.256+117.831+377.111+116.556C377.967+115.28+378.667+114.18+378.667+114.111C378.667+114.042+379.367+112.942+380.222+111.667C381.078+110.391+381.778+109.26+381.778+109.153C381.778+109.046+381.978+108.777+382.222+108.556C382.467+108.334+382.667+108.066+382.667+107.958C382.667+107.851+383.367+106.72+384.222+105.444C385.078+104.169+385.778+103.069+385.778+103C385.778+102.931+386.478+101.831+387.333+100.556C388.189+99.28+388.889+98.179+388.889+98.108C388.889+98.038+389.389+97.239+390+96.333C390.929+94.957+391.111+94.521+391.111+93.677L391.111+92.667L376.024+92.667C362.471+92.667+360.923+92.702+360.802+93.018M197.222+95.333L197.222+97.667L190.778+97.778L184.333+97.889L184.276+115.833L184.22+133.778L181.111+133.778L178.003+133.778L177.946+115.833L177.889+97.889L171.444+97.778L165+97.667L164.936+95.572C164.9+94.42+164.922+93.345+164.985+93.182C165.078+92.939+167.951+92.896+181.16+92.943L197.222+93L197.222+95.333M247.935+95.282C248.815+96.594+249.92+98.217+250.39+98.889C250.859+99.561+251.914+101.086+252.733+102.278C255.66+106.537+257.072+108.585+258.436+110.556C259.198+111.656+260.276+113.231+260.832+114.056C262.367+116.333+261.718+116.94+268.855+106.556C269.527+105.578+270.51+104.153+271.038+103.389C271.567+102.625+272.45+101.35+273+100.556C273.55+99.761+274.469+98.436+275.042+97.611C275.615+96.786+276.582+95.386+277.19+94.5L278.297+92.889L280.148+92.889L282+92.889L282+113.34L282+133.791L279.056+133.729L276.111+133.667L276.054+120.192C275.993+105.914+275.943+105.26+275.014+106.576C274.849+106.809+274.111+107.85+273.374+108.889C272.637+109.928+271.72+111.228+271.335+111.778C270.951+112.328+269.768+114+268.707+115.494C267.646+116.988+265.997+119.313+265.043+120.661L263.309+123.111L262.232+123.111C261.019+123.111+261.185+123.29+257.667+118.214C256.811+116.98+255.761+115.483+255.333+114.889C254.906+114.294+253.856+112.796+253+111.56C251.711+109.697+249.517+106.639+249.174+106.229C248.765+105.738+248.673+108.296+248.67+120.284L248.667+133.791L245.722+133.729L242.778+133.667L242.72+113.556C242.689+102.494+242.711+93.319+242.769+93.167C242.841+92.977+243.422+92.89+244.604+92.893L246.333+92.897L247.935+95.282M298.168+110.942L298.225+128.884L308.168+128.942L318.111+129L318.111+131.333L318.111+133.667L305.167+133.724L292.222+133.781L292.222+113.329L292.222+92.876L295.167+92.938L298.111+93L298.168+110.942M353.111+95.333L353.111+97.778L342.137+97.778L331.163+97.778L331.029+98.278C330.808+99.101+330.878+109.416+331.106+109.778C331.286+110.063+332.71+110.127+340.936+110.222L350.556+110.333L350.619+112.611L350.682+114.889L341.052+114.889C333.859+114.889+331.355+114.956+331.156+115.156C330.873+115.438+330.759+127.381+331.029+128.389L331.163+128.889L342.137+128.889L353.111+128.889L353.111+131.333L353.111+133.778L339.111+133.778L325.111+133.778L325.111+113.333L325.111+92.889L339.111+92.889L353.111+92.889L353.111+95.333M390.889+93.731C390.889+94.439+390.324+95.457+387.342+100.12C385.391+103.171+383.387+106.317+382.889+107.111C382.137+108.31+378.496+114.016+373.954+121.111C373.445+121.906+372.581+123.256+372.034+124.111C371.487+124.967+370.718+126.167+370.327+126.778C369.935+127.389+369.545+128.113+369.459+128.387L369.305+128.885L380.152+128.942L391+129L391+131.333L391+133.667L375.5+133.724L360+133.781L360+132.971C360+132.392+360.273+131.743+360.959+130.692C362.243+128.724+361.94+129.197+373.653+110.84C376.697+106.071+378.696+102.957+380.471+100.222C382.213+97.54+383.137+97.791+371.278+97.724L361+97.667L360.936+95.572C360.9+94.42+360.922+93.345+360.984+93.183C361.076+92.943+363.832+92.889+375.993+92.889L390.889+92.889L390.889+93.731M102.519+100.056C102.065+100.779+102.253+109.111+102.723+109.111C102.995+109.111+106.512+106.447+107.889+105.199C109.024+104.17+107.005+105.671+103.709+108.307C103.073+108.816+102.819+108.913+102.687+108.699C102.552+108.481+102.512+101.009+102.641+100.167C102.655+100.075+105.027+100+107.913+100C112.817+100+113.149+100.025+113.011+100.389C112.898+100.685+112.924+100.716+113.123+100.519C113.768+99.88+113.049+99.778+107.889+99.778C103.973+99.778+102.65+99.846+102.519+100.056M121.317+102.5C120.672+103.264+118.737+105.332+117.017+107.095C114.915+109.249+114.399+109.859+115.444+108.952C117.441+107.221+121.212+103.192+122.401+101.52C123.025+100.642+122.431+101.179+121.317+102.5M110.494+102.789C109.605+103.577+108.968+104.222+109.08+104.222C109.191+104.222+109.969+103.577+110.808+102.787C112.775+100.937+112.582+100.938+110.494+102.789M111.225+112.349C100.388+121.141+86.16+127.844+73.333+130.201C66.853+131.391+64.796+131.615+60.333+131.616C54.486+131.618+50.987+131.098+47.051+129.643C46.096+129.29+45.818+129.252+46.122+129.517C46.238+129.618+46.783+129.829+47.333+129.987C47.883+130.144+48.533+130.355+48.778+130.454C49.022+130.554+49.772+130.752+50.444+130.895C51.117+131.038+52.067+131.244+52.556+131.353C57.59+132.478+68.336+131.769+76.444+129.777C76.994+129.642+77.844+129.444+78.333+129.338C79.946+128.987+84.612+127.531+86.111+126.91C86.356+126.809+86.856+126.599+87.222+126.444C88.048+126.095+88.862+125.769+89.444+125.554C91.618+124.75+99.209+120.919+101.352+119.543C102.003+119.126+102.812+118.633+103.151+118.448C104.231+117.858+111.251+112.731+112.595+111.551C113.984+110.331+113.02+110.893+111.225+112.349M99.778+126.678C98.372+127.378+96.648+128.218+95.946+128.546L94.671+129.142L94.613+140.626L94.556+152.111L84.889+152.173C79.572+152.207+74.998+152.18+74.725+152.114L74.228+151.993L74.169+143.608L74.111+135.222L73.556+135.264C71.467+135.419+67.672+135.845+67.165+135.98L66.556+136.143L66.556+147.794L66.556+159.444L84.556+159.444L102.556+159.444L102.613+142.568C102.644+133.286+102.594+125.627+102.501+125.549C102.409+125.47+101.183+125.978+99.778+126.678M102.444+142.556L102.444+159.333L84.556+159.333L66.667+159.333L66.667+147.803L66.667+136.272L67.389+136.141C67.786+136.069+69.182+135.911+70.491+135.789C71.8+135.668+73.125+135.505+73.435+135.427L74+135.285L74+143.635C74+151.662+74.017+151.993+74.43+152.214C75.219+152.637+94.59+152.521+94.754+152.093C94.828+151.9+94.889+146.699+94.889+140.535L94.889+129.329L98.5+127.572C100.486+126.606+102.186+125.808+102.278+125.797C102.369+125.786+102.444+133.328+102.444+142.556" opacity="1" fill="#6494c4"/>
<path d="M30.369+62.386C30.312+62.479+33.923+62.528+38.393+62.495C44.783+62.447+46.565+62.494+46.723+62.717C46.874+62.931+46.901+62.919+46.832+62.667C46.732+62.303+30.591+62.028+30.369+62.386M8.667+73.671L8.667+78.675L13.5+78.615L18.333+78.556L18.393+73.611L18.453+68.667L13.56+68.667L8.667+68.667L8.667+73.671M127.607+74.444C127.607+74.872+127.653+75.047+127.709+74.833C127.765+74.619+127.765+74.269+127.709+74.056C127.653+73.842+127.607+74.017+127.607+74.444M127.607+76.222C127.607+76.65+127.653+76.825+127.709+76.611C127.765+76.397+127.765+76.047+127.709+75.833C127.653+75.619+127.607+75.794+127.607+76.222M46.667+78.635C46.667+78.836+44.689+78.885+38.444+78.839C33.922+78.805+30.222+78.853+30.222+78.944C30.222+79.036+27.697+79.134+24.611+79.163L19+79.214L24.487+79.278L29.973+79.341L29.954+84.675C29.943+87.608+29.988+90.062+30.054+90.128C30.12+90.194+30.178+88.267+30.183+85.846C30.188+83.425+30.199+80.919+30.207+80.278L30.222+79.111L38.431+79.111C46.2+79.111+47.326+79.029+46.8+78.504C46.727+78.43+46.667+78.489+46.667+78.635M18.889+84.667C18.889+85.386+18.91+85.407+19.27+85.048C19.63+84.688+19.63+84.646+19.27+84.286C18.91+83.926+18.889+83.947+18.889+84.667M38.098+93.333C38.098+96.939+38.129+98.414+38.166+96.611C38.204+94.808+38.204+91.858+38.166+90.056C38.129+88.253+38.098+89.728+38.098+93.333M46.087+89.778C46.087+91.428+46.122+92.103+46.165+91.278C46.208+90.453+46.208+89.103+46.165+88.278C46.122+87.453+46.087+88.128+46.087+89.778M19.778+90.111C19.485+90.464+19.702+90.545+20.314+90.31C20.507+90.236+20.609+90.086+20.541+89.977C20.361+89.686+20.092+89.733+19.778+90.111M21.111+90.111C20.818+90.464+21.035+90.545+21.647+90.31C21.84+90.236+21.942+90.086+21.874+89.977C21.695+89.686+21.425+89.733+21.111+90.111M22.889+90.111C22.596+90.464+22.813+90.545+23.425+90.31C23.618+90.236+23.72+90.086+23.652+89.977C23.472+89.686+23.203+89.733+22.889+90.111M24.667+90.111C24.374+90.464+24.591+90.545+25.203+90.31C25.395+90.236+25.498+90.086+25.43+89.977C25.25+89.686+24.98+89.733+24.667+90.111M26.444+90.111C26.151+90.464+26.369+90.545+26.981+90.31C27.173+90.236+27.275+90.086+27.208+89.977C27.028+89.686+26.758+89.733+26.444+90.111M27.778+90.111C27.485+90.464+27.702+90.545+28.314+90.31C28.507+90.236+28.609+90.086+28.541+89.977C28.361+89.686+28.092+89.733+27.778+90.111M207.167+92.375C207.381+92.431+207.731+92.431+207.944+92.375C208.158+92.32+207.983+92.274+207.556+92.274C207.128+92.274+206.953+92.32+207.167+92.375M107.444+92.667L94.778+92.783L107.376+92.836C115.592+92.871+120.022+92.812+120.111+92.667C120.187+92.544+120.218+92.468+120.18+92.497C120.142+92.526+114.411+92.603+107.444+92.667M172.944+92.611C177.436+92.645+184.786+92.645+189.278+92.611C193.769+92.577+190.094+92.55+181.111+92.55C172.128+92.55+168.453+92.577+172.944+92.611M243.5+92.607C244.019+92.654+244.869+92.654+245.389+92.607C245.908+92.56+245.483+92.522+244.444+92.522C243.406+92.522+242.981+92.56+243.5+92.607M277.972+92.833C277.697+93.183+277.705+93.192+278.043+92.928C278.307+92.721+278.981+92.655+280.3+92.706C281.335+92.745+282.135+92.703+282.078+92.611C281.843+92.235+278.29+92.427+277.972+92.833M294.991+92.608C297.106+92.657+298.154+92.766+298.286+92.951C298.424+93.146+298.453+93.129+298.388+92.889C298.312+92.613+297.747+92.554+295.093+92.546L291.889+92.535L294.991+92.608M331.961+92.611C335.911+92.645+342.311+92.645+346.183+92.611C350.054+92.577+346.822+92.549+339+92.549C331.178+92.549+328.01+92.577+331.961+92.611M360.815+92.593C360.733+92.674+360.668+92.849+360.67+92.981C360.672+93.125+360.744+93.111+360.849+92.946C360.985+92.731+364.384+92.657+376.123+92.611L391.222+92.552L376.093+92.498C367.771+92.469+360.896+92.511+360.815+92.593M164.543+95.315C164.553+97.375+164.618+97.87+164.889+97.943C165.127+98.008+165.145+97.979+164.952+97.842C164.778+97.718+164.656+96.793+164.607+95.214L164.531+92.778L164.543+95.315M197.602+95.259C197.57+97+197.473+97.774+197.278+97.853C197.06+97.941+197.062+97.969+197.285+97.982C197.733+98.01+197.799+97.574+197.722+95.096L197.649+92.778L197.602+95.259M242.329+113.333C242.329+124.639+242.356+129.264+242.389+123.611C242.422+117.958+242.422+108.708+242.389+103.056C242.356+97.403+242.329+102.028+242.329+113.333M74.327+108.556C74.327+117.111+74.355+120.579+74.389+116.261C74.423+111.944+74.423+104.944+74.389+100.706C74.355+96.468+74.327+100+74.327+108.556M291.884+113.333C291.884+124.517+291.911+129.092+291.944+123.5C291.977+117.908+291.977+108.758+291.944+103.167C291.911+97.575+291.884+102.15+291.884+113.333M324.773+113.333C324.773+124.517+324.8+129.092+324.833+123.5C324.866+117.908+324.866+108.758+324.833+103.167C324.8+97.575+324.773+102.15+324.773+113.333M391.163+93.778C391.163+94.206+391.208+94.381+391.264+94.167C391.32+93.953+391.32+93.603+391.264+93.389C391.208+93.175+391.163+93.35+391.163+93.778M331.157+103.931C331.132+107.01+331.186+109.576+331.278+109.633C331.369+109.69+331.419+108.071+331.387+106.035C331.279+99.038+331.203+98.344+331.157+103.931M44.167+100.167C47.375+100.201+50+100.303+49.999+100.393C49.999+100.482+49.418+101.706+48.709+103.111C48+104.517+47.283+106.117+47.115+106.667C46.948+107.217+46.729+107.762+46.628+107.878C46.527+107.994+46.444+108.27+46.444+108.492C46.444+108.714+46.354+109.069+46.244+109.281C45.251+111.191+44.838+116.735+45.488+119.444C46.292+122.801+49.785+125.54+53.278+125.553C53.935+125.555+54.27+125.255+53.813+125.074C53.71+125.033+53.259+124.515+52.81+123.923C49.024+118.929+50.341+111.729+56.765+102.313L58.143+100.292L52.147+100.146C48.849+100.066+44.391+100.023+42.242+100.052C39.185+100.092+39.604+100.117+44.167+100.167M59.667+100.152C62.903+100.312+66.395+100.319+66.3+100.167C66.243+100.075+64.427+100.019+62.265+100.043C60.102+100.066+58.933+100.115+59.667+100.152M104.333+100.155C108.718+100.313+113.112+100.319+113.111+100.167C113.111+100.075+110.736+100.02+107.833+100.045C104.931+100.07+103.356+100.119+104.333+100.155M111.208+102.056L110.556+102.778L111.278+102.125C111.951+101.517+112.102+101.333+111.93+101.333C111.892+101.333+111.567+101.658+111.208+102.056M275.66+120.333C275.66+127.789+275.688+130.807+275.722+127.04C275.756+123.272+275.756+117.172+275.722+113.484C275.688+109.796+275.66+112.878+275.66+120.333M114.764+109.611L114.111+110.333L114.833+109.681C115.231+109.322+115.556+108.997+115.556+108.958C115.556+108.787+115.372+108.938+114.764+109.611M336.515+109.944C339.182+109.98+343.482+109.98+346.071+109.944C348.66+109.909+346.478+109.88+341.222+109.88C335.967+109.88+333.848+109.909+336.515+109.944M350.972+112.556C350.973+113.9+351.009+114.421+351.053+113.714C351.098+113.007+351.097+111.907+351.052+111.27C351.008+110.632+350.972+111.211+350.972+112.556M331.212+115.392C331.152+115.546+331.131+118.521+331.163+122.003L331.223+128.333L331.334+121.722C331.395+118.086+331.416+115.111+331.382+115.111C331.348+115.111+331.271+115.237+331.212+115.392M215.656+126.111C215.656+130.389+215.686+132.107+215.722+129.93C215.758+127.753+215.758+124.253+215.722+122.152C215.685+120.052+215.656+121.833+215.656+126.111M261.611+123.493C261.947+123.543+262.497+123.543+262.833+123.493C263.169+123.442+262.894+123.4+262.222+123.4C261.55+123.4+261.275+123.442+261.611+123.493M50.056+129.275C50.758+129.319+51.908+129.319+52.611+129.275C53.314+129.231+52.739+129.195+51.333+129.195C49.928+129.195+49.353+129.231+50.056+129.275M56.5+131.937C56.836+131.988+57.386+131.988+57.722+131.937C58.058+131.886+57.783+131.844+57.111+131.844C56.439+131.844+56.164+131.886+56.5+131.937M62.722+131.937C63.058+131.988+63.608+131.988+63.944+131.937C64.281+131.886+64.006+131.844+63.333+131.844C62.661+131.844+62.386+131.886+62.722+131.937M359.645+133.165L359.667+134.111L375.426+134.111C388.02+134.111+391.197+134.054+391.243+133.828C391.274+133.672+391.249+133.647+391.187+133.772C391.111+133.925+385.895+134+375.439+134L359.803+134L359.713+133.109L359.623+132.219L359.645+133.165M318.222+133.741C318.222+133.935+314.908+134.014+305.056+134.054L291.889+134.107L304.987+134.167C317.356+134.223+318.902+134.161+318.374+133.633C318.291+133.55+318.222+133.598+318.222+133.741M177.923+134.056C177.98+134.147+179.414+134.222+181.111+134.222C182.808+134.222+184.242+134.147+184.299+134.056C184.356+133.964+182.921+133.889+181.111+133.889C179.301+133.889+177.867+133.964+177.923+134.056M279+134L275.889+134.13L278.931+134.176C280.771+134.204+282.028+134.134+282.111+134C282.187+133.878+282.218+133.798+282.18+133.824C282.142+133.849+280.711+133.928+279+134M217.379+134.165C218.199+134.207+219.599+134.207+220.49+134.165C221.382+134.123+220.711+134.088+219+134.088C217.289+134.087+216.56+134.122+217.379+134.165M244.046+134.165C244.865+134.207+246.265+134.207+247.157+134.165C248.048+134.123+247.378+134.088+245.667+134.088C243.956+134.087+243.226+134.122+244.046+134.165M331.961+134.167C335.911+134.201+342.311+134.201+346.183+134.167C350.054+134.132+346.822+134.105+339+134.105C331.178+134.105+328.01+134.133+331.961+134.167M68.278+135.709C68.492+135.765+68.842+135.765+69.056+135.709C69.269+135.653+69.094+135.607+68.667+135.607C68.239+135.607+68.064+135.653+68.278+135.709M74.323+143.778C74.323+148.361+74.352+150.236+74.389+147.944C74.425+145.653+74.425+141.903+74.389+139.611C74.352+137.319+74.323+139.194+74.323+143.778M84.556+152L74.556+152.118L84.487+152.17C90.925+152.204+94.467+152.144+94.556+152C94.631+151.878+94.662+151.801+94.624+151.83C94.586+151.859+90.056+151.935+84.556+152" opacity="1" fill="#94bcdc"/>
<path d="M34.515+62.166C36.814+62.203+40.514+62.203+42.737+62.166C44.959+62.13+43.078+62.1+38.556+62.101C34.033+62.101+32.215+62.13+34.515+62.166M30.053+70.611L30+78.889L24.556+78.889L19.111+78.889L19.111+73.791C19.111+70.632+19.027+68.641+18.889+68.556C18.743+68.465+18.667+70.22+18.667+73.654L18.667+78.889L13.556+78.889L8.444+78.889L8.444+73.622C8.444+70.045+8.372+68.428+8.218+68.582C8.074+68.726+8.013+70.659+8.051+73.904L8.111+79L13.385+79.06L18.659+79.119L18.718+84.837L18.778+90.556L24.306+90.615C29.781+90.674+30.444+90.6+30.444+89.93C30.444+89.8+30.319+89.864+30.167+90.073C29.916+90.416+29.366+90.447+24.444+90.393L19+90.333L18.941+84.722L18.881+79.111L24.552+79.111L30.222+79.111L30.262+80.278L30.302+81.444L30.385+80.392L30.469+79.339L38.623+79.278L46.778+79.217L38.503+79.164L30.228+79.111L30.167+70.722L30.106+62.333L30.053+70.611M11.056+68.388C12.431+68.427+14.681+68.427+16.056+68.388C17.431+68.349+16.306+68.317+13.556+68.317C10.806+68.317+9.681+68.349+11.056+68.388M130.111+70.667C130.588+71.156+131.029+71.556+131.09+71.556C131.151+71.556+130.811+71.156+130.333+70.667C129.856+70.178+129.415+69.778+129.354+69.778C129.293+69.778+129.634+70.178+130.111+70.667M56.32+70.732C56.26+70.889+56.241+72.564+56.278+74.454L56.346+77.889L56.395+74.279L56.444+70.668L89.167+70.611L121.889+70.554L89.16+70.499C62.575+70.455+56.41+70.498+56.32+70.732M121.834+72.111C121.836+72.6+121.882+72.774+121.935+72.497C121.988+72.221+121.986+71.821+121.93+71.609C121.875+71.396+121.831+71.622+121.834+72.111M127.397+74.111C127.399+74.722+127.442+74.946+127.493+74.608C127.544+74.27+127.543+73.77+127.49+73.497C127.437+73.224+127.395+73.5+127.397+74.111M127.402+76.778C127.403+77.511+127.445+77.784+127.494+77.385C127.544+76.985+127.543+76.385+127.492+76.052C127.441+75.718+127.401+76.044+127.402+76.778M132.971+78.222C132.971+79.506+133.008+80.031+133.053+79.389C133.098+78.747+133.098+77.697+133.053+77.056C133.008+76.414+132.971+76.939+132.971+78.222M30.289+82.889C30.289+83.561+30.33+83.836+30.381+83.5C30.432+83.164+30.432+82.614+30.381+82.278C30.33+81.942+30.289+82.217+30.289+82.889M30.289+85.556C30.289+86.228+30.33+86.503+30.381+86.167C30.432+85.831+30.432+85.281+30.381+84.944C30.33+84.608+30.289+84.883+30.289+85.556M40.044+86.61C41.108+86.65+42.908+86.651+44.044+86.61C45.181+86.57+44.311+86.536+42.111+86.536C39.911+86.536+38.981+86.569+40.044+86.61M37.828+93.344C37.791+98.214+37.847+99.98+38.044+100.178C38.238+100.371+39.862+100.444+43.957+100.444C48.968+100.444+49.588+100.483+49.471+100.789C49.395+100.987+49.432+101.076+49.558+100.998C50.597+100.356+49.736+100.229+43.944+100.17L38.111+100.111L37.995+93.444L37.879+86.778L37.828+93.344M46.323+89.833L46.333+92.778L60.278+92.78L74.222+92.783L60.34+92.723L46.457+92.663L46.385+89.776L46.313+86.888L46.323+89.833M30.289+88.222C30.289+88.894+30.33+89.169+30.381+88.833C30.432+88.497+30.432+87.947+30.381+87.611C30.33+87.275+30.289+87.55+30.289+88.222M120.668+91.554L119.966+92.441L107.372+92.501L94.778+92.561L107.416+92.558L120.054+92.556L120.833+91.611C121.262+91.092+121.559+90.667+121.492+90.667C121.425+90.667+121.055+91.066+120.668+91.554M207.496+92.163C208.145+92.221+208.542+92.397+208.774+92.729C208.959+92.993+209.111+93.103+209.111+92.973C209.111+92.458+208.286+92.001+207.427+92.039L206.556+92.078L207.496+92.163M172.944+92.389C177.436+92.422+184.786+92.422+189.278+92.389C193.769+92.355+190.094+92.328+181.111+92.328C172.128+92.328+168.453+92.355+172.944+92.389M202.389+92.387C203.153+92.43+204.403+92.43+205.167+92.387C205.931+92.343+205.306+92.308+203.778+92.308C202.25+92.308+201.625+92.343+202.389+92.387M232.278+92.387C233.103+92.43+234.453+92.43+235.278+92.387C236.103+92.344+235.428+92.309+233.778+92.309C232.128+92.309+231.453+92.344+232.278+92.387M243.5+92.385C244.019+92.432+244.869+92.432+245.389+92.385C245.908+92.338+245.483+92.3+244.444+92.3C243.406+92.3+242.981+92.338+243.5+92.385M277.868+92.722C277.447+93.22+277.447+93.22+277.896+92.843C278.223+92.568+278.864+92.443+280.229+92.388L282.111+92.313L280.201+92.267C278.464+92.226+278.253+92.268+277.868+92.722M291.822+92.489C291.436+92.876+291.436+133.791+291.822+134.178C292.025+134.38+295.241+134.432+305.211+134.392L318.333+134.339L305.111+134.225L291.889+134.111L291.889+113.333L291.889+92.556L295.111+92.435L298.333+92.315L295.211+92.268C293.024+92.236+292.009+92.302+291.822+92.489M324.711+92.489C324.324+92.876+324.324+133.791+324.711+134.178C324.914+134.381+328.352+134.432+339.1+134.391L353.222+134.338L339+134.225L324.778+134.111L324.778+113.333L324.778+92.556L339+92.442L353.222+92.328L339.1+92.275C328.352+92.235+324.914+92.286+324.711+92.489M376+92.442L391.222+92.556L391.356+93.556L391.489+94.556L391.522+93.656C391.579+92.133+392.528+92.217+375.9+92.275L360.778+92.329L376+92.442M282.329+113.333C282.329+124.761+282.356+129.436+282.389+123.722C282.422+118.008+282.422+108.658+282.389+102.944C282.356+97.231+282.329+101.906+282.329+113.333M353.332+95.379C353.272+96.931+353.301+98.123+353.396+98.027C353.492+97.931+353.542+96.66+353.506+95.204L353.442+92.556L353.332+95.379M74.496+108.265C74.468+116.782+74.519+123.798+74.611+123.855C74.762+123.948+74.76+112.768+74.607+98.333C74.574+95.278+74.524+99.747+74.496+108.265M94.547+103.444C94.547+109.311+94.576+111.679+94.611+108.707C94.646+105.735+94.646+100.935+94.611+98.04C94.576+95.146+94.547+97.578+94.547+103.444M164.306+95.333C164.306+96.739+164.342+97.314+164.386+96.611C164.431+95.908+164.431+94.758+164.386+94.056C164.342+93.353+164.306+93.928+164.306+95.333M197.862+95.333C197.862+96.739+197.898+97.314+197.942+96.611C197.986+95.908+197.986+94.758+197.942+94.056C197.898+93.353+197.862+93.928+197.862+95.333M242.107+113.333C242.107+124.639+242.134+129.264+242.167+123.611C242.2+117.958+242.2+108.708+242.167+103.056C242.134+97.403+242.107+102.028+242.107+113.333M125.333+97.778C125.072+98.144+124.909+98.444+124.97+98.444C125.031+98.444+125.294+98.144+125.556+97.778C125.817+97.411+125.98+97.111+125.919+97.111C125.858+97.111+125.594+97.411+125.333+97.778M250.667+98.667C250.928+99.033+251.191+99.333+251.252+99.333C251.314+99.333+251.15+99.033+250.889+98.667C250.628+98.3+250.364+98+250.303+98C250.242+98+250.406+98.3+250.667+98.667M331.433+98.504C331.374+98.659+331.352+101.234+331.385+104.226L331.444+109.667L341.056+109.67L350.667+109.674L341.104+109.612L331.541+109.551L331.604+103.886C331.665+98.334+331.653+97.933+331.433+98.504M177.661+116.222C177.661+126.061+177.689+130.086+177.722+125.167C177.756+120.247+177.756+112.197+177.722+107.278C177.689+102.358+177.661+106.383+177.661+116.222M184.55+116.222C184.55+126.061+184.578+130.086+184.611+125.167C184.644+120.247+184.644+112.197+184.611+107.278C184.578+102.358+184.55+106.383+184.55+116.222M59.778+100.373C62.719+100.533+66.223+100.542+66.223+100.389C66.222+100.297+64.497+100.241+62.389+100.264C60.281+100.287+59.106+100.336+59.778+100.373M102.815+100.37C102.733+100.452+102.667+102.352+102.667+104.593C102.667+108.371+102.785+109.152+103.243+108.41C103.342+108.251+103.304+108.214+103.145+108.312C102.955+108.43+102.889+107.434+102.889+104.458L102.889+100.444L107.68+100.444C111.245+100.444+112.43+100.51+112.312+100.701C112.214+100.86+112.251+100.897+112.41+100.799C113.171+100.329+112.323+100.222+107.815+100.222C105.146+100.222+102.896+100.289+102.815+100.37M111.099+101.944L110.333+102.778L111.167+102.012C111.625+101.591+112+101.216+112+101.179C112+101.009+111.812+101.169+111.099+101.944M48.364+102.86C47.919+103.706+47.558+104.484+47.561+104.588C47.565+104.692+47.962+104.034+48.445+103.124C48.928+102.215+49.289+101.437+49.248+101.396C49.206+101.355+48.809+102.013+48.364+102.86M270.889+102.667C270.628+103.033+270.464+103.333+270.525+103.333C270.586+103.333+270.85+103.033+271.111+102.667C271.372+102.3+271.536+102+271.475+102C271.414+102+271.15+102.3+270.889+102.667M377.64+103.611C376.875+104.909+376.825+105.02+377.215+104.556C377.666+104.018+378.056+103.333+377.91+103.333C377.852+103.333+377.73+103.458+377.64+103.611M55.475+104.541C54.955+105.334+55.025+105.502+55.581+104.796C55.839+104.468+56.003+104.151+55.944+104.092C55.886+104.034+55.674+104.236+55.475+104.541M384.529+105.167C383.764+106.464+383.714+106.575+384.104+106.111C384.555+105.573+384.944+104.889+384.799+104.889C384.741+104.889+384.619+105.014+384.529+105.167M248.943+120.5L248.996+134.111L249.056+120.556L249.115+107L249.687+107.667L250.259+108.333L249.781+107.611C249.518+107.214+249.21+106.889+249.096+106.889C248.97+106.889+248.91+112.199+248.943+120.5M275.278+115.611C275.309+120.408+275.361+126.483+275.394+129.111C275.427+131.739+275.477+127.814+275.505+120.389C275.533+112.964+275.481+106.889+275.389+106.889C275.297+106.889+275.247+110.814+275.278+115.611M53.433+108.244C53.117+108.868+52.913+109.431+52.979+109.497C53.045+109.563+53.199+109.353+53.322+109.029C53.445+108.706+53.7+108.142+53.89+107.776C54.079+107.41+54.183+107.111+54.121+107.111C54.058+107.111+53.749+107.621+53.433+108.244M273.778+108.889C273.517+109.256+273.353+109.556+273.414+109.556C273.475+109.556+273.739+109.256+274+108.889C274.261+108.522+274.425+108.222+274.364+108.222C274.302+108.222+274.039+108.522+273.778+108.889M114.877+109.722L114.111+110.556L114.944+109.79C115.72+109.077+115.88+108.889+115.71+108.889C115.673+108.889+115.298+109.264+114.877+109.722M45.444+110.222C45.361+110.485+45.343+110.75+45.404+110.811C45.465+110.872+45.583+110.707+45.667+110.444C45.75+110.182+45.768+109.917+45.707+109.855C45.646+109.794+45.528+109.959+45.444+110.222M351.194+112.556C351.195+113.9+351.231+114.421+351.276+113.714C351.32+113.007+351.319+111.907+351.275+111.27C351.23+110.632+351.194+111.211+351.194+112.556M52.111+111.333C52.028+111.596+52.009+111.861+52.071+111.922C52.132+111.983+52.25+111.818+52.333+111.556C52.417+111.293+52.435+111.028+52.374+110.967C52.313+110.905+52.195+111.07+52.111+111.333M252.667+112C252.928+112.367+253.191+112.667+253.252+112.667C253.314+112.667+253.15+112.367+252.889+112C252.628+111.633+252.364+111.333+252.303+111.333C252.242+111.333+252.406+111.633+252.667+112M45.049+111.852C44.961+112.075+44.898+112.575+44.909+112.963L44.929+113.667L45.143+112.922C45.395+112.047+45.318+111.168+45.049+111.852M51.667+112.667C51.583+112.93+51.565+113.195+51.626+113.256C51.687+113.317+51.805+113.152+51.889+112.889C51.972+112.626+51.991+112.361+51.929+112.3C51.868+112.239+51.75+112.404+51.667+112.667M260.444+112.889C260.706+113.256+260.969+113.556+261.03+113.556C261.091+113.556+260.928+113.256+260.667+112.889C260.406+112.522+260.142+112.222+260.081+112.222C260.02+112.222+260.183+112.522+260.444+112.889M270.667+113.333C270.406+113.7+270.242+114+270.303+114C270.364+114+270.628+113.7+270.889+113.333C271.15+112.967+271.314+112.667+271.252+112.667C271.191+112.667+270.928+112.967+270.667+113.333M51.271+113.852C51.183+114.075+51.12+114.575+51.131+114.963L51.151+115.667L51.365+114.922C51.617+114.047+51.54+113.168+51.271+113.852M44.744+116C44.744+117.039+44.783+117.464+44.829+116.944C44.876+116.425+44.876+115.575+44.829+115.056C44.783+114.536+44.744+114.961+44.744+116M370.529+114.722C369.764+116.02+369.714+116.131+370.104+115.667C370.555+115.129+370.944+114.444+370.799+114.444C370.741+114.444+370.619+114.569+370.529+114.722M336.5+115.278C339.158+115.313+343.508+115.313+346.167+115.278C348.825+115.242+346.65+115.213+341.333+115.213C336.017+115.213+333.842+115.242+336.5+115.278M331.381+121.709C331.355+125.277+331.408+128.242+331.5+128.299C331.592+128.356+331.641+126.487+331.61+124.146C331.501+116.037+331.428+115.252+331.381+121.709M268.444+116.444C268.183+116.811+268.02+117.111+268.081+117.111C268.142+117.111+268.406+116.811+268.667+116.444C268.928+116.078+269.091+115.778+269.03+115.778C268.969+115.778+268.706+116.078+268.444+116.444M50.96+117.556C50.96+118.35+51+118.675+51.05+118.278C51.099+117.881+51.099+117.231+51.05+116.833C51+116.436+50.96+116.761+50.96+117.556M215.333+125.844L215.444+133.889L215.503+126.014C215.535+121.683+215.485+118.063+215.392+117.969C215.299+117.876+215.272+121.42+215.333+125.844M222.323+118.057C222.265+118.21+222.243+121.885+222.275+126.223L222.334+134.111L222.445+125.944C222.506+121.453+222.527+117.778+222.493+117.778C222.459+117.778+222.382+117.903+222.323+118.057M44.896+118.889C44.896+119.194+44.993+119.594+45.111+119.778C45.282+120.042+45.327+119.995+45.327+119.556C45.327+119.25+45.23+118.85+45.111+118.667C44.941+118.403+44.896+118.449+44.896+118.889M51.137+120C51.126+120.306+51.215+120.706+51.333+120.889C51.608+121.313+51.608+120.857+51.333+120L51.155+119.444L51.137+120M374.307+121.167C373.542+122.464+373.492+122.575+373.882+122.111C374.333+121.573+374.722+120.889+374.576+120.889C374.518+120.889+374.397+121.014+374.307+121.167M45.952+121.669C46.078+121.915+46.415+122.314+46.702+122.556C47.204+122.981+47.203+122.973+46.67+122.332C45.785+121.266+45.711+121.197+45.952+121.669M52.008+122.333C52.009+122.456+52.214+122.806+52.464+123.111C52.766+123.48+52.842+123.517+52.689+123.222C52.314+122.497+52.007+122.096+52.008+122.333M47.778+123.757C48.594+124.486+50.2+125.429+50.357+125.272C50.408+125.222+50.051+125.001+49.564+124.782C49.078+124.562+48.503+124.187+48.287+123.949C48.071+123.71+47.693+123.413+47.447+123.288C47.201+123.164+47.35+123.375+47.778+123.757M261.611+123.715C261.947+123.766+262.497+123.766+262.833+123.715C263.169+123.664+262.894+123.622+262.222+123.622C261.55+123.622+261.275+123.664+261.611+123.715M53.889+124.849L55+126.017L53.667+125.879C52.693+125.779+52.423+125.806+52.667+125.979C53.043+126.246+55.346+126.313+55.309+126.056C55.296+125.964+54.721+125.392+54.032+124.785L52.778+123.68L53.889+124.849M101.909+125.3C101.834+125.422+101.968+125.464+102.222+125.398C102.664+125.282+102.667+125.387+102.667+142.421L102.667+159.561L84.456+159.503C74.439+159.471+66.32+159.52+66.412+159.612C66.505+159.705+74.725+159.755+84.679+159.724L102.778+159.667L102.778+142.447C102.778+126.594+102.749+125.223+102.41+125.157C102.207+125.118+101.982+125.183+101.909+125.3M50.889+125.556C51.072+125.674+51.472+125.763+51.778+125.752L52.333+125.733L51.778+125.556C50.921+125.281+50.464+125.281+50.889+125.556M371.196+126.056C370.431+127.353+370.381+127.464+370.771+127C371.222+126.462+371.611+125.778+371.465+125.778C371.407+125.778+371.286+125.903+371.196+126.056M59.058+128.379C59.335+128.433+59.735+128.431+59.947+128.375C60.159+128.319+59.933+128.276+59.444+128.278C58.956+128.281+58.782+128.326+59.058+128.379M353.332+131.288L353.442+134.111L353.506+131.463C353.542+130.006+353.492+128.736+353.396+128.64C353.301+128.544+353.272+129.735+353.332+131.288M46.611+128.823C46.886+128.876+47.336+128.876+47.611+128.823C47.886+128.771+47.661+128.727+47.111+128.727C46.561+128.727+46.336+128.771+46.611+128.823M55.278+128.827C55.675+128.877+56.325+128.877+56.722+128.827C57.119+128.778+56.794+128.738+56+128.738C55.206+128.738+54.881+128.778+55.278+128.827M50.167+129.053C50.808+129.098+51.858+129.098+52.5+129.053C53.142+129.008+52.617+128.971+51.333+128.971C50.05+128.971+49.525+129.008+50.167+129.053M94.498+140.389L94.444+151.778L84.556+151.778L74.667+151.778L74.667+143.6C74.667+134.755+74.682+134.865+73.456+134.918C72.783+134.947+72.784+134.948+73.556+135.085L74.333+135.222L74.444+143.556L74.556+151.889L84.506+151.947C92.348+151.992+94.479+151.945+94.564+151.725C94.623+151.57+94.644+146.394+94.611+140.222L94.551+129L94.498+140.389M360.307+130.722C359.542+132.02+359.492+132.131+359.882+131.667C360.333+131.129+360.722+130.444+360.576+130.444C360.518+130.444+360.397+130.569+360.307+130.722M52.836+131.713C53.112+131.766+53.512+131.764+53.725+131.708C53.937+131.653+53.711+131.609+53.222+131.612C52.733+131.614+52.559+131.66+52.836+131.713M66.836+131.713C67.112+131.766+67.512+131.764+67.725+131.708C67.937+131.653+67.711+131.609+67.222+131.612C66.733+131.614+66.559+131.66+66.836+131.713M58.056+132.166C59.247+132.206+61.197+132.206+62.389+132.166C63.581+132.126+62.606+132.093+60.222+132.093C57.839+132.093+56.864+132.126+58.056+132.166M359.394+133.111C359.394+133.661+359.437+133.886+359.49+133.611C359.543+133.336+359.543+132.886+359.49+132.611C359.437+132.336+359.394+132.561+359.394+133.111M179.5+134.387C180.386+134.429+181.836+134.429+182.722+134.387C183.608+134.345+182.883+134.311+181.111+134.311C179.339+134.311+178.614+134.345+179.5+134.387M217.379+134.387C218.199+134.429+219.599+134.43+220.49+134.387C221.382+134.345+220.711+134.31+219+134.31C217.289+134.31+216.56+134.344+217.379+134.387M244.046+134.387C244.865+134.429+246.265+134.43+247.157+134.387C248.048+134.345+247.378+134.31+245.667+134.31C243.956+134.31+243.226+134.344+244.046+134.387M277.379+134.387C278.199+134.429+279.599+134.43+280.49+134.387C281.382+134.345+280.711+134.31+279+134.31C277.289+134.31+276.56+134.344+277.379+134.387M367.627+134.389C372.006+134.423+379.106+134.423+383.405+134.389C387.705+134.355+384.122+134.327+375.444+134.328C366.767+134.328+363.249+134.355+367.627+134.389M68.606+135.494C69.001+135.543+69.701+135.544+70.162+135.496C70.623+135.447+70.3+135.407+69.444+135.406C68.589+135.405+68.212+135.445+68.606+135.494" opacity="1" fill="#ccdcec"/>
<path d="M46.778+70.667C46.778+75.288+46.853+79.022+46.944+78.966C47.036+78.909+47.111+75.174+47.111+70.667C47.111+66.159+47.036+62.424+46.944+62.368C46.853+62.311+46.778+66.046+46.778+70.667M8.444+73.667L8.444+78.889L13.556+78.889L18.667+78.889L18.667+73.667L18.667+68.444L13.556+68.444L8.444+68.444L8.444+73.667M18.393+73.611L18.333+78.556L13.5+78.615L8.667+78.675L8.667+73.671L8.667+68.667L13.56+68.667L18.453+68.667L18.393+73.611M56.634+78.056C56.726+78.148+70.796+78.198+87.901+78.167L119+78.111L87.733+78C70.537+77.939+56.542+77.964+56.634+78.056M298.444+110.4L298.555+128.333L298.612+110.568C298.644+100.797+298.594+92.727+298.501+92.635C298.409+92.542+298.383+100.537+298.444+110.4M360.593+92.593C360.296+92.89+360.427+97.709+360.74+97.968C361.076+98.248+381.426+98.448+381.147+98.169C381.056+98.079+376.436+97.979+370.88+97.947L360.778+97.889L360.778+95.166C360.778+93.669+360.769+92.444+360.759+92.444C360.749+92.444+360.674+92.511+360.593+92.593M164.626+98.049C164.714+98.137+167.705+98.237+171.271+98.271C174.838+98.305+177.684+98.261+177.596+98.173C177.508+98.085+174.518+97.985+170.951+97.951C167.384+97.917+164.538+97.961+164.626+98.049M191.23+97.944C187.69+97.979+184.719+98.08+184.63+98.17C184.54+98.26+187.384+98.305+190.951+98.271C194.754+98.235+197.525+98.12+197.651+97.993C197.77+97.875+197.822+97.801+197.767+97.83C197.712+97.858+194.77+97.91+191.23+97.944M337.056+98.166C340.019+98.201+344.869+98.201+347.833+98.166C350.797+98.131+348.372+98.103+342.444+98.103C336.517+98.103+334.092+98.131+337.056+98.166M48.511+103.077C47.753+104.623+47.007+106.289+46.854+106.778C46.701+107.267+46.496+107.762+46.399+107.878C46.302+107.994+46.222+108.27+46.222+108.492C46.222+108.714+46.132+109.069+46.022+109.281C45.029+111.191+44.616+116.735+45.265+119.444C46.139+123.088+49.041+125.263+53.876+125.896L54.974+126.04L53.745+124.713C49.609+120.245+50.022+113.926+55.01+105.367C55.947+103.76+58.189+100.495+58.441+100.371C58.571+100.308+58.55+100.279+58.394+100.308C57.377+100.498+52.893+108.396+51.567+112.333C50.528+115.419+50.454+119.575+51.402+121.59C51.979+122.816+53.439+124.926+53.813+125.074C54.27+125.255+53.935+125.555+53.278+125.553C49.785+125.54+46.292+122.801+45.488+119.444C44.838+116.735+45.251+111.191+46.244+109.281C46.354+109.069+46.444+108.714+46.444+108.492C46.444+108.27+46.527+107.994+46.628+107.878C46.729+107.762+46.949+107.217+47.116+106.667C47.283+106.117+48.013+104.488+48.738+103.047C49.463+101.606+50.019+100.39+49.973+100.345C49.927+100.301+49.269+101.53+48.511+103.077M66.326+113.556C66.326+120.828+66.354+123.803+66.389+120.167C66.423+116.531+66.423+110.581+66.389+106.944C66.354+103.308+66.326+106.283+66.326+113.556M117.551+107.056L115.667+109L117.611+107.116C118.681+106.08+119.556+105.205+119.556+105.172C119.556+105.01+119.3+105.25+117.551+107.056M113.43+110.944L112.778+111.667L113.5+111.014C113.897+110.655+114.222+110.33+114.222+110.292C114.222+110.12+114.039+110.271+113.43+110.944M44.889+128.765C44.889+128.941+45.004+129.156+45.145+129.243C45.312+129.347+45.341+129.304+45.228+129.121C45.127+128.957+45.182+128.758+45.36+128.645C45.603+128.492+45.585+128.451+45.278+128.448C45.064+128.446+44.889+128.589+44.889+128.765M308.556+128.663L318.333+128.778L318.333+131.479C318.333+132.965+318.408+134.134+318.5+134.077C318.788+133.899+318.696+129.008+318.4+128.711C318.199+128.51+315.746+128.457+308.456+128.496L298.778+128.549L308.556+128.663M337.056+128.611C340.019+128.646+344.869+128.646+347.833+128.611C350.797+128.576+348.372+128.547+342.444+128.547C336.517+128.547+334.092+128.576+337.056+128.611M380.556+128.663L391.222+128.778L391.222+131.479C391.222+132.965+391.297+134.134+391.389+134.077C391.676+133.899+391.585+129.008+391.289+128.711C391.087+128.51+388.437+128.457+380.456+128.497L369.889+128.549L380.556+128.663M66.326+147.778C66.326+154.194+66.354+156.819+66.389+153.611C66.423+150.403+66.423+145.153+66.389+141.944C66.354+138.736+66.326+141.361+66.326+147.778" opacity="1" fill="#acc4e4"/>
<path d="M46.883+62.146C47.033+62.22+47.111+65.147+47.111+70.667C47.111+76.187+47.033+79.113+46.883+79.187C46.758+79.249+46.783+79.274+46.939+79.243C47.163+79.197+47.222+77.392+47.222+70.667C47.222+63.941+47.163+62.136+46.939+62.091C46.783+62.059+46.758+62.084+46.883+62.146M124.815+67.926C124.581+68.16+124.632+68.292+125.222+68.979C125.528+69.334+125.778+69.521+125.778+69.395C125.778+69.269+125.628+69.041+125.444+68.889C124.944+68.474+125.019+67.924+125.556+68.064C125.8+68.128+125.945+68.09+125.876+67.979C125.731+67.745+125.031+67.71+124.815+67.926M8.274+68.231L7.77+68.433L7.829+73.828L7.889+79.222L13.163+79.282L18.437+79.341L18.496+85.06L18.556+90.778L24.426+90.778C29.447+90.778+30.312+90.73+30.407+90.444C30.498+90.169+30.458+90.16+30.175+90.393C29.915+90.607+28.514+90.66+24.306+90.615L18.778+90.556L18.718+84.837L18.659+79.119L13.385+79.06L8.111+79L8.051+73.889C7.977+67.578+7.351+68.222+13.556+68.222C19.727+68.222+19.092+67.581+19.169+73.889L19.231+79L19.282+73.717L19.333+68.433L18.763+68.217C18.048+67.945+8.956+67.957+8.274+68.231M121.971+70.743C122.107+70.907+122.17+71.108+122.111+71.189C122.052+71.27+122.114+71.245+122.249+71.132C122.522+70.905+122.328+70.444+121.96+70.444C121.798+70.444+121.802+70.539+121.971+70.743M119.344+77.759L119.095+78.222L87.788+78.222C66.63+78.222+56.445+78.148+56.369+77.994C56.306+77.869+56.281+77.894+56.313+78.05C56.427+78.611+118.936+78.561+119.445+77.999C119.667+77.754+119.791+77.495+119.72+77.424C119.65+77.353+119.48+77.504+119.344+77.759M132.871+81.166C132.805+81.644+132.839+81.916+132.951+81.805C133.058+81.697+133.11+81.323+133.066+80.972C132.993+80.384+132.977+80.4+132.871+81.166M132.47+83.26C132.456+83.402+132.38+83.702+132.301+83.926C132.189+84.242+132.219+84.276+132.433+84.079C132.584+83.939+132.661+83.639+132.602+83.412C132.544+83.186+132.484+83.117+132.47+83.26M124.476+85.143C124.32+85.394+124.24+85.648+124.3+85.707C124.36+85.767+124.525+85.599+124.667+85.333C125.003+84.706+124.847+84.55+124.476+85.143M37.704+86.593C37.303+86.993+37.547+99.923+37.962+100.299C38.317+100.62+39.061+100.667+43.844+100.667C48.958+100.667+49.311+100.692+49.194+101.056C49.089+101.384+49.107+101.392+49.309+101.111C49.441+100.928+49.55+100.703+49.552+100.611C49.554+100.519+47.026+100.444+43.933+100.444C39.857+100.444+38.238+100.371+38.044+100.178C37.664+99.797+37.664+87.092+38.044+86.711C38.204+86.551+38.219+86.444+38.081+86.444C37.955+86.444+37.785+86.511+37.704+86.593M122.698+88.254C122.542+88.505+122.462+88.759+122.522+88.818C122.582+88.878+122.747+88.71+122.889+88.444C123.225+87.817+123.069+87.661+122.698+88.254M121.888+89.557C121.666+89.802+121.537+90.055+121.601+90.119C121.665+90.184+121.883+89.983+122.086+89.674C122.529+88.998+122.441+88.946+121.888+89.557M205.889+92.014C205.292+92.13+205.534+92.148+206.623+92.07C207.97+91.972+208.319+92.019+208.678+92.344C208.916+92.559+209.111+92.656+209.111+92.559C209.111+91.886+207.739+91.654+205.889+92.014M229.043+92.175C228.514+92.759+228.572+92.983+229.113+92.443C229.508+92.048+229.741+92.013+231.168+92.141C232.053+92.219+232.728+92.233+232.667+92.171C232.279+91.777+229.4+91.78+229.043+92.175M94.593+92.37C94.311+92.652+94.445+92.943+94.743+92.696C94.952+92.522+98.771+92.431+107.576+92.389L120.111+92.33L107.426+92.276C100.449+92.246+94.674+92.289+94.593+92.37M246.736+92.762C247.001+93.059+247.259+93.259+247.311+93.208C247.431+93.088+246.654+92.222+246.427+92.222C246.333+92.222+246.472+92.465+246.736+92.762M291.436+92.5C291.119+93.331+291.453+134.299+291.778+134.398C292.047+134.48+292.058+134.443+291.833+134.206C291.437+133.785+291.426+92.885+291.822+92.489C292.03+92.281+292.028+92.222+291.815+92.222C291.665+92.222+291.494+92.347+291.436+92.5M298.388+92.384C298.603+92.537+298.677+96.507+298.721+110.457L298.778+128.333L308.667+128.444L318.556+128.556L318.618+131.316C318.665+133.367+318.608+134.128+318.396+134.277C318.179+134.43+318.19+134.457+318.444+134.387C318.72+134.312+318.778+133.776+318.778+131.315L318.778+128.333L308.835+128.275L298.892+128.218L298.835+110.294C298.785+94.583+298.737+92.359+298.444+92.279C298.199+92.212+298.184+92.24+298.388+92.384M324.325+92.5C324.008+93.331+324.342+134.299+324.667+134.398C324.936+134.48+324.946+134.443+324.722+134.206C324.326+133.785+324.315+92.885+324.711+92.489C324.919+92.281+324.917+92.222+324.704+92.222C324.554+92.222+324.383+92.347+324.325+92.5M360.319+92.512C360.258+92.672+360.236+94.047+360.271+95.568L360.333+98.333L370.5+98.391C379.875+98.444+381.211+98.526+380.444+99C380.322+99.076+380.222+99.251+380.222+99.389C380.222+99.727+380.873+98.853+380.882+98.502C380.887+98.288+378.637+98.214+370.722+98.169L360.556+98.111L360.493+95.351C360.446+93.292+360.503+92.545+360.715+92.41C360.947+92.263+360.947+92.228+360.715+92.226C360.559+92.224+360.38+92.353+360.319+92.512M391.302+92.515C391.608+92.886+391.572+94.13+391.231+95C391.082+95.38+391.11+95.372+391.429+94.945C391.902+94.312+391.834+92.423+391.333+92.259C391.049+92.166+391.044+92.204+391.302+92.515M74.439+92.813C74.591+92.888+74.667+98.035+74.667+108.339C74.667+116.816+74.742+123.798+74.833+123.855C74.925+123.911+74.95+116.951+74.889+108.386C74.801+96.015+74.72+92.803+74.494+92.757C74.339+92.726+74.314+92.751+74.439+92.813M94.322+100.667C94.322+104.883+94.352+106.608+94.389+104.5C94.425+102.392+94.425+98.942+94.389+96.833C94.352+94.725+94.322+96.45+94.322+100.667M276.999+93.557C276.777+93.802+276.648+94.055+276.712+94.119C276.776+94.184+276.995+93.983+277.197+93.674C277.64+92.998+277.552+92.946+276.999+93.557M247.67+94.062C247.885+94.402+248.116+94.625+248.184+94.556C248.253+94.488+248.077+94.21+247.794+93.938L247.28+93.444L247.67+94.062M127.796+94.189C127.433+94.867+127.508+95.056+127.912+94.48C128.107+94.2+128.215+93.919+128.152+93.855C128.088+93.792+127.928+93.942+127.796+94.189M201.125+93.889C201.125+94.011+201.272+94.305+201.452+94.542C201.631+94.78+201.778+94.874+201.778+94.752C201.778+94.629+201.631+94.335+201.452+94.098C201.272+93.861+201.125+93.767+201.125+93.889M276.032+94.921C275.875+95.171+275.796+95.425+275.855+95.485C275.915+95.545+276.08+95.376+276.222+95.111C276.558+94.484+276.402+94.328+276.032+94.921M235.796+95.077C235.433+95.756+235.508+95.945+235.912+95.368C236.107+95.089+236.215+94.808+236.152+94.744C236.088+94.681+235.928+94.831+235.796+95.077M248.581+95.451C248.783+95.761+248.992+95.97+249.045+95.917C249.177+95.786+248.602+94.889+248.386+94.889C248.29+94.889+248.378+95.142+248.581+95.451M126.358+96.549C126.156+96.858+126.068+97.111+126.164+97.111C126.38+97.111+126.955+96.214+126.823+96.083C126.77+96.03+126.561+96.239+126.358+96.549M202.459+96.111C202.459+96.233+202.605+96.527+202.785+96.765C202.964+97.002+203.111+97.096+203.111+96.974C203.111+96.852+202.964+96.558+202.785+96.32C202.605+96.083+202.459+95.989+202.459+96.111M249.333+96.359C249.333+96.482+249.48+96.776+249.66+97.013C249.839+97.25+249.986+97.344+249.986+97.222C249.986+97.1+249.839+96.806+249.66+96.569C249.48+96.331+249.333+96.237+249.333+96.359M389.914+96.993C389.711+97.302+389.624+97.556+389.719+97.556C389.936+97.556+390.511+96.659+390.379+96.527C390.326+96.474+390.117+96.684+389.914+96.993M274.03+97.818C273.74+98.175+273.547+98.51+273.601+98.564C273.654+98.617+273.925+98.355+274.202+97.98C274.853+97.099+274.717+96.971+274.03+97.818M164.279+98C164.357+98.287+165.3+98.334+171.018+98.339L177.667+98.344L171.122+98.28C166.245+98.232+164.528+98.145+164.383+97.941C164.241+97.741+164.213+97.757+164.279+98M197.778+97.963C197.778+98.154+196.026+98.236+191.167+98.274L184.556+98.326L191.097+98.389C197.22+98.447+198.427+98.353+197.93+97.856C197.846+97.772+197.778+97.82+197.778+97.963M234.018+98.189C233.655+98.867+233.73+99.056+234.134+98.48C234.33+98.2+234.438+97.919+234.374+97.855C234.31+97.792+234.15+97.942+234.018+98.189M389.129+98.189C388.766+98.867+388.841+99.056+389.245+98.48C389.441+98.2+389.549+97.919+389.485+97.855C389.421+97.792+389.261+97.942+389.129+98.189M342.556+98.219L331.667+98.333L331.661+103.945L331.655+109.556L331.72+104L331.785+98.444L342.546+98.444C349.48+98.444+353.356+98.365+353.444+98.222C353.52+98.1+353.551+98.024+353.513+98.052C353.475+98.081+348.544+98.156+342.556+98.219M272.999+99.335C272.777+99.58+272.648+99.833+272.712+99.897C272.776+99.961+272.995+99.761+273.197+99.451C273.64+98.775+273.552+98.724+272.999+99.335M124.04+99.772C123.365+100.684+123.433+100.846+124.139+100.008C124.46+99.626+124.677+99.27+124.623+99.216C124.569+99.161+124.306+99.411+124.04+99.772M204.236+99.222C204.236+99.344+204.383+99.639+204.563+99.876C204.742+100.113+204.889+100.207+204.889+100.085C204.889+99.963+204.742+99.669+204.563+99.431C204.383+99.194+204.236+99.1+204.236+99.222M251.692+99.896C251.894+100.205+252.104+100.415+252.157+100.362C252.288+100.23+251.713+99.333+251.497+99.333C251.401+99.333+251.489+99.586+251.692+99.896M379.587+100.254C379.431+100.505+379.351+100.759+379.411+100.818C379.471+100.878+379.636+100.71+379.778+100.444C380.114+99.817+379.958+99.661+379.587+100.254M272.032+100.698C271.875+100.949+271.796+101.203+271.855+101.263C271.915+101.323+272.08+101.154+272.222+100.889C272.558+100.261+272.402+100.105+272.032+100.698M58.265+100.726C57.833+101.246+56+104.031+56+104.167C56+104.239+55.835+104.481+55.632+104.705C55.43+104.928+55.369+105.111+55.496+105.111C55.623+105.111+55.887+104.775+56.082+104.364C56.277+103.953+56.588+103.491+56.774+103.337C56.959+103.183+57.111+102.934+57.111+102.785C57.111+102.636+57.311+102.332+57.556+102.111C57.8+101.89+58+101.617+58+101.505C58+100.793+58.65+100.667+62.316+100.667L65.996+100.667L66.056+113.556L66.117+126.444L66.114+113.5L66.111+100.556L62.309+100.495C59.384+100.448+58.452+100.501+58.265+100.726M107.42+100.66L112.062+100.778L110.758+101.98C110.041+102.641+109.567+103.141+109.705+103.091C109.984+102.99+112.105+101.036+112.328+100.675C112.425+100.518+110.922+100.46+107.624+100.493L102.778+100.542L107.42+100.66M252.559+101.174C252.773+101.514+253.005+101.736+253.073+101.667C253.142+101.599+252.966+101.321+252.683+101.049L252.169+100.556L252.559+101.174M122.5+101.767C122.103+102.245+121.778+102.705+121.778+102.787C121.778+102.991+123.322+101.266+123.328+101.056C123.337+100.786+123.259+100.852+122.5+101.767M232.24+101.3C231.877+101.978+231.952+102.167+232.356+101.591C232.552+101.311+232.66+101.03+232.596+100.967C232.533+100.903+232.372+101.053+232.24+101.3M378.698+101.587C378.542+101.838+378.462+102.092+378.522+102.152C378.582+102.211+378.747+102.043+378.889+101.778C379.225+101.15+379.069+100.994+378.698+101.587M386.781+101.938L386.391+102.556L386.905+102.062C387.188+101.79+387.364+101.512+387.296+101.444C387.227+101.375+386.996+101.598+386.781+101.938M48.634+101.944C48.164+102.508+47.27+104.374+47.364+104.592C47.408+104.694+47.801+104.053+48.237+103.167C48.673+102.281+49.014+101.556+48.994+101.556C48.974+101.556+48.812+101.731+48.634+101.944M253.333+102.137C253.333+102.259+253.48+102.554+253.66+102.791C253.839+103.028+253.986+103.122+253.986+103C253.986+102.878+253.839+102.584+253.66+102.346C253.48+102.109+253.333+102.015+253.333+102.137M206.014+102.333C206.014+102.456+206.161+102.75+206.34+102.987C206.52+103.224+206.667+103.318+206.667+103.196C206.667+103.074+206.52+102.78+206.34+102.542C206.161+102.305+206.014+102.211+206.014+102.333M377.888+102.89C377.666+103.135+377.537+103.389+377.601+103.453C377.665+103.517+377.883+103.316+378.086+103.007C378.529+102.331+378.441+102.279+377.888+102.89M386.018+103.077C385.655+103.756+385.73+103.945+386.134+103.368C386.33+103.089+386.438+102.808+386.374+102.744C386.31+102.681+386.15+102.831+386.018+103.077M214.222+103.026C214.222+103.148+214.369+103.442+214.548+103.68C214.728+103.917+214.875+104.011+214.875+103.889C214.875+103.767+214.728+103.473+214.548+103.235C214.369+102.998+214.222+102.904+214.222+103.026M117.195+107.5C114.858+109.853+113.008+111.777+113.084+111.776C113.382+111.771+121.723+103.395+121.542+103.282C121.488+103.249+119.532+105.147+117.195+107.5M108.149+104.136C106.979+105.224+107.214+105.279+108.437+104.204C108.982+103.725+109.332+103.336+109.214+103.339C109.096+103.343+108.617+103.701+108.149+104.136M269.816+103.799C269.394+104.474+269.648+104.565+270.086+103.896C270.289+103.586+270.376+103.333+270.281+103.333C270.185+103.333+269.976+103.543+269.816+103.799M230.462+104.411C230.099+105.089+230.175+105.278+230.578+104.702C230.774+104.422+230.882+104.141+230.818+104.078C230.755+104.014+230.595+104.164+230.462+104.411M268.999+105.112C268.777+105.358+268.648+105.611+268.712+105.675C268.776+105.739+268.995+105.539+269.197+105.229C269.64+104.553+269.552+104.501+268.999+105.112M46.767+105.88C46.566+106.304+46.438+106.758+46.482+106.891C46.527+107.024+46.731+106.678+46.937+106.122C47.38+104.927+47.284+104.79+46.767+105.88M54.07+107.493C52.949+109.704+52.528+110.657+52.787+110.399C53.029+110.157+55.331+105.48+55.249+105.397C55.207+105.355+54.676+106.298+54.07+107.493M207.792+105.444C207.792+105.567+207.939+105.861+208.118+106.098C208.298+106.335+208.444+106.429+208.444+106.307C208.444+106.185+208.298+105.891+208.118+105.654C207.939+105.416+207.792+105.322+207.792+105.444M105.697+106.13C104.798+106.919+105.059+106.982+105.992+106.201C106.415+105.846+106.665+105.559+106.547+105.563C106.43+105.566+106.047+105.822+105.697+106.13M256.008+106.15C256.019+106.402+257.109+107.714+257.11+107.477C257.111+107.372+256.861+106.989+256.556+106.626C256.25+106.263+256.004+106.049+256.008+106.15M268.032+106.476C267.875+106.727+267.796+106.981+267.855+107.041C267.915+107.1+268.08+106.932+268.222+106.667C268.558+106.039+268.402+105.883+268.032+106.476M375.587+106.476C375.431+106.727+375.351+106.981+375.411+107.041C375.471+107.1+375.636+106.932+375.778+106.667C376.114+106.039+375.958+105.883+375.587+106.476M229.129+106.633C228.766+107.311+228.841+107.5+229.245+106.924C229.441+106.644+229.549+106.364+229.485+106.3C229.421+106.236+229.261+106.386+229.129+106.633M383.67+106.826L383.28+107.444L383.794+106.951C384.077+106.679+384.253+106.401+384.184+106.333C384.116+106.264+383.885+106.486+383.67+106.826M249.111+120.333C249.111+127.646+249.16+133.581+249.219+133.522C249.366+133.374+249.377+107.303+249.229+107.155C249.164+107.09+249.111+113.02+249.111+120.333M274.781+107.715L274.391+108.333L274.905+107.84C275.188+107.568+275.364+107.29+275.296+107.221C275.227+107.153+274.996+107.375+274.781+107.715M374.705+107.799C374.283+108.474+374.537+108.565+374.975+107.896C375.178+107.586+375.265+107.333+375.17+107.333C375.074+107.333+374.865+107.543+374.705+107.799M382.907+107.966C382.544+108.645+382.619+108.834+383.023+108.257C383.218+107.978+383.327+107.697+383.263+107.633C383.199+107.57+383.039+107.719+382.907+107.966M257.448+108.285C257.662+108.625+257.894+108.847+257.962+108.779C258.031+108.71+257.855+108.432+257.572+108.16L257.058+107.667L257.448+108.285M209.57+108.556C209.57+108.678+209.717+108.972+209.896+109.209C210.075+109.446+210.222+109.541+210.222+109.418C210.222+109.296+210.075+109.002+209.896+108.765C209.717+108.527+209.57+108.433+209.57+108.556M266.03+109.374C265.74+109.73+265.547+110.066+265.601+110.119C265.654+110.173+265.925+109.91+266.202+109.535C266.853+108.655+266.717+108.527+266.03+109.374M250.459+109C250.459+109.122+250.605+109.416+250.785+109.654C250.964+109.891+251.111+109.985+251.111+109.863C251.111+109.741+250.964+109.446+250.785+109.209C250.605+108.972+250.459+108.878+250.459+109M382.018+109.3C381.655+109.978+381.73+110.167+382.134+109.591C382.33+109.311+382.438+109.03+382.374+108.967C382.31+108.903+382.15+109.053+382.018+109.3M94.27+111.6C94.229+113.81+94.164+114.234+93.833+114.427C93.619+114.551+93.557+114.656+93.695+114.66C94.311+114.677+94.458+114.011+94.388+111.524L94.317+109L94.27+111.6M258.222+109.248C258.222+109.371+258.369+109.665+258.548+109.902C258.728+110.139+258.875+110.233+258.875+110.111C258.875+109.989+258.728+109.695+258.548+109.458C258.369+109.22+258.222+109.126+258.222+109.248M227.351+109.744C226.988+110.422+227.064+110.611+227.467+110.035C227.663+109.756+227.771+109.475+227.707+109.411C227.644+109.347+227.483+109.497+227.351+109.744M45.198+110.317C45.131+110.492+45.113+110.867+45.159+111.151C45.22+111.53+45.271+111.446+45.354+110.833C45.47+109.971+45.409+109.767+45.198+110.317M251.333+110.41C251.333+110.513+251.549+110.788+251.812+111.021L252.291+111.444L251.898+110.833C251.492+110.203+251.333+110.084+251.333+110.41M272.685+110.633C272.322+111.311+272.397+111.5+272.8+110.924C272.996+110.644+273.104+110.364+273.041+110.3C272.977+110.236+272.817+110.386+272.685+110.633M264.999+110.89C264.777+111.135+264.648+111.389+264.712+111.453C264.776+111.517+264.995+111.316+265.197+111.007C265.64+110.331+265.552+110.279+264.999+110.89M372.476+111.365C372.32+111.616+372.24+111.87+372.3+111.93C372.36+111.989+372.525+111.821+372.667+111.556C373.003+110.928+372.847+110.772+372.476+111.365M218.641+111.728C218.79+112.007+219.013+112.172+219.137+112.095C219.261+112.018+219.331+111.937+219.293+111.915C219.254+111.893+219.031+111.728+218.797+111.548C218.396+111.241+218.387+111.251+218.641+111.728M211.347+111.667C211.347+111.789+211.494+112.083+211.674+112.32C211.853+112.558+212+112.652+212+112.529C212+112.407+211.853+112.113+211.674+111.876C211.494+111.639+211.347+111.544+211.347+111.667M226.018+111.966C225.655+112.645+225.73+112.834+226.134+112.257C226.33+111.978+226.438+111.697+226.374+111.633C226.31+111.57+226.15+111.719+226.018+111.966M271.692+112.104C271.489+112.414+271.401+112.667+271.497+112.667C271.713+112.667+272.288+111.77+272.157+111.638C272.104+111.585+271.894+111.795+271.692+112.104M44.757+112.086C44.692+112.255+44.672+112.83+44.713+113.363C44.785+114.302+44.791+114.292+44.894+113.055C45.002+111.758+44.97+111.531+44.757+112.086M264.038+112.244C263.617+112.919+263.87+113.009+264.308+112.34C264.511+112.031+264.599+111.778+264.503+111.778C264.407+111.778+264.198+111.988+264.038+112.244M371.594+112.688C371.172+113.363+371.426+113.453+371.864+112.785C372.067+112.475+372.154+112.222+372.059+112.222C371.963+112.222+371.754+112.432+371.594+112.688M111.222+113.007C110.856+113.307+110.641+113.554+110.746+113.554C110.85+113.555+111.233+113.306+111.596+113C111.959+112.694+112.174+112.448+112.073+112.452C111.972+112.457+111.589+112.706+111.222+113.007M379.692+112.993C379.489+113.302+379.401+113.556+379.497+113.556C379.713+113.556+380.288+112.659+380.157+112.527C380.104+112.474+379.894+112.684+379.692+112.993M51.586+113.778C51.566+114.083+51.498+114.583+51.435+114.889L51.321+115.444L51.56+114.897C51.691+114.597+51.759+114.097+51.71+113.786L51.622+113.222L51.586+113.778M253.568+113.444C253.57+113.738+254.19+114.551+254.316+114.425C254.37+114.371+254.223+114.078+253.99+113.774C253.756+113.471+253.566+113.322+253.568+113.444M261.448+114.062C261.662+114.402+261.894+114.625+261.962+114.556C262.031+114.488+261.855+114.21+261.572+113.938L261.058+113.444L261.448+114.062M370.777+114.001C370.555+114.247+370.426+114.5+370.49+114.564C370.554+114.628+370.772+114.427+370.975+114.118C371.418+113.442+371.33+113.39+370.777+114.001M109.444+114.34C109.078+114.641+108.863+114.887+108.968+114.888C109.072+114.888+109.455+114.639+109.818+114.333C110.181+114.028+110.396+113.781+110.295+113.786C110.194+113.79+109.811+114.04+109.444+114.34M378.907+114.189C378.544+114.867+378.619+115.056+379.023+114.48C379.218+114.2+379.327+113.919+379.263+113.855C379.199+113.792+379.039+113.942+378.907+114.189M44.519+116C44.519+116.917+44.558+117.292+44.606+116.833C44.654+116.375+44.654+115.625+44.606+115.167C44.558+114.708+44.519+115.083+44.519+116M213.123+114.778C213.126+115.072+213.746+115.884+213.871+115.758C213.925+115.704+213.779+115.412+213.545+115.108C213.312+114.804+213.122+114.656+213.123+114.778M224.24+115.077C223.877+115.756+223.952+115.945+224.356+115.368C224.552+115.089+224.66+114.808+224.596+114.744C224.533+114.681+224.372+114.831+224.24+115.077M254.446+114.746C254.445+114.85+254.694+115.233+255+115.596C255.306+115.959+255.552+116.174+255.548+116.073C255.537+115.82+254.447+114.508+254.446+114.746M269.448+115.271L269.058+115.889L269.572+115.395C269.855+115.123+270.031+114.845+269.962+114.777C269.894+114.709+269.662+114.931+269.448+115.271M107.667+115.674C107.3+115.974+107.086+116.221+107.19+116.221C107.295+116.222+107.677+115.972+108.041+115.667C108.404+115.361+108.618+115.115+108.517+115.119C108.416+115.123+108.033+115.373+107.667+115.674M91.683+115.671C91.447+115.85+91.299+116.04+91.353+116.094C91.407+116.148+91.7+116.001+92.003+115.768C92.307+115.534+92.456+115.344+92.333+115.345C92.211+115.347+91.918+115.493+91.683+115.671M331.662+121.833L331.667+128.333L342.59+128.444C348.598+128.506+353.467+128.481+353.41+128.389C353.354+128.297+348.465+128.222+342.546+128.222L331.784+128.222L331.72+121.778L331.656+115.333L331.662+121.833M51.191+117.556C51.191+118.717+51.229+119.192+51.274+118.611C51.32+118.031+51.32+117.081+51.274+116.5C51.229+115.919+51.191+116.394+51.191+117.556M106.222+116.667C105.917+116.906+105.776+117.103+105.91+117.106C106.044+117.109+106.334+116.911+106.556+116.667C107.062+116.107+106.938+116.107+106.222+116.667M89.458+117.007C89.22+117.187+89.126+117.333+89.248+117.333C89.371+117.333+89.665+117.187+89.902+117.007C90.139+116.828+90.233+116.681+90.111+116.681C89.989+116.681+89.695+116.828+89.458+117.007M214.459+117C214.459+117.122+214.605+117.416+214.785+117.654C214.964+117.891+215.111+117.985+215.111+117.863C215.111+117.741+214.964+117.446+214.785+117.209C214.605+116.972+214.459+116.878+214.459+117M222.907+117.3C222.544+117.978+222.619+118.167+223.023+117.591C223.218+117.311+223.327+117.03+223.263+116.967C223.199+116.903+223.039+117.053+222.907+117.3M368.476+117.587C368.32+117.838+368.24+118.092+368.3+118.152C368.36+118.211+368.525+118.043+368.667+117.778C368.809+117.512+368.888+117.258+368.843+117.213C368.798+117.168+368.633+117.337+368.476+117.587M376.559+117.938L376.169+118.556L376.683+118.062C376.966+117.79+377.142+117.512+377.073+117.444C377.005+117.375+376.773+117.598+376.559+117.938M44.684+118.598C44.675+119.11+44.746+119.578+44.842+119.638C44.939+119.698+44.982+119.379+44.937+118.929C44.816+117.699+44.704+117.553+44.684+118.598M256.679+117.889C256.681+118.183+257.301+118.995+257.427+118.869C257.481+118.815+257.334+118.523+257.101+118.219C256.867+117.915+256.678+117.767+256.679+117.889M267.247+118.326C267.044+118.636+266.957+118.889+267.053+118.889C267.269+118.889+267.844+117.992+267.712+117.86C267.659+117.807+267.45+118.017+267.247+118.326M367.665+118.89C367.444+119.135+367.314+119.389+367.379+119.453C367.443+119.517+367.661+119.316+367.864+119.007C368.307+118.331+368.219+118.279+367.665+118.89M375.796+119.077C375.433+119.756+375.508+119.945+375.912+119.368C376.107+119.089+376.215+118.808+376.152+118.744C376.088+118.681+375.928+118.831+375.796+119.077M102.219+119.344C101.915+119.577+101.767+119.767+101.889+119.766C102.183+119.763+102.995+119.143+102.869+119.017C102.815+118.963+102.523+119.11+102.219+119.344M257.557+119.19C257.556+119.295+257.806+119.677+258.111+120.041C258.417+120.404+258.663+120.618+258.659+120.517C258.648+120.265+257.558+118.953+257.557+119.19M266.262+119.772C265.587+120.684+265.655+120.846+266.361+120.008C266.682+119.626+266.9+119.27+266.845+119.216C266.791+119.161+266.528+119.411+266.262+119.772M51.371+120C51.382+120.577+51.732+121.526+51.74+121C51.744+120.756+51.661+120.356+51.556+120.111C51.439+119.839+51.367+119.796+51.371+120M45.113+120.252C45.11+120.75+45.611+121.673+46.308+122.455C46.628+122.814+46.889+123.211+46.889+123.338C46.889+123.466+47.062+123.636+47.272+123.717C47.483+123.798+47.928+124.106+48.26+124.402C48.998+125.06+49.927+125.556+50.414+125.553C50.614+125.552+50.278+125.316+49.667+125.029C48.242+124.36+46.307+122.424+45.637+121C45.35+120.389+45.114+120.052+45.113+120.252M99.876+120.771C99.639+120.95+99.544+121.097+99.667+121.097C99.789+121.097+100.083+120.95+100.32+120.771C100.558+120.591+100.652+120.444+100.529+120.444C100.407+120.444+100.113+120.591+99.876+120.771M365.365+122.476C365.208+122.727+365.129+122.981+365.189+123.041C365.248+123.1+365.414+122.932+365.556+122.667C365.698+122.401+365.777+122.147+365.732+122.102C365.687+122.057+365.522+122.225+365.365+122.476M259.785+122.342C259.793+122.598+260.878+123.864+260.99+123.748C261.033+123.703+260.778+123.32+260.423+122.897C260.068+122.474+259.781+122.224+259.785+122.342M263.927+123.01C263.59+123.432+263.394+123.772+263.491+123.765C263.717+123.75+264.748+122.452+264.629+122.333C264.58+122.283+264.264+122.588+263.927+123.01M373.448+122.826L373.058+123.444L373.572+122.951C373.855+122.679+374.031+122.401+373.962+122.333C373.894+122.264+373.662+122.486+373.448+122.826M52.651+123.145C52.914+123.591+53.625+124.42+54.231+124.987C55.61+126.276+55.609+126.277+54.01+126.186C53.283+126.145+52.768+126.192+52.867+126.29C52.966+126.388+53.628+126.438+54.339+126.401C55.719+126.329+56.191+125.925+55.296+125.582C54.752+125.373+53.111+123.717+53.111+123.377C53.111+123.269+52.9+122.989+52.642+122.757L52.173+122.333L52.651+123.145M364.483+123.799C364.061+124.474+364.315+124.565+364.753+123.896C364.956+123.586+365.043+123.333+364.947+123.333C364.852+123.333+364.643+123.543+364.483+123.799M372.685+123.966C372.322+124.645+372.397+124.834+372.8+124.257C372.996+123.978+373.104+123.697+373.041+123.633C372.977+123.57+372.817+123.719+372.685+123.966M371.796+125.3C371.433+125.978+371.508+126.167+371.912+125.591C372.107+125.311+372.215+125.03+372.152+124.967C372.088+124.903+371.928+125.053+371.796+125.3M51.084+125.84C51.191+125.947+51.566+125.999+51.917+125.955C52.505+125.882+52.489+125.866+51.722+125.76C51.245+125.694+50.972+125.728+51.084+125.84M64.333+127.111C64.171+127.374+64.388+127.374+65+127.111C65.428+126.927+65.427+126.92+64.958+126.905C64.69+126.896+64.409+126.989+64.333+127.111M362.254+127.365C362.097+127.616+362.018+127.87+362.078+127.93C362.137+127.989+362.302+127.821+362.444+127.556C362.586+127.29+362.666+127.036+362.621+126.991C362.576+126.946+362.411+127.114+362.254+127.365M370.363+127.652C370.164+127.957+370+128.259+370+128.323C370+128.388+374.825+128.466+380.722+128.498L391.444+128.556L391.507+131.316C391.554+133.367+391.497+134.128+391.285+134.277C391.068+134.43+391.079+134.457+391.333+134.387C391.609+134.312+391.667+133.776+391.667+131.315L391.667+128.333L380.912+128.276C370.179+128.218+370.158+128.217+370.559+127.774C370.78+127.53+370.908+127.278+370.844+127.214C370.779+127.15+370.563+127.347+370.363+127.652M44.325+128.458C44.159+128.726+44.829+129.559+45.201+129.549C45.335+129.545+45.269+129.44+45.056+129.316C44.281+128.864+44.583+128.375+45.556+128.505C46.061+128.573+46.391+128.538+46.32+128.423C46.146+128.142+44.502+128.171+44.325+128.458M57.224+128.441C57.14+128.578+57.364+128.608+57.822+128.52C58.805+128.333+58.89+128.222+58.05+128.222C57.67+128.222+57.299+128.321+57.224+128.441M94.794+128.56C94.558+128.739+94.41+128.928+94.464+128.983C94.518+129.037+94.811+128.89+95.114+128.656C95.418+128.423+95.567+128.233+95.444+128.234C95.322+128.235+95.03+128.382+94.794+128.56M361.365+128.698C361.208+128.949+361.129+129.203+361.189+129.263C361.248+129.323+361.414+129.154+361.556+128.889C361.698+128.624+361.777+128.369+361.732+128.324C361.687+128.279+361.522+128.448+361.365+128.698M49.611+128.832C50.558+128.874+52.108+128.874+53.056+128.832C54.003+128.79+53.228+128.756+51.333+128.756C49.439+128.756+48.664+128.79+49.611+128.832M94.325+140.667C94.325+146.839+94.354+149.364+94.389+146.278C94.424+143.192+94.424+138.142+94.389+135.056C94.354+131.969+94.325+134.494+94.325+140.667M360.554+130.001C360.332+130.247+360.203+130.5+360.268+130.564C360.332+130.628+360.55+130.427+360.753+130.118C361.196+129.442+361.107+129.39+360.554+130.001M71.333+131.111L70.556+131.275L71.265+131.304C71.655+131.32+72.036+131.233+72.111+131.111C72.187+130.989+72.218+130.902+72.18+130.918C72.142+130.934+71.761+131.021+71.333+131.111M68.667+131.556L67.889+131.719L68.598+131.749C68.988+131.765+69.369+131.678+69.444+131.556C69.52+131.433+69.551+131.346+69.513+131.363C69.475+131.379+69.094+131.466+68.667+131.556M54.203+132.07C54.304+132.17+54.774+132.219+55.248+132.177L56.111+132.102L55.066+131.995C54.491+131.936+54.103+131.97+54.203+132.07M65.333+132L64.333+132.155L65.265+132.189C65.777+132.207+66.258+132.122+66.333+132C66.409+131.878+66.44+131.793+66.402+131.811C66.364+131.83+65.883+131.914+65.333+132M70.778+135.109C70.501+135.226+70.795+135.251+71.556+135.173C72.228+135.105+72.819+135.013+72.87+134.969C73.062+134.804+71.204+134.928+70.778+135.109M74.386+135.15C74.591+135.398+74.677+137.574+74.724+143.686L74.786+151.889L74.782+143.463C74.778+136.173+74.733+135.022+74.444+134.927C74.172+134.837+74.161+134.878+74.386+135.15M66.389+135.643C65.977+135.955+65.76+159.381+66.167+159.632C66.258+159.689+66.307+154.432+66.274+147.951C66.21+135.28+66.177+135.647+67.405+135.493L68.111+135.404L67.444+135.376C67.078+135.36+66.603+135.48+66.389+135.643" opacity="1" fill="#f4f4fc"/>
</g>
</svg>
