<svg xmlns="http://www.w3.org/2000/svg" xmlns:xlink="http://www.w3.org/1999/xlink" viewBox="0 0 400 89.0066225165563">
  <g fill-rule="evenodd">
    <path d="M66 .167c0 .091-.113.166-.25.166-.185 0-.25.195-.25.75 0 .556.065.75.25.75.175 0 .25.176.25.584 0 .407-.075.583-.25.583-.139 0-.25-.148-.25-.335 0-.184-.15-.463-.333-.62-.184-.157-.334-.382-.334-.499 0-.117-.112-.213-.25-.213a.25.25 0 0 1-.25-.25c0-.166-.166-.25-.5-.25-.333 0-.5.084-.5.25a.25.25 0 0 1-.25.25c-.166 0-.25.167-.25.5 0 .334.084.5.25.5.168 0 .25.168.25.506 0 .295.104.545.25.601.138.052.25.2.25.328s-.112.232-.25.232a.251.251 0 0 1-.25-.25.25.25 0 0 0-.25-.25.251.251 0 0 1-.25-.25.25.25 0 0 0-.25-.25.256.256 0 0 1-.25-.259c0-.205-.165-.249-.791-.208l-.792.05-.051.709c-.039.529.009.708.189.708.132 0 .285.169.34.375.153.569.132.625-.228.625-.185 0-.333-.111-.333-.25 0-.185-.195-.25-.75-.25h-.75v.833c0 .63.061.834.25.834a.25.25 0 0 1 .25.25c0 .137.112.25.25.25a.25.25 0 0 1 .25.25c0 .324-.436.324-.561 0-.07-.184-.361-.25-1.101-.25H57.5v.75c0 .555.065.75.25.75a.25.25 0 0 1 .25.25c0 .174.176.25.583.25.473 0 .584.063.584.333 0 .306-.111.333-1.334.333H56.5v1.5h.75c.556 0 .75.065.75.25 0 .173.174.25.564.25.424 0 .585.083.651.334.083.317.005.333-1.574.333h-1.66l.051.708.051.709 1.292.048c1.685.064 1.928.535.276.535-.875 0-1.028.046-1.103.333-.048.184-.191.334-.317.334-.162 0-.237.238-.25.791-.011.436-.054.661-.096.5-.051-.194-.239-.291-.564-.291-.322 0-.488-.085-.488-.25a.25.25 0 0 0-.25-.25.251.251 0 0 1-.25-.25c0-.167-.166-.25-.5-.25-.314 0-.5.085-.5.23 0 .127-.15.27-.333.318-.279.073-.333.227-.333.952 0 .724.054.878.333.951.25.066.333.228.333.651 0 .453-.065.564-.333.564-.185 0-.333.111-.333.25 0 .157-.158.25-.422.25-.232 0-.465.113-.518.25-.125.325-.56.325-.56 0a.25.25 0 0 1 .25-.25c.189 0 .25-.203.25-.833 0-.63.061-.833.25-.833.211 0 .25-.398.25-2.584 0-2.185-.039-2.583-.25-2.583a.25.25 0 0 1-.25-.25c0-.138-.104-.25-.231-.25s-.27-.15-.318-.333c-.063-.243-.227-.334-.602-.334-.348 0-.516-.081-.516-.25 0-.137-.104-.25-.232-.25s-.276-.112-.328-.25c-.064-.165-.325-.25-.768-.25-.486 0-.672-.069-.672-.25 0-.189-.204-.25-.833-.25-.63 0-.834-.061-.834-.25 0-.201-.259-.25-1.333-.25-1.074 0-1.333.049-1.333.25 0 .2-.25.25-1.25.25s-1.25.05-1.25.25c0 .139-.148.25-.334.25-.27 0-.333-.111-.333-.583 0-.407.075-.583.25-.583.194 0 .25-.223.25-1v-1h-.5c-.333 0-.5-.084-.5-.25 0-.195-.222-.25-1-.25s-1 .055-1 .25c0 .137-.104.25-.231.25-.5 0-.678 4.417-.186 4.606.145.055.25.305.25.589 0 .715.281 1.138.756 1.138.254 0 .411.095.411.25 0 .137.112.25.25.25a.25.25 0 0 1 .25.25c0 .137-.113.25-.25.25-.139 0-.25.148-.25.333 0 .223-.111.334-.333.334-.27 0-.334-.111-.334-.584 0-.387-.078-.583-.232-.583-.128 0-.275-.112-.328-.25-.053-.137-.286-.25-.518-.25-.357 0-.422-.076-.422-.5 0-.481-.027-.5-.75-.5-.555 0-.75.065-.75.25 0 .139-.148.25-.333.25-.315 0-.333.11-.331 1.958.002 2.163.09 2.709.434 2.709.127 0 .23.112.23.25 0 .137.113.25.25.25.139 0 .25.148.25.333 0 .185.111.333.25.333a.25.25 0 0 1 .25.25c0 .138.113.25.25.25a.25.25 0 0 1 .25.25c0 .207.315.25 1.834.25 1.518 0 1.833-.043 1.833-.25 0-.154.156-.25.408-.25.225 0 .469-.099.542-.221a.957.957 0 0 1 .425-.328c.16-.059.292-.222.292-.362 0-.14.112-.255.25-.255.567 0 .331 2.122-.25 2.25-.631.138-.718.819-.125.978.962.258 2.653.117 2.743-.228.062-.236.227-.334.568-.334.316 0 .48-.085.48-.25 0-.137.113-.25.25-.25.198 0 .25-.237.25-1.133v-1.133l.584.068.583.068v1.047c0 .778-.064 1.072-.25 1.144-.203.078-.25.473-.25 2.106s.047 2.028.25 2.106c.17.066.25.331.25.828 0 .54.066.733.25.733.174 0 .25.175.25.576v.576l-1.292.049-1.291.049-.049 1.208-.049 1.208H47v1.334c0 1.074.049 1.333.25 1.333.165 0 .25.165.25.487 0 .405.084.505.5.596.275.061.5.217.5.347 0 .152.179.237.5.237.333 0 .5.083.5.25 0 .174.176.25.583.25.408 0 .584.075.584.25 0 .367 2.965.367 3.106 0 .055-.143.303-.25.578-.25.318 0 .482-.086.482-.25a.25.25 0 0 1 .25-.25c.138 0 .25-.105.25-.233 0-.127.113-.275.25-.328.138-.052.25-.202.25-.331 0-.13.15-.275.334-.323.303-.08.333-.005.333.814 0 .689.059.901.25.901a.25.25 0 0 1 .25.25c0 .325-.602.325-.727 0-.123-.32-.588-.325-.71-.007-.052.134-.237.289-.412.345-.425.135-.489 2.578-.068 2.578a.25.25 0 0 1 .25.25c0 .212-.404.25-2.636.25H50.06l-.53.474c-.413.368-.53.608-.53 1.083 0 .431-.073.61-.25.61-.175 0-.25.176-.25.583 0 .408-.075.584-.25.584-.167 0-.25.166-.25.5 0 .333-.083.5-.25.5-.167 0-.25.166-.25.5 0 .333-.083.5-.25.5-.175 0-.25.176-.25.583 0 .472-.063.583-.333.583-.223 0-.334-.111-.334-.333 0-.185-.111-.333-.25-.333-.156 0-.25-.158-.25-.422 0-.232-.112-.465-.25-.518-.137-.053-.25-.2-.25-.328s-.112-.232-.25-.232a.251.251 0 0 1-.25-.25c0-.139-.148-.25-.333-.25-.185 0-.333-.111-.333-.25a.25.25 0 0 0-.25-.25c-.139 0-.25-.148-.25-.334 0-.185-.111-.333-.25-.333a.25.25 0 0 1-.25-.25.25.25 0 0 0-.25-.25.25.25 0 0 1-.25-.25.25.25 0 0 0-.25-.25.25.25 0 0 1-.25-.25.25.25 0 0 0-.25-.25.25.25 0 0 1-.25-.25c0-.139-.148-.25-.334-.25-.222 0-.333-.111-.333-.333 0-.186-.111-.334-.25-.334a.25.25 0 0 1-.25-.25c0-.167.167-.25.505-.25.296 0 .545-.104.601-.25.076-.197.424-.25 1.662-.25 1.248 0 1.565-.048 1.565-.239 0-.136.196-.261.459-.291.382-.044.467-.143.51-.595.033-.335.144-.541.292-.541.155 0 .239-.177.239-.5 0-.334-.083-.5-.25-.5-.194 0-.25-.223-.25-1v-1h-2.397c-2.257 0-2.402-.02-2.484-.334-.058-.22-.228-.333-.502-.333-.228 0-.458-.112-.51-.25-.071-.184-.362-.25-1.101-.25h-1.006v-1.583c0-1.297-.045-1.584-.25-1.584a.25.25 0 0 1-.25-.25c0-.166-.166-.25-.5-.25-.444 0-.5.056-.5.5 0 .334-.083.5-.25.5-.137 0-.25.143-.25.318 0 .236-.086.295-.333.231-.236-.062-.333-.228-.333-.568 0-.316-.086-.481-.25-.481a.256.256 0 0 1-.25-.261c0-.186-.131-.246-.459-.208l-.458.053-.045 3.125c-.038 2.625-.085 3.125-.292 3.125-.209 0-.246.513-.246 3.416 0 2.926.036 3.417.25 3.417.167 0 .25.167.25.505 0 .296.104.545.25.601.137.053.25.278.25.5 0 .223.108.446.239.496.132.051.288.311.347.579.059.267.213.486.344.486.13 0 .236.112.236.25 0 .137.113.25.25.25.189 0 .25.203.25.833 0 .63.061.833.25.833.195 0 .25.223.25 1.006 0 .739.066 1.03.25 1.101.362.139.362 2.648 0 2.787-.191.073-.25.389-.25 1.351 0 1.005-.05 1.255-.25 1.255-.185 0-.25.195-.25.75 0 .556-.064.75-.25.75-.188 0-.25.202-.25.814 0 .674-.057.829-.333.901-.303.079-.333.228-.333 1.603 0 1.236-.046 1.516-.25 1.516-.189 0-.25.203-.25.833 0 .63-.061.833-.25.833-.167 0-.25.167-.25.5 0 .481-.029.5-.738.5-.563 0-.756.07-.814.292-.073.278-.077.278-.096 0-.013-.209-.161-.292-.519-.292-.333 0-.5-.083-.5-.25 0-.164-.165-.25-.481-.25-.34 0-.506-.097-.567-.333-.064-.243-.228-.333-.603-.333-.347 0-.516-.082-.516-.25 0-.367-2.799-.367-2.939 0-.056.145-.305.25-.594.25-.358 0-.522.094-.585.333-.048.183-.191.333-.318.333s-.23.113-.23.25a.25.25 0 0 1-.25.25.25.25 0 0 0-.25.25c0 .138-.104.25-.231.25-.279 0-.431.509-.434 1.459-.001.517-.069.708-.252.708-.364 0-.364 2.3 0 2.44.153.058.25.311.25.648 0 .717.146 1.079.434 1.079.147 0 .233.183.233.5 0 .333.083.5.25.5.185 0 .25.195.25.755 0 .517.078.785.25.851.205.079.25.507.25 2.411 0 1.948.039 2.316.25 2.316a.25.25 0 0 1 .25.25c0 .137.103.25.23.25s.271.156.321.346c.19.725 1.023.355 1.084-.481.064-.892.473-1.327 1.312-1.396.632-.052.636-.057.687-.844.035-.556.122-.792.291-.792a.236.236 0 0 0 .241-.23c0-.127.15-.27.334-.318.508-.133.508-2.937 0-3.07-.387-.101-.455-.548-.084-.548.138 0 .25-.095.25-.21 0-.116.155-.307.343-.424.605-.378.393-1.435-.301-1.502-.544-.052-.802-.531-.286-.531.14 0 .298-.113.351-.25.075-.196.413-.25 1.566-.25 1.259 0 1.48-.042 1.546-.292.042-.16.085 1.04.095 2.667.017 2.527-.017 2.958-.23 2.958-.167 0-.25.167-.25.5 0 .334-.084.5-.25.5-.138 0-.25.096-.25.213 0 .117-.15.342-.334.499-.183.157-.333.436-.333.62 0 .187-.111.335-.25.335-.137 0-.25.104-.25.232s-.113.276-.25.328c-.359.138-.359 1.94 0 1.94.2 0 .25.251.25 1.255 0 .962.058 1.278.25 1.351.184.071.25.361.25 1.094 0 .858.047 1.01.333 1.085.184.048.334.191.334.318s.112.23.25.23c.196 0 .25.232.25 1.084 0 .852.053 1.083.25 1.083a.25.25 0 0 1 .25.25c0 .137.112.25.25.25a.25.25 0 0 1 .25.25c0 .205.287.25 1.583.25h1.583v-1c0-.778-.055-1-.25-1-.189 0-.25-.204-.25-.833 0-.609-.063-.834-.236-.834-.131 0-.287-.225-.347-.5s-.216-.5-.347-.5c-.152 0-.236-.179-.236-.5 0-.333-.084-.5-.25-.5-.168 0-.25-.167-.25-.505 0-.295-.104-.545-.25-.601-.356-.137-.356-1.727 0-1.727.137 0 .25-.113.25-.25a.25.25 0 0 1 .25-.25c.137 0 .25-.113.25-.25 0-.139.148-.25.333-.25.185 0 .333-.111.333-.25a.25.25 0 0 1 .25-.25.25.25 0 0 0 .25-.25c0-.147.154-.251.375-.253.385-.003 1.125-.647 1.125-.979 0-.101.113-.185.25-.185a.25.25 0 0 0 .25-.25c0-.139.148-.25.334-.25.185 0 .333-.111.333-.25a.25.25 0 0 1 .25-.25c.137 0 .25-.104.25-.232s.112-.275.25-.328c.138-.053.25-.278.25-.5 0-.222.112-.447.25-.5.192-.073.25-.389.25-1.351 0-1.144.03-1.255.333-1.255.186 0 .334.111.334.25 0 .137.112.25.25.25a.25.25 0 0 1 .25.25c0 .137.112.25.25.25.184 0 .25.193.25.741 0 .478.086.791.243.879.185.103.256.561.292 1.883.047 1.722.054 1.747.465 1.804.229.032.476.163.55.292.083.146.412.234.875.234.548 0 .741.065.741.25 0 .175.176.25.584.25.407 0 .583.075.583.25 0 .137.112.25.25.25a.25.25 0 0 1 .25.25c0 .167.167.25.5.25.389 0 .5.074.5.333 0 .26.111.334.5.334.333 0 .5.083.5.25 0 .181-.186.25-.672.25-.443 0-.704.085-.768.25-.062.161-.319.25-.724.25-.355 0-.719.108-.836.25-.114.137-.311.25-.437.25s-.23.15-.23.333c0 .185-.111.333-.25.333a.251.251 0 0 0-.25.25.25.25 0 0 1-.25.25c-.203 0-.25.278-.25 1.5 0 1.223.047 1.5.25 1.5.175 0 .25.176.25.584 0 .407.076.583.25.583.167 0 .25.167.25.5 0 .333.084.5.25.5.155 0 .25.156.25.408 0 .225.1.469.221.542.122.073.269.265.328.425.059.16.222.292.363.292.172 0 .255.162.255.5 0 .444.056.5.5.5.333 0 .5.083.5.25 0 .2.251.25 1.255.25.962 0 1.278-.059 1.351-.25.071-.183.359-.25 1.078-.25.762 0 .983-.056.983-.25 0-.186.195-.25.755-.25.517 0 .785-.079.851-.25.074-.193.396-.25 1.411-.25 1.059 0 1.316-.049 1.316-.25 0-.167.167-.25.5-.25.333 0 .5.083.5.25 0 .201.259.25 1.333.25 1.074 0 1.334.048 1.334.25 0 .189.203.25.833.25.63 0 .833.061.833.25 0 .185.195.25.75.25.556 0 .75.064.75.25 0 .189.204.25.834.25.458 0 .833.075.833.166 0 .108 2.056.167 5.833.167 3.778 0 5.834-.059 5.834-.167 0-.091.337-.166.75-.166.555 0 .75-.065.75-.25 0-.167.166-.25.5-.25.333 0 .5-.084.5-.25 0-.189.203-.25.833-.25.63 0 .833-.061.833-.25 0-.204.279-.25 1.506-.25 1.184 0 1.525-.054 1.601-.25a.35.35 0 0 1 .666 0c.074.19.385.25 1.311.25.925 0 1.237.059 1.31.25.071.184.361.25 1.101.25.783 0 1.005.055 1.005.25 0 .196.232.25 1.084.25.852 0 1.083.053 1.083.25 0 .194.222.25 1 .25s1-.056 1-.25c0-.159.159-.25.435-.25.541 0 1.225-.626 1.229-1.125.001-.221.105-.375.253-.375.139 0 .25-.148.25-.334 0-.185.111-.333.25-.333.166 0 .25-.167.25-.5 0-.333.083-.5.25-.5.164 0 .25-.165.25-.482 0-.275.107-.524.25-.578.203-.078.25-.473.25-2.101 0-1.672-.042-2.006-.25-2.006-.138 0-.25-.106-.25-.236 0-.131-.225-.287-.5-.347s-.5-.216-.5-.347c0-.173-.225-.236-.834-.236-.629 0-.833-.061-.833-.25 0-.186-.194-.25-.75-.25s-.75-.065-.75-.25c0-.158.159-.25.432-.25.292 0 .461-.108.52-.334.048-.183.191-.333.317-.333.127 0 .231-.113.231-.25 0-.167.167-.25.505-.25.296 0 .545-.104.601-.25.055-.143.304-.25.578-.25.318 0 .483-.085.483-.25 0-.185.195-.25.755-.25.517 0 .785-.079.851-.25.055-.143.303-.25.578-.25.371 0 .482-.077.482-.333 0-.186.111-.334.25-.334.211 0 .25-.37.25-2.333s.04-2.333.25-2.333a.25.25 0 0 0 .25-.25c0-.138.096-.25.213-.25.117 0 .361-.169.542-.375l.329-.375.051.625c.034.409.135.625.292.625.169 0 .24.198.24.672 0 .443.085.704.25.767.138.053.25.171.25.263 0 .233.709.958.941.961.104.002.233.116.286.253.053.138.286.25.518.25.264 0 .422.094.422.25 0 .138.112.25.25.25.137 0 .25.113.25.25 0 .138.095.25.213.25.117 0 .341.15.498.334.157.183.436.333.62.333.187 0 .335.111.335.25 0 .137.113.25.25.25a.25.25 0 0 1 .25.25c0 .137.113.25.25.25a.25.25 0 0 1 .25.25c0 .137.113.25.25.25.197 0 .25.231.25 1.083s-.053 1.084-.25 1.084c-.189 0-.25.203-.25.833 0 .63-.061.833-.25.833-.185 0-.25.195-.25.75 0 .556-.064.75-.25.75-.166 0-.25.167-.25.5 0 .334-.083.5-.25.5-.196 0-.25.23-.25 1.064 0 .937-.041 1.075-.346 1.155-.249.065-.331.199-.292.478.07.495 3.138.717 3.138.226 0-.141.113-.256.25-.256.138 0 .25-.104.25-.231 0-.126.15-.269.334-.317.22-.058.333-.228.333-.502 0-.228.112-.458.25-.51.171-.066.25-.334.25-.851 0-.561.065-.756.25-.756.197 0 .25-.231.25-1.083s.053-1.083.25-1.083c.205 0 .25-.287.25-1.584 0-1.296.045-1.583.25-1.583.2 0 .25-.25.25-1.25s-.05-1.25-.25-1.25c-.175 0-.25-.176-.25-.583 0-.408-.075-.584-.25-.584a.25.25 0 0 1-.25-.25.25.25 0 0 0-.25-.25.25.25 0 0 1-.25-.25.25.25 0 0 0-.25-.25.25.25 0 0 1-.25-.25c0-.139-.148-.25-.333-.25-.318 0-.334-.111-.334-2.416 0-2.037-.039-2.417-.25-2.417-.173 0-.25-.174-.25-.568 0-.485.049-.555.334-.48.183.048.333.191.333.317 0 .18.334.231 1.5.231 1.278 0 1.549.049 1.833.333.393.393.44 1.09.084 1.227-.172.066-.25.334-.25.851 0 .561-.065.756-.25.756-.351 0-.362 1.921-.012 2.055.131.051.262.302.291.56.043.37.15.479.512.521.263.03.459.155.459.291 0 .132.112.239.25.239.137 0 .25.113.25.25 0 .175.176.25.583.25h.583V76.5h.5c.334 0 .5-.083.5-.25a.25.25 0 0 1 .25-.25c.138 0 .254-.094.257-.208.004-.115.229-.393.5-.618.584-.484.797-3.841.243-3.841-.137 0-.25-.107-.25-.237 0-.131-.131-.273-.291-.314-.161-.042.064-.085.5-.096l.791-.019v-1.814c0-1.674.026-1.821.334-1.901.263-.069.333-.228.333-.752 0-.437.086-.697.25-.76.2-.077.25-.445.25-1.851 0-1.45-.044-1.756-.25-1.756-.168 0-.25-.168-.25-.515 0-.376-.091-.54-.333-.603-.184-.048-.334-.191-.334-.318s-.112-.23-.25-.23a.251.251 0 0 1-.25-.25c0-.165-.164-.25-.482-.25-.275 0-.523-.108-.578-.25-.073-.192-.389-.25-1.351-.25-1.005 0-1.255.05-1.255.25 0 .194-.223.25-1 .25-.778 0-1 .055-1 .25 0 .167-.168.25-.506.25-.295 0-.545.104-.601.25-.136.355-1.727.355-1.727 0a.25.25 0 0 0-.25-.25.251.251 0 0 1-.25-.25.25.25 0 0 0-.25-.25c-.167 0-.25-.168-.25-.506 0-.295-.104-.545-.25-.601-.163-.062-.25-.322-.25-.75 0-.427-.086-.687-.25-.75-.168-.064-.25-.329-.25-.81 0-.481-.081-.746-.25-.81-.181-.07-.25-.354-.25-1.034 0-.797-.05-.95-.333-1.024-.289-.076-.333-.228-.333-1.151 0-.835-.054-1.064-.25-1.064-.214 0-.25-.461-.25-3.149 0-2.645.04-3.164.25-3.245.146-.056.25-.306.25-.601 0-.326.084-.505.236-.505.131 0 .287-.225.347-.5s.216-.5.347-.5c.13 0 .236-.142.236-.316 0-.173.113-.359.25-.411.138-.053.25-.278.25-.5 0-.223.113-.448.25-.5.181-.07.25-.352.25-1.018 0-.708.058-.922.25-.922.213 0 .25-.435.25-2.917 0-2.481-.037-2.916-.25-2.916-.214 0-.25-.491-.25-3.417v-3.417h-.5c-.333 0-.5.084-.5.25a.25.25 0 0 1-.25.25.251.251 0 0 0-.25.25c0 .138-.107.25-.239.25-.145 0-.266.213-.307.542l-.067.542-.027-.542c-.017-.359-.111-.542-.276-.542-.167 0-.25-.166-.25-.5 0-.481-.028-.5-.75-.5h-.75V30h-.834c-.629 0-.833.061-.833.25 0 .181-.186.25-.672.25-.443 0-.704.085-.768.25-.07.183-.359.25-1.083.25s-1.013.067-1.083.25c-.071.184-.361.25-1.094.25-.858 0-1.01.047-1.085.333-.062.236-.227.334-.568.334h-.48v1.5c0 1.222.046 1.5.25 1.5.137 0 .251.093.253.208.009.713.728.958 2.812.958 1.683 0 2.018.042 2.018.25 0 .138.112.25.25.25.167 0 .25.167.25.5 0 .334-.083.5-.25.5-.139 0-.25.148-.25.334 0 .185-.111.333-.25.333a.25.25 0 0 0-.25.25c0 .139-.148.25-.333.25-.186 0-.334.111-.334.25a.25.25 0 0 1-.25.25.25.25 0 0 0-.25.25.25.25 0 0 1-.25.25.25.25 0 0 0-.25.25.25.25 0 0 1-.25.25c-.139 0-.25.148-.25.333 0 .186-.111.334-.25.334a.25.25 0 0 0-.25.25.25.25 0 0 1-.25.25.25.25 0 0 0-.25.25c0 .139-.148.25-.333.25-.185 0-.333.111-.333.25 0 .137-.113.25-.25.25a.25.25 0 0 0-.25.25c0 .137-.113.25-.25.25a.25.25 0 0 0-.25.25c0 .137-.113.25-.25.25-.158 0-.25-.159-.25-.433 0-.292-.108-.46-.334-.519-.236-.062-.333-.227-.333-.568 0-.316-.086-.48-.25-.48-.167 0-.25-.167-.25-.5 0-.334-.083-.5-.25-.5-.139 0-.25-.148-.25-.334 0-.185-.111-.333-.25-.333-.18 0-.25-.184-.25-.658 0-.369-.097-.717-.221-.792a.957.957 0 0 1-.328-.425c-.07-.19-.283-.292-.612-.292-.338 0-.506-.082-.506-.25 0-.2-.25-.25-1.25-.25s-1.25.05-1.25.25c0 .201-.251.25-1.265.25-1.126 0-1.276.037-1.353.334-.072.276-.227.333-.901.333-.612 0-.814.062-.814.25 0 .167-.167.25-.5.25-.333 0-.5.083-.5.25 0 .167-.167.25-.5.25-.333 0-.5.083-.5.25 0 .139-.148.25-.333.25-.186 0-.334.111-.334.25 0 .197-.231.25-1.083.25h-1.083v-1h1.005c.74 0 1.03-.066 1.101-.25.053-.137.2-.25.328-.25s.232-.15.232-.333c0-.186.111-.334.25-.334a.25.25 0 0 0 .25-.25c0-.137.104-.25.231-.25.241 0 .43-.488.434-1.125.001-.221.105-.375.252-.375.137 0 .25.113.25.25 0 .138.112.25.25.25.137 0 .25.113.25.25 0 .167.167.25.5.25.315 0 .5-.085.5-.23 0-.127.15-.27.333-.318.221-.058.334-.227.334-.502 0-.228.112-.457.25-.51.171-.066.25-.334.25-.851 0-.791.803-1.174 1.06-.505.079.205.509.25 2.434.25 1.968 0 2.339-.04 2.339-.25a.25.25 0 0 1 .25-.25.25.25 0 0 0 .25-.25.25.25 0 0 1 .25-.25c.139 0 .25-.148.25-.334 0-.185.111-.333.25-.333.167 0 .25-.167.25-.5 0-.333.083-.5.25-.5.205 0 .25-.287.25-1.583 0-1.154.056-1.584.208-1.587.652-.009.974-.773.924-2.194l-.049-1.386-.541-.052c-.658-.064-.823-.919-.209-1.08.311-.081.334-.227.334-2.186v-2.099h.75c.555 0 .75.065.75.25 0 .202.259.25 1.333.25 1.074 0 1.333-.048 1.333-.25 0-.137.113-.25.25-.25.197 0 .25-.231.25-1.083v-1.083h.584c.385 0 .583.078.583.23 0 .259.501.432 1.25.432s1.25-.173 1.25-.432c0-.152.198-.23.583-.23.408 0 .584-.076.584-.25a.25.25 0 0 1 .25-.25c.137 0 .25-.113.25-.25 0-.167.166-.25.5-.25.333 0 .5-.084.5-.25 0-.139.148-.25.333-.25.185 0 .333-.111.333-.25a.25.25 0 0 1 .25-.25c.138 0 .25-.105.25-.233 0-.127.113-.275.25-.328.197-.075.25-.417.25-1.601 0-1.227-.046-1.505-.25-1.505a.251.251 0 0 1-.25-.25c0-.175-.176-.25-.583-.25-.399 0-.583-.076-.583-.242 0-.145-.232-.286-.573-.35-.636-.12-.927-.009-.927.352 0 .156-.176.24-.5.24-.315 0-.5.085-.5.231 0 .126-.15.269-.334.317-.265.07-.333.228-.333.77 0 .495-.068.682-.25.682a.25.25 0 0 1-.25-.25.25.25 0 0 0-.25-.25.25.25 0 0 1-.25-.25c0-.138-.104-.25-.232-.25s-.276-.112-.328-.25c-.074-.193.037-.25.482-.25.467 0 .578-.064.578-.333 0-.186.111-.334.25-.334.213 0 .25-.463.25-3.166V5h-.75c-.639 0-.75.049-.75.333 0 .186-.111.334-.25.334a.25.25 0 0 0-.25.25.25.25 0 0 1-.25.25.25.25 0 0 0-.25.25c0 .137-.107.25-.237.25s-.286.225-.346.5c-.061.275-.217.5-.347.5a.244.244 0 0 0-.237.25c0 .166-.166.25-.5.25-.389 0-.5.074-.5.333 0 .484-1.088.484-1.215 0-.133-.512-3.436-.512-3.57 0-.061.236-.227.333-.567.333-.316 0-.481.086-.481.25a.25.25 0 0 1-.25.25.25.25 0 0 0-.25.25.25.25 0 0 1-.25.25.25.25 0 0 0-.25.25c0 .138-.094.252-.208.253-.254.004-.959.723-.959.979 0 .102-.112.185-.25.185a.25.25 0 0 0-.25.25.25.25 0 0 1-.25.25c-.185 0-.25.194-.25.75s-.064.75-.25.75c-.196 0-.25.231-.25 1.083s.054 1.084.25 1.084c.181 0 .25.185.25.668 0 .626-.02.655-.333.46-.183-.115-.333-.303-.333-.418 0-.138-.258-.21-.75-.21-.556 0-.75.064-.75.25 0 .137-.113.25-.25.25-.197 0-.25.231-.25 1.083s-.054 1.083-.25 1.083c-.138 0-.25.105-.25.233 0 .127-.113.275-.25.328-.146.056-.25.305-.25.601 0 .325-.085.505-.237.505-.13 0-.286.225-.347.5-.062.284-.217.5-.359.5-.205 0-.24.236-.195 1.334l.054 1.333h-.524c-.311 0-.562-.102-.619-.25-.066-.172-.334-.25-.851-.25-.814 0-.821-.011-.76-1.125.022-.395-.041-.542-.233-.542a.258.258 0 0 1-.263-.25.25.25 0 0 0-.25-.25.251.251 0 0 1-.25-.25.25.25 0 0 0-.25-.25.251.251 0 0 1-.25-.25c0-.139-.148-.25-.333-.25-.24 0-.328-.105-.314-.375.015-.282.038-.303.096-.083.049.19.238.291.544.291.328 0 .495.1.556.334.074.283.227.333 1.019.333h.932v-.833c0-.63-.061-.834-.25-.834a.25.25 0 0 1-.25-.25c0-.166-.166-.25-.5-.25-.333 0-.5-.083-.5-.25 0-.189.204-.25.834-.25.645 0 .833.059.833.261 0 .798.916.163.969-.672.061-.96-.195-1.255-1.084-1.255-.379 0-.552-.078-.552-.25 0-.197.232-.25 1.084-.25H84.5v-.75c0-.528-.068-.75-.231-.75-.126 0-.269-.15-.317-.334-.075-.287-.228-.333-1.103-.333-.792 0-1.016-.055-1.016-.25 0-.201.26-.25 1.334-.25H84.5V12h-1.651c-1.569 0-1.647-.017-1.564-.333.07-.27.227-.334.818-.334.538 0 .73-.065.73-.25 0-.174.176-.25.584-.25.58 0 .583-.004.583-.75v-.75l-1.375-.019c-.756-.011-1.244-.054-1.083-.096.16-.041.291-.183.291-.314 0-.13.113-.237.25-.237a.25.25 0 0 0 .25-.25.25.25 0 0 1 .25-.25c.186 0 .25-.195.25-.75v-.75h-.922c-.665 0-.948.069-1.017.25-.053.137-.201.25-.328.25-.128 0-.233-.113-.233-.25a.25.25 0 0 1 .25-.25.25.25 0 0 0 .25-.25.25.25 0 0 1 .25-.25c.139 0 .25-.148.25-.334 0-.185.111-.333.25-.333.167 0 .25-.167.25-.5v-.5h-1c-.691 0-1 .065-1 .209 0 .115-.262.292-.583.392-.321.1-.583.119-.583.041 0-.078.112-.142.25-.142.166 0 .25-.167.25-.5 0-.333.083-.5.25-.5.185 0 .25-.194.25-.75V2.5h-.75c-.556 0-.75.065-.75.25 0 .137-.113.25-.25.25a.25.25 0 0 0-.25.25c0 .137-.113.25-.25.25a.257.257 0 0 1-.25-.262c0-.144.112-.374.25-.512.565-.566-.038-1.897-.857-1.89-.444.004-1.06.719-1.06 1.229 0 .276-.092.435-.25.435-.2 0-.25-.25-.25-1.25V0h-.833c-.768 0-.834.031-.834.399 0 .219-.112.442-.25.495-.171.065-.25.333-.25.851 0 .56-.064.755-.25.755-.2 0-.25-.25-.25-1.25V0h-.75c-.746 0-.75.003-.75.583 0 .361-.127.711-.333.917-.333.333-.333.333-.333-.167 0-.333-.084-.5-.25-.5-.156 0-.25-.157-.25-.416 0-.383-.061-.417-.75-.417h-.75l-.03 1.792c-.017.985-.059 1.431-.093.991-.039-.498-.154-.836-.303-.893-.133-.051-.241-.308-.241-.574 0-.318-.085-.483-.25-.483-.156 0-.25-.157-.25-.416C67 .065 66.922 0 66.5 0c-.275 0-.5.075-.5.167m-4.167 5.071c0 .131.132.272.292.314.231.06.218.08-.064.095-.225.013-.387-.102-.443-.314-.048-.183-.019-.333.064-.333s.151.107.151.238M39.5 7.917c0 .137-.113.25-.25.25a.25.25 0 1 1 .25-.25m31.885.797c.292.036-.212.078-1.121.093-.909.014-1.61-.017-1.558-.069.053-.052.515-.095 1.028-.095.931 0 .933-.001.959-.53l.027-.53.066.532c.057.455.144.542.599.599m30.115.536c0 .852-.053 1.083-.25 1.083a.25.25 0 0 0-.25.25c0 .206-.296.25-1.667.25-1.401 0-1.666-.041-1.666-.261 0-.186-.131-.246-.459-.208-.585.067-.801 1.384-.259 1.583.165.061.361.211.434.332.074.122.317.221.542.221.252 0 .408.096.408.25 0 .165.165.25.483.25.274 0 .523.107.578.25.056.146.305.25.601.25.338 0 .505.083.505.25 0 .137.112.25.25.25a.25.25 0 0 1 .25.25c0 .167.167.25.5.25.389 0 .5.074.5.333 0 .184.104.334.232.334s.276.112.328.25c.06.156.315.25.68.25.45 0 .561.057.487.25-.053.137-.203.25-.333.25-.131 0-.281.112-.334.25-.064.168-.328.25-.807.25-.43 0-.795-.1-.92-.25-.114-.138-.385-.25-.603-.25-.242 0-.397-.098-.397-.25a.25.25 0 0 0-.25-.25.251.251 0 0 1-.25-.25.25.25 0 0 0-.25-.25.251.251 0 0 1-.25-.25.25.25 0 0 0-.25-.25c-.137 0-.251-.094-.253-.209-.003-.254-.722-.958-.978-.958-.102 0-.185-.113-.185-.25a.25.25 0 0 0-.25-.25.25.25 0 0 1-.25-.25c0-.185-.195-.25-.75-.25h-.75v.922c0 .666.069.948.25 1.018.143.055.25.304.25.583 0 .28.106.528.25.583.186.072.25.368.25 1.162v1.065h-.75c-.793 0-1.186-.963-.5-1.227.165-.063.25-.324.25-.767 0-.487-.069-.672-.25-.672-.193 0-.251-.219-.253-.959-.002-1.188-.134-1.708-.433-1.708-.127 0-.231-.113-.231-.25a.25.25 0 0 0-.25-.25.25.25 0 0 1-.25-.25c0-.138-.131-.259-.292-.269-.277-.019-.277-.023 0-.096.194-.051.292-.239.292-.564 0-.431.058-.488.5-.488.333 0 .5-.083.5-.25 0-.21.38-.25 2.417-.25 1.939 0 2.416-.045 2.416-.229 0-.126.227-.274.504-.33.393-.078.525-.21.604-.604.194-.972.559-.594.559.58m-28.667 2.417c0 .629-.061.833-.25.833a.25.25 0 0 0-.25.25.25.25 0 0 1-.25.25.251.251 0 0 1-.25-.25c0-.138-.104-.25-.232-.25s-.275-.113-.328-.25a.41.41 0 0 0-.351-.25.254.254 0 0 1-.255-.25c0-.167-.167-.25-.5-.25-.389 0-.5-.074-.5-.333 0-.31.111-.334 1.583-.334h1.583v.834M65.757 14.5c.188 0 .243.245.243 1.083 0 .852.053 1.084.25 1.084.139 0 .25.148.25.333 0 .185-.111.333-.25.333a.253.253 0 0 1-.25-.255.412.412 0 0 0-.25-.351c-.143-.055-.25-.303-.25-.578 0-.371-.077-.482-.333-.482-.26 0-.334-.111-.334-.5 0-.499-.002-.5-1.041-.532l-1.042-.033 1.042-.059 1.041-.059v-1.23c0-1.895.561-1.938.632-.048.038 1.001.104 1.294.292 1.294m9.758-1.941c.009.289.003.843-.012 1.233l-.028.708 1.387.034 1.388.034-1.375.056-1.375.056v.493c0 .328-.084.494-.25.494-.165 0-.25.164-.25.482 0 .275-.107.523-.25.578-.192.073-.25-.035-.25-.464 0-.345.096-.598.25-.657.201-.077.25-.453.25-1.929 0-1.561.037-1.819.25-1.737.143.055.257.319.265.619m-25.955.191c.053.137.211.25.351.25.141 0 .256.112.256.25 0 .137.112.25.25.25.166 0 .25.166.25.498 0 .483-.011.49-.334.213-.183-.157-.333-.381-.333-.498 0-.126-.205-.213-.5-.213-.444 0-.5-.056-.5-.5 0-.531.386-.703.56-.25m80.607 11.333c0 9.741.03 11.084.25 11.084.185 0 .25.195.25.755 0 .517.078.785.25.851.142.055.25.303.25.578 0 .318.085.482.25.482.137 0 .25.139.25.308 0 .169.131.463.291.653.161.19.434.539.607.776.173.236.417.43.542.43.124 0 .226.112.226.25 0 .137.105.25.233.25.127 0 .275.112.328.25.052.137.277.25.498.25.262 0 .433.116.49.333.059.228.227.334.531.334.244 0 .557.112.694.25.153.153.562.25 1.054.25.56 0 .832.075.899.25.082.212.677.25 3.94.25s3.858-.038 3.94-.25c.062-.161.319-.25.724-.25.355 0 .719-.109.836-.25.114-.138.393-.25.619-.25.272 0 .442-.114.499-.334.062-.236.228-.333.568-.333.316 0 .481-.086.481-.25a.25.25 0 0 1 .25-.25c.137 0 .25-.113.25-.25a.25.25 0 0 1 .25-.25c.137 0 .25-.113.25-.25 0-.138.085-.25.189-.25.33 0 .977-.834.977-1.259 0-.251.096-.408.25-.408.138 0 .25-.118.25-.262 0-.144.113-.374.25-.511.138-.138.25-.536.25-.885 0-.36.108-.724.25-.842.218-.18.25-1.64.25-11.27V13h-4.666v9.816c0 8.571-.032 9.827-.25 9.911-.184.071-.25.361-.25 1.101 0 .748-.06 1.005-.232 1.005-.128 0-.281.193-.34.428s-.46.779-.893 1.208c-.725.721-1.198 1.017-2.41 1.506-.252.101-.459.261-.459.355 0 .357-3.46.21-3.833-.163-.206-.207-.556-.334-.917-.334-.407 0-.583-.075-.583-.25 0-.166-.167-.25-.5-.25-.333 0-.5-.083-.5-.25a.251.251 0 0 0-.25-.25.25.25 0 0 1-.25-.25.251.251 0 0 0-.25-.25.25.25 0 0 1-.25-.25c0-.139-.148-.25-.333-.25-.279 0-.334-.111-.334-.672 0-.443-.085-.704-.25-.767-.174-.067-.25-.338-.25-.891 0-.504-.091-.872-.25-1.003-.217-.18-.25-1.483-.25-9.854V13h-4.666v11.083m27.115-10.976c-.326.326-.123 28.711.207 28.887.549.294 4.272.221 4.582-.089.227-.227.262-.945.262-5.334 0-4.396.034-5.071.25-5.071a.25.25 0 0 0 .25-.25c0-.139.148-.25.334-.25.185 0 .333-.111.333-.25a.25.25 0 0 1 .25-.25c.137 0 .25-.113.25-.25a.25.25 0 0 1 .25-.25c.139 0 .25-.148.25-.333 0-.26.111-.334.5-.334.333 0 .5-.083.5-.25 0-.137.107-.25.238-.25s.272-.131.314-.291c.072-.278.077-.278.095 0 .011.16.113.293.228.295.115.002.379.377.587.833.208.457.451.83.541.83.09 0 .164.113.164.25s.112.25.25.25c.158 0 .25.159.25.432 0 .292.108.461.333.52.183.048.333.191.333.317 0 .127.113.231.25.231.165 0 .25.165.25.482 0 .275.108.524.25.578a.41.41 0 0 1 .25.351c0 .141.113.256.25.256a.25.25 0 0 1 .25.25c0 .137.113.25.25.25.14 0 .25.148.25.335 0 .184.15.463.334.62.183.157.333.381.333.498 0 .118.112.213.25.213.156 0 .25.158.25.422 0 .232.112.465.25.518.137.053.25.2.25.328s.094.234.208.237c.115.002.353.321.53.708.363.796.91 1.447 1.22 1.451.12.002.209.216.209.503 0 .333.083.5.25.5.137 0 .251.094.253.208.011.814 4.519 1.451 6.066.858.653-.251.022-2.066-.718-2.066-.101 0-.185-.225-.185-.5 0-.333-.083-.5-.25-.5a.251.251 0 0 1-.25-.25.25.25 0 0 0-.25-.25c-.137 0-.25-.141-.25-.313a.77.77 0 0 0-.25-.52c-.137-.114-.251-.292-.253-.396-.003-.238-.733-.938-.978-.938-.102 0-.185-.225-.185-.5 0-.333-.084-.5-.25-.5a.253.253 0 0 1-.25-.255.412.412 0 0 0-.25-.351c-.138-.053-.25-.192-.25-.31s-.113-.258-.25-.311c-.138-.052-.25-.25-.25-.439s-.113-.387-.25-.44c-.138-.053-.25-.2-.25-.328s-.113-.232-.25-.232c-.138 0-.25-.095-.25-.21 0-.116-.15-.304-.334-.418a.796.796 0 0 1-.333-.624c0-.258-.095-.415-.25-.415a.25.25 0 0 1-.25-.25.251.251 0 0 0-.25-.25c-.156 0-.25-.158-.25-.422 0-.232-.113-.465-.25-.518-.138-.052-.25-.192-.25-.31s-.113-.258-.25-.31a.41.41 0 0 1-.25-.351c0-.141-.107-.256-.237-.256s-.286-.225-.346-.5c-.061-.275-.217-.5-.347-.5a.244.244 0 0 1-.237-.25c0-.137-.104-.25-.232-.25-.127 0-.279-.187-.336-.416-.058-.229-.178-.417-.268-.417-.09 0-.164-.152-.164-.339 0-.186-.112-.381-.25-.434-.367-.141-.309-.347.25-.894.275-.268.5-.566.5-.661 0-.094.113-.172.25-.172a.25.25 0 0 0 .25-.25c0-.137.075-.25.166-.25.233 0 2.501-2.245 2.501-2.476 0-.105.112-.191.25-.191a.25.25 0 0 0 .25-.25c0-.137.115-.25.255-.25a.408.408 0 0 0 .351-.25c.053-.137.201-.25.328-.25.128 0 .233-.112.233-.25a.25.25 0 0 1 .25-.25c.137 0 .25-.104.25-.232s.112-.275.25-.328a.412.412 0 0 0 .25-.351c0-.14.112-.255.25-.255.137 0 .25-.113.25-.25a.25.25 0 0 1 .25-.25c.137 0 .25-.113.25-.25 0-.139.148-.25.333-.25.185 0 .333-.111.333-.25a.25.25 0 0 1 .25-.25.25.25 0 0 0 .25-.25.25.25 0 0 1 .25-.25.25.25 0 0 0 .25-.25.25.25 0 0 1 .25-.25c.139 0 .25-.148.25-.334 0-.183.094-.335.209-.339.414-.011.984-.643.929-1.031-.07-.493-6.304-.707-6.304-.217 0 .14-.084.254-.185.254-.256 0-.976.704-.979.958-.002.115-.116.209-.253.209a.25.25 0 0 0-.25.25c0 .137-.113.25-.25.25a.25.25 0 0 0-.25.25c0 .137-.113.25-.25.25a.25.25 0 0 0-.25.25c0 .137-.113.25-.25.25-.138 0-.25.071-.25.159 0 .206-.801 1.007-1.008 1.007-.087 0-.159.113-.159.25a.25.25 0 0 1-.25.25.251.251 0 0 0-.25.25.25.25 0 0 1-.25.25.251.251 0 0 0-.25.25.25.25 0 0 1-.25.25.251.251 0 0 0-.25.25c0 .138-.093.252-.208.253-.254.004-.958.723-.958.979 0 .102-.113.185-.25.185a.25.25 0 0 0-.25.25c0 .137-.113.25-.25.25a.25.25 0 0 0-.25.25c0 .137-.113.25-.25.25a.25.25 0 0 0-.25.25c0 .137-.113.25-.25.25a.25.25 0 0 0-.25.25c0 .137-.094.251-.209.253-.254.003-.958.723-.958.979 0 .101-.113.185-.25.185a.25.25 0 0 0-.25.25c0 .137-.113.25-.25.25a.25.25 0 0 0-.25.25c0 .137-.113.25-.25.25a.25.25 0 0 0-.25.25c0 .137-.113.25-.25.25-.138 0-.267.131-.289.291-.021.161-.077-2.558-.125-6.041l-.086-6.334-2.426-.046c-1.335-.025-2.478.006-2.542.07m43.319.157c-.055.145-.101.52-.101.833 0 .395-.077.57-.25.57-.165 0-.25.164-.25.482 0 .275-.107.523-.25.578-.171.066-.25.334-.25.851 0 .56-.065.755-.25.755-.173 0-.25.174-.25.563 0 .31-.113.657-.25.771-.138.114-.25.406-.25.65 0 .243-.15.571-.333.728-.212.181-.334.491-.334.852 0 .351-.095.604-.25.663-.137.053-.25.278-.25.5 0 .223-.112.448-.25.5-.171.066-.25.334-.25.851 0 .561-.064.756-.25.756-.168 0-.25.168-.25.512 0 .281-.112.624-.25.761-.137.138-.25.508-.25.822 0 .397-.076.571-.25.571-.184 0-.25.193-.25.731 0 .59-.064.747-.333.818-.239.062-.333.227-.333.585 0 .288-.105.538-.25.593-.164.063-.25.323-.25.75 0 .428-.087.688-.25.75-.144.055-.25.304-.25.584 0 .279-.107.528-.25.583-.143.055-.25.303-.25.581 0 .266-.113.578-.25.692-.153.127-.25.492-.25.942 0 .5-.08.766-.25.831-.143.055-.25.303-.25.578 0 .301-.088.482-.233.482-.281 0-.434.36-.434 1.019 0 .283-.106.532-.25.588-.138.052-.25.28-.25.506 0 .226-.113.524-.25.661-.138.138-.25.423-.25.634 0 .212-.113.478-.25.592-.279.232-.33 1.115-.087 1.5.406.644 5.004.405 5.004-.26 0-.223.15-.556.333-.74.183-.183.333-.55.333-.815 0-.275.108-.524.25-.578.172-.066.25-.334.25-.851 0-.561.065-.756.25-.756.168 0 .25-.167.25-.505 0-.295.104-.545.25-.601.169-.065.25-.329.25-.81 0-.482.082-.746.25-.811.165-.063.25-.324.25-.767v-.672H209v.672c0 .443.085.704.25.767.154.06.25.313.25.662 0 .343.131.696.333.899.184.183.334.549.334.813 0 .263.112.573.25.687.137.114.25.46.25.77 0 .389.077.563.25.563.184 0 .25.192.25.73 0 .445.097.81.25.937.137.114.25.308.25.431 0 .54 4.131.867 5.011.396.415-.222.473-1.78.072-1.934-.143-.054-.25-.303-.25-.578 0-.265-.15-.632-.333-.815-.208-.208-.334-.556-.334-.922 0-.37-.093-.625-.25-.685-.143-.055-.25-.304-.25-.583 0-.28-.106-.528-.25-.583-.137-.053-.25-.299-.25-.547 0-.247-.11-.596-.244-.773-.135-.178-.247-.533-.25-.788-.003-.255-.118-.506-.256-.559-.139-.053-.25-.301-.25-.559 0-.322-.101-.489-.333-.55-.279-.072-.333-.227-.333-.941 0-.605-.073-.882-.25-.95-.155-.059-.25-.313-.25-.661 0-.392-.077-.566-.25-.566-.174 0-.25-.175-.25-.571 0-.315-.113-.684-.25-.822-.138-.137-.25-.48-.25-.762 0-.344-.082-.512-.25-.512-.168 0-.25-.167-.25-.505 0-.295-.104-.545-.25-.601-.161-.062-.25-.319-.25-.719 0-.411-.114-.725-.334-.925-.206-.187-.333-.513-.333-.859 0-.384-.078-.557-.25-.557-.174 0-.25-.175-.25-.572 0-.314-.113-.684-.25-.821-.138-.138-.25-.483-.25-.767 0-.306-.102-.557-.25-.613-.143-.055-.25-.304-.25-.578 0-.318-.085-.483-.25-.483-.178 0-.25-.181-.25-.629 0-.347-.103-.778-.229-.959-.125-.18-.283-.577-.349-.881-.066-.304-.226-.594-.354-.643-.136-.052-.235-.321-.235-.638 0-.333-.098-.585-.25-.643-.137-.053-.25-.286-.25-.518V13h-2.815c-2.414 0-2.83.038-2.917.264m80.603 2.278.046 2.541 1.903.048c2.322.058 2.175.245 2.178-2.756l.002-2.375H281.158l.046 2.542M68.118 14.373c-.04.207-.074.077-.076-.29-.002-.366.031-.536.073-.377.041.16.043.46.003.667m-31.285.402c0 .129.113.279.25.331.175.068.25.341.25.912 0 .614-.062.815-.25.815-.139 0-.25-.148-.25-.333 0-.185-.111-.333-.25-.333-.166 0-.25-.167-.25-.5 0-.334-.083-.5-.25-.5-.301 0-.337-.61-.041-.709.342-.116.791.064.791.317m180.778.003c-.061.061-.111 1.486-.111 3.166V21h-1.571c-2.012 0-2.096.072-2.096 1.819 0 1.744.12 1.848 2.138 1.848h1.529v7.301c0 6.162.038 7.352.245 7.625.134.178.247.455.25.615.003.161.117.292.255.292a.25.25 0 0 1 .25.25c0 .139.148.25.333.25.223 0 .334.111.334.333 0 .257.111.334.486.334.267 0 .517.093.555.208.073.22 4.629.411 5.369.225.654-.164.971-1.039.898-2.478-.084-1.667-.219-1.776-2.207-1.783-2.085-.008-1.923.569-1.929-6.881l-.006-6.291 1.792-.003c2.278-.003 2.274 0 2.349-1.637.091-2.01.073-2.027-2.23-2.027h-1.911l-.002-2.792c-.003-3.895.237-3.541-2.406-3.541-1.212 0-2.253.05-2.314.111m-146.867.978c.793.792.837 1.577.089 1.577-.282 0-.505.091-.513.209-.01.166-.03.166-.097 0a.369.369 0 0 0-.32-.209c-.13 0-.236-.115-.236-.255a.412.412 0 0 0-.25-.351c-.138-.053-.25-.2-.25-.328s-.113-.232-.25-.232c-.167 0-.25-.167-.25-.5 0-.794 1.248-.741 2.077.089m27.352.411c.13 0 .237.112.237.25 0 .137.105.25.233.25.127 0 .273.107.323.238.05.131.302.269.559.308.258.039-.038.082-.656.095l-1.125.025.019-.875c.011-.481.054-.743.096-.583.041.16.183.292.314.292m-40.036.25c-.054.142-.303.25-.578.25-.265 0-.482.072-.482.161 0 .282-.464-.004-.551-.34-.076-.288.008-.321.811-.321.728 0 .878.047.8.25m16.44.75c0 .091-.113.166-.25.166-.185 0-.25.195-.25.75 0 .556.065.75.25.75.137 0 .25.113.25.25 0 .175-.176.25-.583.25-.635 0-.9-.843-.334-1.06.145-.055.25-.304.25-.589 0-.329.097-.518.292-.569.16-.042.31-.085.333-.096.023-.01.042.056.042.148m-24.333.814c0 .673-.058.828-.334.901-.31.081-.333.227-.333 2.102V23h.833c.815 0 .834-.011.834-.5 0-.333.083-.5.25-.5.137 0 .25-.104.25-.232s.112-.276.25-.328a.412.412 0 0 0 .25-.351c0-.141.112-.256.25-.256a.25.25 0 0 0 .25-.25.25.25 0 0 1 .25-.25.25.25 0 0 0 .25-.25c0-.139.148-.25.333-.25.185 0 .333-.111.333-.25 0-.137.113-.25.25-.25a.25.25 0 0 0 .25-.25c0-.137.113-.25.25-.25a.25.25 0 0 1 0 .5c-.137 0-.25.105-.25.233 0 .127-.112.275-.25.328a.41.41 0 0 0-.25.351c0 .14-.112.255-.25.255-.185 0-.25.194-.25.75 0 .716.022.75.483.75.274 0 .523.107.578.25.065.171.333.25.851.25.56 0 .755.065.755.25 0 .137-.12.25-.266.25-.146 0-.304.15-.352.333-.082.313-.228.334-2.401.334-1.946 0-2.314.039-2.314.25 0 .137-.113.25-.25.25-.165 0-.25.164-.25.48 0 .341-.098.506-.334.568-.247.065-.333.005-.333-.231 0-.174-.113-.317-.25-.317-.167 0-.25-.167-.25-.5 0-.334-.083-.5-.25-.5-.208 0-.25-.322-.25-1.899 0-1.534.048-1.917.25-1.995.184-.071.25-.361.25-1.101v-1.005h.5c.333 0 .5-.084.5-.25 0-.138.038-.25.083-.25.046 0 .084.366.084.814M67 18.172c0 .283.104.545.237.596.554.213.428.565-.201.565l-.619.001.057-.834c.066-.945.526-1.232.526-.328m-7.833.411c0 .168-.168.25-.506.25-.295 0-.545.104-.601.25-.052.138-.2.25-.328.25-.167 0-.232.232-.232.834V21h1.016c.875 0 1.027-.046 1.102-.333.066-.25.218-.329.61-.314.287.01.391.053.23.095-.16.042-.291.183-.291.314a.245.245 0 0 1-.25.238.25.25 0 0 0-.25.25c0 .137-.113.25-.25.25-.186 0-.25.194-.25.75V23h1c.756 0 1 .058 1 .238 0 .132.168.271.375.311.232.045.137.081-.25.095-.435.016-.625.099-.625.273 0 .185-.195.25-.75.25-.556 0-.75.064-.75.25 0 .194-.223.25-1.006.25-.739 0-1.03.066-1.101.25-.059.154-.312.25-.661.25-.392 0-.566-.077-.566-.25 0-.175.176-.25.584-.25.407 0 .583-.076.583-.25a.25.25 0 0 1 .25-.25c.197 0 .25-.232.25-1.084 0-.852-.053-1.083-.25-1.083a.25.25 0 0 1-.25-.25c0-.137-.075-.25-.167-.25-.376 0-.782-.594-.552-.809a.824.824 0 0 0 .219-.531c0-.18.112-.327.25-.327.167 0 .25-.166.25-.5 0-.424.064-.5.422-.5.232 0 .465-.112.518-.25.059-.154.312-.25.661-.25.392 0 .566.077.566.25m144.572 1.167c.066.349.207.583.352.583.176 0 .242.206.242.756 0 .517.079.785.25.851.17.065.25.331.25.828 0 .54.066.732.25.732.168 0 .25.167.25.505 0 .296.104.545.25.601.175.067.25.339.25.9 0 .492.097.9.25 1.054.138.137.25.361.25.498 0 .43.194.775.435.775.163 0 .232.219.232.738 0 .563.069.756.292.814.16.042-1.546.076-3.792.076-2.246 0-3.952-.034-3.792-.076.221-.058.292-.251.292-.796 0-.486.081-.751.25-.816.146-.056.25-.306.25-.601 0-.338.083-.505.25-.505.182 0 .25-.188.25-.69 0-.426.097-.761.254-.876.139-.102.302-.485.361-.85.06-.366.208-.765.33-.886.122-.122.222-.471.222-.776 0-.338.097-.591.25-.649.171-.066.25-.334.25-.851 0-.561.064-.756.25-.756.174 0 .25-.176.25-.583 0-.387.078-.583.231-.583.133 0 .278.249.341.583m-134.781.698c-.204.054-.291.243-.291.632 0 .473-.05.543-.334.468-.702-.183-.449-1.218.292-1.195.344.01.494.053.333.095m6.542.219c0 .185-.111.333-.25.333-.138 0-.25.148-.25.328 0 .223-.08.298-.25.232-.526-.201-.317-1.227.25-1.227.389 0 .5.074.5.334m157.56.083c-.058.152-.31.25-.641.25-.3 0-.638.112-.752.25a.777.777 0 0 1-.521.25c-.172 0-.313.113-.313.25s-.135.25-.3.25c-.166 0-.588.262-.938.583-.35.321-.702.584-.783.584-.08 0-.145.103-.145.229 0 .127-.113.323-.25.437a.75.75 0 0 0-.25.501c0 .162-.15.333-.334.381a.445.445 0 0 0-.333.416c0 .18-.113.422-.25.536-.138.114-.25.391-.25.615 0 .225-.113.521-.25.658-.174.175-.25.601-.25 1.405 0 .916-.052 1.155-.25 1.155-.359 0-.364 3.286-.005 3.76.151.199.246.711.25 1.333.003.623.099 1.134.25 1.333.134.178.247.487.25.687.003.2.117.476.255.613.137.138.25.331.25.429 0 .098.15.178.333.178.26 0 .334.111.334.506 0 .295.104.545.25.601.137.052.25.2.25.328s.112.232.25.232a.25.25 0 0 1 .25.25c0 .137.112.25.25.25a.25.25 0 0 1 .25.25c0 .139.148.25.333.25.185 0 .333.111.333.25 0 .164.165.25.481.25.34 0 .506.097.568.333a.443.443 0 0 0 .442.334c.195 0 .532.116.75.259.493.323 7.851.296 8.057-.03.066-.103.363-.24.661-.305.301-.065.541-.222.541-.354 0-.13.113-.237.25-.237a.25.25 0 0 0 .25-.25c0-.167.167-.25.5-.25.334 0 .5-.083.5-.25 0-.138.094-.251.209-.253.215-.003.958-.707.958-.907 0-.063.112-.226.25-.364a.941.941 0 0 0 .25-.571c0-.177.112-.322.25-.322.137 0 .25-.123.25-.273 0-.15.122-.363.272-.472.166-.121.304-.534.354-1.06.056-.579.158-.861.312-.861.17 0 .229-.275.229-1.074 0-.59.075-1.12.166-1.176.092-.057.167-.694.167-1.417 0-.723-.075-1.36-.167-1.417-.091-.056-.166-.663-.166-1.348 0-.953-.059-1.268-.25-1.341-.138-.053-.251-.257-.253-.453-.004-.62-.195-1.108-.433-1.108-.146 0-.231-.186-.231-.505 0-.295-.104-.545-.25-.601-.138-.053-.25-.2-.25-.328s-.113-.232-.25-.232c-.138 0-.25-.094-.251-.209-.001-.31-1.109-1.458-1.407-1.458a.256.256 0 0 1-.259-.25.25.25 0 0 0-.25-.25.251.251 0 0 1-.25-.25c0-.167-.166-.25-.5-.25-.333 0-.5-.083-.5-.25 0-.189-.203-.25-.833-.25-.63 0-.833-.061-.833-.25 0-.214-.473-.25-3.256-.25-2.739 0-3.27.04-3.351.25m22.607 0c0 .181-.186.25-.672.25-.444 0-.705.085-.768.25-.053.137-.238.25-.411.25-.174 0-.316.113-.316.25s-.113.25-.25.25a.25.25 0 0 0-.25.25c0 .137-.113.25-.25.25-.185 0-.25-.195-.25-.755v-.755l-2.125.047-2.125.046v10.361c0 5.699.062 10.424.138 10.5.204.204 3.651.263 3.945.067.215-.142.25-1.041.25-6.38 0-4.789.048-6.245.209-6.348.114-.073.208-.435.208-.803 0-.374.111-.781.25-.92a.946.946 0 0 0 .25-.572c0-.177.112-.321.25-.321.137 0 .25-.118.25-.262 0-.337.401-.738.738-.738a.257.257 0 0 0 .262-.25c0-.139.148-.25.333-.25.186 0 .334-.111.334-.25 0-.206.296-.25 1.666-.25.979 0 1.667.067 1.667.163 0 .09.188.211.417.268.229.058.416.191.416.297 0 .105.15.285.334.4.325.203.333.388.333 7.833v7.625l.423.457c.441.476 2.251.647 3.723.353l.521-.105V35.08c0-5.96.033-6.89.25-6.974.165-.063.25-.324.25-.767 0-.487.069-.672.25-.672.166 0 .25-.167.25-.5 0-.424.064-.5.422-.5.232 0 .465-.113.517-.25.053-.138.238-.25.412-.25.173 0 .315-.113.315-.25 0-.207.313-.25 1.816-.25 1.46 0 1.834.049 1.911.25.053.137.211.25.351.25.141 0 .256.112.256.25 0 .137.112.25.25.25.167 0 .25.167.25.505 0 .295.104.545.25.601.217.083.25 1.089.25 7.651v7.556l.708.103c.39.057 1.308.081 2.042.052l1.333-.052.043-9.379c.038-8.234.012-9.392-.208-9.477-.139-.053-.252-.172-.252-.264 0-.22-1.243-1.463-1.462-1.463-.093 0-.212-.113-.265-.25-.063-.165-.324-.25-.767-.25-.487 0-.672-.069-.672-.25 0-.213-.445-.25-3.006-.25-2.517 0-3.02.041-3.101.25-.059.154-.312.25-.661.25-.392 0-.566.077-.566.25 0 .137-.115.25-.256.25-.245 0-1.053.504-1.552.968-.129.12-.344.176-.477.125a1.42 1.42 0 0 0-.395-.093c-.084 0-.153-.113-.153-.25a.251.251 0 0 0-.25-.25.25.25 0 0 1-.25-.25.251.251 0 0 0-.25-.25.25.25 0 0 1-.25-.25c0-.165-.165-.25-.482-.25-.275 0-.524-.107-.578-.25-.08-.209-.565-.25-2.935-.25-2.412 0-2.838.038-2.838.25m38.5 0c-.12.144-.484.25-.859.25-.426 0-.685.087-.748.25-.052.137-.24.25-.416.25-.177 0-.364.113-.417.25-.053.137-.2.25-.328.25s-.232.113-.232.25-.106.25-.236.25c-.319 0-1.431 1.098-1.431 1.414a.253.253 0 0 1-.25.253c-.138 0-.25.104-.25.232s-.113.275-.25.328c-.148.057-.25.307-.25.613 0 .284-.113.63-.25.767-.138.138-.25.462-.25.72 0 .265-.11.513-.25.567-.213.081-.25.695-.25 4.106s.037 4.025.25 4.106c.163.063.25.323.25.75 0 .428.087.688.25.75.137.053.25.208.25.344 0 .532 1.094 2.05 1.477 2.05.105 0 .19.112.19.25 0 .137.112.25.25.25a.25.25 0 0 1 .25.25c0 .137.112.25.25.25a.25.25 0 0 1 .25.25c0 .164.164.25.48.25.341 0 .506.097.568.333.06.228.227.334.531.334.245 0 .557.112.694.25.371.37 7.249.37 7.62 0 .137-.138.449-.25.694-.25.304 0 .471-.106.531-.334.057-.217.227-.333.49-.333.221 0 .445-.113.498-.25.053-.138.2-.25.328-.25s.232-.113.232-.25a.25.25 0 0 1 .25-.25.25.25 0 0 0 .25-.25.25.25 0 0 1 .25-.25c.138 0 .25-.096.25-.213 0-.117.15-.341.334-.498.183-.157.333-.436.333-.621 0-.186.111-.335.25-.335.165 0 .25-.164.25-.482 0-.275.107-.523.25-.578.175-.067.25-.341.25-.914 0-.524.09-.893.25-1.026.368-.305.3-.864-.157-1.297-.64-.607-4.147-.499-4.234.131-.032.229-.163.476-.292.55-.146.083-.234.412-.234.875 0 .514-.069.741-.226.741-.125 0-.369.197-.542.437-.461.64-.931 1.063-1.18 1.063-.12 0-.218.113-.218.25 0 .174-.175.25-.57.25-.734 0-1.097.144-1.097.435 0 .392-1.373.307-1.628-.101-.152-.243-.389-.334-.873-.334-.481 0-.666-.069-.666-.25 0-.137-.093-.253-.208-.257-.115-.004-.392-.229-.617-.5-.225-.271-.506-.493-.625-.493-.12 0-.216-.187-.216-.422 0-.232-.113-.465-.25-.517-.144-.055-.25-.304-.25-.584 0-.279-.107-.528-.25-.583-.208-.08-.25-.542-.25-2.727 0-2.185.042-2.647.25-2.727.165-.063.25-.324.25-.768 0-.369.077-.672.172-.672.094 0 .22-.125.278-.279.059-.153.245-.416.412-.583.167-.167.304-.417.304-.554 0-.141.149-.25.339-.25.186 0 .382-.113.434-.25.053-.138.206-.25.34-.25.135 0 .357-.113.494-.25.195-.195.694-.25 2.239-.25 1.656 0 1.988.041 1.988.25 0 .137.115.25.255.25a.41.41 0 0 1 .351.25c.053.137.2.25.328.25s.232.067.232.149c0 .082.221.385.491.674.321.344.508.738.541 1.142l.052.618 2.291.046 2.292.047v-1.401c0-1.042-.064-1.454-.25-1.609-.138-.114-.25-.388-.25-.609 0-.22-.113-.444-.25-.497-.138-.053-.25-.2-.25-.328s-.15-.232-.333-.232c-.248 0-.334-.111-.334-.431 0-.326-.122-.478-.5-.62-.275-.104-.5-.285-.5-.403 0-.117-.104-.213-.232-.213s-.275-.113-.328-.25c-.053-.137-.278-.25-.5-.25-.222 0-.447-.113-.5-.25-.059-.155-.313-.25-.664-.25-.313 0-.662-.113-.776-.25-.171-.206-.758-.25-3.333-.25s-3.162.044-3.333.25m-13 10.732c0 9.405.027 10.493.263 10.584.343.131 3.297.131 3.64 0 .236-.091.263-1.179.263-10.584V21h-4.166v10.482M86.667 22.5c0 .333-.084.5-.25.5-.167 0-.25-.167-.25-.5 0-.333.083-.5.25-.5.166 0 .25.167.25.5m2.166.25c0 .167.167.25.5.25.445 0 .5.056.5.5 0 .333.084.5.25.5.139 0 .25.148.25.333 0 .186-.111.334-.25.334a.25.25 0 0 0-.25.25c0 .204-.287.25-1.583.25s-1.583-.046-1.583-.25c0-.167.166-.25.5-.25h.5V22.5h.583c.407 0 .583.075.583.25M66 24.417c0 .137-.113.25-.25.25a.25.25 0 0 0-.25.25c0 .137-.113.25-.25.25a.25.25 0 0 0-.25.25c0 .182-.191.25-.708.252-.39.001-.859.028-1.042.059-.183.032-.24.025-.125-.014.115-.04.208-.179.208-.31 0-.13.113-.237.25-.237a.25.25 0 0 0 .25-.25c0-.167.167-.25.5-.25.334 0 .5-.084.5-.25 0-.175.176-.25.584-.25.407 0 .583.075.583.25m19.667 0c0 .139-.148.25-.334.25-.185 0-.333-.111-.333-.25s.148-.25.333-.25c.186 0 .334.111.334.25m152.56.5c.053.137.286.25.518.25.232 0 .422.077.422.172 0 .094.125.22.279.278.292.113.887.652.887.805 0 .049.225.309.5.578.333.326.5.654.5.982 0 .272.117.611.26.754.381.381.383 4.754.002 5.298a1.711 1.711 0 0 0-.262.836c0 .301-.087.463-.25.463-.166 0-.25.167-.25.5 0 .334-.083.5-.25.5a.251.251 0 0 0-.25.25.25.25 0 0 1-.25.25.251.251 0 0 0-.25.25c0 .168-.167.25-.505.25-.295 0-.545.104-.601.25-.054.141-.302.25-.565.25-.637 0-.995.157-.995.435 0 .357-.947.285-1.334-.101-.186-.187-.555-.334-.838-.334-.296 0-.545-.104-.601-.25-.055-.142-.304-.25-.578-.25-.318 0-.483-.085-.483-.25a.25.25 0 0 0-.25-.25.25.25 0 0 1-.25-.25.25.25 0 0 0-.25-.25.25.25 0 0 1-.25-.25.25.25 0 0 0-.25-.25c-.162 0-.25-.162-.25-.463 0-.254-.101-.61-.225-.791-.124-.181-.273-.854-.331-1.496-.066-.732-.197-1.233-.351-1.346-.214-.157-.214-.21-.003-.422.147-.147.284-.761.351-1.57.069-.839.192-1.377.334-1.462.124-.073.225-.354.225-.625 0-.287.089-.491.213-.491.117 0 .361-.337.542-.749.251-.57.419-.749.709-.75.209-.001.423-.114.476-.251.053-.138.229-.25.391-.25a.757.757 0 0 0 .503-.25c.158-.191.591-.25 1.836-.25 1.293 0 1.648.051 1.724.25M83.548 26.5c.084.319.228.333 3.369.333s3.285-.014 3.368-.333c.068-.261.218-.329.693-.314.333.011.474.054.314.096-.161.041-.292.183-.292.314 0 .13-.115.237-.255.237a.41.41 0 0 0-.351.25c-.053.138-.201.25-.328.25-.128 0-.233.113-.233.25 0 .205-.287.25-1.583.25s-1.583-.045-1.583-.25c0-.196-.232-.25-1.084-.25-.852 0-1.083.054-1.083.25 0 .186-.194.25-.75.25-.601 0-.751.058-.755.292-.005.278-.013.278-.175 0-.116-.2-.377-.292-.828-.292-.474 0-.659-.07-.659-.25a.25.25 0 0 0-.25-.25c-.174 0-.25-.176-.25-.583v-.583h1.314c1.174 0 1.323.035 1.401.333M64.5 28.583c0 .167.167.25.5.25.444 0 .5.056.5.5 0 .334.083.5.25.5.139 0 .25.148.25.334 0 .185.111.333.25.333.137 0 .25.113.25.25s.112.25.25.25c.167 0 .25.167.25.5 0 .333.083.5.25.5.168 0 .25.168.25.516 0 .375.091.539.333.602.236.062.334.228.334.568 0 .316.085.481.25.481.189 0 .25.203.25.833 0 .63.061.833.25.833.194 0 .25.223.25 1 0 .778-.056 1-.25 1-.139 0-.25.148-.25.334 0 .185-.111.333-.25.333-.138 0-.25.104-.25.231 0 .126-.15.269-.334.317-.279.073-.333.228-.333.952s.054.879.333.952c.386.101.458.715.084.715a.25.25 0 0 0-.25.25c0 .174-.176.25-.584.25-.407 0-.583-.076-.583-.25 0-.138-.131-.259-.292-.27-.277-.018-.277-.023 0-.095.408-.107.448-3.719.042-3.719-.185 0-.25-.194-.25-.75 0-.555-.065-.75-.25-.75-.167 0-.25-.166-.25-.5 0-.389-.074-.5-.333-.5-.285 0-.334-.111-.334-.755 0-.517-.078-.785-.25-.851-.142-.055-.25-.303-.25-.578 0-.318-.085-.482-.25-.482-.166 0-.25-.167-.25-.5 0-.334-.083-.5-.25-.5-.139 0-.25-.148-.25-.334 0-.185-.111-.333-.25-.333-.147 0-.251-.154-.253-.375-.002-.373-.644-1.125-.959-1.125-.091 0-.205-.15-.253-.333-.078-.3-.005-.334.736-.334.578 0 .852-.074.919-.25.059-.154.313-.25.661-.25.392 0 .566.077.566.25m5.667-.017c0 .127-.113.275-.25.328a.408.408 0 0 0-.25.351c0 .14-.113.255-.25.255-.175 0-.25-.176-.25-.583 0-.537.039-.584.5-.584.316 0 .5.086.5.233m20.666.851c0 .537-.039.583-.5.583-.324 0-.5-.084-.5-.24 0-.154-.222-.263-.625-.305-.568-.06-.553-.068.172-.094.535-.018.829-.11.893-.278.189-.492.56-.271.56.334m-41.333 1V31.5h-1v-2.167h1v1.084m2.167-.828c0 .14.112.298.25.351.453.174.281.56-.25.56-.461 0-.5-.046-.5-.583 0-.408.075-.584.25-.584.137 0 .25.115.25.256m35 .078c0 .183.104.333.232.333s.275.113.328.25c.053.137.286.25.518.25.264 0 .422.094.422.25 0 .139.148.25.333.25.185 0 .333.111.333.25 0 .201.26.25 1.334.25H91.5V33.167h-.583c-.408 0-.584.075-.584.25a.25.25 0 0 1-.25.25.251.251 0 0 1-.25-.25c0-.175-.176-.25-.583-.25s-.583-.076-.583-.25c0-.167-.167-.25-.5-.25-.334 0-.5-.084-.5-.25a.25.25 0 0 0-.25-.25c-.139 0-.25-.148-.25-.334 0-.185-.111-.333-.25-.333a.25.25 0 0 1-.25-.25c0-.137-.105-.25-.233-.25-.127 0-.275-.113-.328-.25a.41.41 0 0 0-.351-.25c-.18 0-.255-.171-.255-.583 0-.556.028-.584.583-.584.473 0 .584.064.584.334M85.058 32c.059.293.205.5.354.5.194 0 .255.198.255.833 0 .602-.065.834-.233.834-.254 0-.434.35-.434.847 0 .175-.113.319-.25.319-.208 0-.25-.324-.25-1.916 0-1.931.302-2.698.558-1.417m-22.962.5c.16 0 .237.189.237.583 0 .408.076.584.25.584.167 0 .25.166.25.5 0 .333.084.5.25.5.186 0 .25.195.25.755 0 .517.079.785.25.851.169.065.25.329.25.81 0 .482-.081.746-.25.811a.41.41 0 0 0-.25.351c0 .14-.112.255-.25.255-.164 0-.25.165-.25.482 0 .275-.107.524-.25.578-.137.053-.25.286-.25.518 0 .515-1.93.657-2.333.172-.114-.138-.386-.25-.604-.25-.241 0-.396-.098-.396-.25a.25.25 0 0 0-.25-.25.25.25 0 0 1-.25-.25c0-.167-.167-.25-.5-.25-.333 0-.5-.083-.5-.25 0-.164-.165-.25-.481-.25-.34 0-.506-.097-.567-.333-.065-.248-.005-.334.23-.334.175 0 .318-.112.318-.25 0-.166.167-.25.5-.25.333 0 .5-.083.5-.25a.25.25 0 0 1 .25-.25.25.25 0 0 0 .25-.25.25.25 0 0 1 .25-.25.25.25 0 0 0 .25-.25c0-.137.12-.25.266-.25.146 0 .304-.15.352-.333.048-.183.191-.333.318-.333.17 0 .231-.258.231-.987 0-.961.013-.99.5-1.097.275-.06.5-.216.5-.346 0-.13.112-.237.25-.237.137 0 .258-.131.269-.292.018-.277.023-.277.096 0 .041.161.183.292.314.292m20.876 1.458c-.015.802-.057 1.177-.093.834-.04-.377-.154-.625-.287-.625-.127 0-.249-.234-.285-.542-.093-.804.013-1.125.372-1.125.295 0 .319.12.293 1.458m-1.139 2.332c0 .714-1.036 1.543-1.928 1.543-.709 0-.738-.019-.738-.5 0-.445.055-.5.505-.5.295 0 .545-.104.601-.25.053-.137.2-.25.328-.25a.235.235 0 0 0 .232-.237c0-.251.44-.416.792-.297.115.038.208.259.208.491m-16.852 3.835c-.011.619-.054.994-.096.833-.042-.16-.183-.291-.314-.291-.161 0-.238-.19-.238-.584 0-.407.076-.583.25-.583a.25.25 0 0 0 .25-.25c0-.138.038-.25.084-.25.045 0 .074.506.064 1.125m24.352.625c0 .137.113.25.25.25.168 0 .25.167.25.505 0 .296.104.545.25.601.183.071.25.359.25 1.078 0 .762.056.983.25.983.195 0 .25.224.25 1.015 0 .876.046 1.028.334 1.103.27.071.333.227.333.823 0 .5.08.767.25.832.143.054.25.303.25.578 0 .317.085.482.25.482a.25.25 0 0 1 .25.25c0 .137.112.25.25.25a.25.25 0 0 1 .25.25c0 .137.112.25.25.25a.25.25 0 0 1 .25.25c0 .281-.578.917-.833.917-.092 0-.167.112-.167.25a.25.25 0 0 1-.25.25.25.25 0 0 0-.25.25.25.25 0 0 1-.25.25.25.25 0 0 0-.25.25c0 .139-.148.25-.333.25-.184 0-.484.15-.667.333-.183.183-.408.333-.5.333-.092 0-.167.113-.167.25a.25.25 0 0 1-.25.25.251.251 0 0 0-.25.25.25.25 0 0 1-.25.25c-.164 0-.25.165-.25.481 0 .34-.097.506-.333.568-.317.082-.333.005-.333-1.564 0-1.357.044-1.651.25-1.651.217 0 .25-.76.25-5.834 0-5.722.006-5.833.333-5.833.185 0 .333.111.333.25m-36 6.333c0 5.297.033 6.084.25 6.084.197 0 .248.221.237 1.041-.007.573-.051.948-.097.834a.369.369 0 0 0-.32-.209c-.13 0-.236-.112-.236-.25a.251.251 0 0 0-.25-.25.25.25 0 0 1-.25-.25c0-.166-.167-.25-.5-.25-.334 0-.5-.083-.5-.25a.251.251 0 0 0-.25-.25c-.138 0-.25-.085-.25-.189 0-.213-.775-.977-.991-.977-.077 0-.184-.113-.236-.25-.053-.138-.286-.25-.518-.25-.264 0-.422-.094-.422-.25a.25.25 0 0 0-.25-.25.25.25 0 0 1-.25-.25.25.25 0 0 0-.25-.25c-.194 0-.176-.074.083-.334.184-.183.521-.333.75-.333.352 0 .417-.078.417-.5 0-.333.083-.5.25-.5.188 0 .25-.202.25-.814 0-.674.057-.829.333-.901.282-.074.334-.227.334-.999 0-.607.083-.981.25-1.119.178-.148.25-.539.25-1.354 0-.908.052-1.146.25-1.146.139 0 .25-.148.25-.334 0-.185.111-.333.25-.333.137 0 .25-.113.25-.25a.25.25 0 0 1 .25-.25c.137 0 .25-.113.25-.25 0-.139.148-.25.333-.25.327 0 .333.111.333 6.083m10.561-4.666c.056.146.305.25.601.25.338 0 .505.082.505.25 0 .137-.115.25-.255.25-.141 0-.304.131-.363.291a.945.945 0 0 1-.328.425c-.121.074-.221.309-.221.524 0 .215-.112.434-.25.487-.137.052-.25.285-.25.517 0 .264-.093.422-.25.422a.25.25 0 0 1-.25-.25c0-.139-.148-.25-.333-.25-.185 0-.333-.111-.333-.25 0-.166-.167-.25-.5-.25-.389 0-.5-.074-.5-.333 0-.185.111-.333.25-.333.137 0 .25-.104.25-.231s.15-.27.333-.318c.205-.053.333-.227.333-.451 0-.225-.128-.398-.333-.452-.183-.048-.333-.191-.333-.318 0-.344 2.094-.326 2.227.02m11.606.25c0 .333-.083.5-.25.5-.175 0-.25.176-.25.583s-.075.583-.25.583c-.167 0-.25.167-.25.5 0 .334-.083.5-.25.5-.167 0-.256.18-.269.542-.011.298-.054.41-.096.25-.042-.16-.183-.292-.314-.292-.153 0-.238-.178-.238-.5 0-.333-.083-.5-.25-.5a.25.25 0 0 1-.25-.25.25.25 0 0 0-.25-.25c-.174 0-.25-.176-.25-.583s-.075-.583-.25-.583c-.166 0-.25-.167-.25-.5v-.5H75.5v.5m4.833 0c0 .333-.083.5-.25.5-.166 0-.25.166-.25.5 0 .333.084.5.25.5.139 0 .25.148.25.333 0 .185-.111.333-.25.333-.137 0-.25.105-.25.232 0 .141-.229.259-.583.3-.476.056-.583.013-.583-.232 0-.165-.113-.3-.25-.3-.165 0-.25-.164-.25-.482 0-.275-.108-.523-.25-.578-.138-.053-.25-.288-.25-.523 0-.235-.113-.47-.25-.523-.801-.307-.199-.56 1.333-.56h1.583v.5M57 43.917c0 .137.112.25.25.25.194 0 .176.074-.083.333-.482.482-.667.412-.667-.25 0-.407.075-.583.25-.583a.25.25 0 0 1 .25.25m28.667.602c0 .248-.123.314-.584.314-.636 0-.876-.579-.291-.704.496-.107.875.062.875.39m-17 .814c0 .389-.074.5-.334.5-.259 0-.333-.111-.333-.5s.074-.5.333-.5c.26 0 .334.111.334.5M57 49.583c0 .408-.075.584-.25.584s-.25-.176-.25-.584c0-.407.075-.583.25-.583s.25.176.25.583m5.096-.083c.13 0 .237.15.237.333 0 .27-.111.334-.583.334s-.583-.064-.583-.334c0-.185.111-.333.25-.333.137 0 .258-.131.269-.292.018-.277.023-.277.096 0 .041.161.183.292.314.292m14.831.5c.163 0 .24.187.24.583 0 .408.075.584.25.584.185 0 .25.194.25.75 0 .853-.439 1.094-.531.291-.102-.882-1.636-.668-1.636.229 0 .241-.098.396-.25.396-.167 0-.25.167-.25.5 0 .334-.083.5-.25.5-.167 0-.25.167-.25.5 0 .334-.083.5-.25.5-.174 0-.256.189-.269.625-.011.344-.054.494-.096.334-.042-.161-.183-.292-.314-.292s-.238-.15-.238-.333c0-.186-.111-.334-.25-.334-.166 0-.25-.166-.25-.5 0-.333-.083-.5-.25-.5-.166 0-.25-.166-.25-.5 0-.333-.083-.5-.25-.5-.139 0-.25-.148-.25-.333 0-.183-.104-.333-.232-.333s-.277-.118-.332-.261c-.17-.443-1.007-.24-1.077.261-.031.229-.163.476-.291.55-.129.073-.234.234-.234.357 0 .123-.113.267-.25.32-.138.052-.25.277-.25.5 0 .222-.113.447-.25.5-.138.052-.25.285-.25.517 0 .311-.088.422-.334.422-.185 0-.333-.111-.333-.25a.251.251 0 0 0-.25-.25c-.167 0-.25-.166-.25-.5 0-.333-.083-.5-.25-.5-.175 0-.25-.176-.25-.583 0-.395-.077-.583-.239-.583-.137 0-.261-.196-.292-.459-.086-.749-1.469-.798-1.469-.051 0 .399-.073.51-.333.51s-.334-.111-.334-.5c0-.334.084-.5.25-.5.165 0 .25-.165.25-.481 0-.34.098-.506.334-.568.242-.063.333-.227.333-.602 0-.348.082-.516.25-.516a.25.25 0 0 1 .25.25c0 .137.112.25.25.25.175 0 .25.176.25.583 0 .408.075.584.25.584.154 0 .25.156.25.408 0 .225.105.468.234.542.129.073.26.321.292.55.068.496 1.641.761 1.641.277 0-.133.112-.285.25-.338.137-.052.25-.277.25-.5 0-.222.112-.447.25-.5.146-.056.25-.305.25-.601 0-.338.082-.505.25-.505.166 0 .25-.167.25-.5 0-.389.074-.5.333-.5.185 0 .333.111.333.25 0 .137.113.25.25.25.175 0 .25.176.25.583 0 .408.076.584.25.584.157 0 .25.158.25.422 0 .232.113.465.25.517.138.053.25.201.25.328 0 .128.113.233.25.233a.25.25 0 0 1 .25.25c0 .174.176.25.584.25.407 0 .583-.076.583-.25a.25.25 0 0 1 .25-.25c.167 0 .25-.167.25-.5 0-.334.083-.5.25-.5.167 0 .25-.167.25-.5 0-.334.083-.5.25-.5.175 0 .25-.176.25-.584 0-.407.075-.583.25-.583.137 0 .262-.131.277-.292.014-.16.057-.048.094.25.04.329.161.542.306.542m3.169-.5c.13 0 .237.15.237.333 0 .27-.111.334-.583.334s-.583-.064-.583-.334c0-.185.111-.333.25-.333.137 0 .258-.131.269-.292.018-.277.023-.277.096 0 .041.161.183.292.314.292m5.571.353c0 .247-.123.314-.584.314-.636 0-.876-.58-.291-.705.496-.107.875.063.875.391m45.077 3.021c-.044.115-.061 6.434-.037 14.043l.043 13.833 9.321.043 9.321.043.387-.364c.357-.335.388-.499.388-2.084v-1.721H134.794l.131-.459c.211-.74.282-6.901.082-7.101-.096-.096-.174-.234-.174-.307 0-.073 3.029-.133 6.73-.133 7.899 0 7.133.255 7.068-2.358l-.048-1.892-6.875-.044c-6.329-.04-7.277-.104-6.708-.456.102-.063.167-1.332.167-3.25 0-1.919-.065-3.188-.167-3.25-.584-.361.383-.417 7.255-.417h7.422l-.047-2.125-.047-2.125-9.379-.043c-7.415-.034-9.397.001-9.46.167M258.167 53c-.184.183-.334.55-.334.816 0 .274-.107.523-.25.578-.137.052-.25.285-.25.517 0 .232-.15.572-.333.756a1.318 1.318 0 0 0-.339.791c-.003.252-.115.604-.25.782-.134.178-.244.526-.244.774s-.113.494-.25.546c-.143.055-.25.304-.25.581 0 .267-.113.578-.25.692-.138.114-.25.453-.25.753 0 .331-.099.583-.25.641-.144.055-.25.304-.25.583 0 .277-.107.529-.247.582-.136.053-.295.393-.353.758-.059.365-.21.703-.337.751-.126.049-.232.297-.235.552-.003.255-.116.609-.25.787-.135.178-.245.564-.245.857 0 .321-.1.572-.25.63-.138.053-.25.291-.25.53 0 .238-.113.546-.25.683-.138.138-.25.5-.25.804 0 .338-.097.591-.25.65-.165.063-.25.324-.25.767 0 .464-.072.672-.232.672-.281 0-.435.359-.435 1.014 0 .321-.085.486-.25.486-.167 0-.25.168-.25.506 0 .295-.104.545-.25.601-.169.065-.25.331-.25.828 0 .54-.065.732-.25.732-.174 0-.25.176-.25.583 0 .408-.075.584-.25.584-.185 0-.25.194-.25.75 0 .561-.064.75-.254.75-.148 0-.295.206-.353.496-.055.273-.203.582-.329.687-.262.217-.305 1.274-.068 1.65.123.194.608.262 2.178.306l2.02.056.482-.473c.359-.352.483-.632.486-1.097.004-.443.078-.625.255-.625.173 0 .25-.174.25-.566 0-.349.096-.602.25-.661.163-.063.25-.323.25-.75 0-.428.087-.688.25-.75.146-.056.25-.306.25-.601 0-.283.147-.652.333-.839.223-.222.334-.556.334-1v-.667h10.458l.1.5c.059.294.205.5.354.5.189 0 .254.187.254.733 0 .497.081.762.25.828.166.063.25.325.25.773s.085.709.25.773c.144.055.25.304.25.583 0 .28.107.528.25.583.164.063.25.323.25.752 0 .604.446 1.502.917 1.848.423.31 4.238.139 4.583-.206.394-.393.437-.971.084-1.106-.138-.053-.251-.295-.253-.537-.003-.697-.183-1.19-.433-1.19-.146 0-.231-.186-.231-.5 0-.334-.083-.5-.25-.5-.185 0-.25-.195-.25-.756 0-.517-.079-.785-.25-.851-.143-.054-.25-.303-.25-.578 0-.317-.085-.482-.25-.482-.185 0-.25-.195-.25-.755 0-.518-.079-.786-.25-.851-.14-.054-.25-.302-.25-.567 0-.258-.113-.582-.25-.72-.138-.137-.25-.433-.25-.656 0-.223-.15-.597-.333-.83-.184-.233-.334-.62-.334-.861 0-.24-.112-.48-.25-.533-.151-.058-.25-.31-.25-.641 0-.3-.112-.639-.25-.753-.137-.114-.25-.425-.25-.692 0-.277-.107-.526-.25-.581-.137-.052-.252-.294-.255-.536a1.509 1.509 0 0 0-.25-.764c-.135-.178-.245-.537-.245-.797 0-.267-.109-.515-.25-.569-.142-.055-.25-.304-.25-.578 0-.266-.15-.633-.333-.816-.185-.185-.333-.556-.333-.833 0-.334-.084-.5-.25-.5-.181 0-.25-.186-.25-.672 0-.444-.085-.705-.25-.768-.155-.059-.25-.313-.25-.661 0-.392-.077-.566-.25-.566-.174 0-.25-.175-.25-.571 0-.315-.1-.672-.222-.794-.122-.121-.27-.516-.328-.877-.059-.36-.221-.72-.362-.798-.14-.079-.255-.365-.255-.635 0-.307-.086-.492-.231-.492-.126 0-.269-.15-.317-.333-.082-.312-.228-.333-2.27-.333-1.96 0-2.216.034-2.515.333m45.915-.206c-.549.402-.582 1.218-.57 14.134.015 15.304-.232 13.799 2.275 13.869 2.425.069 2.213.73 2.213-6.892 0-5.36.038-6.405.232-6.405.127 0 .281-.197.341-.437.061-.24.219-.545.352-.678a.926.926 0 0 0 .242-.564c0-.176.112-.321.25-.321.139 0 .25-.148.25-.333 0-.26.111-.334.5-.334.333 0 .5-.083.5-.25 0-.189.203-.25.833-.25.63 0 .833-.061.833-.25s.204-.25.834-.25c.629 0 .833.061.833.25 0 .167.167.25.5.25.333 0 .5.084.5.25 0 .138.112.25.25.25.137 0 .25.105.25.233 0 .127.105.272.234.322.129.049.284.314.344.589.061.275.218.589.349.699.201.166.24 1.303.24 7.077 0 6.118.029 6.889.263 6.979.6.23 3.373.108 3.641-.161.388-.387.4-15.862.012-16.011-.137-.052-.251-.294-.252-.536-.004-.697-.183-1.191-.434-1.191-.127 0-.23-.112-.23-.25a.251.251 0 0 0-.25-.25.25.25 0 0 1-.25-.25.251.251 0 0 0-.25-.25c-.139 0-.25-.148-.25-.333 0-.183-.105-.333-.233-.333-.127 0-.275-.113-.328-.25-.052-.138-.304-.253-.559-.256-.255-.003-.609-.115-.787-.25-.483-.365-5.927-.36-5.927.006 0 .185-.195.25-.755.25-.517 0-.785.078-.851.25-.053.137-.2.25-.328.25s-.232.15-.232.333c0 .222-.111.333-.334.333-.325 0-.333-.111-.333-4.41 0-4.191-.016-4.42-.322-4.584-.365-.195-3.339-.232-3.596-.045m52.039-.012c-.27.071-.292.302-.25 2.606l.046 2.529 2.041.046 2.042.047v-2.57c0-2.191-.039-2.586-.264-2.672-.298-.115-3.163-.103-3.615.014M57.037 54.625c.106.408-.022.708-.301.708-.151 0-.236-.179-.236-.5 0-.548.408-.706.537-.208m5.296.542c0 .091-.262.166-.583.166-.407 0-.583-.075-.583-.25a.25.25 0 0 1 .25-.25.25.25 0 0 0 .25-.25c0-.194.074-.176.333.084.183.183.333.408.333.5m18 0c0 .091-.262.166-.583.166-.646 0-.732-.184-.292-.625.304-.303.875-.003.875.459m5.096-.334c.131 0 .238.113.238.25 0 .175-.176.25-.584.25-.646 0-.731-.183-.291-.629.211-.215.306-.238.345-.084.03.117.161.213.292.213m209.276.196c-.142.142-.206.919-.207 2.546-.003 3.303.118 3.092-1.767 3.092h-1.564v3.666h1.866c1.452 0 1.823.045 1.667.2-.259.259-.291 12.967-.033 12.967.091 0 .166.375.166.833 0 .63.061.834.25.834a.25.25 0 0 1 .25.25c0 .137.142.25.314.25.174 0 .353.149.401.333a.444.444 0 0 0 .442.333c.195 0 .535.118.756.263.436.286 5.082.299 5.366.015.172-.172.292-2.973.152-3.533-.102-.406-.127-.411-1.934-.411H299V64.344l1.875-.047 1.875-.047v-3.5l-1.871-.047-1.871-.047-.046-2.87-.045-2.869-2.004-.047c-1.416-.033-2.063.014-2.208.159m69.739-.085c-.061.062-.111 1.374-.111 2.917v2.806h-3.166v3.666h3.166v6.922c0 5.999.034 6.935.25 7.018.138.053.25.275.25.495 0 .243.098.399.25.399a.25.25 0 0 1 .25.25c0 .137.104.25.231.25s.27.15.318.333c.059.228.227.333.531.333.244 0 .557.113.694.25.199.199.738.25 2.643.25 3.03 0 2.917.091 2.917-2.345v-1.821H369v-5.992c0-5.531-.022-6.005-.292-6.162-.209-.122.309-.171 1.834-.175l2.125-.005v-1.151c0-1.069.023-1.145.333-1.064.259.068.333.228.333.714 0 .354.109.718.25.835.138.114.25.423.25.687 0 .315.086.479.25.479.174 0 .25.175.25.572 0 .314.113.684.25.821.138.138.25.445.25.684 0 .239.113.477.25.53.138.053.25.3.25.552 0 .251.15.592.334.758.206.187.333.513.333.859 0 .385.078.558.25.558.167 0 .25.167.25.505 0 .295.104.545.25.601.163.063.25.322.25.75s.087.687.25.75c.143.055.25.303.25.578 0 .318.085.482.25.482.185 0 .25.195.25.756 0 .517.079.785.25.851.137.052.25.282.25.51 0 .274.113.444.333.502.27.07.334.227.334.823 0 .5.08.766.25.831.142.055.25.304.25.578 0 .318.085.483.25.483.174 0 .25.176.25.583s-.076.583-.25.583c-.173 0-.25.174-.25.566 0 .349-.096.602-.25.661-.165.064-.25.325-.25.768 0 .434-.076.672-.213.672-.117 0-.408.222-.647.494-.421.48-.48.495-2.162.542l-1.728.047-.048 1.637c-.07 2.379.003 2.44 2.905 2.444 1.795.002 2.208-.042 2.286-.247.056-.146.306-.25.601-.25.338 0 .506-.083.506-.25a.25.25 0 0 1 .25-.25c.137 0 .25-.113.25-.25a.25.25 0 0 1 .25-.25c.137 0 .25-.095.25-.21 0-.116.15-.304.333-.418a.797.797 0 0 0 .333-.606c0-.218.113-.441.25-.493.138-.053.25-.202.25-.331s.113-.328.25-.442c.138-.114.25-.453.25-.753 0-.331.099-.583.25-.641.158-.06.25-.316.25-.69 0-.374.093-.629.25-.689.152-.059.25-.311.25-.644s.098-.585.25-.644c.138-.052.25-.255.25-.449 0-.195.15-.545.334-.778.183-.233.333-.667.333-.964 0-.298.113-.634.25-.748.137-.114.25-.424.25-.687 0-.316.086-.48.25-.48.173 0 .25-.174.25-.563 0-.31.113-.656.25-.77.137-.114.25-.461.25-.771 0-.389.077-.563.25-.563.181 0 .25-.185.25-.672 0-.443.085-.704.25-.767.154-.06.25-.313.25-.662 0-.37.08-.565.231-.565.238 0 .429-.488.433-1.108.002-.196.115-.4.253-.453.137-.052.25-.291.25-.529 0-.239.112-.547.25-.684.137-.138.25-.507.25-.822 0-.396.076-.571.25-.571.189 0 .25-.204.25-.833 0-.63.061-.834.25-.834.166 0 .25-.166.25-.5 0-.314.085-.5.23-.5.315 0 .431-.528.434-1.963l.002-1.213-2.125.046-2.125.047-.099.741c-.054.408-.185.771-.291.806-.106.035-.193.274-.193.53s-.113.559-.25.673c-.141.117-.25.48-.25.833s-.109.717-.25.834c-.137.114-.25.452-.25.752 0 .331-.098.583-.25.641-.15.058-.25.309-.25.63 0 .294-.116.662-.257.818-.142.156-.303.575-.359.93-.056.355-.202.705-.326.779-.124.073-.225.386-.225.696 0 .31-.112.676-.25.813-.14.141-.25.548-.25.929 0 .492-.068.678-.25.678-.168 0-.25.168-.25.512 0 .282-.112.625-.25.762-.222.222-.25.193-.25-.262 0-.289-.144-.656-.333-.845-.187-.187-.333-.556-.333-.839 0-.295-.104-.545-.25-.601-.161-.062-.25-.319-.25-.724 0-.355-.109-.719-.25-.836-.138-.114-.25-.461-.25-.77 0-.39-.077-.563-.25-.563-.18 0-.25-.183-.25-.647 0-.371-.107-.734-.25-.853-.138-.114-.25-.424-.25-.687 0-.264-.15-.63-.334-.813-.207-.208-.333-.556-.333-.922 0-.37-.093-.625-.25-.685-.154-.059-.25-.312-.25-.661 0-.392-.077-.566-.25-.566-.181 0-.25-.185-.25-.672 0-.443-.085-.704-.25-.767-.137-.053-.25-.238-.25-.412 0-.286-.14-.315-1.53-.315-.841 0-1.779-.091-2.085-.201-.458-.166-.597-.158-.797.042-.19.19-.652.231-2.165.19L369 60.646v-2.644c0-3.337.132-3.169-2.484-3.169-1.078 0-2.01.05-2.072.111m-268.277.639c0 .138.112.25.25.25.137 0 .25.12.25.266 0 .146.15.305.333.353.183.048.333.191.333.317 0 .127.113.231.25.231a.25.25 0 0 1 .25.25c0 .137.113.25.25.25a.25.25 0 0 1 .25.25c0 .137.113.25.25.25a.25.25 0 0 1 .25.25c0 .137.113.25.25.25a.25.25 0 0 1 .25.25c0 .137.132.259.292.269.278.019.278.023 0 .096-.16.042-.292.183-.292.314 0 .171-.211.238-.75.238-.555 0-.75.064-.75.25a.25.25 0 0 1-.25.25.25.25 0 0 0-.25.25c0 .139-.148.25-.333.25-.183 0-.333.104-.333.232s-.113.275-.25.328a.41.41 0 0 0-.25.351c0 .14-.113.255-.25.255-.217 0-.25.667-.25 5 0 4.334-.034 5-.25 5-.167 0-.25.167-.25.5 0 .446-.055.5-.506.5-.295 0-.545.104-.601.25-.052.138-.282.25-.51.25-.274 0-.444.113-.502.334-.061.236-.227.333-.567.333-.316 0-.481.086-.481.25 0 .167-.167.25-.5.25-.333 0-.5.083-.5.25 0 .139-.148.25-.333.25-.186 0-.334.111-.334.25a.25.25 0 0 1-.25.25c-.139 0-.25.148-.25.333 0 .186-.111.334-.25.334-.166 0-.25.166-.25.5 0 .333-.083.5-.25.5a.25.25 0 0 0-.25.25c0 .137-.106.25-.236.25-.131 0-.285.218-.344.486-.059.267-.219.529-.356.582-.18.069-.235.294-.198.805l.051.71 1.542.048 1.541.048v.987H89.75c-.852 0-1.083-.053-1.083-.25 0-.194-.223-.25-1-.25-.778 0-1-.055-1-.25 0-.212-.436-.25-2.917-.25s-2.917.038-2.917.25c0 .195-.222.25-1.005.25-.74 0-1.03.066-1.101.25-.055.143-.303.25-.578.25-.318 0-.482.086-.482.25 0 .185-.193.25-.733.25-.497 0-.762.081-.828.25-.052.138-.267.251-.476.253-.641.003-1.13.191-1.13.433 0 .173-.272.231-1.083.231-.852 0-1.084.053-1.084.25 0 .165-.156.246-.458.237-.252-.007-.365-.051-.25-.097a.37.37 0 0 0 .208-.321c0-.151.18-.236.5-.236.334 0 .5-.083.5-.25 0-.166.167-.25.5-.25.334 0 .5-.083.5-.25 0-.167.168-.25.506-.25.295 0 .545-.104.601-.25.052-.137.2-.25.328-.25s.232-.112.232-.25c0-.146.152-.25.364-.25.219 0 .685-.333 1.167-.833.442-.458.878-.833.97-.833.091 0 .166-.113.166-.25a.25.25 0 0 1 .25-.25c.137 0 .25-.113.25-.25a.25.25 0 0 1 .25-.25c.137 0 .25-.113.25-.25a.25.25 0 0 1 .25-.25c.139 0 .25-.148.25-.334 0-.183.083-.333.185-.333.331 0 .976-.741.978-1.125.002-.221.106-.375.253-.375a.25.25 0 0 0 .25-.25.25.25 0 0 1 .25-.25c.175 0 .25-.176.25-.583 0-.408.076-.584.25-.584a.25.25 0 0 0 .25-.25c0-.137.113-.25.25-.25.165 0 .25-.164.25-.48 0-.341.098-.506.334-.568.22-.058.333-.227.333-.502 0-.228.112-.457.25-.51.146-.056.25-.306.25-.601 0-.338.083-.505.25-.505.167 0 .25-.167.25-.5 0-.334.083-.5.25-.5.189 0 .25-.204.25-.834 0-.629.061-.833.25-.833.184 0 .25-.192.25-.731 0-.59.064-.747.333-.817.243-.064.334-.228.334-.603 0-.462.052-.516.5-.516.333 0 .5-.083.5-.25 0-.166.166-.25.5-.25.444 0 .5-.055.5-.5 0-.333.083-.5.25-.5.196 0 .25-.231.25-1.083 0-.972.034-1.083.333-1.083.185 0 .333-.111.333-.25a.25.25 0 0 1 .25-.25c.189 0 .25-.204.25-.834 0-.629.061-.833.25-.833.167 0 .25-.167.25-.5 0-.333.084-.5.25-.5a.25.25 0 0 0 .25-.25.25.25 0 0 1 .25-.25.25.25 0 0 0 .25-.25c0-.161.164-.251.459-.253.454-.003 1.208-.613 1.208-.979 0-.108.312-.185.75-.185.556 0 .75-.064.75-.25 0-.189.204-.25.833-.25.63 0 .834.061.834.25m-49.785.584c.071.271.227.333.839.333.413 0 .777.077.808.171.031.093.356.217.722.275.366.057.726.206.799.329.073.124.205.225.292.225.209 0 .825.621.825.833 0 .092.075.167.166.167.207 0 .834.613.834.816 0 .081.112.192.25.244.159.061.25.317.25.703 0 .619.531 1.395.958 1.401.139.002.208.282.208.836 0 .63.061.833.25.833.167 0 .25.167.25.5 0 .445.056.5.5.5.334 0 .5.084.5.25 0 .175.176.25.584.25.581 0 .583.004.583.756 0 .517.079.785.25.851.143.054.25.303.25.578 0 .317.085.482.25.482.185 0 .25.195.25.755 0 .518.079.786.25.851.143.055.25.304.25.578 0 .318.085.483.25.483.167 0 .25.167.25.505 0 .295.104.545.25.601.137.053.25.282.25.51 0 .275.113.444.333.502.236.062.334.227.334.568 0 .316.085.48.25.48.137 0 .25.113.25.25 0 .138.112.25.25.25.174 0 .25.176.25.584 0 .407.075.583.25.583a.25.25 0 0 1 .25.25c0 .137.106.25.236.25.131 0 .287.225.347.5s.216.5.347.5c.13 0 .236.112.236.25 0 .137.113.25.25.25.138 0 .25.115.25.255a.41.41 0 0 0 .25.351c.138.053.25.201.25.328 0 .128.113.233.25.233a.25.25 0 0 1 .25.25c0 .137.113.25.25.25a.25.25 0 0 1 .25.25c0 .137.105.25.233.25.127 0 .275.112.328.25a.41.41 0 0 0 .351.25c.14 0 .255.106.255.236 0 .131.225.287.5.347s.5.216.5.347c0 .13.112.236.25.236.137 0 .25.113.25.25 0 .139.148.25.333.25.186 0 .334.111.334.25 0 .167.166.25.5.25.333 0 .5.084.5.25 0 .167.166.25.5.25.323 0 .5.085.5.24 0 .145.213.266.541.306.298.037-.068.08-.814.094-1.227.024-1.363-.005-1.442-.306-.07-.265-.228-.334-.77-.334-.495 0-.682-.068-.682-.25 0-.173-.174-.25-.566-.25-.348 0-.602-.095-.661-.25-.063-.165-.324-.25-.768-.25-.486 0-.672-.069-.672-.25 0-.196-.231-.25-1.083-.25s-1.083-.053-1.083-.25c0-.212-.426-.25-2.834-.25-2.407 0-2.833.038-2.833.25 0 .195-.221.25-.992.25-.671 0-1.035.075-1.125.232-.215.375-1.716.428-1.716.061 0-.161-.113-.293-.25-.293-.175 0-.25-.176-.25-.583v-.583H52.5c1.074 0 1.333-.049 1.333-.25a.25.25 0 0 1 .25-.25c.157 0 .25-.158.25-.422 0-.232-.112-.465-.25-.518-.137-.053-.25-.2-.25-.328s-.15-.232-.333-.232c-.259 0-.333-.111-.333-.5 0-.334-.084-.5-.25-.5a.253.253 0 0 1-.25-.256.412.412 0 0 0-.25-.351c-.138-.052-.25-.2-.25-.328s-.113-.232-.25-.232c-.157 0-.25-.158-.25-.422 0-.232-.113-.465-.25-.518-.138-.052-.25-.2-.25-.328 0-.167-.232-.232-.834-.232-.722 0-.833-.044-.833-.333 0-.257-.111-.334-.482-.334-.275 0-.524-.107-.578-.25-.053-.137-.286-.25-.518-.25-.264 0-.422-.093-.422-.25 0-.139-.148-.25-.333-.25-.284 0-.334-.111-.334-.75 0-.595-.06-.754-.291-.769-.278-.018-.278-.023 0-.096.413-.108.454-7.885.041-7.885-.166 0-.25-.166-.25-.5 0-.333-.083-.5-.25-.5-.137 0-.25-.083-.25-.185 0-.365-.753-.976-1.208-.978-.295-.002-.458-.092-.458-.253 0-.186-.195-.25-.75-.25-.746 0-.75-.003-.75-.584 0-.407.075-.583.25-.583.137 0 .25-.113.25-.25a.25.25 0 0 1 .25-.25c.137 0 .25-.113.25-.25a.25.25 0 0 1 .25-.25c.164 0 .25-.165.25-.481 0-.34.097-.506.333-.567.243-.064.333-.228.333-.603 0-.655 1.382-.818 1.549-.182M260.762 59c.174 0 .238.223.238.833 0 .63.061.834.25.834.181 0 .25.185.25.672 0 .443.085.704.25.767.15.058.25.309.25.63 0 .293.11.679.245.857.134.178.247.516.25.75.003.235.115.572.25.75.134.178.247.516.25.751.003.234.155.587.338.784.184.197.334.586.334.865 0 .34.082.507.25.507.139 0 .25.148.25.333 0 .323-.111.334-3.555.334h-3.554l.077-.542c.042-.298.179-.602.304-.675.132-.077.228-.411.228-.792 0-.451.073-.658.232-.658.278 0 .434-.358.434-.993 0-.257.113-.56.25-.674.142-.117.25-.48.25-.836 0-.404.089-.662.25-.724.144-.055.25-.304.25-.583 0-.28.107-.529.25-.584.166-.063.25-.325.25-.773s.085-.709.25-.773c.169-.064.257-.349.27-.869.01-.426.053-.643.095-.483.042.161.183.292.314.292m-189.429.505c0 .296.104.545.25.601.138.053.25.201.25.328 0 .128.113.233.25.233.167 0 .25.166.25.5 0 .333.084.5.25.5.155 0 .25.156.25.41 0 .729 1.44 1.105 1.619.423.048-.183.191-.333.317-.333.127 0 .231.15.231.333 0 .185-.111.333-.25.333-.2 0-.25.25-.25 1.25s.05 1.25.25 1.25c.139 0 .25.148.25.334 0 .27-.111.333-.583.333-.408 0-.584-.075-.584-.25a.25.25 0 0 0-.25-.25c-.167 0-.25-.167-.25-.505 0-.296-.104-.545-.25-.601-.137-.053-.25-.278-.25-.5 0-.223-.112-.448-.25-.5-.137-.053-.25-.201-.25-.328 0-.128-.112-.233-.25-.233-.166 0-.25-.166-.25-.5 0-.275-.081-.5-.181-.5-.1 0-.32-.168-.49-.375-.383-.467-.884-.242-.965.434-.029.248-.157.441-.291.441-.155 0-.239.177-.239.5 0 .334-.084.5-.25.5-.167 0-.25.167-.25.5 0 .334-.084.5-.25.5-.175 0-.25.176-.25.584 0 .407-.076.583-.25.583a.25.25 0 0 0-.25.25c0 .175-.176.25-.584.25-.605 0-.826-.371-.333-.56.192-.074.25-.389.25-1.351 0-1.005-.05-1.256-.25-1.256-.175 0-.25-.176-.25-.583s.075-.583.25-.583c.167 0 .25.167.25.505 0 .328.102.543.292.615.16.06.381.226.49.369.276.362.784.035.854-.548.03-.248.158-.441.292-.441.154 0 .239-.177.239-.5 0-.334.083-.5.25-.5.166 0 .25-.167.25-.5 0-.334.083-.5.25-.5.174 0 .25-.176.25-.584 0-.472.063-.583.333-.583.26 0 .333.111.333.505M57 60.167c0 .316-.085.5-.232.5-.282 0-.46-.408-.328-.75.174-.454.56-.281.56.25m5.333 0c0 .46-.046.5-.583.5-.648 0-.727-.176-.292-.653.465-.509.875-.437.875.153m18 .333c0 .092-.262.167-.583.167-.646 0-.732-.185-.292-.625.304-.304.875-.004.875.458m5.334 0c0 .092-.263.167-.584.167-.645 0-.732-.185-.291-.625.303-.304.875-.004.875.458m72.56-.083c-.055.142-.303.25-.578.25-.318 0-.482.085-.482.25 0 .139-.149.25-.335.25-.185 0-.464.15-.621.333-.437.511-.711.415-.711-.25v-.583h-4.167v9.91c0 9.628.01 9.916.323 10.084.344.184 3.14.24 3.58.071.234-.089.264-.758.264-5.815 0-4.926.035-5.728.25-5.811.184-.07.25-.362.25-1.106 0-.744.066-1.036.25-1.106.137-.053.25-.276.25-.495 0-.22.094-.401.208-.404.115-.002.396-.263.625-.578.262-.36.559-.576.797-.579.209-.003.424-.117.476-.255.066-.169.331-.25.828-.25.54 0 .733-.065.733-.25 0-.173.174-.25.565-.25.349 0 .602.096.662.25.065.172.333.25.851.25.56 0 .755.065.755.25 0 .138.112.25.25.25.156 0 .25.158.25.422 0 .232.112.465.25.518.217.083.25 1.026.25 7.085 0 8.558-.169 7.978 2.323 7.97 1.309-.005 1.661-.062 1.969-.319l.375-.312v-7.521c0-6.53-.033-7.532-.25-7.616-.17-.065-.25-.331-.25-.833s-.08-.768-.25-.833c-.138-.053-.25-.278-.25-.5 0-.223-.113-.448-.25-.5-.138-.053-.25-.201-.25-.328 0-.128-.113-.233-.25-.233a.249.249 0 0 1-.25-.246c0-.136-.185-.294-.41-.35-.226-.057-.497-.208-.604-.337-.107-.128-.41-.233-.673-.233-.316 0-.48-.086-.48-.25 0-.214-.454-.25-3.089-.25-2.591 0-3.104.04-3.184.25m18.106 0c-.114.137-.423.25-.687.25-.315 0-.479.085-.479.25 0 .168-.169.25-.516.25-.375 0-.539.09-.603.333-.048.183-.191.333-.317.333-.127 0-.231.113-.231.25a.25.25 0 0 1-.25.25.25.25 0 0 0-.25.25.25.25 0 0 1-.25.25.25.25 0 0 0-.25.25.25.25 0 0 1-.25.25.25.25 0 0 0-.25.25.25.25 0 0 1-.25.25c-.138 0-.25.139-.25.308 0 .169-.15.443-.333.609-.185.167-.334.513-.334.776 0 .31-.086.474-.25.474-.168 0-.25.168-.25.512 0 .281-.112.624-.25.762-.203.203-.25.793-.25 3.134 0 2.361.046 2.922.25 3.092.141.117.25.48.25.833 0 .345.105.713.233.819.128.106.281.453.341.771.059.317.198.579.309.58.11.002.371.377.579.834.208.456.452.83.542.83.089 0 .163.112.163.25 0 .137.112.25.25.25a.25.25 0 0 1 .25.25c0 .156.158.25.422.25.232 0 .465.112.518.25.052.137.238.25.411.25.174 0 .316.111.316.246 0 .136.206.297.458.359.252.061.606.212.787.336.505.346 7.132.324 7.481-.025.137-.137.368-.25.512-.25.144 0 .412-.15.595-.333.183-.183.408-.333.5-.333.092 0 .167-.113.167-.25 0-.147.152-.25.369-.25.429 0 1.791-1.423 1.795-1.875.001-.161.115-.292.252-.292.165 0 .25-.165.25-.482 0-.281.108-.524.258-.581.206-.079.247-.341.208-1.31l-.049-1.21h-4l-.052.541c-.033.336-.144.542-.292.542-.155 0-.239.176-.239.5 0 .338-.083.5-.256.5a.41.41 0 0 0-.351.25c-.052.137-.201.25-.329.25-.129 0-.363.15-.52.333-.158.185-.491.334-.748.334-.3 0-.463.087-.463.25 0 .196-.23.25-1.066.25-.793 0-1.09-.064-1.161-.25-.066-.172-.334-.25-.851-.25-.566 0-.755-.064-.755-.255 0-.149-.207-.295-.5-.354-.275-.055-.5-.203-.5-.329s-.113-.229-.25-.229c-.138 0-.25-.104-.25-.232s-.113-.276-.25-.328c-.138-.053-.25-.286-.25-.518 0-.232-.15-.572-.334-.755-.234-.235-.333-.556-.333-1.084v-.75h14.333V69.75c0-1.741-.041-2.083-.25-2.083-.189 0-.25-.204-.25-.834 0-.629-.061-.833-.25-.833-.154 0-.25-.157-.25-.412 0-.468-.623-1.755-.85-1.755-.082 0-.15-.112-.15-.25 0-.137-.15-.4-.333-.583-.183-.183-.333-.408-.333-.5 0-.092-.113-.167-.25-.167a.25.25 0 0 1-.25-.25.25.25 0 0 0-.248-.25c-.241 0-.644-.276-1.277-.875-.188-.177-.569-.291-.975-.291-.482 0-.667-.07-.667-.25 0-.213-.442-.25-2.98-.25-2.445 0-3.016.045-3.187.25m21.279-.006c-.14.141-.45.256-.689.256-.238 0-.477.112-.529.25-.053.137-.201.25-.328.25-.128 0-.233.15-.233.333 0 .183-.103.333-.229.333-.127 0-.323.113-.437.25-.344.415-.5.286-.5-.41 0-.889-.272-1.006-2.334-1.006-2.619 0-2.333-1.207-2.333 9.83v9.486l.394.425c.369.398.495.425 1.971.425 2.462 0 2.302.447 2.302-6.391 0-4.841.034-5.632.25-5.715.154-.059.25-.313.25-.661 0-.378.078-.566.236-.566.131 0 .287-.225.347-.5s.216-.5.347-.5c.13 0 .236-.113.236-.25a.25.25 0 0 1 .25-.25.25.25 0 0 0 .25-.25c0-.158.159-.25.433-.25.292 0 .46-.108.519-.333.08-.307.227-.334 1.812-.334 2.139 0 2.097.054 2.033-2.624l-.047-1.959-1.857-.047c-1.492-.038-1.909.003-2.114.208m9.388.006c0 .173-.175.25-.573.25-.316 0-.623.079-.683.177-.061.097-.29.245-.51.329-.22.084-.401.266-.401.406s-.112.254-.25.254a.251.251 0 0 0-.25.25c0 .139-.148.25-.333.25-.185 0-.333.111-.333.25a.25.25 0 0 1-.25.25.25.25 0 0 0-.25.25.25.25 0 0 1-.25.25.257.257 0 0 0-.25.262c0 .144-.113.375-.25.512a.94.94 0 0 0-.25.572c0 .176-.113.321-.25.321-.185 0-.25.192-.25.732 0 .497-.081.763-.25.828-.185.071-.25.363-.25 1.113 0 .682-.083 1.1-.25 1.267-.185.185-.25.639-.25 1.744 0 1.173.053 1.514.25 1.589.191.073.25.387.25 1.328 0 .984.05 1.232.25 1.232.185 0 .25.195.25.756 0 .517.078.785.25.851.137.052.25.2.25.328s.112.232.25.232c.14 0 .25.149.25.34 0 .418.649 1.327.948 1.327.12 0 .218.112.218.25 0 .137.105.25.233.25.127 0 .275.112.328.25.052.137.277.25.498.25.262 0 .433.116.49.333.062.239.227.333.585.333.288 0 .538.105.593.25.14.365 6.128.372 6.491.009.133-.133.433-.29.667-.349.233-.058.465-.212.515-.341a.396.396 0 0 1 .345-.235c.14 0 .255-.113.255-.25 0-.138.108-.25.24-.25.209 0 .209.059.001.458-.131.252-.239.852-.24 1.333 0 .667-.06.875-.251.875-.139 0-.25.148-.25.334 0 .183-.094.333-.21.333-.116 0-.285.163-.375.361a1.359 1.359 0 0 1-.498.542c-.183.099-.393.274-.467.389-.073.114-.382.208-.688.208-.305 0-.648.112-.762.25-.133.161-.502.25-1.032.25-.511 0-.92-.095-1.075-.25-.145-.145-.552-.25-.97-.25-.487 0-.751-.081-.816-.25-.053-.138-.174-.25-.268-.25-.26 0-.839-.633-.839-.917a.245.245 0 0 0-.239-.25c-.136 0-.261-.196-.291-.458l-.053-.458-1.667-.049c-2.459-.072-2.416-.095-2.416 1.307 0 .885.06 1.192.25 1.265.142.054.25.303.25.578 0 .281.089.482.213.482.118 0 .298.225.402.5.104.274.327.55.495.612.169.062.366.212.44.334a.494.494 0 0 0 .375.221c.133 0 .241.112.241.25 0 .164.165.25.483.25.274 0 .523.107.578.25.065.171.333.25.851.25.56 0 .755.064.755.25 0 .213.454.25 3.083.25 2.63 0 3.084-.037 3.084-.25 0-.189.203-.25.833-.25.63 0 .833-.061.833-.25 0-.167.167-.25.5-.25.316 0 .5-.086.5-.232 0-.128.197-.282.438-.342.529-.133 1.729-1.377 1.729-1.794 0-.164.112-.299.25-.299.167 0 .25-.167.25-.505 0-.296.104-.545.25-.601.171-.066.25-.334.25-.852 0-.527.088-.82.292-.968.272-.2.291-.897.291-10.519V60.75h-4.166l-.053.542c-.048.498-.531.822-.531.356 0-.356-.753-.976-1.19-.978-.242-.002-.484-.116-.537-.253-.08-.21-.583-.25-3.101-.25-2.56 0-3.005.037-3.005.25m122.074-.006c-.178.135-.533.247-.788.25-.255.003-.506.118-.559.256-.053.137-.282.25-.51.25-.275 0-.444.112-.502.333-.048.183-.191.333-.318.333s-.23.113-.23.25a.25.25 0 0 1-.25.25.25.25 0 0 0-.25.25c0 .139-.148.25-.334.25-.185 0-.333.111-.333.25a.25.25 0 0 1-.25.25c-.138 0-.25.105-.25.233 0 .127-.113.275-.25.328-.146.056-.25.305-.25.601 0 .338-.083.505-.25.505-.138 0-.25.141-.25.313a.775.775 0 0 1-.25.52c-.169.141-.25.518-.25 1.167s-.081 1.026-.25 1.167c-.199.164-.25.65-.25 2.359 0 1.758.046 2.169.25 2.247.189.073.25.378.25 1.25s.061 1.178.25 1.25c.137.053.25.197.25.321 0 .385.572 1.398.792 1.402.114.002.208.154.208.338 0 .184.2.503.444.709.244.205.595.542.78.749.185.206.473.375.639.375.167 0 .304.112.304.25 0 .148.153.25.376.25.207 0 .47.15.585.333.13.208.389.333.689.333.274 0 .522.108.577.25.081.212.639.25 3.606.25 2.967 0 3.525-.038 3.606-.25.055-.142.304-.25.578-.25.372 0 .483-.076.483-.333 0-.26.111-.333.505-.333.295 0 .545-.104.601-.25.053-.138.2-.25.328-.25s.232-.113.232-.25a.25.25 0 0 1 .25-.25.25.25 0 0 0 .25-.25c0-.138.075-.25.167-.25.256 0 .833-.636.833-.917 0-.138.115-.25.254-.25.15 0 .296-.207.355-.5.055-.275.203-.5.329-.5.149 0 .229-.197.229-.566 0-.348.096-.602.25-.661.186-.071.25-.368.25-1.164 0-.746.075-1.131.25-1.276.191-.159.25-.594.25-1.859 0-1.314-.051-1.671-.25-1.747-.186-.071-.25-.367-.25-1.15 0-.714-.081-1.134-.25-1.303-.137-.138-.25-.481-.25-.762 0-.344-.082-.512-.25-.512-.139 0-.25-.148-.25-.335 0-.184-.15-.463-.333-.62-.184-.157-.334-.382-.334-.499 0-.117-.112-.213-.25-.213a.25.25 0 0 1-.25-.25.25.25 0 0 0-.25-.25.25.25 0 0 1-.25-.25.25.25 0 0 0-.25-.25.25.25 0 0 1-.25-.25c0-.137-.095-.25-.213-.25-.117 0-.341-.15-.498-.333-.157-.183-.436-.333-.62-.333-.187 0-.335-.111-.335-.25 0-.186-.195-.25-.75-.25-.556 0-.75-.065-.75-.25 0-.367-6.109-.372-6.593-.006m22.426.006c-.114.137-.418.25-.675.25-.257 0-.58.112-.718.25-.137.137-.33.25-.428.25-.099 0-.179.15-.179.333 0 .222-.111.333-.333.333-.186 0-.334.111-.334.25 0 .689-.485.195-.532-.541l-.051-.792-2.042-.047-2.041-.047V80.66l.411.104c.795.199 3.422.006 3.592-.264.091-.144.159-2.555.161-5.688.002-4.628.04-5.469.252-5.645.153-.127.25-.492.25-.937 0-.538.066-.73.25-.73.139 0 .25-.148.25-.333 0-.184.111-.334.247-.334s.292-.181.348-.402a.71.71 0 0 1 .503-.503c.221-.056.402-.175.402-.265 0-.089.15-.163.334-.163.22 0 .333-.111.333-.328 0-.302.137-.331 1.792-.375l1.791-.047.047-2.292.046-2.291h-1.734c-1.338 0-1.782.057-1.942.25m-130.835.335c-.304.323-.349.464-.196.617.109.109.198.431.198.716s.11.664.244.841c.135.178.247.455.25.616.003.16.156.441.339.625.183.183.333.549.333.813 0 .263.113.573.25.687.138.114.25.415.25.669 0 .257.111.504.25.558.145.055.25.304.25.589 0 .271.113.606.25.743.138.138.25.483.25.767 0 .306.102.557.25.613.143.055.25.304.25.578 0 .266.072.483.161.483.088 0 .242.304.342.675.1.371.29.717.423.768.145.055.241.318.241.658 0 .391.077.565.25.565.174 0 .25.175.25.572 0 .314.112.684.25.821.137.138.25.481.25.762 0 .344.082.512.25.512.163 0 .25.163.25.468 0 .258.11.614.245.792.134.178.247.487.25.686.003.2.125.484.272.63.314.315.383 2.291.083 2.391-.101.033-.232.361-.291.728-.058.367-.208.706-.333.754-.124.048-.226.304-.226.569 0 .317-.085.482-.25.482a.25.25 0 0 0-.25.25c0 .207-.315.25-1.838.25h-1.839l.047 2.042.047 2.041 2.462.046c2.082.04 2.476.007 2.559-.208.054-.14.202-.254.33-.254s.232-.113.232-.25c0-.149.153-.25.376-.25.463 0 1.291-.846 1.291-1.319 0-.198.107-.348.25-.348.166 0 .25-.167.25-.5 0-.333.083-.5.25-.5.161 0 .25-.162.25-.46 0-.279.13-.542.333-.668.183-.114.333-.363.333-.552 0-.189.113-.456.25-.594.138-.137.25-.499.25-.803 0-.339.098-.591.25-.65.138-.053.25-.291.25-.53 0-.238.113-.546.25-.683.138-.138.25-.5.25-.804 0-.338.098-.591.25-.65.143-.054.25-.303.25-.58 0-.267.113-.579.25-.693.138-.114.25-.423.25-.687 0-.264.15-.629.334-.813.183-.183.335-.464.338-.625.003-.16.116-.437.25-.615.135-.178.245-.562.245-.854 0-.293.112-.625.25-.739.137-.114.25-.426.25-.692 0-.278.107-.526.25-.581.152-.058.25-.31.25-.641 0-.3.112-.639.25-.753.137-.114.25-.406.25-.65 0-.243.15-.571.333-.728.212-.181.334-.491.334-.852 0-.351.095-.604.25-.663.137-.053.25-.278.25-.5 0-.223.112-.448.25-.5.171-.066.25-.334.25-.851 0-.561.064-.756.25-.756.173 0 .25-.174.25-.565 0-.349.095-.602.25-.662.143-.054.25-.303.25-.58 0-.267.112-.579.25-.693.443-.367.298-.898-.338-1.24-.45-.243-.634-.271-.784-.122-.121.122-.782.196-1.745.196-1.439 0-1.55.024-1.55.333 0 .185-.111.333-.25.333-.185 0-.25.195-.25.75 0 .556-.065.75-.25.75-.183 0-.25.191-.25.713 0 .507-.096.796-.333.999-.184.157-.334.441-.334.632a.973.973 0 0 1-.25.597c-.145.145-.25.552-.25.97 0 .487-.081.751-.25.816-.137.053-.25.291-.25.53 0 .239-.112.546-.25.684-.137.137-.25.535-.25.884 0 .361-.108.724-.25.842-.137.114-.25.461-.25.77 0 .39-.077.563-.25.563-.185 0-.25.195-.25.75 0 .983-.426 1.491-.875 1.042a1.163 1.163 0 0 1-.291-.714c0-.232-.113-.465-.25-.517-.164-.063-.25-.323-.25-.75 0-.428-.087-.688-.25-.75-.143-.055-.25-.304-.25-.578 0-.266-.15-.633-.334-.816-.223-.223-.333-.556-.333-1.005 0-.444-.085-.705-.25-.768-.154-.059-.25-.313-.25-.661 0-.392-.077-.566-.25-.566-.185 0-.25-.194-.25-.75s-.065-.75-.25-.75c-.179 0-.25-.183-.25-.646 0-.371-.106-.735-.25-.854-.138-.114-.25-.455-.25-.759 0-.303-.106-.657-.236-.787-.131-.13-.262-.454-.292-.72l-.055-.484-1.831-.048c-1.007-.026-1.904-.12-1.992-.208-.258-.258-.51-.189-.929.258m52.71.023c-.34.141-.299 14.442.042 14.725.165.137.25.51.25 1.104 0 .685.058.896.25.896.137 0 .25.145.25.321a.89.89 0 0 0 .217.542c.12.121.268.352.328.512.061.16.226.292.366.292.14 0 .255.112.255.25 0 .137.075.25.167.25.092 0 .317.15.5.333.183.183.451.333.595.333.144 0 .379.117.522.26.33.33 6.81.295 7.016-.038.066-.107.32-.245.565-.307.244-.061.485-.217.535-.346a.396.396 0 0 1 .345-.235c.14 0 .255-.113.255-.25a.25.25 0 0 1 .25-.25c.167 0 .25.166.25.5 0 1.02 2.845 1.733 4 1.003.218-.137.25-1.437.25-10.039V60.75l-2.125-.047-2.125-.046v5.569c0 4.616-.042 5.651-.249 6.047-.137.262-.249.871-.25 1.352 0 .666-.06.875-.251.875-.137 0-.25.104-.25.232s-.112.276-.25.328c-.137.053-.251.192-.252.31-.001.117-.263.383-.583.59-.32.207-.581.451-.581.542 0 .09-.338.165-.75.165-.556 0-.75.064-.75.25 0 .188-.202.25-.816.25-.571 0-.844-.075-.911-.25-.064-.165-.325-.25-.768-.25-.504 0-.672-.067-.672-.266 0-.146-.15-.305-.333-.353-.184-.048-.334-.224-.334-.392a.555.555 0 0 0-.248-.445c-.213-.119-.254-1.162-.292-7.3l-.043-7.161-2.083-.031c-1.146-.017-2.177.008-2.292.056m82.458 9.802c0 11.502-.268 10.256 2.206 10.256 2.17 0 1.961 1.097 1.961-10.283v-9.883h-4.167v9.91M179.94 64.083c.065.17.331.25.828.25.54 0 .732.066.732.25 0 .167.167.25.5.25.389 0 .5.074.5.334 0 .185.111.333.25.333.137 0 .25.113.25.252 0 .138.15.38.333.537.184.157.334.458.334.67 0 .212.112.428.25.481.137.052.25.238.25.411 0 .302-.203.316-4.834.316-5.295 0-5.257.008-4.5-.955.184-.233.334-.526.334-.651s.073-.228.163-.228c.09 0 .211-.187.268-.416.058-.229.209-.417.337-.417.127 0 .232-.15.232-.333 0-.26.111-.334.5-.334.333 0 .5-.083.5-.25 0-.181.185-.25.672-.25.443 0 .704-.085.767-.25.06-.155.313-.25.667-.25.354 0 .607.095.667.25m31.227 0c0 .173.174.25.565.25.349 0 .602.096.662.25.052.138.285.25.517.25.311 0 .422.088.422.334 0 .185.111.333.25.333.138 0 .25.146.25.323 0 .178.069.366.153.418.801.496 1.334 6.916.597 7.199-.142.054-.25.303-.25.578 0 .317-.085.482-.25.482-.152 0-.25.155-.25.399 0 .219-.112.442-.25.495a.41.41 0 0 0-.25.351c0 .144-.145.255-.335.255-.184 0-.463.15-.62.333-.158.185-.492.334-.748.334-.301 0-.463.087-.463.25 0 .188-.202.25-.813.25-.52 0-.888-.091-1.021-.25-.114-.138-.46-.25-.77-.25s-.563-.085-.563-.19c0-.222-.779-.977-1.009-.977-.087 0-.158-.113-.158-.25a.25.25 0 0 0-.25-.25c-.166 0-.25-.167-.25-.5 0-.333-.083-.5-.25-.5-.196 0-.25-.229-.25-1.063 0-.741-.075-1.126-.25-1.27-.178-.148-.25-.539-.25-1.359 0-.87.061-1.175.25-1.248.183-.07.25-.359.25-1.078 0-.762.056-.982.25-.982.167 0 .25-.167.25-.5 0-.333.084-.5.25-.5a.25.25 0 0 0 .25-.25c0-.138.12-.25.266-.25.146 0 .305-.15.353-.333.049-.187.227-.334.406-.334.176 0 .362-.112.415-.25.059-.154.313-.25.661-.25.392 0 .566-.077.566-.25 0-.189.204-.25.833-.25.63 0 .834.061.834.25m121.893 0c.066.172.334.25.851.25.561 0 .756.065.756.25 0 .139.148.25.332.25.182 0 .425.15.54.334.114.183.302.333.418.333.115 0 .21.116.21.257 0 .352.679 1.243.948 1.243.155 0 .218.28.218.968 0 .593.095 1.094.245 1.292.345.456.35 2.502.005 2.634-.184.07-.25.361-.25 1.101 0 .765-.057 1.005-.241 1.005-.226 0-.616.549-.857 1.208-.059.161-.211.292-.338.292a.234.234 0 0 0-.23.237c0 .13-.225.286-.5.346-.275.061-.5.217-.5.347 0 .158-.189.237-.572.237-.314 0-.684.112-.821.25-.157.156-.566.25-1.095.25-.641 0-.846-.061-.846-.25 0-.167-.166-.25-.5-.25-.275 0-.5-.077-.5-.171 0-.093-.206-.26-.458-.371-.252-.111-.518-.297-.592-.413a.495.495 0 0 0-.375-.212.246.246 0 0 1-.241-.25.25.25 0 0 0-.25-.25c-.167 0-.25-.167-.25-.5 0-.333-.084-.5-.25-.5-.175 0-.25-.176-.25-.583 0-.408-.076-.584-.25-.584-.211 0-.25-.379-.25-2.416s.039-2.417.25-2.417c.166 0 .25-.167.25-.5 0-.333.083-.5.25-.5.166 0 .25-.167.25-.5 0-.333.083-.5.25-.5.137 0 .25-.113.25-.25 0-.138.119-.25.265-.25.146 0 .305-.15.353-.333.062-.236.227-.334.568-.334.316 0 .48-.085.48-.25 0-.181.186-.25.672-.25.444 0 .705-.085.768-.25.058-.152.311-.25.644-.25s.585.098.643.25M62.333 65.417c0 .555-.027.583-.583.583-.472 0-.583-.063-.583-.333 0-.186.111-.334.25-.334a.25.25 0 0 0 .25-.25c0-.139.148-.25.333-.25.27 0 .333.111.333.584m18 0c0 .555-.027.583-.583.583-.472 0-.583-.063-.583-.333 0-.186.111-.334.25-.334a.25.25 0 0 0 .25-.25c0-.139.148-.25.333-.25.27 0 .333.111.333.584m-9 3.75c0 .333.084.5.25.5.157 0 .25.158.25.422 0 .232.113.465.25.517.18.069.25.349.25.99 0 .726-.047.876-.25.798-.137-.053-.25-.201-.25-.328 0-.168-.232-.233-.833-.233-.815 0-.833.011-.833.5 0 .334-.084.5-.25.5-.197 0-.25-.231-.25-1.083s.053-1.083.25-1.083c.166 0 .25-.167.25-.5 0-.334.083-.5.25-.5.166 0 .25-.167.25-.5 0-.389.074-.5.333-.5s.333.111.333.5m-9 1.583c0 .472-.063.583-.333.583-.185 0-.333-.111-.333-.25 0-.137-.132-.258-.292-.269-.278-.018-.278-.023 0-.096.16-.041.292-.183.292-.314 0-.13.15-.237.333-.237.27 0 .333.111.333.583m5.167-.411c0 .094.169.24.375.322.287.116.307.154.083.162-.16.006-.291.123-.291.26 0 .139-.148.25-.334.25-.27 0-.333-.111-.333-.583 0-.407.075-.583.25-.583.137 0 .25.077.25.172m7.5.411c0 .472-.063.583-.333.583-.186 0-.334-.111-.334-.25 0-.137-.131-.258-.291-.269-.278-.018-.278-.023 0-.096.16-.041.291-.183.291-.314 0-.13.15-.237.334-.237.27 0 .333.111.333.583m5.333 0c0 .556-.027.583-.583.583-.556 0-.583-.027-.583-.583 0-.556.027-.583.583-.583.556 0 .583.027.583.583m-12.166 4.981c0 .214-.474.428-.959.433-.114.002-.208-.147-.208-.331 0-.27.111-.333.583-.333.386 0 .584.078.584.231m6.833.102c0 .349-.166.396-.792.229-.608-.163-.46-.562.209-.562.472 0 .583.063.583.333m-3.667 3.084c0 .137.132.258.292.269.278.018.278.023 0 .096-.16.041-.292.183-.292.314 0 .13-.15.237-.333.237-.27 0-.333-.111-.333-.583s.063-.583.333-.583c.185 0 .333.111.333.25M49.048 80c.058.219.005.333-.152.333-.132 0-.283.113-.336.25-.052.138-.2.25-.328.25-.164 0-.232.22-.232.75v.75h-.833c-.63 0-.834-.061-.834-.25a.25.25 0 0 0-.25-.25.25.25 0 0 1-.25-.25c0-.137.113-.25.25-.25a.25.25 0 0 0 .25-.25c0-.137.113-.25.25-.25a.25.25 0 0 0 .25-.25c0-.168.169-.25.516-.25.375 0 .539-.09.603-.333.06-.232.227-.333.548-.333.321 0 .488.101.548.333m45 0c.063.239.228.333.585.333.289 0 .538.105.594.25.053.138.286.25.518.25.389 0 .422.059.422.75v.75H94v-.75c0-.555-.065-.75-.25-.75a.25.25 0 0 1-.25-.25c0-.137-.131-.258-.292-.269-.277-.018-.277-.023 0-.096.161-.041.292-.183.292-.314 0-.361.449-.283.548.096" fill="#1c1c1c"/>
    <path d="M0 45.333V84.5h5V6.167H0v39.166" fill="#04346c"/>
  </g>
</svg>
