<svg xmlns:xlink="http://www.w3.org/1999/xlink" xmlns="http://www.w3.org/2000/svg" xml:space="preserve" xmlns:vectornator="http://vectornator.io" viewBox="0 0 144 56" clip-rule="evenodd" stroke-linecap="round" stroke-linejoin="round">
  <path d="M2.01 18.04h8.328l4.85 12.406L20.1 18.04h8.108l-12.21 29.37h-8.16l3.343-7.782L2.01 18.04Zm34.645-.493c-6.257 0-10.213 5.611-10.213 11.2 0 6.288 4.337 11.274 10.095 11.274 4.294 0 5.913-2.617 5.913-2.617v2.037h7.264v-21.4H42.45v1.945s-1.806-2.439-5.795-2.439Zm1.545 6.877c2.887 0 4.377 2.285 4.377 4.346 0 2.22-1.596 4.398-4.377 4.398-2.304 0-4.387-1.884-4.387-4.303 0-2.455 1.675-4.44 4.387-4.44Zm14.015 15.018V8.59h7.597v11.47s1.805-2.51 5.584-2.51c4.623 0 7.331 3.443 7.331 8.366V39.44h-7.54V27.768c0-1.665-.794-3.275-2.592-3.275-1.83 0-2.782 1.634-2.782 3.275v11.674h-7.598ZM85.68 17.549c-7.166 0-11.432 5.449-11.432 11.286 0 6.644 5.166 11.186 11.459 11.186 6.1 0 11.438-4.336 11.438-11.074 0-7.373-5.589-11.398-11.465-11.398Zm.069 6.938c2.53 0 4.282 2.108 4.282 4.356 0 1.918-1.632 4.283-4.282 4.283-2.429 0-4.252-1.948-4.252-4.304 0-2.268 1.516-4.335 4.252-4.335ZM109.8 17.55c-7.165 0-11.432 5.449-11.432 11.286 0 6.644 5.166 11.186 11.459 11.186 6.1 0 11.438-4.336 11.438-11.074 0-7.373-5.589-11.398-11.465-11.398Zm.069 6.938c2.531 0 4.282 2.108 4.282 4.356 0 1.918-1.632 4.283-4.283 4.283-2.428 0-4.251-1.948-4.251-4.304 0-2.268 1.516-4.335 4.251-4.335h.001Zm12.346 10.364a5.045 5.045 0 1 1 10.09 0 5.045 5.045 0 0 1-10.09 0Zm11.748-6.899h-9.082l8.06-19.363h9.048l-8.026 19.363Z" fill-rule="evenodd" fill="#5f01d1" vectornator:layerName="Untitled"/>
</svg>
